<svg version="1.1" xmlns="http://www.w3.org/2000/svg" xmlns:xlink="http://www.w3.org/1999/xlink" width="1848" height="891"><defs><clipPath id="qtcNLJqtzypG"><path fill="none" stroke="none" d=" M 0 0 L 1848 0 L 1848 891 L 0 891 L 0 0 Z"/></clipPath></defs><g transform="scale(1,1)" clip-path="url(#qtcNLJqtzypG)"><g><rect fill="rgb(255,255,255)" stroke="none" x="0" y="0" width="1848" height="891" fill-opacity="1"/><path fill="none" stroke="rgb(96,96,96)" paint-order="fill stroke markers" d=" M 41.5 0.5 L 41.5 891.5 M 41.5 0.5 L 41.5 891.5 M 97.5 0.5 L 97.5 891.5 M 153.5 0.5 L 153.5 891.5 M 210.5 0.5 L 210.5 891.5 M 266.5 0.5 L 266.5 891.5 M 322.5 0.5 L 322.5 891.5 M 378.5 0.5 L 378.5 891.5 M 435.5 0.5 L 435.5 891.5 M 491.5 0.5 L 491.5 891.5 M 547.5 0.5 L 547.5 891.5 M 604.5 0.5 L 604.5 891.5 M 660.5 0.5 L 660.5 891.5 M 716.5 0.5 L 716.5 891.5 M 772.5 0.5 L 772.5 891.5 M 829.5 0.5 L 829.5 891.5 M 885.5 0.5 L 885.5 891.5 M 941.5 0.5 L 941.5 891.5 M 997.5 0.5 L 997.5 891.5 M 1054.5 0.5 L 1054.5 891.5 M 1110.5 0.5 L 1110.5 891.5 M 1166.5 0.5 L 1166.5 891.5 M 1222.5 0.5 L 1222.5 891.5 M 1279.5 0.5 L 1279.5 891.5 M 1335.5 0.5 L 1335.5 891.5 M 1391.5 0.5 L 1391.5 891.5 M 1447.5 0.5 L 1447.5 891.5 M 1504.5 0.5 L 1504.5 891.5 M 1560.5 0.5 L 1560.5 891.5 M 1616.5 0.5 L 1616.5 891.5 M 1672.5 0.5 L 1672.5 891.5 M 1729.5 0.5 L 1729.5 891.5 M 1785.5 0.5 L 1785.5 891.5 M 1841.5 0.5 L 1841.5 891.5" stroke-opacity="1" stroke-linecap="round" stroke-linejoin="round" stroke-miterlimit="10"/><path fill="none" stroke="rgb(96,96,96)" paint-order="fill stroke markers" d="" stroke-opacity="0.23529411764705882" stroke-linecap="round" stroke-linejoin="round" stroke-miterlimit="10"/><path fill="none" stroke="rgb(96,96,96)" paint-order="fill stroke markers" d=" M 0.5 56.5 L 1848.5 56.5 M 0.5 56.5 L 1848.5 56.5 M 0.5 112.5 L 1848.5 112.5 M 0.5 168.5 L 1848.5 168.5 M 0.5 224.5 L 1848.5 224.5 M 0.5 281.5 L 1848.5 281.5 M 0.5 337.5 L 1848.5 337.5 M 0.5 393.5 L 1848.5 393.5 M 0.5 449.5 L 1848.5 449.5 M 0.5 506.5 L 1848.5 506.5 M 0.5 562.5 L 1848.5 562.5 M 0.5 618.5 L 1848.5 618.5 M 0.5 674.5 L 1848.5 674.5 M 0.5 731.5 L 1848.5 731.5 M 0.5 787.5 L 1848.5 787.5 M 0.5 843.5 L 1848.5 843.5" stroke-opacity="1" stroke-linecap="round" stroke-linejoin="round" stroke-miterlimit="10"/><path fill="none" stroke="rgb(96,96,96)" paint-order="fill stroke markers" d="" stroke-opacity="0.23529411764705882" stroke-linecap="round" stroke-linejoin="round" stroke-miterlimit="10"/><path fill="rgb(0,0,204)" stroke="none" paint-order="stroke fill markers" fill-rule="evenodd" d=" M 266.4999999999998 112.49999999999932 L 153.99999999999977 337.49999999999943 L 266.4999999999998 562.4999999999995 L 379 337.49999999999943 Z" fill-opacity="0.09803921568627451"/><path fill="rgb(0,0,204)" stroke="none" paint-order="stroke fill markers" fill-rule="evenodd" d=" M 604 224.99999999999943 L 604 562.4999999999995 L 1166.5 562.4999999999995 L 1166.5 224.99999999999943 Z" fill-opacity="0.09803921568627451"/><path fill="rgb(0,0,204)" stroke="none" paint-order="stroke fill markers" fill-rule="evenodd" d=" M 1391.5000000000002 562.4999999999995 L 1391.5000000000002 337.49999999999943 L 1504.0000000000002 224.99999999999943 L 1616.5000000000002 337.49999999999943 L 1616.5000000000002 562.4999999999995 Z" fill-opacity="0.09803921568627451"/><path fill="none" stroke="rgb(0,0,204)" paint-order="fill stroke markers" d=" M 266.4999999999998 112.49999999999932 L 153.99999999999977 337.49999999999943" stroke-opacity="0.8" stroke-linecap="round" stroke-linejoin="round" stroke-miterlimit="10" stroke-width="4"/><path fill="none" stroke="rgb(0,0,204)" paint-order="fill stroke markers" d=" M 153.99999999999977 337.49999999999943 L 266.4999999999998 562.4999999999995" stroke-opacity="0.8" stroke-linecap="round" stroke-linejoin="round" stroke-miterlimit="10" stroke-width="4"/><path fill="none" stroke="rgb(0,0,204)" paint-order="fill stroke markers" d=" M 266.4999999999998 562.4999999999995 L 379 337.49999999999943" stroke-opacity="0.8" stroke-linecap="round" stroke-linejoin="round" stroke-miterlimit="10" stroke-width="4"/><path fill="none" stroke="rgb(0,0,204)" paint-order="fill stroke markers" d=" M 379 337.49999999999943 L 266.4999999999998 112.49999999999932" stroke-opacity="0.8" stroke-linecap="round" stroke-linejoin="round" stroke-miterlimit="10" stroke-width="4"/><path fill="none" stroke="rgb(0,0,204)" paint-order="fill stroke markers" d=" M 604 224.99999999999943 L 604 562.4999999999995" stroke-opacity="0.8" stroke-linecap="round" stroke-linejoin="round" stroke-miterlimit="10" stroke-width="4"/><path fill="none" stroke="rgb(0,0,204)" paint-order="fill stroke markers" d=" M 604 562.4999999999995 L 1166.5 562.4999999999995" stroke-opacity="0.8" stroke-linecap="round" stroke-linejoin="round" stroke-miterlimit="10" stroke-width="4"/><path fill="none" stroke="rgb(0,0,204)" paint-order="fill stroke markers" d=" M 1166.5 562.4999999999995 L 1166.5 224.99999999999943" stroke-opacity="0.8" stroke-linecap="round" stroke-linejoin="round" stroke-miterlimit="10" stroke-width="4"/><path fill="none" stroke="rgb(0,0,204)" paint-order="fill stroke markers" d=" M 1166.5 224.99999999999943 L 604 224.99999999999943" stroke-opacity="0.8" stroke-linecap="round" stroke-linejoin="round" stroke-miterlimit="10" stroke-width="4"/><path fill="none" stroke="rgb(0,0,204)" paint-order="fill stroke markers" d=" M 1391.5000000000002 562.4999999999995 L 1391.5000000000002 337.49999999999943" stroke-opacity="0.8" stroke-linecap="round" stroke-linejoin="round" stroke-miterlimit="10" stroke-width="4"/><path fill="none" stroke="rgb(0,0,204)" paint-order="fill stroke markers" d=" M 1391.5000000000002 337.49999999999943 L 1504.0000000000002 224.99999999999943" stroke-opacity="0.8" stroke-linecap="round" stroke-linejoin="round" stroke-miterlimit="10" stroke-width="4"/><path fill="none" stroke="rgb(0,0,204)" paint-order="fill stroke markers" d=" M 1504.0000000000002 224.99999999999943 L 1616.5000000000002 337.49999999999943" stroke-opacity="0.8" stroke-linecap="round" stroke-linejoin="round" stroke-miterlimit="10" stroke-width="4"/><path fill="none" stroke="rgb(0,0,204)" paint-order="fill stroke markers" d=" M 1616.5000000000002 337.49999999999943 L 1616.5000000000002 562.4999999999995" stroke-opacity="0.8" stroke-linecap="round" stroke-linejoin="round" stroke-miterlimit="10" stroke-width="4"/><path fill="none" stroke="rgb(0,0,204)" paint-order="fill stroke markers" d=" M 1616.5000000000002 562.4999999999995 L 1391.5000000000002 562.4999999999995" stroke-opacity="0.8" stroke-linecap="round" stroke-linejoin="round" stroke-miterlimit="10" stroke-width="4"/><path fill="rgb(0,0,204)" stroke="none" paint-order="stroke fill markers" d=" M 271.4999999999998 112.49999999999932 C 271.4999999999998 115.26142374915328 269.2614237491537 117.49999999999932 266.4999999999998 117.49999999999932 C 263.7385762508458 117.49999999999932 261.4999999999998 115.26142374915328 261.4999999999998 112.49999999999932 C 261.4999999999998 109.73857625084536 263.7385762508458 107.49999999999932 266.4999999999998 107.49999999999932 C 269.2614237491537 107.49999999999932 271.4999999999998 109.73857625084536 271.4999999999998 112.49999999999932 Z" fill-opacity="1"/><path fill="none" stroke="rgb(0,0,0)" paint-order="fill stroke markers" d=" M 271.4999999999998 112.49999999999932 C 271.4999999999998 115.26142374915328 269.2614237491537 117.49999999999932 266.4999999999998 117.49999999999932 C 263.7385762508458 117.49999999999932 261.4999999999998 115.26142374915328 261.4999999999998 112.49999999999932 C 261.4999999999998 109.73857625084536 263.7385762508458 107.49999999999932 266.4999999999998 107.49999999999932 C 269.2614237491537 107.49999999999932 271.4999999999998 109.73857625084536 271.4999999999998 112.49999999999932 Z" stroke-opacity="1" stroke-linecap="round" stroke-linejoin="round" stroke-miterlimit="10"/><text fill="rgb(0,0,204)" stroke="none" font-family="geogebra-sans-serif, sans-serif" font-size="24px" font-style="normal" font-weight="normal" text-decoration="normal" x="270" y="102" text-anchor="start" dominant-baseline="alphabetic" fill-opacity="1">A</text><text fill="none" stroke="rgb(255,255,255)" font-family="geogebra-sans-serif, sans-serif" font-size="24px" font-style="normal" font-weight="normal" text-decoration="normal" x="270" y="102" text-anchor="start" dominant-baseline="alphabetic" stroke-opacity="1" stroke-linejoin="bevel" stroke-miterlimit="10" stroke-width="3">A</text><text fill="rgb(0,0,204)" stroke="none" font-family="geogebra-sans-serif, sans-serif" font-size="24px" font-style="normal" font-weight="normal" text-decoration="normal" x="270" y="102" text-anchor="start" dominant-baseline="alphabetic" fill-opacity="1">A</text><path fill="rgb(0,0,204)" stroke="none" paint-order="stroke fill markers" d=" M 158.99999999999977 337.49999999999943 C 158.99999999999977 340.2614237491534 156.76142374915375 342.49999999999943 153.99999999999977 342.49999999999943 C 151.2385762508458 342.49999999999943 148.99999999999977 340.2614237491534 148.99999999999977 337.49999999999943 C 148.99999999999977 334.7385762508455 151.2385762508458 332.49999999999943 153.99999999999977 332.49999999999943 C 156.76142374915375 332.49999999999943 158.99999999999977 334.7385762508455 158.99999999999977 337.49999999999943 Z" fill-opacity="1"/><path fill="none" stroke="rgb(0,0,0)" paint-order="fill stroke markers" d=" M 158.99999999999977 337.49999999999943 C 158.99999999999977 340.2614237491534 156.76142374915375 342.49999999999943 153.99999999999977 342.49999999999943 C 151.2385762508458 342.49999999999943 148.99999999999977 340.2614237491534 148.99999999999977 337.49999999999943 C 148.99999999999977 334.7385762508455 151.2385762508458 332.49999999999943 153.99999999999977 332.49999999999943 C 156.76142374915375 332.49999999999943 158.99999999999977 334.7385762508455 158.99999999999977 337.49999999999943 Z" stroke-opacity="1" stroke-linecap="round" stroke-linejoin="round" stroke-miterlimit="10"/><text fill="rgb(0,0,204)" stroke="none" font-family="geogebra-sans-serif, sans-serif" font-size="24px" font-style="normal" font-weight="normal" text-decoration="normal" x="139" y="326" text-anchor="start" dominant-baseline="alphabetic" fill-opacity="1">B</text><text fill="none" stroke="rgb(255,255,255)" font-family="geogebra-sans-serif, sans-serif" font-size="24px" font-style="normal" font-weight="normal" text-decoration="normal" x="139" y="326" text-anchor="start" dominant-baseline="alphabetic" stroke-opacity="1" stroke-linejoin="bevel" stroke-miterlimit="10" stroke-width="3">B</text><text fill="rgb(0,0,204)" stroke="none" font-family="geogebra-sans-serif, sans-serif" font-size="24px" font-style="normal" font-weight="normal" text-decoration="normal" x="139" y="326" text-anchor="start" dominant-baseline="alphabetic" fill-opacity="1">B</text><path fill="rgb(0,0,204)" stroke="none" paint-order="stroke fill markers" d=" M 271.4999999999998 562.4999999999995 C 271.4999999999998 565.2614237491536 269.2614237491537 567.4999999999995 266.4999999999998 567.4999999999995 C 263.7385762508458 567.4999999999995 261.4999999999998 565.2614237491536 261.4999999999998 562.4999999999995 C 261.4999999999998 559.7385762508455 263.7385762508458 557.4999999999995 266.4999999999998 557.4999999999995 C 269.2614237491537 557.4999999999995 271.4999999999998 559.7385762508455 271.4999999999998 562.4999999999995 Z" fill-opacity="1"/><path fill="none" stroke="rgb(0,0,0)" paint-order="fill stroke markers" d=" M 271.4999999999998 562.4999999999995 C 271.4999999999998 565.2614237491536 269.2614237491537 567.4999999999995 266.4999999999998 567.4999999999995 C 263.7385762508458 567.4999999999995 261.4999999999998 565.2614237491536 261.4999999999998 562.4999999999995 C 261.4999999999998 559.7385762508455 263.7385762508458 557.4999999999995 266.4999999999998 557.4999999999995 C 269.2614237491537 557.4999999999995 271.4999999999998 559.7385762508455 271.4999999999998 562.4999999999995 Z" stroke-opacity="1" stroke-linecap="round" stroke-linejoin="round" stroke-miterlimit="10"/><text fill="rgb(0,0,204)" stroke="none" font-family="geogebra-sans-serif, sans-serif" font-size="24px" font-style="normal" font-weight="normal" text-decoration="normal" x="279" y="560" text-anchor="start" dominant-baseline="alphabetic" fill-opacity="1">C</text><text fill="none" stroke="rgb(255,255,255)" font-family="geogebra-sans-serif, sans-serif" font-size="24px" font-style="normal" font-weight="normal" text-decoration="normal" x="279" y="560" text-anchor="start" dominant-baseline="alphabetic" stroke-opacity="1" stroke-linejoin="bevel" stroke-miterlimit="10" stroke-width="3">C</text><text fill="rgb(0,0,204)" stroke="none" font-family="geogebra-sans-serif, sans-serif" font-size="24px" font-style="normal" font-weight="normal" text-decoration="normal" x="279" y="560" text-anchor="start" dominant-baseline="alphabetic" fill-opacity="1">C</text><path fill="rgb(0,0,204)" stroke="none" paint-order="stroke fill markers" d=" M 384 337.49999999999943 C 384 340.2614237491534 381.76142374915395 342.49999999999943 379 342.49999999999943 C 376.23857625084605 342.49999999999943 374 340.2614237491534 374 337.49999999999943 C 374 334.7385762508455 376.23857625084605 332.49999999999943 379 332.49999999999943 C 381.76142374915395 332.49999999999943 384 334.7385762508455 384 337.49999999999943 Z" fill-opacity="1"/><path fill="none" stroke="rgb(0,0,0)" paint-order="fill stroke markers" d=" M 384 337.49999999999943 C 384 340.2614237491534 381.76142374915395 342.49999999999943 379 342.49999999999943 C 376.23857625084605 342.49999999999943 374 340.2614237491534 374 337.49999999999943 C 374 334.7385762508455 376.23857625084605 332.49999999999943 379 332.49999999999943 C 381.76142374915395 332.49999999999943 384 334.7385762508455 384 337.49999999999943 Z" stroke-opacity="1" stroke-linecap="round" stroke-linejoin="round" stroke-miterlimit="10"/><text fill="rgb(0,0,204)" stroke="none" font-family="geogebra-sans-serif, sans-serif" font-size="24px" font-style="normal" font-weight="normal" text-decoration="normal" x="383" y="327" text-anchor="start" dominant-baseline="alphabetic" fill-opacity="1">D</text><text fill="none" stroke="rgb(255,255,255)" font-family="geogebra-sans-serif, sans-serif" font-size="24px" font-style="normal" font-weight="normal" text-decoration="normal" x="383" y="327" text-anchor="start" dominant-baseline="alphabetic" stroke-opacity="1" stroke-linejoin="bevel" stroke-miterlimit="10" stroke-width="3">D</text><text fill="rgb(0,0,204)" stroke="none" font-family="geogebra-sans-serif, sans-serif" font-size="24px" font-style="normal" font-weight="normal" text-decoration="normal" x="383" y="327" text-anchor="start" dominant-baseline="alphabetic" fill-opacity="1">D</text><path fill="rgb(0,0,204)" stroke="none" paint-order="stroke fill markers" d=" M 609 224.99999999999943 C 609 227.7614237491534 606.761423749154 229.99999999999943 604 229.99999999999943 C 601.238576250846 229.99999999999943 599 227.7614237491534 599 224.99999999999943 C 599 222.23857625084545 601.238576250846 219.99999999999943 604 219.99999999999943 C 606.761423749154 219.99999999999943 609 222.23857625084545 609 224.99999999999943 Z" fill-opacity="1"/><path fill="none" stroke="rgb(0,0,0)" paint-order="fill stroke markers" d=" M 609 224.99999999999943 C 609 227.7614237491534 606.761423749154 229.99999999999943 604 229.99999999999943 C 601.238576250846 229.99999999999943 599 227.7614237491534 599 224.99999999999943 C 599 222.23857625084545 601.238576250846 219.99999999999943 604 219.99999999999943 C 606.761423749154 219.99999999999943 609 222.23857625084545 609 224.99999999999943 Z" stroke-opacity="1" stroke-linecap="round" stroke-linejoin="round" stroke-miterlimit="10"/><text fill="rgb(0,0,204)" stroke="none" font-family="geogebra-sans-serif, sans-serif" font-size="24px" font-style="normal" font-weight="normal" text-decoration="normal" x="608" y="215" text-anchor="start" dominant-baseline="alphabetic" fill-opacity="1">E</text><text fill="none" stroke="rgb(255,255,255)" font-family="geogebra-sans-serif, sans-serif" font-size="24px" font-style="normal" font-weight="normal" text-decoration="normal" x="608" y="215" text-anchor="start" dominant-baseline="alphabetic" stroke-opacity="1" stroke-linejoin="bevel" stroke-miterlimit="10" stroke-width="3">E</text><text fill="rgb(0,0,204)" stroke="none" font-family="geogebra-sans-serif, sans-serif" font-size="24px" font-style="normal" font-weight="normal" text-decoration="normal" x="608" y="215" text-anchor="start" dominant-baseline="alphabetic" fill-opacity="1">E</text><path fill="rgb(0,0,204)" stroke="none" paint-order="stroke fill markers" d=" M 609 562.4999999999995 C 609 565.2614237491536 606.761423749154 567.4999999999995 604 567.4999999999995 C 601.238576250846 567.4999999999995 599 565.2614237491536 599 562.4999999999995 C 599 559.7385762508455 601.238576250846 557.4999999999995 604 557.4999999999995 C 606.761423749154 557.4999999999995 609 559.7385762508455 609 562.4999999999995 Z" fill-opacity="1"/><path fill="none" stroke="rgb(0,0,0)" paint-order="fill stroke markers" d=" M 609 562.4999999999995 C 609 565.2614237491536 606.761423749154 567.4999999999995 604 567.4999999999995 C 601.238576250846 567.4999999999995 599 565.2614237491536 599 562.4999999999995 C 599 559.7385762508455 601.238576250846 557.4999999999995 604 557.4999999999995 C 606.761423749154 557.4999999999995 609 559.7385762508455 609 562.4999999999995 Z" stroke-opacity="1" stroke-linecap="round" stroke-linejoin="round" stroke-miterlimit="10"/><text fill="rgb(0,0,204)" stroke="none" font-family="geogebra-sans-serif, sans-serif" font-size="24px" font-style="normal" font-weight="normal" text-decoration="normal" x="582" y="553" text-anchor="start" dominant-baseline="alphabetic" fill-opacity="1">F</text><text fill="none" stroke="rgb(255,255,255)" font-family="geogebra-sans-serif, sans-serif" font-size="24px" font-style="normal" font-weight="normal" text-decoration="normal" x="582" y="553" text-anchor="start" dominant-baseline="alphabetic" stroke-opacity="1" stroke-linejoin="bevel" stroke-miterlimit="10" stroke-width="3">F</text><text fill="rgb(0,0,204)" stroke="none" font-family="geogebra-sans-serif, sans-serif" font-size="24px" font-style="normal" font-weight="normal" text-decoration="normal" x="582" y="553" text-anchor="start" dominant-baseline="alphabetic" fill-opacity="1">F</text><path fill="rgb(0,0,204)" stroke="none" paint-order="stroke fill markers" d=" M 1171.5 562.4999999999995 C 1171.5 565.2614237491536 1169.261423749154 567.4999999999995 1166.5 567.4999999999995 C 1163.738576250846 567.4999999999995 1161.5 565.2614237491536 1161.5 562.4999999999995 C 1161.5 559.7385762508455 1163.738576250846 557.4999999999995 1166.5 557.4999999999995 C 1169.261423749154 557.4999999999995 1171.5 559.7385762508455 1171.5 562.4999999999995 Z" fill-opacity="1"/><path fill="none" stroke="rgb(0,0,0)" paint-order="fill stroke markers" d=" M 1171.5 562.4999999999995 C 1171.5 565.2614237491536 1169.261423749154 567.4999999999995 1166.5 567.4999999999995 C 1163.738576250846 567.4999999999995 1161.5 565.2614237491536 1161.5 562.4999999999995 C 1161.5 559.7385762508455 1163.738576250846 557.4999999999995 1166.5 557.4999999999995 C 1169.261423749154 557.4999999999995 1171.5 559.7385762508455 1171.5 562.4999999999995 Z" stroke-opacity="1" stroke-linecap="round" stroke-linejoin="round" stroke-miterlimit="10"/><text fill="rgb(0,0,204)" stroke="none" font-family="geogebra-sans-serif, sans-serif" font-size="24px" font-style="normal" font-weight="normal" text-decoration="normal" x="1171" y="552" text-anchor="start" dominant-baseline="alphabetic" fill-opacity="1">G</text><text fill="none" stroke="rgb(255,255,255)" font-family="geogebra-sans-serif, sans-serif" font-size="24px" font-style="normal" font-weight="normal" text-decoration="normal" x="1171" y="552" text-anchor="start" dominant-baseline="alphabetic" stroke-opacity="1" stroke-linejoin="bevel" stroke-miterlimit="10" stroke-width="3">G</text><text fill="rgb(0,0,204)" stroke="none" font-family="geogebra-sans-serif, sans-serif" font-size="24px" font-style="normal" font-weight="normal" text-decoration="normal" x="1171" y="552" text-anchor="start" dominant-baseline="alphabetic" fill-opacity="1">G</text><path fill="rgb(0,0,204)" stroke="none" paint-order="stroke fill markers" d=" M 1171.5 224.99999999999943 C 1171.5 227.7614237491534 1169.261423749154 229.99999999999943 1166.5 229.99999999999943 C 1163.738576250846 229.99999999999943 1161.5 227.7614237491534 1161.5 224.99999999999943 C 1161.5 222.23857625084545 1163.738576250846 219.99999999999943 1166.5 219.99999999999943 C 1169.261423749154 219.99999999999943 1171.5 222.23857625084545 1171.5 224.99999999999943 Z" fill-opacity="1"/><path fill="none" stroke="rgb(0,0,0)" paint-order="fill stroke markers" d=" M 1171.5 224.99999999999943 C 1171.5 227.7614237491534 1169.261423749154 229.99999999999943 1166.5 229.99999999999943 C 1163.738576250846 229.99999999999943 1161.5 227.7614237491534 1161.5 224.99999999999943 C 1161.5 222.23857625084545 1163.738576250846 219.99999999999943 1166.5 219.99999999999943 C 1169.261423749154 219.99999999999943 1171.5 222.23857625084545 1171.5 224.99999999999943 Z" stroke-opacity="1" stroke-linecap="round" stroke-linejoin="round" stroke-miterlimit="10"/><text fill="rgb(0,0,204)" stroke="none" font-family="geogebra-sans-serif, sans-serif" font-size="24px" font-style="normal" font-weight="normal" text-decoration="normal" x="1171" y="215" text-anchor="start" dominant-baseline="alphabetic" fill-opacity="1">H</text><text fill="none" stroke="rgb(255,255,255)" font-family="geogebra-sans-serif, sans-serif" font-size="24px" font-style="normal" font-weight="normal" text-decoration="normal" x="1171" y="215" text-anchor="start" dominant-baseline="alphabetic" stroke-opacity="1" stroke-linejoin="bevel" stroke-miterlimit="10" stroke-width="3">H</text><text fill="rgb(0,0,204)" stroke="none" font-family="geogebra-sans-serif, sans-serif" font-size="24px" font-style="normal" font-weight="normal" text-decoration="normal" x="1171" y="215" text-anchor="start" dominant-baseline="alphabetic" fill-opacity="1">H</text><path fill="rgb(0,0,204)" stroke="none" paint-order="stroke fill markers" d=" M 1396.5000000000002 562.4999999999995 C 1396.5000000000002 565.2614237491536 1394.2614237491541 567.4999999999995 1391.5000000000002 567.4999999999995 C 1388.7385762508463 567.4999999999995 1386.5000000000002 565.2614237491536 1386.5000000000002 562.4999999999995 C 1386.5000000000002 559.7385762508455 1388.7385762508463 557.4999999999995 1391.5000000000002 557.4999999999995 C 1394.2614237491541 557.4999999999995 1396.5000000000002 559.7385762508455 1396.5000000000002 562.4999999999995 Z" fill-opacity="1"/><path fill="none" stroke="rgb(0,0,0)" paint-order="fill stroke markers" d=" M 1396.5000000000002 562.4999999999995 C 1396.5000000000002 565.2614237491536 1394.2614237491541 567.4999999999995 1391.5000000000002 567.4999999999995 C 1388.7385762508463 567.4999999999995 1386.5000000000002 565.2614237491536 1386.5000000000002 562.4999999999995 C 1386.5000000000002 559.7385762508455 1388.7385762508463 557.4999999999995 1391.5000000000002 557.4999999999995 C 1394.2614237491541 557.4999999999995 1396.5000000000002 559.7385762508455 1396.5000000000002 562.4999999999995 Z" stroke-opacity="1" stroke-linecap="round" stroke-linejoin="round" stroke-miterlimit="10"/><text fill="rgb(0,0,204)" stroke="none" font-family="geogebra-sans-serif, sans-serif" font-size="24px" font-style="normal" font-weight="normal" text-decoration="normal" x="1372" y="552" text-anchor="start" dominant-baseline="alphabetic" fill-opacity="1">I</text><text fill="none" stroke="rgb(255,255,255)" font-family="geogebra-sans-serif, sans-serif" font-size="24px" font-style="normal" font-weight="normal" text-decoration="normal" x="1372" y="552" text-anchor="start" dominant-baseline="alphabetic" stroke-opacity="1" stroke-linejoin="bevel" stroke-miterlimit="10" stroke-width="3">I</text><text fill="rgb(0,0,204)" stroke="none" font-family="geogebra-sans-serif, sans-serif" font-size="24px" font-style="normal" font-weight="normal" text-decoration="normal" x="1372" y="552" text-anchor="start" dominant-baseline="alphabetic" fill-opacity="1">I</text><path fill="rgb(0,0,204)" stroke="none" paint-order="stroke fill markers" d=" M 1396.5000000000002 337.49999999999943 C 1396.5000000000002 340.2614237491534 1394.2614237491541 342.49999999999943 1391.5000000000002 342.49999999999943 C 1388.7385762508463 342.49999999999943 1386.5000000000002 340.2614237491534 1386.5000000000002 337.49999999999943 C 1386.5000000000002 334.7385762508455 1388.7385762508463 332.49999999999943 1391.5000000000002 332.49999999999943 C 1394.2614237491541 332.49999999999943 1396.5000000000002 334.7385762508455 1396.5000000000002 337.49999999999943 Z" fill-opacity="1"/><path fill="none" stroke="rgb(0,0,0)" paint-order="fill stroke markers" d=" M 1396.5000000000002 337.49999999999943 C 1396.5000000000002 340.2614237491534 1394.2614237491541 342.49999999999943 1391.5000000000002 342.49999999999943 C 1388.7385762508463 342.49999999999943 1386.5000000000002 340.2614237491534 1386.5000000000002 337.49999999999943 C 1386.5000000000002 334.7385762508455 1388.7385762508463 332.49999999999943 1391.5000000000002 332.49999999999943 C 1394.2614237491541 332.49999999999943 1396.5000000000002 334.7385762508455 1396.5000000000002 337.49999999999943 Z" stroke-opacity="1" stroke-linecap="round" stroke-linejoin="round" stroke-miterlimit="10"/><text fill="rgb(0,0,204)" stroke="none" font-family="geogebra-sans-serif, sans-serif" font-size="24px" font-style="normal" font-weight="normal" text-decoration="normal" x="1382" y="324" text-anchor="start" dominant-baseline="alphabetic" fill-opacity="1">J</text><text fill="none" stroke="rgb(255,255,255)" font-family="geogebra-sans-serif, sans-serif" font-size="24px" font-style="normal" font-weight="normal" text-decoration="normal" x="1382" y="324" text-anchor="start" dominant-baseline="alphabetic" stroke-opacity="1" stroke-linejoin="bevel" stroke-miterlimit="10" stroke-width="3">J</text><text fill="rgb(0,0,204)" stroke="none" font-family="geogebra-sans-serif, sans-serif" font-size="24px" font-style="normal" font-weight="normal" text-decoration="normal" x="1382" y="324" text-anchor="start" dominant-baseline="alphabetic" fill-opacity="1">J</text><path fill="rgb(0,0,204)" stroke="none" paint-order="stroke fill markers" d=" M 1509.0000000000002 224.99999999999943 C 1509.0000000000002 227.7614237491534 1506.7614237491541 229.99999999999943 1504.0000000000002 229.99999999999943 C 1501.2385762508463 229.99999999999943 1499.0000000000002 227.7614237491534 1499.0000000000002 224.99999999999943 C 1499.0000000000002 222.23857625084545 1501.2385762508463 219.99999999999943 1504.0000000000002 219.99999999999943 C 1506.7614237491541 219.99999999999943 1509.0000000000002 222.23857625084545 1509.0000000000002 224.99999999999943 Z" fill-opacity="1"/><path fill="none" stroke="rgb(0,0,0)" paint-order="fill stroke markers" d=" M 1509.0000000000002 224.99999999999943 C 1509.0000000000002 227.7614237491534 1506.7614237491541 229.99999999999943 1504.0000000000002 229.99999999999943 C 1501.2385762508463 229.99999999999943 1499.0000000000002 227.7614237491534 1499.0000000000002 224.99999999999943 C 1499.0000000000002 222.23857625084545 1501.2385762508463 219.99999999999943 1504.0000000000002 219.99999999999943 C 1506.7614237491541 219.99999999999943 1509.0000000000002 222.23857625084545 1509.0000000000002 224.99999999999943 Z" stroke-opacity="1" stroke-linecap="round" stroke-linejoin="round" stroke-miterlimit="10"/><text fill="rgb(0,0,204)" stroke="none" font-family="geogebra-sans-serif, sans-serif" font-size="24px" font-style="normal" font-weight="normal" text-decoration="normal" x="1508" y="215" text-anchor="start" dominant-baseline="alphabetic" fill-opacity="1">K</text><text fill="none" stroke="rgb(255,255,255)" font-family="geogebra-sans-serif, sans-serif" font-size="24px" font-style="normal" font-weight="normal" text-decoration="normal" x="1508" y="215" text-anchor="start" dominant-baseline="alphabetic" stroke-opacity="1" stroke-linejoin="bevel" stroke-miterlimit="10" stroke-width="3">K</text><text fill="rgb(0,0,204)" stroke="none" font-family="geogebra-sans-serif, sans-serif" font-size="24px" font-style="normal" font-weight="normal" text-decoration="normal" x="1508" y="215" text-anchor="start" dominant-baseline="alphabetic" fill-opacity="1">K</text><path fill="rgb(0,0,204)" stroke="none" paint-order="stroke fill markers" d=" M 1621.5000000000002 337.49999999999943 C 1621.5000000000002 340.2614237491534 1619.2614237491541 342.49999999999943 1616.5000000000002 342.49999999999943 C 1613.7385762508463 342.49999999999943 1611.5000000000002 340.2614237491534 1611.5000000000002 337.49999999999943 C 1611.5000000000002 334.7385762508455 1613.7385762508463 332.49999999999943 1616.5000000000002 332.49999999999943 C 1619.2614237491541 332.49999999999943 1621.5000000000002 334.7385762508455 1621.5000000000002 337.49999999999943 Z" fill-opacity="1"/><path fill="none" stroke="rgb(0,0,0)" paint-order="fill stroke markers" d=" M 1621.5000000000002 337.49999999999943 C 1621.5000000000002 340.2614237491534 1619.2614237491541 342.49999999999943 1616.5000000000002 342.49999999999943 C 1613.7385762508463 342.49999999999943 1611.5000000000002 340.2614237491534 1611.5000000000002 337.49999999999943 C 1611.5000000000002 334.7385762508455 1613.7385762508463 332.49999999999943 1616.5000000000002 332.49999999999943 C 1619.2614237491541 332.49999999999943 1621.5000000000002 334.7385762508455 1621.5000000000002 337.49999999999943 Z" stroke-opacity="1" stroke-linecap="round" stroke-linejoin="round" stroke-miterlimit="10"/><text fill="rgb(0,0,204)" stroke="none" font-family="geogebra-sans-serif, sans-serif" font-size="24px" font-style="normal" font-weight="normal" text-decoration="normal" x="1630" y="325" text-anchor="start" dominant-baseline="alphabetic" fill-opacity="1">L</text><text fill="none" stroke="rgb(255,255,255)" font-family="geogebra-sans-serif, sans-serif" font-size="24px" font-style="normal" font-weight="normal" text-decoration="normal" x="1630" y="325" text-anchor="start" dominant-baseline="alphabetic" stroke-opacity="1" stroke-linejoin="bevel" stroke-miterlimit="10" stroke-width="3">L</text><text fill="rgb(0,0,204)" stroke="none" font-family="geogebra-sans-serif, sans-serif" font-size="24px" font-style="normal" font-weight="normal" text-decoration="normal" x="1630" y="325" text-anchor="start" dominant-baseline="alphabetic" fill-opacity="1">L</text><path fill="rgb(0,0,204)" stroke="none" paint-order="stroke fill markers" d=" M 1621.5000000000002 562.4999999999995 C 1621.5000000000002 565.2614237491536 1619.2614237491541 567.4999999999995 1616.5000000000002 567.4999999999995 C 1613.7385762508463 567.4999999999995 1611.5000000000002 565.2614237491536 1611.5000000000002 562.4999999999995 C 1611.5000000000002 559.7385762508455 1613.7385762508463 557.4999999999995 1616.5000000000002 557.4999999999995 C 1619.2614237491541 557.4999999999995 1621.5000000000002 559.7385762508455 1621.5000000000002 562.4999999999995 Z" fill-opacity="1"/><path fill="none" stroke="rgb(0,0,0)" paint-order="fill stroke markers" d=" M 1621.5000000000002 562.4999999999995 C 1621.5000000000002 565.2614237491536 1619.2614237491541 567.4999999999995 1616.5000000000002 567.4999999999995 C 1613.7385762508463 567.4999999999995 1611.5000000000002 565.2614237491536 1611.5000000000002 562.4999999999995 C 1611.5000000000002 559.7385762508455 1613.7385762508463 557.4999999999995 1616.5000000000002 557.4999999999995 C 1619.2614237491541 557.4999999999995 1621.5000000000002 559.7385762508455 1621.5000000000002 562.4999999999995 Z" stroke-opacity="1" stroke-linecap="round" stroke-linejoin="round" stroke-miterlimit="10"/><text fill="rgb(0,0,204)" stroke="none" font-family="geogebra-sans-serif, sans-serif" font-size="24px" font-style="normal" font-weight="normal" text-decoration="normal" x="1626" y="544" text-anchor="start" dominant-baseline="alphabetic" fill-opacity="1">M</text><text fill="none" stroke="rgb(255,255,255)" font-family="geogebra-sans-serif, sans-serif" font-size="24px" font-style="normal" font-weight="normal" text-decoration="normal" x="1626" y="544" text-anchor="start" dominant-baseline="alphabetic" stroke-opacity="1" stroke-linejoin="bevel" stroke-miterlimit="10" stroke-width="3">M</text><text fill="rgb(0,0,204)" stroke="none" font-family="geogebra-sans-serif, sans-serif" font-size="24px" font-style="normal" font-weight="normal" text-decoration="normal" x="1626" y="544" text-anchor="start" dominant-baseline="alphabetic" fill-opacity="1">M</text></g></g></svg>