<svg version="1.1" xmlns="http://www.w3.org/2000/svg" xmlns:xlink="http://www.w3.org/1999/xlink" width="1524" height="859"><defs><clipPath id="EIMQkMpMzHAa"><path fill="none" stroke="none" d=" M 0 0 L 1524 0 L 1524 859 L 0 859 L 0 0 Z"/></clipPath></defs><g transform="scale(1,1)" clip-path="url(#EIMQkMpMzHAa)"><g><rect fill="rgb(255,255,255)" stroke="none" x="0" y="0" width="1524" height="859" fill-opacity="1"/><path fill="rgb(127,0,255)" stroke="none" paint-order="stroke fill markers" fill-rule="evenodd" d=" M 353.99999999999983 192.00000000000006 L 373.99999999999983 191.00000000000003 L 365.0257221343543 213.9869308249397 Z" fill-opacity="1"/><path fill="none" stroke="rgb(127,0,255)" paint-order="fill stroke markers" d=" M 672.9999999999998 212.00000000000003 C 672.4477152501689 126.39586377622706 602.6041362237727 57.44771525016927 516.9999999999998 58.00000000000006 C 431.3958637762268 58.55228474983085 362.44771525016904 128.3958637762271 362.9999999999998 214.00000000000006" stroke-opacity="0.8" stroke-linecap="round" stroke-linejoin="round" stroke-miterlimit="10" stroke-width="4"/><path fill="none" stroke="rgb(127,0,255)" paint-order="fill stroke markers" d=" M 353.99999999999983 192.00000000000006 L 373.99999999999983 191.00000000000003" stroke-opacity="0.8" stroke-linecap="round" stroke-linejoin="round" stroke-miterlimit="10" stroke-width="2.5"/><path fill="none" stroke="rgb(127,0,255)" paint-order="fill stroke markers" d=" M 373.99999999999983 191.00000000000003 L 365.0257221343543 213.9869308249397" stroke-opacity="0.8" stroke-linecap="round" stroke-linejoin="round" stroke-miterlimit="10" stroke-width="2.5"/><path fill="none" stroke="rgb(127,0,255)" paint-order="fill stroke markers" d=" M 365.0257221343543 213.9869308249397 L 353.99999999999983 192.00000000000006" stroke-opacity="0.8" stroke-linecap="round" stroke-linejoin="round" stroke-miterlimit="10" stroke-width="2.5"/><path fill="rgb(97,97,97)" stroke="none" paint-order="stroke fill markers" d=" M 836.9621341370358 206.19208092543076 L 836.9814885729519 209.19201849241617 L 517.9887099123821 211.25003641925858 C 517.0222317139793 211.25627176247409 516.2438010760428 212.04481188921494 516.2500364192583 213.01129008761774 C 516.2562469503803 213.9739224115162 517.0385486537447 214.75000078008546 517.9997609549006 214.75000078008546 C 518.0036011561805 214.75000078008546 518.0074442131131 214.74998839283512 518.0112900876175 214.74996358074154 L 837.0040687481873 212.69194565389913 L 837.0234231841033 215.69188322088456 L 855.9923832514772 210.81940397902275 L 836.962134137036 206.19208092543076 Z" fill-opacity="0.8"/><path fill="rgb(97,97,97)" stroke="none" paint-order="stroke fill markers" d=" M 156.9718735777377 210.57911486452306 L 138.00291351036378 215.45159410638487 L 157.0331626248049 220.07891715997684 L 157.03316262480513 220.07891715997684 L 157.0138081888891 217.07897959299146 L 518.0112900876175 214.74996358074154 C 518.9777682860203 214.74372823752603 519.7561989239567 213.95518811078517 519.7499635807412 212.98870991238238 C 519.7437530496193 212.0260775884839 518.9614513462549 211.24999921991466 518.000239045099 211.24999921991466 C 517.9963988438191 211.24999921991466 517.9925557868864 211.250011607165 517.9887099123821 211.25003641925858 L 156.99122801365374 213.5790524315085 L 156.9718735777377 210.57911486452306 Z" fill-opacity="0.8"/><path fill="rgb(0,0,0)" stroke="none" paint-order="stroke fill markers" d=" M 522.9999999999998 213.00000000000006 C 522.9999999999998 215.76142374915403 520.7614237491538 218.00000000000006 517.9999999999998 218.00000000000006 C 515.2385762508458 218.00000000000006 512.9999999999998 215.76142374915403 512.9999999999998 213.00000000000006 C 512.9999999999998 210.23857625084608 515.2385762508458 208.00000000000006 517.9999999999998 208.00000000000006 C 520.7614237491538 208.00000000000006 522.9999999999998 210.23857625084608 522.9999999999998 213.00000000000006 Z" fill-opacity="1"/><path fill="none" stroke="rgb(0,0,0)" paint-order="fill stroke markers" d=" M 522.9999999999998 213.00000000000006 C 522.9999999999998 215.76142374915403 520.7614237491538 218.00000000000006 517.9999999999998 218.00000000000006 C 515.2385762508458 218.00000000000006 512.9999999999998 215.76142374915403 512.9999999999998 213.00000000000006 C 512.9999999999998 210.23857625084608 515.2385762508458 208.00000000000006 517.9999999999998 208.00000000000006 C 520.7614237491538 208.00000000000006 522.9999999999998 210.23857625084608 522.9999999999998 213.00000000000006 Z" stroke-opacity="1" stroke-linecap="round" stroke-linejoin="round" stroke-miterlimit="10"/><text fill="rgb(0,0,0)" stroke="none" font-family="geogebra-sans-serif, sans-serif" font-size="24px" font-style="normal" font-weight="normal" text-decoration="normal" x="522" y="203" text-anchor="start" dominant-baseline="alphabetic" fill-opacity="1">A</text><text fill="none" stroke="rgb(255,255,255)" font-family="geogebra-sans-serif, sans-serif" font-size="24px" font-style="normal" font-weight="normal" text-decoration="normal" x="522" y="203" text-anchor="start" dominant-baseline="alphabetic" stroke-opacity="1" stroke-linejoin="bevel" stroke-miterlimit="10" stroke-width="3">A</text><text fill="rgb(0,0,0)" stroke="none" font-family="geogebra-sans-serif, sans-serif" font-size="24px" font-style="normal" font-weight="normal" text-decoration="normal" x="522" y="203" text-anchor="start" dominant-baseline="alphabetic" fill-opacity="1">A</text><path fill="rgb(0,0,0)" stroke="none" paint-order="stroke fill markers" d=" M 677.9999999999997 212.00000000000003 C 677.9999999999997 214.761423749154 675.7614237491537 217.00000000000003 672.9999999999997 217.00000000000003 C 670.2385762508457 217.00000000000003 667.9999999999997 214.761423749154 667.9999999999997 212.00000000000003 C 667.9999999999997 209.23857625084605 670.2385762508457 207.00000000000003 672.9999999999997 207.00000000000003 C 675.7614237491537 207.00000000000003 677.9999999999997 209.23857625084605 677.9999999999997 212.00000000000003 Z" fill-opacity="1"/><path fill="none" stroke="rgb(0,0,0)" paint-order="fill stroke markers" d=" M 677.9999999999997 212.00000000000003 C 677.9999999999997 214.761423749154 675.7614237491537 217.00000000000003 672.9999999999997 217.00000000000003 C 670.2385762508457 217.00000000000003 667.9999999999997 214.761423749154 667.9999999999997 212.00000000000003 C 667.9999999999997 209.23857625084605 670.2385762508457 207.00000000000003 672.9999999999997 207.00000000000003 C 675.7614237491537 207.00000000000003 677.9999999999997 209.23857625084605 677.9999999999997 212.00000000000003 Z" stroke-opacity="1" stroke-linecap="round" stroke-linejoin="round" stroke-miterlimit="10"/><text fill="rgb(0,0,0)" stroke="none" font-family="geogebra-sans-serif, sans-serif" font-size="24px" font-style="normal" font-weight="normal" text-decoration="normal" x="677" y="202" text-anchor="start" dominant-baseline="alphabetic" fill-opacity="1">B</text><text fill="none" stroke="rgb(255,255,255)" font-family="geogebra-sans-serif, sans-serif" font-size="24px" font-style="normal" font-weight="normal" text-decoration="normal" x="677" y="202" text-anchor="start" dominant-baseline="alphabetic" stroke-opacity="1" stroke-linejoin="bevel" stroke-miterlimit="10" stroke-width="3">B</text><text fill="rgb(0,0,0)" stroke="none" font-family="geogebra-sans-serif, sans-serif" font-size="24px" font-style="normal" font-weight="normal" text-decoration="normal" x="677" y="202" text-anchor="start" dominant-baseline="alphabetic" fill-opacity="1">B</text><path fill="rgb(0,0,0)" stroke="none" paint-order="stroke fill markers" d=" M 261.9528011321068 214.68417547656716 C 261.9528011321068 217.44559922572114 259.71422488126075 219.68417547656716 256.9528011321068 219.68417547656716 C 254.19137738295282 219.68417547656716 251.9528011321068 217.44559922572114 251.9528011321068 214.68417547656716 C 251.9528011321068 211.92275172741319 254.19137738295282 209.68417547656716 256.9528011321068 209.68417547656716 C 259.71422488126075 209.68417547656716 261.9528011321068 211.92275172741319 261.9528011321068 214.68417547656716 Z" fill-opacity="1"/><path fill="none" stroke="rgb(0,0,0)" paint-order="fill stroke markers" d=" M 261.9528011321068 214.68417547656716 C 261.9528011321068 217.44559922572114 259.71422488126075 219.68417547656716 256.9528011321068 219.68417547656716 C 254.19137738295282 219.68417547656716 251.9528011321068 217.44559922572114 251.9528011321068 214.68417547656716 C 251.9528011321068 211.92275172741319 254.19137738295282 209.68417547656716 256.9528011321068 209.68417547656716 C 259.71422488126075 209.68417547656716 261.9528011321068 211.92275172741319 261.9528011321068 214.68417547656716 Z" stroke-opacity="1" stroke-linecap="round" stroke-linejoin="round" stroke-miterlimit="10"/><text fill="rgb(0,0,0)" stroke="none" font-family="geogebra-sans-serif, sans-serif" font-size="24px" font-style="normal" font-weight="normal" text-decoration="normal" x="261" y="205" text-anchor="start" dominant-baseline="alphabetic" fill-opacity="1">C</text><text fill="none" stroke="rgb(255,255,255)" font-family="geogebra-sans-serif, sans-serif" font-size="24px" font-style="normal" font-weight="normal" text-decoration="normal" x="261" y="205" text-anchor="start" dominant-baseline="alphabetic" stroke-opacity="1" stroke-linejoin="bevel" stroke-miterlimit="10" stroke-width="3">C</text><text fill="rgb(0,0,0)" stroke="none" font-family="geogebra-sans-serif, sans-serif" font-size="24px" font-style="normal" font-weight="normal" text-decoration="normal" x="261" y="205" text-anchor="start" dominant-baseline="alphabetic" fill-opacity="1">C</text><g transform="scale(27,27)"><g transform="translate(18.185185185185187,4.233110518518519)"><path fill="rgb(0,0,0)" stroke="none" paint-order="stroke fill markers" d=" M 0.294 -0.64 L 0.294 -0.079 Q 0.294 -0.049 0.306 -0.041 Q 0.323 -0.031 0.387 -0.031 L 0.419 -0.031 L 0.419 0 Q 0.384 -0.003 0.257 -0.003 Q 0.13 -0.003 0.095 0 L 0.095 -0.031 L 0.127 -0.031 Q 0.20400000000000001 -0.031 0.215 -0.049 L 0.216 -0.05 Q 0.22 -0.058 0.22 -0.079 L 0.22 -0.597 Q 0.168 -0.5710000000000001 0.089 -0.5710000000000001 L 0.089 -0.602 Q 0.209 -0.602 0.271 -0.666 Q 0.29 -0.666 0.293 -0.659 L 0.293 -0.659 L 0.293 -0.658 Q 0.294 -0.655 0.294 -0.64 Z"/></g><g transform="translate(18.685185185185187,4.233110518518519)"><path fill="rgb(0,0,0)" stroke="none" paint-order="stroke fill markers" d=" M 0.163 -0.457 L 0.28700000000000003 -0.377 Q 0.386 -0.435 0.386 -0.517 Q 0.386 -0.583 0.326 -0.62 Q 0.291 -0.641 0.249 -0.641 Q 0.177 -0.641 0.136 -0.596 L 0.136 -0.596 L 0.135 -0.595 Q 0.113 -0.5690000000000001 0.113 -0.538 Q 0.113 -0.49 0.163 -0.457 M 0.309 -0.362 L 0.309 -0.362 Q 0.386 -0.314 0.403 -0.296 Q 0.406 -0.294 0.40800000000000003 -0.291 Q 0.457 -0.23700000000000002 0.457 -0.168 Q 0.457 -0.079 0.383 -0.023 Q 0.325 0.022 0.249 0.022 Q 0.154 0.022 0.092 -0.037 Q 0.042 -0.085 0.042 -0.151 Q 0.042 -0.263 0.186 -0.335 Q 0.124 -0.377 0.113 -0.389 Q 0.069 -0.438 0.069 -0.499 Q 0.069 -0.579 0.136 -0.629 Q 0.186 -0.666 0.25 -0.666 Q 0.337 -0.666 0.391 -0.611 Q 0.43 -0.5710000000000001 0.43 -0.517 Q 0.43 -0.424 0.309 -0.362 M 0.209 -0.32 L 0.209 -0.32 Q 0.097 -0.25 0.092 -0.151 Q 0.092 -0.078 0.155 -0.035 Q 0.197 -0.006 0.25 -0.006 Q 0.328 -0.006 0.375 -0.055 Q 0.40700000000000003 -0.089 0.40700000000000003 -0.132 Q 0.40700000000000003 -0.19 0.343 -0.23500000000000001 Q 0.341 -0.23600000000000002 0.332 -0.242 L 0.209 -0.32 Z"/></g><g transform="translate(19.185185185185187,4.233110518518519)"><path fill="rgb(0,0,0)" stroke="none" paint-order="stroke fill markers" d=" M 0.46 -0.32 Q 0.46 -0.17400000000000002 0.423 -0.094 Q 0.364 0.018000000000000002 0.249 0.022 Q 0.158 0.022 0.10300000000000001 -0.05 Q 0.092 -0.063 0.084 -0.079 Q 0.039 -0.162 0.039 -0.32 Q 0.039 -0.467 0.076 -0.547 Q 0.126 -0.659 0.23800000000000002 -0.666 L 0.25 -0.666 Q 0.339 -0.666 0.395 -0.595 L 0.395 -0.594 Q 0.40900000000000003 -0.5760000000000001 0.42 -0.554 Q 0.46 -0.46900000000000003 0.46 -0.32 M 0.249 0 L 0.249 0 Q 0.312 0 0.34600000000000003 -0.061 Q 0.36 -0.088 0.366 -0.125 Q 0.377 -0.189 0.377 -0.332 Q 0.377 -0.47100000000000003 0.367 -0.527 Q 0.34900000000000003 -0.622 0.275 -0.641 Q 0.262 -0.644 0.249 -0.644 Q 0.179 -0.644 0.147 -0.5740000000000001 Q 0.136 -0.55 0.13 -0.516 Q 0.122 -0.462 0.122 -0.332 Q 0.122 -0.181 0.133 -0.121 Q 0.151 -0.025 0.221 -0.004 Q 0.23500000000000001 0 0.249 0 Z"/></g><g transform="translate(19.685185185185187,3.820218518518519) scale(0.7,0.7)"><path fill="rgb(0,0,0)" stroke="none" paint-order="stroke fill markers" d=" M 0.46900000000000003 -0.273 Q 0.46900000000000003 -0.167 0.388 -0.08 Q 0.311 0.004 0.215 0.01 Q 0.20800000000000002 0.011 0.201 0.011 Q 0.114 0.011 0.069 -0.058 Q 0.041 -0.101 0.041 -0.158 Q 0.041 -0.261 0.121 -0.34900000000000003 Q 0.197 -0.433 0.293 -0.441 Q 0.301 -0.442 0.309 -0.442 Q 0.395 -0.442 0.44 -0.375 Q 0.46900000000000003 -0.332 0.46900000000000003 -0.273 M 0.202 -0.011 L 0.202 -0.011 Q 0.261 -0.011 0.313 -0.069 Q 0.327 -0.085 0.338 -0.10300000000000001 Q 0.38 -0.17500000000000002 0.394 -0.28200000000000003 Q 0.395 -0.29 0.395 -0.298 L 0.395 -0.299 L 0.396 -0.3 L 0.396 -0.312 Q 0.396 -0.386 0.34700000000000003 -0.41100000000000003 Q 0.33 -0.42 0.308 -0.42 Q 0.247 -0.42 0.193 -0.356 Q 0.186 -0.34700000000000003 0.18 -0.338 Q 0.176 -0.333 0.17300000000000001 -0.328 Q 0.137 -0.27 0.12 -0.166 Q 0.115 -0.138 0.115 -0.12 Q 0.115 -0.037 0.17300000000000001 -0.016 Q 0.187 -0.011 0.202 -0.011 Z"/></g></g></g></g></svg>