<svg version="1.1" xmlns="http://www.w3.org/2000/svg" xmlns:xlink="http://www.w3.org/1999/xlink" width="1464" height="692"><defs><clipPath id="KuRLfBWSMJZy"><path fill="none" stroke="none" d=" M 0 0 L 1464 0 L 1464 692 L 0 692 L 0 0 Z"/></clipPath></defs><g transform="scale(1,1)" clip-path="url(#KuRLfBWSMJZy)"><g><rect fill="rgb(255,255,255)" stroke="none" x="0" y="0" width="1464" height="692" fill-opacity="1"/><path fill="rgb(21,101,192)" stroke="none" paint-order="stroke fill markers" fill-rule="evenodd" d=" M 300.89311644975163 511.0756962338113 L 596.5456981831128 29.03344340767893 L 852.2770559045532 185.8820094768291 L 556.6244741711921 667.9242623029614 Z" fill-opacity="0.00784313725490196"/><path fill="none" stroke="rgb(97,97,97)" paint-order="fill stroke markers" d=" M 462.00000000000006 223.00000000000006 C 462.00000000000006 272.7056274847714 421.70562748477147 313 372.0000000000001 313 C 322.29437251522876 313 282.00000000000017 272.7056274847714 282.00000000000017 223.00000000000006 C 282.00000000000017 173.2943725152287 322.29437251522876 133.0000000000001 372.0000000000001 133.0000000000001 C 421.70562748477147 133.0000000000001 462.00000000000006 173.2943725152287 462.00000000000006 223.00000000000006 Z" stroke-opacity="0.8" stroke-linecap="round" stroke-linejoin="round" stroke-miterlimit="10" stroke-width="4"/><path fill="none" stroke="rgb(97,97,97)" paint-order="fill stroke markers" d=" M 871.170172354305 473.9577057106404 C 871.170172354305 523.6633331954118 830.8757998390763 563.9577057106405 781.1701723543049 563.9577057106405 C 731.4645448695335 563.9577057106405 691.1701723543048 523.6633331954118 691.1701723543048 473.9577057106404 C 691.1701723543048 424.25207822586896 731.4645448695335 383.9577057106403 781.1701723543049 383.9577057106403 C 830.8757998390763 383.9577057106403 871.170172354305 424.25207822586896 871.170172354305 473.9577057106404 Z" stroke-opacity="0.8" stroke-linecap="round" stroke-linejoin="round" stroke-miterlimit="10" stroke-width="4"/><path fill="none" stroke="rgb(21,101,192)" paint-order="fill stroke markers" d=" M 300.89311644975163 511.0756962338113 L 596.5456981831128 29.03344340767893" stroke-opacity="0.8" stroke-linecap="round" stroke-linejoin="round" stroke-miterlimit="10" stroke-width="4.5"/><path fill="none" stroke="rgb(21,101,192)" paint-order="fill stroke markers" d=" M 596.5456981831128 29.03344340767893 L 852.2770559045532 185.8820094768291" stroke-opacity="0.8" stroke-linecap="round" stroke-linejoin="round" stroke-miterlimit="10" stroke-width="4.5"/><text fill="rgb(21,101,192)" stroke="none" font-family="geogebra-sans-serif, sans-serif" font-size="32px" font-style="normal" font-weight="normal" text-decoration="normal" x="696" y="338" text-anchor="start" dominant-baseline="alphabetic" fill-opacity="1">11.3</text><text fill="none" stroke="rgb(255,255,255)" font-family="geogebra-sans-serif, sans-serif" font-size="32px" font-style="normal" font-weight="normal" text-decoration="normal" x="696" y="338" text-anchor="start" dominant-baseline="alphabetic" stroke-opacity="1" stroke-linejoin="bevel" stroke-miterlimit="10" stroke-width="3">11.3</text><text fill="rgb(21,101,192)" stroke="none" font-family="geogebra-sans-serif, sans-serif" font-size="32px" font-style="normal" font-weight="normal" text-decoration="normal" x="696" y="338" text-anchor="start" dominant-baseline="alphabetic" fill-opacity="1">11.3</text><path fill="none" stroke="rgb(21,101,192)" paint-order="fill stroke markers" d=" M 852.2770559045532 185.8820094768291 L 556.6244741711921 667.9242623029614" stroke-opacity="0.8" stroke-linecap="round" stroke-linejoin="round" stroke-miterlimit="10" stroke-width="4.5"/><text fill="rgb(21,101,192)" stroke="none" font-family="geogebra-sans-serif, sans-serif" font-size="32px" font-style="normal" font-weight="normal" text-decoration="normal" x="430" y="585" text-anchor="start" dominant-baseline="alphabetic" fill-opacity="1">6</text><text fill="none" stroke="rgb(255,255,255)" font-family="geogebra-sans-serif, sans-serif" font-size="32px" font-style="normal" font-weight="normal" text-decoration="normal" x="430" y="585" text-anchor="start" dominant-baseline="alphabetic" stroke-opacity="1" stroke-linejoin="bevel" stroke-miterlimit="10" stroke-width="3">6</text><text fill="rgb(21,101,192)" stroke="none" font-family="geogebra-sans-serif, sans-serif" font-size="32px" font-style="normal" font-weight="normal" text-decoration="normal" x="430" y="585" text-anchor="start" dominant-baseline="alphabetic" fill-opacity="1">6</text><path fill="none" stroke="rgb(21,101,192)" paint-order="fill stroke markers" d=" M 556.6244741711921 667.9242623029614 L 300.89311644975163 511.0756962338113" stroke-opacity="0.8" stroke-linecap="round" stroke-linejoin="round" stroke-miterlimit="10" stroke-width="4.5"/><path fill="rgb(21,101,192)" stroke="none" paint-order="stroke fill markers" d=" M 377.0000000000001 223.00000000000006 C 377.0000000000001 225.76142374915403 374.76142374915406 228.00000000000006 372.0000000000001 228.00000000000006 C 369.23857625084617 228.00000000000006 367.0000000000001 225.76142374915403 367.0000000000001 223.00000000000006 C 367.0000000000001 220.23857625084608 369.23857625084617 218.00000000000006 372.0000000000001 218.00000000000006 C 374.76142374915406 218.00000000000006 377.0000000000001 220.23857625084608 377.0000000000001 223.00000000000006 Z" fill-opacity="1"/><path fill="none" stroke="rgb(0,0,0)" paint-order="fill stroke markers" d=" M 377.0000000000001 223.00000000000006 C 377.0000000000001 225.76142374915403 374.76142374915406 228.00000000000006 372.0000000000001 228.00000000000006 C 369.23857625084617 228.00000000000006 367.0000000000001 225.76142374915403 367.0000000000001 223.00000000000006 C 367.0000000000001 220.23857625084608 369.23857625084617 218.00000000000006 372.0000000000001 218.00000000000006 C 374.76142374915406 218.00000000000006 377.0000000000001 220.23857625084608 377.0000000000001 223.00000000000006 Z" stroke-opacity="1" stroke-linecap="round" stroke-linejoin="round" stroke-miterlimit="10"/><path fill="rgb(97,97,97)" stroke="none" paint-order="stroke fill markers" d=" M 600.5456981831128 29.03344340767893 C 600.5456981831128 31.242582407002104 598.754837182436 33.03344340767893 596.5456981831128 33.03344340767893 C 594.3365591837896 33.03344340767893 592.5456981831128 31.242582407002104 592.5456981831128 29.03344340767893 C 592.5456981831128 26.824304408355758 594.3365591837896 25.03344340767893 596.5456981831128 25.03344340767893 C 598.754837182436 25.03344340767893 600.5456981831128 26.824304408355758 600.5456981831128 29.03344340767893 Z" fill-opacity="1"/><path fill="none" stroke="rgb(0,0,0)" paint-order="fill stroke markers" d=" M 600.5456981831128 29.03344340767893 C 600.5456981831128 31.242582407002104 598.754837182436 33.03344340767893 596.5456981831128 33.03344340767893 C 594.3365591837896 33.03344340767893 592.5456981831128 31.242582407002104 592.5456981831128 29.03344340767893 C 592.5456981831128 26.824304408355758 594.3365591837896 25.03344340767893 596.5456981831128 25.03344340767893 C 598.754837182436 25.03344340767893 600.5456981831128 26.824304408355758 600.5456981831128 29.03344340767893 Z" stroke-opacity="1" stroke-linecap="round" stroke-linejoin="round" stroke-miterlimit="10"/><text fill="rgb(97,97,97)" stroke="none" font-family="geogebra-sans-serif, sans-serif" font-size="32px" font-style="normal" font-weight="normal" text-decoration="normal" x="601" y="40" text-anchor="start" dominant-baseline="alphabetic" fill-opacity="1">C</text><text fill="none" stroke="rgb(255,255,255)" font-family="geogebra-sans-serif, sans-serif" font-size="32px" font-style="normal" font-weight="normal" text-decoration="normal" x="601" y="40" text-anchor="start" dominant-baseline="alphabetic" stroke-opacity="1" stroke-linejoin="bevel" stroke-miterlimit="10" stroke-width="3">C</text><text fill="rgb(97,97,97)" stroke="none" font-family="geogebra-sans-serif, sans-serif" font-size="32px" font-style="normal" font-weight="normal" text-decoration="normal" x="601" y="40" text-anchor="start" dominant-baseline="alphabetic" fill-opacity="1">C</text><path fill="rgb(97,97,97)" stroke="none" paint-order="stroke fill markers" d=" M 304.89311644975163 511.0756962338113 C 304.89311644975163 513.2848352331345 303.1022554490748 515.0756962338113 300.89311644975163 515.0756962338113 C 298.6839774504285 515.0756962338113 296.89311644975163 513.2848352331345 296.89311644975163 511.0756962338113 C 296.89311644975163 508.86655723448814 298.6839774504285 507.0756962338113 300.89311644975163 507.0756962338113 C 303.1022554490748 507.0756962338113 304.89311644975163 508.86655723448814 304.89311644975163 511.0756962338113 Z" fill-opacity="1"/><path fill="none" stroke="rgb(0,0,0)" paint-order="fill stroke markers" d=" M 304.89311644975163 511.0756962338113 C 304.89311644975163 513.2848352331345 303.1022554490748 515.0756962338113 300.89311644975163 515.0756962338113 C 298.6839774504285 515.0756962338113 296.89311644975163 513.2848352331345 296.89311644975163 511.0756962338113 C 296.89311644975163 508.86655723448814 298.6839774504285 507.0756962338113 300.89311644975163 507.0756962338113 C 303.1022554490748 507.0756962338113 304.89311644975163 508.86655723448814 304.89311644975163 511.0756962338113 Z" stroke-opacity="1" stroke-linecap="round" stroke-linejoin="round" stroke-miterlimit="10"/><text fill="rgb(97,97,97)" stroke="none" font-family="geogebra-sans-serif, sans-serif" font-size="32px" font-style="normal" font-weight="normal" text-decoration="normal" x="277" y="510" text-anchor="start" dominant-baseline="alphabetic" fill-opacity="1">D</text><text fill="none" stroke="rgb(255,255,255)" font-family="geogebra-sans-serif, sans-serif" font-size="32px" font-style="normal" font-weight="normal" text-decoration="normal" x="277" y="510" text-anchor="start" dominant-baseline="alphabetic" stroke-opacity="1" stroke-linejoin="bevel" stroke-miterlimit="10" stroke-width="3">D</text><text fill="rgb(97,97,97)" stroke="none" font-family="geogebra-sans-serif, sans-serif" font-size="32px" font-style="normal" font-weight="normal" text-decoration="normal" x="277" y="510" text-anchor="start" dominant-baseline="alphabetic" fill-opacity="1">D</text><path fill="rgb(97,97,97)" stroke="none" paint-order="stroke fill markers" d=" M 560.6244741711921 667.9242623029614 C 560.6244741711921 670.1334013022846 558.8336131705153 671.9242623029614 556.6244741711921 671.9242623029614 C 554.415335171869 671.9242623029614 552.6244741711921 670.1334013022846 552.6244741711921 667.9242623029614 C 552.6244741711921 665.7151233036383 554.415335171869 663.9242623029614 556.6244741711921 663.9242623029614 C 558.8336131705153 663.9242623029614 560.6244741711921 665.7151233036383 560.6244741711921 667.9242623029614 Z" fill-opacity="1"/><path fill="none" stroke="rgb(0,0,0)" paint-order="fill stroke markers" d=" M 560.6244741711921 667.9242623029614 C 560.6244741711921 670.1334013022846 558.8336131705153 671.9242623029614 556.6244741711921 671.9242623029614 C 554.415335171869 671.9242623029614 552.6244741711921 670.1334013022846 552.6244741711921 667.9242623029614 C 552.6244741711921 665.7151233036383 554.415335171869 663.9242623029614 556.6244741711921 663.9242623029614 C 558.8336131705153 663.9242623029614 560.6244741711921 665.7151233036383 560.6244741711921 667.9242623029614 Z" stroke-opacity="1" stroke-linecap="round" stroke-linejoin="round" stroke-miterlimit="10"/><text fill="rgb(97,97,97)" stroke="none" font-family="geogebra-sans-serif, sans-serif" font-size="32px" font-style="normal" font-weight="normal" text-decoration="normal" x="569" y="680" text-anchor="start" dominant-baseline="alphabetic" fill-opacity="1">F</text><text fill="none" stroke="rgb(255,255,255)" font-family="geogebra-sans-serif, sans-serif" font-size="32px" font-style="normal" font-weight="normal" text-decoration="normal" x="569" y="680" text-anchor="start" dominant-baseline="alphabetic" stroke-opacity="1" stroke-linejoin="bevel" stroke-miterlimit="10" stroke-width="3">F</text><text fill="rgb(97,97,97)" stroke="none" font-family="geogebra-sans-serif, sans-serif" font-size="32px" font-style="normal" font-weight="normal" text-decoration="normal" x="569" y="680" text-anchor="start" dominant-baseline="alphabetic" fill-opacity="1">F</text><path fill="rgb(97,97,97)" stroke="none" paint-order="stroke fill markers" d=" M 856.2770559045532 185.8820094768291 C 856.2770559045532 188.09114847615228 854.4861949038764 189.8820094768291 852.2770559045532 189.8820094768291 C 850.06791690523 189.8820094768291 848.2770559045532 188.09114847615228 848.2770559045532 185.8820094768291 C 848.2770559045532 183.6728704775059 850.06791690523 181.8820094768291 852.2770559045532 181.8820094768291 C 854.4861949038764 181.8820094768291 856.2770559045532 183.6728704775059 856.2770559045532 185.8820094768291 Z" fill-opacity="1"/><path fill="none" stroke="rgb(0,0,0)" paint-order="fill stroke markers" d=" M 856.2770559045532 185.8820094768291 C 856.2770559045532 188.09114847615228 854.4861949038764 189.8820094768291 852.2770559045532 189.8820094768291 C 850.06791690523 189.8820094768291 848.2770559045532 188.09114847615228 848.2770559045532 185.8820094768291 C 848.2770559045532 183.6728704775059 850.06791690523 181.8820094768291 852.2770559045532 181.8820094768291 C 854.4861949038764 181.8820094768291 856.2770559045532 183.6728704775059 856.2770559045532 185.8820094768291 Z" stroke-opacity="1" stroke-linecap="round" stroke-linejoin="round" stroke-miterlimit="10"/><text fill="rgb(97,97,97)" stroke="none" font-family="geogebra-sans-serif, sans-serif" font-size="32px" font-style="normal" font-weight="normal" text-decoration="normal" x="856" y="178" text-anchor="start" dominant-baseline="alphabetic" fill-opacity="1">G</text><text fill="none" stroke="rgb(255,255,255)" font-family="geogebra-sans-serif, sans-serif" font-size="32px" font-style="normal" font-weight="normal" text-decoration="normal" x="856" y="178" text-anchor="start" dominant-baseline="alphabetic" stroke-opacity="1" stroke-linejoin="bevel" stroke-miterlimit="10" stroke-width="3">G</text><text fill="rgb(97,97,97)" stroke="none" font-family="geogebra-sans-serif, sans-serif" font-size="32px" font-style="normal" font-weight="normal" text-decoration="normal" x="856" y="178" text-anchor="start" dominant-baseline="alphabetic" fill-opacity="1">G</text><path fill="rgb(97,97,97)" stroke="none" paint-order="stroke fill markers" d=" M 785.1701723543049 473.9577057106404 C 785.1701723543049 476.1668447099636 783.379311353628 477.9577057106404 781.1701723543049 477.9577057106404 C 778.9610333549817 477.9577057106404 777.1701723543049 476.1668447099636 777.1701723543049 473.9577057106404 C 777.1701723543049 471.74856671131727 778.9610333549817 469.9577057106404 781.1701723543049 469.9577057106404 C 783.379311353628 469.9577057106404 785.1701723543049 471.74856671131727 785.1701723543049 473.9577057106404 Z" fill-opacity="1"/><path fill="none" stroke="rgb(0,0,0)" paint-order="fill stroke markers" d=" M 785.1701723543049 473.9577057106404 C 785.1701723543049 476.1668447099636 783.379311353628 477.9577057106404 781.1701723543049 477.9577057106404 C 778.9610333549817 477.9577057106404 777.1701723543049 476.1668447099636 777.1701723543049 473.9577057106404 C 777.1701723543049 471.74856671131727 778.9610333549817 469.9577057106404 781.1701723543049 469.9577057106404 C 783.379311353628 469.9577057106404 785.1701723543049 471.74856671131727 785.1701723543049 473.9577057106404 Z" stroke-opacity="1" stroke-linecap="round" stroke-linejoin="round" stroke-miterlimit="10"/><text fill="rgb(97,97,97)" stroke="none" font-family="geogebra-sans-serif, sans-serif" font-size="32px" font-style="normal" font-weight="normal" text-decoration="normal" x="785" y="466" text-anchor="start" dominant-baseline="alphabetic" fill-opacity="1">J</text><text fill="none" stroke="rgb(255,255,255)" font-family="geogebra-sans-serif, sans-serif" font-size="32px" font-style="normal" font-weight="normal" text-decoration="normal" x="785" y="466" text-anchor="start" dominant-baseline="alphabetic" stroke-opacity="1" stroke-linejoin="bevel" stroke-miterlimit="10" stroke-width="3">J</text><text fill="rgb(97,97,97)" stroke="none" font-family="geogebra-sans-serif, sans-serif" font-size="32px" font-style="normal" font-weight="normal" text-decoration="normal" x="785" y="466" text-anchor="start" dominant-baseline="alphabetic" fill-opacity="1">J</text></g></g></svg>