<svg version="1.1" xmlns="http://www.w3.org/2000/svg" xmlns:xlink="http://www.w3.org/1999/xlink" width="1848" height="881"><defs><clipPath id="iFdXOvBIRMKF"><path fill="none" stroke="none" d=" M 0 0 L 1848 0 L 1848 881 L 0 881 L 0 0 Z"/></clipPath></defs><g transform="scale(1,1)" clip-path="url(#iFdXOvBIRMKF)"><g><rect fill="rgb(255,255,255)" stroke="none" x="0" y="0" width="1848" height="881" fill-opacity="1"/><path fill="rgb(21,101,192)" stroke="none" paint-order="stroke fill markers" fill-rule="evenodd" d=" M 540.8931164497516 527.0756962338114 L 836.5456981831129 45.03344340767876 L 1092.2770559045534 201.882009476829 L 796.6244741711921 683.9242623029617 Z" fill-opacity="0.00784313725490196"/><path fill="none" stroke="rgb(97,97,97)" paint-order="fill stroke markers" d=" M 701.9999999999999 239 C 701.9999999999999 288.7056274847714 661.7056274847713 329 612 329 C 562.2943725152286 329 522 288.7056274847714 522 239 C 522 189.2943725152286 562.2943725152286 149 612 149 C 661.7056274847713 149 701.9999999999999 189.2943725152286 701.9999999999999 239 Z" stroke-opacity="0.8" stroke-linecap="round" stroke-linejoin="round" stroke-miterlimit="10" stroke-width="4"/><path fill="none" stroke="rgb(97,97,97)" paint-order="fill stroke markers" d=" M 1111.1701723543051 489.9577057106405 C 1111.1701723543051 539.663333195412 1070.8757998390763 579.9577057106407 1021.1701723543049 579.9577057106407 C 971.4645448695335 579.9577057106407 931.1701723543048 539.663333195412 931.1701723543048 489.9577057106405 C 931.1701723543048 440.25207822586896 971.4645448695335 399.9577057106403 1021.1701723543049 399.9577057106403 C 1070.8757998390763 399.9577057106403 1111.1701723543051 440.25207822586896 1111.1701723543051 489.9577057106405 Z" stroke-opacity="0.8" stroke-linecap="round" stroke-linejoin="round" stroke-miterlimit="10" stroke-width="4"/><path fill="none" stroke="rgb(21,101,192)" paint-order="fill stroke markers" d=" M 540.8931164497516 527.0756962338114 L 836.5456981831129 45.03344340767876" stroke-opacity="0.8" stroke-linecap="round" stroke-linejoin="round" stroke-miterlimit="10" stroke-width="4.5"/><path fill="none" stroke="rgb(21,101,192)" paint-order="fill stroke markers" d=" M 836.5456981831129 45.03344340767876 L 1092.2770559045534 201.882009476829" stroke-opacity="0.8" stroke-linecap="round" stroke-linejoin="round" stroke-miterlimit="10" stroke-width="4.5"/><text fill="rgb(21,101,192)" stroke="none" font-family="geogebra-sans-serif, sans-serif" font-size="32px" font-style="normal" font-weight="normal" text-decoration="normal" x="936" y="354" text-anchor="start" dominant-baseline="alphabetic" fill-opacity="1">11.3</text><text fill="none" stroke="rgb(255,255,255)" font-family="geogebra-sans-serif, sans-serif" font-size="32px" font-style="normal" font-weight="normal" text-decoration="normal" x="936" y="354" text-anchor="start" dominant-baseline="alphabetic" stroke-opacity="1" stroke-linejoin="bevel" stroke-miterlimit="10" stroke-width="3">11.3</text><text fill="rgb(21,101,192)" stroke="none" font-family="geogebra-sans-serif, sans-serif" font-size="32px" font-style="normal" font-weight="normal" text-decoration="normal" x="936" y="354" text-anchor="start" dominant-baseline="alphabetic" fill-opacity="1">11.3</text><path fill="none" stroke="rgb(21,101,192)" paint-order="fill stroke markers" d=" M 1092.2770559045534 201.882009476829 L 796.6244741711921 683.9242623029617" stroke-opacity="0.8" stroke-linecap="round" stroke-linejoin="round" stroke-miterlimit="10" stroke-width="4.5"/><text fill="rgb(21,101,192)" stroke="none" font-family="geogebra-sans-serif, sans-serif" font-size="32px" font-style="normal" font-weight="normal" text-decoration="normal" x="670" y="601" text-anchor="start" dominant-baseline="alphabetic" fill-opacity="1">6</text><text fill="none" stroke="rgb(255,255,255)" font-family="geogebra-sans-serif, sans-serif" font-size="32px" font-style="normal" font-weight="normal" text-decoration="normal" x="670" y="601" text-anchor="start" dominant-baseline="alphabetic" stroke-opacity="1" stroke-linejoin="bevel" stroke-miterlimit="10" stroke-width="3">6</text><text fill="rgb(21,101,192)" stroke="none" font-family="geogebra-sans-serif, sans-serif" font-size="32px" font-style="normal" font-weight="normal" text-decoration="normal" x="670" y="601" text-anchor="start" dominant-baseline="alphabetic" fill-opacity="1">6</text><path fill="none" stroke="rgb(21,101,192)" paint-order="fill stroke markers" d=" M 796.6244741711921 683.9242623029617 L 540.8931164497516 527.0756962338114" stroke-opacity="0.8" stroke-linecap="round" stroke-linejoin="round" stroke-miterlimit="10" stroke-width="4.5"/><path fill="rgb(21,101,192)" stroke="none" paint-order="stroke fill markers" d=" M 617 239 C 617 241.76142374915398 614.761423749154 244 612 244 C 609.238576250846 244 607 241.76142374915398 607 239 C 607 236.23857625084602 609.238576250846 234 612 234 C 614.761423749154 234 617 236.23857625084602 617 239 Z" fill-opacity="1"/><path fill="none" stroke="rgb(0,0,0)" paint-order="fill stroke markers" d=" M 617 239 C 617 241.76142374915398 614.761423749154 244 612 244 C 609.238576250846 244 607 241.76142374915398 607 239 C 607 236.23857625084602 609.238576250846 234 612 234 C 614.761423749154 234 617 236.23857625084602 617 239 Z" stroke-opacity="1" stroke-linecap="round" stroke-linejoin="round" stroke-miterlimit="10"/><path fill="rgb(97,97,97)" stroke="none" paint-order="stroke fill markers" d=" M 840.5456981831129 45.03344340767876 C 840.5456981831129 47.24258240700193 838.7548371824361 49.03344340767876 836.5456981831129 49.03344340767876 C 834.3365591837897 49.03344340767876 832.5456981831129 47.24258240700193 832.5456981831129 45.03344340767876 C 832.5456981831129 42.82430440835559 834.3365591837897 41.03344340767876 836.5456981831129 41.03344340767876 C 838.7548371824361 41.03344340767876 840.5456981831129 42.82430440835559 840.5456981831129 45.03344340767876 Z" fill-opacity="1"/><path fill="none" stroke="rgb(0,0,0)" paint-order="fill stroke markers" d=" M 840.5456981831129 45.03344340767876 C 840.5456981831129 47.24258240700193 838.7548371824361 49.03344340767876 836.5456981831129 49.03344340767876 C 834.3365591837897 49.03344340767876 832.5456981831129 47.24258240700193 832.5456981831129 45.03344340767876 C 832.5456981831129 42.82430440835559 834.3365591837897 41.03344340767876 836.5456981831129 41.03344340767876 C 838.7548371824361 41.03344340767876 840.5456981831129 42.82430440835559 840.5456981831129 45.03344340767876 Z" stroke-opacity="1" stroke-linecap="round" stroke-linejoin="round" stroke-miterlimit="10"/><text fill="rgb(97,97,97)" stroke="none" font-family="geogebra-sans-serif, sans-serif" font-size="32px" font-style="normal" font-weight="normal" text-decoration="normal" x="841" y="40" text-anchor="start" dominant-baseline="alphabetic" fill-opacity="1">C</text><text fill="none" stroke="rgb(255,255,255)" font-family="geogebra-sans-serif, sans-serif" font-size="32px" font-style="normal" font-weight="normal" text-decoration="normal" x="841" y="40" text-anchor="start" dominant-baseline="alphabetic" stroke-opacity="1" stroke-linejoin="bevel" stroke-miterlimit="10" stroke-width="3">C</text><text fill="rgb(97,97,97)" stroke="none" font-family="geogebra-sans-serif, sans-serif" font-size="32px" font-style="normal" font-weight="normal" text-decoration="normal" x="841" y="40" text-anchor="start" dominant-baseline="alphabetic" fill-opacity="1">C</text><path fill="rgb(97,97,97)" stroke="none" paint-order="stroke fill markers" d=" M 544.8931164497516 527.0756962338114 C 544.8931164497516 529.2848352331346 543.1022554490747 531.0756962338114 540.8931164497516 531.0756962338114 C 538.6839774504284 531.0756962338114 536.8931164497516 529.2848352331346 536.8931164497516 527.0756962338114 C 536.8931164497516 524.8665572344883 538.6839774504284 523.0756962338114 540.8931164497516 523.0756962338114 C 543.1022554490747 523.0756962338114 544.8931164497516 524.8665572344883 544.8931164497516 527.0756962338114 Z" fill-opacity="1"/><path fill="none" stroke="rgb(0,0,0)" paint-order="fill stroke markers" d=" M 544.8931164497516 527.0756962338114 C 544.8931164497516 529.2848352331346 543.1022554490747 531.0756962338114 540.8931164497516 531.0756962338114 C 538.6839774504284 531.0756962338114 536.8931164497516 529.2848352331346 536.8931164497516 527.0756962338114 C 536.8931164497516 524.8665572344883 538.6839774504284 523.0756962338114 540.8931164497516 523.0756962338114 C 543.1022554490747 523.0756962338114 544.8931164497516 524.8665572344883 544.8931164497516 527.0756962338114 Z" stroke-opacity="1" stroke-linecap="round" stroke-linejoin="round" stroke-miterlimit="10"/><text fill="rgb(97,97,97)" stroke="none" font-family="geogebra-sans-serif, sans-serif" font-size="32px" font-style="normal" font-weight="normal" text-decoration="normal" x="517" y="526" text-anchor="start" dominant-baseline="alphabetic" fill-opacity="1">D</text><text fill="none" stroke="rgb(255,255,255)" font-family="geogebra-sans-serif, sans-serif" font-size="32px" font-style="normal" font-weight="normal" text-decoration="normal" x="517" y="526" text-anchor="start" dominant-baseline="alphabetic" stroke-opacity="1" stroke-linejoin="bevel" stroke-miterlimit="10" stroke-width="3">D</text><text fill="rgb(97,97,97)" stroke="none" font-family="geogebra-sans-serif, sans-serif" font-size="32px" font-style="normal" font-weight="normal" text-decoration="normal" x="517" y="526" text-anchor="start" dominant-baseline="alphabetic" fill-opacity="1">D</text><path fill="rgb(97,97,97)" stroke="none" paint-order="stroke fill markers" d=" M 800.6244741711921 683.9242623029617 C 800.6244741711921 686.1334013022848 798.8336131705153 687.9242623029617 796.6244741711921 687.9242623029617 C 794.415335171869 687.9242623029617 792.6244741711921 686.1334013022848 792.6244741711921 683.9242623029617 C 792.6244741711921 681.7151233036385 794.415335171869 679.9242623029617 796.6244741711921 679.9242623029617 C 798.8336131705153 679.9242623029617 800.6244741711921 681.7151233036385 800.6244741711921 683.9242623029617 Z" fill-opacity="1"/><path fill="none" stroke="rgb(0,0,0)" paint-order="fill stroke markers" d=" M 800.6244741711921 683.9242623029617 C 800.6244741711921 686.1334013022848 798.8336131705153 687.9242623029617 796.6244741711921 687.9242623029617 C 794.415335171869 687.9242623029617 792.6244741711921 686.1334013022848 792.6244741711921 683.9242623029617 C 792.6244741711921 681.7151233036385 794.415335171869 679.9242623029617 796.6244741711921 679.9242623029617 C 798.8336131705153 679.9242623029617 800.6244741711921 681.7151233036385 800.6244741711921 683.9242623029617 Z" stroke-opacity="1" stroke-linecap="round" stroke-linejoin="round" stroke-miterlimit="10"/><text fill="rgb(97,97,97)" stroke="none" font-family="geogebra-sans-serif, sans-serif" font-size="32px" font-style="normal" font-weight="normal" text-decoration="normal" x="809" y="696" text-anchor="start" dominant-baseline="alphabetic" fill-opacity="1">F</text><text fill="none" stroke="rgb(255,255,255)" font-family="geogebra-sans-serif, sans-serif" font-size="32px" font-style="normal" font-weight="normal" text-decoration="normal" x="809" y="696" text-anchor="start" dominant-baseline="alphabetic" stroke-opacity="1" stroke-linejoin="bevel" stroke-miterlimit="10" stroke-width="3">F</text><text fill="rgb(97,97,97)" stroke="none" font-family="geogebra-sans-serif, sans-serif" font-size="32px" font-style="normal" font-weight="normal" text-decoration="normal" x="809" y="696" text-anchor="start" dominant-baseline="alphabetic" fill-opacity="1">F</text><path fill="rgb(97,97,97)" stroke="none" paint-order="stroke fill markers" d=" M 1096.2770559045534 201.882009476829 C 1096.2770559045534 204.09114847615217 1094.4861949038766 205.882009476829 1092.2770559045534 205.882009476829 C 1090.0679169052303 205.882009476829 1088.2770559045534 204.09114847615217 1088.2770559045534 201.882009476829 C 1088.2770559045534 199.67287047750582 1090.0679169052303 197.882009476829 1092.2770559045534 197.882009476829 C 1094.4861949038766 197.882009476829 1096.2770559045534 199.67287047750582 1096.2770559045534 201.882009476829 Z" fill-opacity="1"/><path fill="none" stroke="rgb(0,0,0)" paint-order="fill stroke markers" d=" M 1096.2770559045534 201.882009476829 C 1096.2770559045534 204.09114847615217 1094.4861949038766 205.882009476829 1092.2770559045534 205.882009476829 C 1090.0679169052303 205.882009476829 1088.2770559045534 204.09114847615217 1088.2770559045534 201.882009476829 C 1088.2770559045534 199.67287047750582 1090.0679169052303 197.882009476829 1092.2770559045534 197.882009476829 C 1094.4861949038766 197.882009476829 1096.2770559045534 199.67287047750582 1096.2770559045534 201.882009476829 Z" stroke-opacity="1" stroke-linecap="round" stroke-linejoin="round" stroke-miterlimit="10"/><text fill="rgb(97,97,97)" stroke="none" font-family="geogebra-sans-serif, sans-serif" font-size="32px" font-style="normal" font-weight="normal" text-decoration="normal" x="1096" y="194" text-anchor="start" dominant-baseline="alphabetic" fill-opacity="1">G</text><text fill="none" stroke="rgb(255,255,255)" font-family="geogebra-sans-serif, sans-serif" font-size="32px" font-style="normal" font-weight="normal" text-decoration="normal" x="1096" y="194" text-anchor="start" dominant-baseline="alphabetic" stroke-opacity="1" stroke-linejoin="bevel" stroke-miterlimit="10" stroke-width="3">G</text><text fill="rgb(97,97,97)" stroke="none" font-family="geogebra-sans-serif, sans-serif" font-size="32px" font-style="normal" font-weight="normal" text-decoration="normal" x="1096" y="194" text-anchor="start" dominant-baseline="alphabetic" fill-opacity="1">G</text><path fill="rgb(97,97,97)" stroke="none" paint-order="stroke fill markers" d=" M 1025.170172354305 489.9577057106405 C 1025.170172354305 492.16684470996364 1023.379311353628 493.9577057106405 1021.1701723543049 493.9577057106405 C 1018.9610333549817 493.9577057106405 1017.1701723543049 492.16684470996364 1017.1701723543049 489.9577057106405 C 1017.1701723543049 487.7485667113173 1018.9610333549817 485.9577057106405 1021.1701723543049 485.9577057106405 C 1023.379311353628 485.9577057106405 1025.170172354305 487.7485667113173 1025.170172354305 489.9577057106405 Z" fill-opacity="1"/><path fill="none" stroke="rgb(0,0,0)" paint-order="fill stroke markers" d=" M 1025.170172354305 489.9577057106405 C 1025.170172354305 492.16684470996364 1023.379311353628 493.9577057106405 1021.1701723543049 493.9577057106405 C 1018.9610333549817 493.9577057106405 1017.1701723543049 492.16684470996364 1017.1701723543049 489.9577057106405 C 1017.1701723543049 487.7485667113173 1018.9610333549817 485.9577057106405 1021.1701723543049 485.9577057106405 C 1023.379311353628 485.9577057106405 1025.170172354305 487.7485667113173 1025.170172354305 489.9577057106405 Z" stroke-opacity="1" stroke-linecap="round" stroke-linejoin="round" stroke-miterlimit="10"/></g></g></svg>