<svg version="1.1" xmlns="http://www.w3.org/2000/svg" xmlns:xlink="http://www.w3.org/1999/xlink" width="1848" height="881"><defs><clipPath id="pvAwgTvRzSCS"><path fill="none" stroke="none" d=" M 0 0 L 1848 0 L 1848 881 L 0 881 L 0 0 Z"/></clipPath></defs><g transform="scale(1,1)" clip-path="url(#pvAwgTvRzSCS)"><g><rect fill="rgb(255,255,255)" stroke="none" x="0" y="0" width="1848" height="881" fill-opacity="1"/><path fill="none" stroke="rgb(192,192,192)" paint-order="fill stroke markers" d=" M 70.5 0.5 L 70.5 881.5 M 70.5 0.5 L 70.5 881.5 M 145.5 0.5 L 145.5 881.5 M 220.5 0.5 L 220.5 881.5 M 295.5 0.5 L 295.5 881.5 M 370.5 0.5 L 370.5 881.5 M 445.5 0.5 L 445.5 881.5 M 520.5 0.5 L 520.5 881.5 M 595.5 0.5 L 595.5 881.5 M 670.5 0.5 L 670.5 881.5 M 744.5 0.5 L 744.5 881.5 M 819.5 0.5 L 819.5 881.5 M 894.5 0.5 L 894.5 881.5 M 969.5 0.5 L 969.5 881.5 M 1044.5 0.5 L 1044.5 881.5 M 1119.5 0.5 L 1119.5 881.5 M 1194.5 0.5 L 1194.5 881.5 M 1269.5 0.5 L 1269.5 881.5 M 1344.5 0.5 L 1344.5 881.5 M 1419.5 0.5 L 1419.5 881.5 M 1494.5 0.5 L 1494.5 881.5 M 1569.5 0.5 L 1569.5 881.5 M 1644.5 0.5 L 1644.5 881.5 M 1719.5 0.5 L 1719.5 881.5 M 1794.5 0.5 L 1794.5 881.5" stroke-opacity="1" stroke-linecap="round" stroke-linejoin="round" stroke-miterlimit="10"/><path fill="none" stroke="rgb(192,192,192)" paint-order="fill stroke markers" d="" stroke-opacity="0.23529411764705882" stroke-linecap="round" stroke-linejoin="round" stroke-miterlimit="10"/><path fill="none" stroke="rgb(192,192,192)" paint-order="fill stroke markers" d=" M 0.5 30.5 L 1848.5 30.5 M 0.5 30.5 L 1848.5 30.5 M 0.5 105.5 L 1848.5 105.5 M 0.5 180.5 L 1848.5 180.5 M 0.5 255.5 L 1848.5 255.5 M 0.5 330.5 L 1848.5 330.5 M 0.5 405.5 L 1848.5 405.5 M 0.5 480.5 L 1848.5 480.5 M 0.5 555.5 L 1848.5 555.5 M 0.5 630.5 L 1848.5 630.5 M 0.5 705.5 L 1848.5 705.5 M 0.5 780.5 L 1848.5 780.5 M 0.5 855.5 L 1848.5 855.5" stroke-opacity="1" stroke-linecap="round" stroke-linejoin="round" stroke-miterlimit="10"/><path fill="none" stroke="rgb(192,192,192)" paint-order="fill stroke markers" d="" stroke-opacity="0.23529411764705882" stroke-linecap="round" stroke-linejoin="round" stroke-miterlimit="10"/><path fill="rgb(21,101,192)" stroke="none" paint-order="stroke fill markers" fill-rule="evenodd" d=" M 145.00000000000114 405.75000000000034 L 445.00000000000045 105.75000000000108 L 744.9999999999998 405.75000000000034 L 445.00000000000045 705.7499999999995 Z" fill-opacity="0.09803921568627451"/><path fill="rgb(255,102,153)" stroke="none" paint-order="stroke fill markers" fill-rule="evenodd" d=" M 145.00000000000114 405.75000000000034 L 232.86796564403667 193.61796564403664 L 445.00000000000045 105.75000000000108 L 657.1320343559643 193.6179656440366 L 744.9999999999998 405.75000000000034 L 657.1320343559643 617.8820343559642 L 445.00000000000045 705.7499999999995 L 232.86796564403667 617.8820343559642 Z" fill-opacity="0.09803921568627451"/><path fill="rgb(21,101,192)" stroke="none" paint-order="stroke fill markers" fill-rule="evenodd" d=" M 1194.9999999999989 405.75000000000034 L 894.9999999999995 405.75000000000034 L 982.8679656440349 193.61796564403664 Z" fill-opacity="0.09803921568627451"/><path fill="none" stroke="rgb(0,0,0)" paint-order="fill stroke markers" d=" M 744.9999999999998 405.75000000000034 C 744.9999999999998 571.4354249492379 610.685424949238 705.7499999999995 445.00000000000045 705.7499999999995 C 279.31457505076287 705.7499999999995 145.00000000000114 571.4354249492379 145.00000000000114 405.75000000000034 C 145.00000000000114 240.06457505076276 279.31457505076287 105.75000000000108 445.00000000000045 105.75000000000108 C 610.685424949238 105.75000000000108 744.9999999999998 240.06457505076276 744.9999999999998 405.75000000000034 Z" stroke-opacity="0.8" stroke-linecap="round" stroke-linejoin="round" stroke-miterlimit="10" stroke-width="4"/><path fill="none" stroke="rgb(97,97,97)" paint-order="fill stroke markers" d=" M 1494.9999999999982 405.75000000000034 C 1494.9999999999982 571.4354249492379 1360.6854249492364 705.7499999999995 1194.9999999999989 705.7499999999995 C 1029.3145750507613 705.7499999999995 894.9999999999995 571.4354249492379 894.9999999999995 405.75000000000034 C 894.9999999999995 240.06457505076276 1029.3145750507613 105.75000000000108 1194.9999999999989 105.75000000000108 C 1360.6854249492364 105.75000000000108 1494.9999999999982 240.06457505076276 1494.9999999999982 405.75000000000034 Z" stroke-opacity="0.8" stroke-linecap="round" stroke-linejoin="round" stroke-miterlimit="10" stroke-width="2.5"/><path fill="none" stroke="rgb(21,101,192)" paint-order="fill stroke markers" d=" M 145.00000000000114 405.75000000000034 L 445.00000000000045 105.75000000000108" stroke-opacity="0.8" stroke-linecap="round" stroke-linejoin="round" stroke-miterlimit="10" stroke-width="4"/><path fill="none" stroke="rgb(21,101,192)" paint-order="fill stroke markers" d=" M 445.00000000000045 105.75000000000108 L 744.9999999999998 405.75000000000034" stroke-opacity="0.8" stroke-linecap="round" stroke-linejoin="round" stroke-miterlimit="10" stroke-width="4"/><path fill="none" stroke="rgb(21,101,192)" paint-order="fill stroke markers" d=" M 744.9999999999998 405.75000000000034 L 445.00000000000045 705.7499999999995" stroke-opacity="0.8" stroke-linecap="round" stroke-linejoin="round" stroke-miterlimit="10" stroke-width="4"/><path fill="none" stroke="rgb(21,101,192)" paint-order="fill stroke markers" d=" M 445.00000000000045 705.7499999999995 L 145.00000000000114 405.75000000000034" stroke-opacity="0.8" stroke-linecap="round" stroke-linejoin="round" stroke-miterlimit="10" stroke-width="4"/><path fill="none" stroke="rgb(255,102,153)" paint-order="fill stroke markers" d=" M 145.00000000000114 405.75000000000034 L 232.86796564403667 193.61796564403664" stroke-opacity="0.8" stroke-linecap="round" stroke-linejoin="round" stroke-miterlimit="10" stroke-width="4"/><path fill="none" stroke="rgb(255,102,153)" paint-order="fill stroke markers" d=" M 232.86796564403667 193.61796564403664 L 445.00000000000045 105.75000000000108" stroke-opacity="0.8" stroke-linecap="round" stroke-linejoin="round" stroke-miterlimit="10" stroke-width="4"/><path fill="none" stroke="rgb(255,102,153)" paint-order="fill stroke markers" d=" M 445.00000000000045 105.75000000000108 L 657.1320343559643 193.6179656440366" stroke-opacity="0.8" stroke-linecap="round" stroke-linejoin="round" stroke-miterlimit="10" stroke-width="4"/><path fill="none" stroke="rgb(255,102,153)" paint-order="fill stroke markers" d=" M 657.1320343559643 193.6179656440366 L 744.9999999999998 405.75000000000034" stroke-opacity="0.8" stroke-linecap="round" stroke-linejoin="round" stroke-miterlimit="10" stroke-width="4"/><path fill="none" stroke="rgb(255,102,153)" paint-order="fill stroke markers" d=" M 744.9999999999998 405.75000000000034 L 657.1320343559643 617.8820343559642" stroke-opacity="0.8" stroke-linecap="round" stroke-linejoin="round" stroke-miterlimit="10" stroke-width="4"/><path fill="none" stroke="rgb(255,102,153)" paint-order="fill stroke markers" d=" M 657.1320343559643 617.8820343559642 L 445.00000000000045 705.7499999999995" stroke-opacity="0.8" stroke-linecap="round" stroke-linejoin="round" stroke-miterlimit="10" stroke-width="4"/><path fill="none" stroke="rgb(255,102,153)" paint-order="fill stroke markers" d=" M 445.00000000000045 705.7499999999995 L 232.86796564403667 617.8820343559642" stroke-opacity="0.8" stroke-linecap="round" stroke-linejoin="round" stroke-miterlimit="10" stroke-width="4"/><path fill="none" stroke="rgb(255,102,153)" paint-order="fill stroke markers" d=" M 232.86796564403667 617.8820343559642 L 145.00000000000114 405.75000000000034" stroke-opacity="0.8" stroke-linecap="round" stroke-linejoin="round" stroke-miterlimit="10" stroke-width="4"/><text fill="rgb(32,32,32)" stroke="none" font-family="geogebra-sans-serif, sans-serif" font-size="24px" font-style="normal" font-weight="normal" text-decoration="normal" x="292" y="393" text-anchor="start" dominant-baseline="alphabetic" fill-opacity="1">4</text><text fill="none" stroke="rgb(255,255,255)" font-family="geogebra-sans-serif, sans-serif" font-size="24px" font-style="normal" font-weight="normal" text-decoration="normal" x="292" y="393" text-anchor="start" dominant-baseline="alphabetic" stroke-opacity="1" stroke-linejoin="bevel" stroke-miterlimit="10" stroke-width="3">4</text><text fill="rgb(32,32,32)" stroke="none" font-family="geogebra-sans-serif, sans-serif" font-size="24px" font-style="normal" font-weight="normal" text-decoration="normal" x="292" y="393" text-anchor="start" dominant-baseline="alphabetic" fill-opacity="1">4</text><path fill="none" stroke="rgb(32,32,32)" paint-order="fill stroke markers" d=" M 145.00000000000114 405.75000000000034 L 445.00000000000045 405.75000000000034" stroke-opacity="0.8" stroke-linecap="round" stroke-linejoin="round" stroke-miterlimit="10" stroke-width="4"/><path fill="none" stroke="rgb(21,101,192)" paint-order="fill stroke markers" d=" M 1194.9999999999989 405.75000000000034 L 894.9999999999995 405.75000000000034" stroke-opacity="0.8" stroke-linecap="round" stroke-linejoin="round" stroke-miterlimit="10" stroke-width="2.5"/><path fill="none" stroke="rgb(21,101,192)" paint-order="fill stroke markers" d=" M 894.9999999999995 405.75000000000034 L 982.8679656440349 193.61796564403664" stroke-opacity="0.8" stroke-linecap="round" stroke-linejoin="round" stroke-miterlimit="10" stroke-width="2.5"/><path fill="none" stroke="rgb(21,101,192)" paint-order="fill stroke markers" d=" M 982.8679656440349 193.61796564403664 L 1194.9999999999989 405.75000000000034" stroke-opacity="0.8" stroke-linecap="round" stroke-linejoin="round" stroke-miterlimit="10" stroke-width="2.5"/><path fill="none" stroke="rgb(97,97,97)" paint-order="fill stroke markers" d=" M 982.8679656440349 193.61796564403664 L 982.8679656440349 405.75000000000034" stroke-opacity="0.8" stroke-linejoin="round" stroke-miterlimit="10" stroke-width="2.5" stroke-dasharray="6.5,4"/><path fill="rgb(21,101,192)" stroke="none" paint-order="stroke fill markers" d=" M 450.00000000000045 405.75000000000034 C 450.00000000000045 408.5114237491543 447.7614237491544 410.75000000000034 445.00000000000045 410.75000000000034 C 442.2385762508465 410.75000000000034 440.00000000000045 408.5114237491543 440.00000000000045 405.75000000000034 C 440.00000000000045 402.9885762508464 442.2385762508465 400.75000000000034 445.00000000000045 400.75000000000034 C 447.7614237491544 400.75000000000034 450.00000000000045 402.9885762508464 450.00000000000045 405.75000000000034 Z" fill-opacity="1"/><path fill="none" stroke="rgb(0,0,0)" paint-order="fill stroke markers" d=" M 450.00000000000045 405.75000000000034 C 450.00000000000045 408.5114237491543 447.7614237491544 410.75000000000034 445.00000000000045 410.75000000000034 C 442.2385762508465 410.75000000000034 440.00000000000045 408.5114237491543 440.00000000000045 405.75000000000034 C 440.00000000000045 402.9885762508464 442.2385762508465 400.75000000000034 445.00000000000045 400.75000000000034 C 447.7614237491544 400.75000000000034 450.00000000000045 402.9885762508464 450.00000000000045 405.75000000000034 Z" stroke-opacity="1" stroke-linecap="round" stroke-linejoin="round" stroke-miterlimit="10"/><path fill="rgb(21,101,192)" stroke="none" paint-order="stroke fill markers" d=" M 150.00000000000114 405.75000000000034 C 150.00000000000114 408.5114237491543 147.7614237491551 410.75000000000034 145.00000000000114 410.75000000000034 C 142.23857625084716 410.75000000000034 140.00000000000114 408.5114237491543 140.00000000000114 405.75000000000034 C 140.00000000000114 402.9885762508464 142.23857625084716 400.75000000000034 145.00000000000114 400.75000000000034 C 147.7614237491551 400.75000000000034 150.00000000000114 402.9885762508464 150.00000000000114 405.75000000000034 Z" fill-opacity="1"/><path fill="none" stroke="rgb(0,0,0)" paint-order="fill stroke markers" d=" M 150.00000000000114 405.75000000000034 C 150.00000000000114 408.5114237491543 147.7614237491551 410.75000000000034 145.00000000000114 410.75000000000034 C 142.23857625084716 410.75000000000034 140.00000000000114 408.5114237491543 140.00000000000114 405.75000000000034 C 140.00000000000114 402.9885762508464 142.23857625084716 400.75000000000034 145.00000000000114 400.75000000000034 C 147.7614237491551 400.75000000000034 150.00000000000114 402.9885762508464 150.00000000000114 405.75000000000034 Z" stroke-opacity="1" stroke-linecap="round" stroke-linejoin="round" stroke-miterlimit="10"/><text fill="rgb(21,101,192)" stroke="none" font-family="geogebra-sans-serif, sans-serif" font-size="24px" font-style="normal" font-weight="normal" text-decoration="normal" x="110" y="410" text-anchor="start" dominant-baseline="alphabetic" fill-opacity="1">B</text><text fill="none" stroke="rgb(255,255,255)" font-family="geogebra-sans-serif, sans-serif" font-size="24px" font-style="normal" font-weight="normal" text-decoration="normal" x="110" y="410" text-anchor="start" dominant-baseline="alphabetic" stroke-opacity="1" stroke-linejoin="bevel" stroke-miterlimit="10" stroke-width="3">B</text><text fill="rgb(21,101,192)" stroke="none" font-family="geogebra-sans-serif, sans-serif" font-size="24px" font-style="normal" font-weight="normal" text-decoration="normal" x="110" y="410" text-anchor="start" dominant-baseline="alphabetic" fill-opacity="1">B</text><path fill="rgb(21,101,192)" stroke="none" paint-order="stroke fill markers" d=" M 450.00000000000045 105.75000000000108 C 450.00000000000045 108.51142374915504 447.7614237491544 110.75000000000108 445.00000000000045 110.75000000000108 C 442.2385762508465 110.75000000000108 440.00000000000045 108.51142374915504 440.00000000000045 105.75000000000108 C 440.00000000000045 102.98857625084712 442.2385762508465 100.75000000000108 445.00000000000045 100.75000000000108 C 447.7614237491544 100.75000000000108 450.00000000000045 102.98857625084712 450.00000000000045 105.75000000000108 Z" fill-opacity="1"/><path fill="none" stroke="rgb(0,0,0)" paint-order="fill stroke markers" d=" M 450.00000000000045 105.75000000000108 C 450.00000000000045 108.51142374915504 447.7614237491544 110.75000000000108 445.00000000000045 110.75000000000108 C 442.2385762508465 110.75000000000108 440.00000000000045 108.51142374915504 440.00000000000045 105.75000000000108 C 440.00000000000045 102.98857625084712 442.2385762508465 100.75000000000108 445.00000000000045 100.75000000000108 C 447.7614237491544 100.75000000000108 450.00000000000045 102.98857625084712 450.00000000000045 105.75000000000108 Z" stroke-opacity="1" stroke-linecap="round" stroke-linejoin="round" stroke-miterlimit="10"/><text fill="rgb(21,101,192)" stroke="none" font-family="geogebra-sans-serif, sans-serif" font-size="24px" font-style="normal" font-weight="normal" text-decoration="normal" x="449" y="96" text-anchor="start" dominant-baseline="alphabetic" fill-opacity="1">C</text><text fill="none" stroke="rgb(255,255,255)" font-family="geogebra-sans-serif, sans-serif" font-size="24px" font-style="normal" font-weight="normal" text-decoration="normal" x="449" y="96" text-anchor="start" dominant-baseline="alphabetic" stroke-opacity="1" stroke-linejoin="bevel" stroke-miterlimit="10" stroke-width="3">C</text><text fill="rgb(21,101,192)" stroke="none" font-family="geogebra-sans-serif, sans-serif" font-size="24px" font-style="normal" font-weight="normal" text-decoration="normal" x="449" y="96" text-anchor="start" dominant-baseline="alphabetic" fill-opacity="1">C</text><path fill="rgb(21,101,192)" stroke="none" paint-order="stroke fill markers" d=" M 749.9999999999998 405.75000000000034 C 749.9999999999998 408.5114237491543 747.7614237491538 410.75000000000034 744.9999999999998 410.75000000000034 C 742.2385762508458 410.75000000000034 739.9999999999998 408.5114237491543 739.9999999999998 405.75000000000034 C 739.9999999999998 402.9885762508464 742.2385762508458 400.75000000000034 744.9999999999998 400.75000000000034 C 747.7614237491538 400.75000000000034 749.9999999999998 402.9885762508464 749.9999999999998 405.75000000000034 Z" fill-opacity="1"/><path fill="none" stroke="rgb(0,0,0)" paint-order="fill stroke markers" d=" M 749.9999999999998 405.75000000000034 C 749.9999999999998 408.5114237491543 747.7614237491538 410.75000000000034 744.9999999999998 410.75000000000034 C 742.2385762508458 410.75000000000034 739.9999999999998 408.5114237491543 739.9999999999998 405.75000000000034 C 739.9999999999998 402.9885762508464 742.2385762508458 400.75000000000034 744.9999999999998 400.75000000000034 C 747.7614237491538 400.75000000000034 749.9999999999998 402.9885762508464 749.9999999999998 405.75000000000034 Z" stroke-opacity="1" stroke-linecap="round" stroke-linejoin="round" stroke-miterlimit="10"/><text fill="rgb(21,101,192)" stroke="none" font-family="geogebra-sans-serif, sans-serif" font-size="24px" font-style="normal" font-weight="normal" text-decoration="normal" x="749" y="396" text-anchor="start" dominant-baseline="alphabetic" fill-opacity="1">D</text><text fill="none" stroke="rgb(255,255,255)" font-family="geogebra-sans-serif, sans-serif" font-size="24px" font-style="normal" font-weight="normal" text-decoration="normal" x="749" y="396" text-anchor="start" dominant-baseline="alphabetic" stroke-opacity="1" stroke-linejoin="bevel" stroke-miterlimit="10" stroke-width="3">D</text><text fill="rgb(21,101,192)" stroke="none" font-family="geogebra-sans-serif, sans-serif" font-size="24px" font-style="normal" font-weight="normal" text-decoration="normal" x="749" y="396" text-anchor="start" dominant-baseline="alphabetic" fill-opacity="1">D</text><path fill="rgb(21,101,192)" stroke="none" paint-order="stroke fill markers" d=" M 450.00000000000045 705.7499999999995 C 450.00000000000045 708.5114237491536 447.7614237491544 710.7499999999995 445.00000000000045 710.7499999999995 C 442.2385762508465 710.7499999999995 440.00000000000045 708.5114237491536 440.00000000000045 705.7499999999995 C 440.00000000000045 702.9885762508455 442.2385762508465 700.7499999999995 445.00000000000045 700.7499999999995 C 447.7614237491544 700.7499999999995 450.00000000000045 702.9885762508455 450.00000000000045 705.7499999999995 Z" fill-opacity="1"/><path fill="none" stroke="rgb(0,0,0)" paint-order="fill stroke markers" d=" M 450.00000000000045 705.7499999999995 C 450.00000000000045 708.5114237491536 447.7614237491544 710.7499999999995 445.00000000000045 710.7499999999995 C 442.2385762508465 710.7499999999995 440.00000000000045 708.5114237491536 440.00000000000045 705.7499999999995 C 440.00000000000045 702.9885762508455 442.2385762508465 700.7499999999995 445.00000000000045 700.7499999999995 C 447.7614237491544 700.7499999999995 450.00000000000045 702.9885762508455 450.00000000000045 705.7499999999995 Z" stroke-opacity="1" stroke-linecap="round" stroke-linejoin="round" stroke-miterlimit="10"/><text fill="rgb(21,101,192)" stroke="none" font-family="geogebra-sans-serif, sans-serif" font-size="24px" font-style="normal" font-weight="normal" text-decoration="normal" x="435" y="735" text-anchor="start" dominant-baseline="alphabetic" fill-opacity="1">E</text><text fill="none" stroke="rgb(255,255,255)" font-family="geogebra-sans-serif, sans-serif" font-size="24px" font-style="normal" font-weight="normal" text-decoration="normal" x="435" y="735" text-anchor="start" dominant-baseline="alphabetic" stroke-opacity="1" stroke-linejoin="bevel" stroke-miterlimit="10" stroke-width="3">E</text><text fill="rgb(21,101,192)" stroke="none" font-family="geogebra-sans-serif, sans-serif" font-size="24px" font-style="normal" font-weight="normal" text-decoration="normal" x="435" y="735" text-anchor="start" dominant-baseline="alphabetic" fill-opacity="1">E</text><path fill="rgb(97,97,97)" stroke="none" paint-order="stroke fill markers" d=" M 661.1320343559643 617.8820343559642 C 661.1320343559643 620.0911733552873 659.3411733552874 621.8820343559642 657.1320343559643 621.8820343559642 C 654.9228953566411 621.8820343559642 653.1320343559643 620.0911733552873 653.1320343559643 617.8820343559642 C 653.1320343559643 615.672895356641 654.9228953566411 613.8820343559642 657.1320343559643 613.8820343559642 C 659.3411733552874 613.8820343559642 661.1320343559643 615.672895356641 661.1320343559643 617.8820343559642 Z" fill-opacity="1"/><path fill="none" stroke="rgb(0,0,0)" paint-order="fill stroke markers" d=" M 661.1320343559643 617.8820343559642 C 661.1320343559643 620.0911733552873 659.3411733552874 621.8820343559642 657.1320343559643 621.8820343559642 C 654.9228953566411 621.8820343559642 653.1320343559643 620.0911733552873 653.1320343559643 617.8820343559642 C 653.1320343559643 615.672895356641 654.9228953566411 613.8820343559642 657.1320343559643 613.8820343559642 C 659.3411733552874 613.8820343559642 661.1320343559643 615.672895356641 661.1320343559643 617.8820343559642 Z" stroke-opacity="1" stroke-linecap="round" stroke-linejoin="round" stroke-miterlimit="10"/><text fill="rgb(97,97,97)" stroke="none" font-family="geogebra-sans-serif, sans-serif" font-size="24px" font-style="normal" font-weight="normal" text-decoration="normal" x="664" y="639" text-anchor="start" dominant-baseline="alphabetic" fill-opacity="1">F</text><text fill="none" stroke="rgb(255,255,255)" font-family="geogebra-sans-serif, sans-serif" font-size="24px" font-style="normal" font-weight="normal" text-decoration="normal" x="664" y="639" text-anchor="start" dominant-baseline="alphabetic" stroke-opacity="1" stroke-linejoin="bevel" stroke-miterlimit="10" stroke-width="3">F</text><text fill="rgb(97,97,97)" stroke="none" font-family="geogebra-sans-serif, sans-serif" font-size="24px" font-style="normal" font-weight="normal" text-decoration="normal" x="664" y="639" text-anchor="start" dominant-baseline="alphabetic" fill-opacity="1">F</text><path fill="rgb(97,97,97)" stroke="none" paint-order="stroke fill markers" d=" M 236.86796564403667 193.61796564403664 C 236.86796564403667 195.8271046433598 235.07710464335986 197.61796564403664 232.86796564403667 197.61796564403664 C 230.65882664471349 197.61796564403664 228.86796564403667 195.8271046433598 228.86796564403667 193.61796564403664 C 228.86796564403667 191.40882664471346 230.65882664471349 189.61796564403664 232.86796564403667 189.61796564403664 C 235.07710464335986 189.61796564403664 236.86796564403667 191.40882664471346 236.86796564403667 193.61796564403664 Z" fill-opacity="1"/><path fill="none" stroke="rgb(0,0,0)" paint-order="fill stroke markers" d=" M 236.86796564403667 193.61796564403664 C 236.86796564403667 195.8271046433598 235.07710464335986 197.61796564403664 232.86796564403667 197.61796564403664 C 230.65882664471349 197.61796564403664 228.86796564403667 195.8271046433598 228.86796564403667 193.61796564403664 C 228.86796564403667 191.40882664471346 230.65882664471349 189.61796564403664 232.86796564403667 189.61796564403664 C 235.07710464335986 189.61796564403664 236.86796564403667 191.40882664471346 236.86796564403667 193.61796564403664 Z" stroke-opacity="1" stroke-linecap="round" stroke-linejoin="round" stroke-miterlimit="10"/><text fill="rgb(97,97,97)" stroke="none" font-family="geogebra-sans-serif, sans-serif" font-size="24px" font-style="normal" font-weight="normal" text-decoration="normal" x="212" y="180" text-anchor="start" dominant-baseline="alphabetic" fill-opacity="1">G</text><text fill="none" stroke="rgb(255,255,255)" font-family="geogebra-sans-serif, sans-serif" font-size="24px" font-style="normal" font-weight="normal" text-decoration="normal" x="212" y="180" text-anchor="start" dominant-baseline="alphabetic" stroke-opacity="1" stroke-linejoin="bevel" stroke-miterlimit="10" stroke-width="3">G</text><text fill="rgb(97,97,97)" stroke="none" font-family="geogebra-sans-serif, sans-serif" font-size="24px" font-style="normal" font-weight="normal" text-decoration="normal" x="212" y="180" text-anchor="start" dominant-baseline="alphabetic" fill-opacity="1">G</text><path fill="rgb(97,97,97)" stroke="none" paint-order="stroke fill markers" d=" M 661.1320343559643 193.6179656440366 C 661.1320343559643 195.82710464335975 659.3411733552874 197.6179656440366 657.1320343559643 197.6179656440366 C 654.9228953566411 197.6179656440366 653.1320343559643 195.82710464335975 653.1320343559643 193.6179656440366 C 653.1320343559643 191.4088266447134 654.9228953566411 189.6179656440366 657.1320343559643 189.6179656440366 C 659.3411733552874 189.6179656440366 661.1320343559643 191.4088266447134 661.1320343559643 193.6179656440366 Z" fill-opacity="1"/><path fill="none" stroke="rgb(0,0,0)" paint-order="fill stroke markers" d=" M 661.1320343559643 193.6179656440366 C 661.1320343559643 195.82710464335975 659.3411733552874 197.6179656440366 657.1320343559643 197.6179656440366 C 654.9228953566411 197.6179656440366 653.1320343559643 195.82710464335975 653.1320343559643 193.6179656440366 C 653.1320343559643 191.4088266447134 654.9228953566411 189.6179656440366 657.1320343559643 189.6179656440366 C 659.3411733552874 189.6179656440366 661.1320343559643 191.4088266447134 661.1320343559643 193.6179656440366 Z" stroke-opacity="1" stroke-linecap="round" stroke-linejoin="round" stroke-miterlimit="10"/><text fill="rgb(97,97,97)" stroke="none" font-family="geogebra-sans-serif, sans-serif" font-size="24px" font-style="normal" font-weight="normal" text-decoration="normal" x="661" y="186" text-anchor="start" dominant-baseline="alphabetic" fill-opacity="1">H</text><text fill="none" stroke="rgb(255,255,255)" font-family="geogebra-sans-serif, sans-serif" font-size="24px" font-style="normal" font-weight="normal" text-decoration="normal" x="661" y="186" text-anchor="start" dominant-baseline="alphabetic" stroke-opacity="1" stroke-linejoin="bevel" stroke-miterlimit="10" stroke-width="3">H</text><text fill="rgb(97,97,97)" stroke="none" font-family="geogebra-sans-serif, sans-serif" font-size="24px" font-style="normal" font-weight="normal" text-decoration="normal" x="661" y="186" text-anchor="start" dominant-baseline="alphabetic" fill-opacity="1">H</text><path fill="rgb(97,97,97)" stroke="none" paint-order="stroke fill markers" d=" M 236.86796564403667 617.8820343559642 C 236.86796564403667 620.0911733552873 235.07710464335986 621.8820343559642 232.86796564403667 621.8820343559642 C 230.65882664471349 621.8820343559642 228.86796564403667 620.0911733552873 228.86796564403667 617.8820343559642 C 228.86796564403667 615.672895356641 230.65882664471349 613.8820343559642 232.86796564403667 613.8820343559642 C 235.07710464335986 613.8820343559642 236.86796564403667 615.672895356641 236.86796564403667 617.8820343559642 Z" fill-opacity="1"/><path fill="none" stroke="rgb(0,0,0)" paint-order="fill stroke markers" d=" M 236.86796564403667 617.8820343559642 C 236.86796564403667 620.0911733552873 235.07710464335986 621.8820343559642 232.86796564403667 621.8820343559642 C 230.65882664471349 621.8820343559642 228.86796564403667 620.0911733552873 228.86796564403667 617.8820343559642 C 228.86796564403667 615.672895356641 230.65882664471349 613.8820343559642 232.86796564403667 613.8820343559642 C 235.07710464335986 613.8820343559642 236.86796564403667 615.672895356641 236.86796564403667 617.8820343559642 Z" stroke-opacity="1" stroke-linecap="round" stroke-linejoin="round" stroke-miterlimit="10"/><text fill="rgb(97,97,97)" stroke="none" font-family="geogebra-sans-serif, sans-serif" font-size="24px" font-style="normal" font-weight="normal" text-decoration="normal" x="220" y="642" text-anchor="start" dominant-baseline="alphabetic" fill-opacity="1">I</text><text fill="none" stroke="rgb(255,255,255)" font-family="geogebra-sans-serif, sans-serif" font-size="24px" font-style="normal" font-weight="normal" text-decoration="normal" x="220" y="642" text-anchor="start" dominant-baseline="alphabetic" stroke-opacity="1" stroke-linejoin="bevel" stroke-miterlimit="10" stroke-width="3">I</text><text fill="rgb(97,97,97)" stroke="none" font-family="geogebra-sans-serif, sans-serif" font-size="24px" font-style="normal" font-weight="normal" text-decoration="normal" x="220" y="642" text-anchor="start" dominant-baseline="alphabetic" fill-opacity="1">I</text><path fill="rgb(21,101,192)" stroke="none" paint-order="stroke fill markers" d=" M 1199.9999999999989 405.75000000000034 C 1199.9999999999989 408.5114237491543 1197.7614237491528 410.75000000000034 1194.9999999999989 410.75000000000034 C 1192.238576250845 410.75000000000034 1189.9999999999989 408.5114237491543 1189.9999999999989 405.75000000000034 C 1189.9999999999989 402.9885762508464 1192.238576250845 400.75000000000034 1194.9999999999989 400.75000000000034 C 1197.7614237491528 400.75000000000034 1199.9999999999989 402.9885762508464 1199.9999999999989 405.75000000000034 Z" fill-opacity="1"/><path fill="none" stroke="rgb(0,0,0)" paint-order="fill stroke markers" d=" M 1199.9999999999989 405.75000000000034 C 1199.9999999999989 408.5114237491543 1197.7614237491528 410.75000000000034 1194.9999999999989 410.75000000000034 C 1192.238576250845 410.75000000000034 1189.9999999999989 408.5114237491543 1189.9999999999989 405.75000000000034 C 1189.9999999999989 402.9885762508464 1192.238576250845 400.75000000000034 1194.9999999999989 400.75000000000034 C 1197.7614237491528 400.75000000000034 1199.9999999999989 402.9885762508464 1199.9999999999989 405.75000000000034 Z" stroke-opacity="1" stroke-linecap="round" stroke-linejoin="round" stroke-miterlimit="10"/><path fill="rgb(21,101,192)" stroke="none" paint-order="stroke fill markers" d=" M 899.9999999999995 405.75000000000034 C 899.9999999999995 408.5114237491543 897.7614237491536 410.75000000000034 894.9999999999995 410.75000000000034 C 892.2385762508455 410.75000000000034 889.9999999999995 408.5114237491543 889.9999999999995 405.75000000000034 C 889.9999999999995 402.9885762508464 892.2385762508455 400.75000000000034 894.9999999999995 400.75000000000034 C 897.7614237491536 400.75000000000034 899.9999999999995 402.9885762508464 899.9999999999995 405.75000000000034 Z" fill-opacity="1"/><path fill="none" stroke="rgb(0,0,0)" paint-order="fill stroke markers" d=" M 899.9999999999995 405.75000000000034 C 899.9999999999995 408.5114237491543 897.7614237491536 410.75000000000034 894.9999999999995 410.75000000000034 C 892.2385762508455 410.75000000000034 889.9999999999995 408.5114237491543 889.9999999999995 405.75000000000034 C 889.9999999999995 402.9885762508464 892.2385762508455 400.75000000000034 894.9999999999995 400.75000000000034 C 897.7614237491536 400.75000000000034 899.9999999999995 402.9885762508464 899.9999999999995 405.75000000000034 Z" stroke-opacity="1" stroke-linecap="round" stroke-linejoin="round" stroke-miterlimit="10"/><text fill="rgb(21,101,192)" stroke="none" font-family="geogebra-sans-serif, sans-serif" font-size="24px" font-style="normal" font-weight="normal" text-decoration="normal" x="871" y="387" text-anchor="start" dominant-baseline="alphabetic" fill-opacity="1">B'</text><text fill="none" stroke="rgb(255,255,255)" font-family="geogebra-sans-serif, sans-serif" font-size="24px" font-style="normal" font-weight="normal" text-decoration="normal" x="871" y="387" text-anchor="start" dominant-baseline="alphabetic" stroke-opacity="1" stroke-linejoin="bevel" stroke-miterlimit="10" stroke-width="3">B'</text><text fill="rgb(21,101,192)" stroke="none" font-family="geogebra-sans-serif, sans-serif" font-size="24px" font-style="normal" font-weight="normal" text-decoration="normal" x="871" y="387" text-anchor="start" dominant-baseline="alphabetic" fill-opacity="1">B'</text><path fill="rgb(21,101,192)" stroke="none" paint-order="stroke fill markers" d=" M 1199.9999999999989 105.75000000000108 C 1199.9999999999989 108.51142374915504 1197.7614237491528 110.75000000000108 1194.9999999999989 110.75000000000108 C 1192.238576250845 110.75000000000108 1189.9999999999989 108.51142374915504 1189.9999999999989 105.75000000000108 C 1189.9999999999989 102.98857625084712 1192.238576250845 100.75000000000108 1194.9999999999989 100.75000000000108 C 1197.7614237491528 100.75000000000108 1199.9999999999989 102.98857625084712 1199.9999999999989 105.75000000000108 Z" fill-opacity="1"/><path fill="none" stroke="rgb(0,0,0)" paint-order="fill stroke markers" d=" M 1199.9999999999989 105.75000000000108 C 1199.9999999999989 108.51142374915504 1197.7614237491528 110.75000000000108 1194.9999999999989 110.75000000000108 C 1192.238576250845 110.75000000000108 1189.9999999999989 108.51142374915504 1189.9999999999989 105.75000000000108 C 1189.9999999999989 102.98857625084712 1192.238576250845 100.75000000000108 1194.9999999999989 100.75000000000108 C 1197.7614237491528 100.75000000000108 1199.9999999999989 102.98857625084712 1199.9999999999989 105.75000000000108 Z" stroke-opacity="1" stroke-linecap="round" stroke-linejoin="round" stroke-miterlimit="10"/><path fill="rgb(97,97,97)" stroke="none" paint-order="stroke fill markers" d=" M 986.8679656440349 193.61796564403664 C 986.8679656440349 195.8271046433598 985.0771046433581 197.61796564403664 982.8679656440349 197.61796564403664 C 980.6588266447118 197.61796564403664 978.8679656440349 195.8271046433598 978.8679656440349 193.61796564403664 C 978.8679656440349 191.40882664471346 980.6588266447118 189.61796564403664 982.8679656440349 189.61796564403664 C 985.0771046433581 189.61796564403664 986.8679656440349 191.40882664471346 986.8679656440349 193.61796564403664 Z" fill-opacity="1"/><path fill="none" stroke="rgb(0,0,0)" paint-order="fill stroke markers" d=" M 986.8679656440349 193.61796564403664 C 986.8679656440349 195.8271046433598 985.0771046433581 197.61796564403664 982.8679656440349 197.61796564403664 C 980.6588266447118 197.61796564403664 978.8679656440349 195.8271046433598 978.8679656440349 193.61796564403664 C 978.8679656440349 191.40882664471346 980.6588266447118 189.61796564403664 982.8679656440349 189.61796564403664 C 985.0771046433581 189.61796564403664 986.8679656440349 191.40882664471346 986.8679656440349 193.61796564403664 Z" stroke-opacity="1" stroke-linecap="round" stroke-linejoin="round" stroke-miterlimit="10"/><text fill="rgb(97,97,97)" stroke="none" font-family="geogebra-sans-serif, sans-serif" font-size="24px" font-style="normal" font-weight="normal" text-decoration="normal" x="955" y="180" text-anchor="start" dominant-baseline="alphabetic" fill-opacity="1">G'</text><text fill="none" stroke="rgb(255,255,255)" font-family="geogebra-sans-serif, sans-serif" font-size="24px" font-style="normal" font-weight="normal" text-decoration="normal" x="955" y="180" text-anchor="start" dominant-baseline="alphabetic" stroke-opacity="1" stroke-linejoin="bevel" stroke-miterlimit="10" stroke-width="3">G'</text><text fill="rgb(97,97,97)" stroke="none" font-family="geogebra-sans-serif, sans-serif" font-size="24px" font-style="normal" font-weight="normal" text-decoration="normal" x="955" y="180" text-anchor="start" dominant-baseline="alphabetic" fill-opacity="1">G'</text><path fill="rgb(97,97,97)" stroke="none" paint-order="stroke fill markers" d=" M 986.8679656440349 405.75000000000034 C 986.8679656440349 407.9591389993235 985.0771046433581 409.75000000000034 982.8679656440349 409.75000000000034 C 980.6588266447118 409.75000000000034 978.8679656440349 407.9591389993235 978.8679656440349 405.75000000000034 C 978.8679656440349 403.5408610006772 980.6588266447118 401.75000000000034 982.8679656440349 401.75000000000034 C 985.0771046433581 401.75000000000034 986.8679656440349 403.5408610006772 986.8679656440349 405.75000000000034 Z" fill-opacity="1"/><path fill="none" stroke="rgb(0,0,0)" paint-order="fill stroke markers" d=" M 986.8679656440349 405.75000000000034 C 986.8679656440349 407.9591389993235 985.0771046433581 409.75000000000034 982.8679656440349 409.75000000000034 C 980.6588266447118 409.75000000000034 978.8679656440349 407.9591389993235 978.8679656440349 405.75000000000034 C 978.8679656440349 403.5408610006772 980.6588266447118 401.75000000000034 982.8679656440349 401.75000000000034 C 985.0771046433581 401.75000000000034 986.8679656440349 403.5408610006772 986.8679656440349 405.75000000000034 Z" stroke-opacity="1" stroke-linecap="round" stroke-linejoin="round" stroke-miterlimit="10"/><text fill="rgb(97,97,97)" stroke="none" font-family="geogebra-sans-serif, sans-serif" font-size="24px" font-style="normal" font-weight="normal" text-decoration="normal" x="975" y="443" text-anchor="start" dominant-baseline="alphabetic" fill-opacity="1">P</text><text fill="none" stroke="rgb(255,255,255)" font-family="geogebra-sans-serif, sans-serif" font-size="24px" font-style="normal" font-weight="normal" text-decoration="normal" x="975" y="443" text-anchor="start" dominant-baseline="alphabetic" stroke-opacity="1" stroke-linejoin="bevel" stroke-miterlimit="10" stroke-width="3">P</text><text fill="rgb(97,97,97)" stroke="none" font-family="geogebra-sans-serif, sans-serif" font-size="24px" font-style="normal" font-weight="normal" text-decoration="normal" x="975" y="443" text-anchor="start" dominant-baseline="alphabetic" fill-opacity="1">P</text><g transform="scale(27,27)"><g transform="translate(39.148148148148145,20.69087837037037)"><path fill="rgb(0,0,0)" stroke="none" paint-order="stroke fill markers" d=" M 0.303 -0.316 L 0.303 -0.316 L 0.241 -0.066 L 0.23800000000000002 -0.049 Q 0.23800000000000002 -0.032 0.28400000000000003 -0.031 L 0.28400000000000003 -0.031 L 0.28400000000000003 -0.031 L 0.303 -0.031 Q 0.329 -0.031 0.331 -0.02 Q 0.331 0 0.311 0 L 0.247 -0.002 L 0.246 -0.002 L 0.184 -0.003 L 0.182 -0.003 L 0.056 0 L 0.055 0 Q 0.04 0 0.04 -0.012 Q 0.04 -0.029 0.056 -0.031 L 0.068 -0.031 Q 0.133 -0.031 0.146 -0.045 Q 0.152 -0.052000000000000005 0.158 -0.073 Q 0.158 -0.074 0.159 -0.078 L 0.293 -0.615 Q 0.297 -0.631 0.297 -0.634 Q 0.297 -0.646 0.281 -0.649 L 0.28 -0.649 L 0.28 -0.649 Q 0.278 -0.65 0.275 -0.65 Q 0.251 -0.652 0.232 -0.652 Q 0.20600000000000002 -0.652 0.20400000000000001 -0.66 Q 0.203 -0.662 0.203 -0.664 Q 0.203 -0.681 0.22 -0.683 L 0.22 -0.683 L 0.233 -0.683 L 0.557 -0.683 Q 0.678 -0.683 0.73 -0.609 Q 0.754 -0.5740000000000001 0.754 -0.532 Q 0.754 -0.451 0.671 -0.385 Q 0.583 -0.316 0.47300000000000003 -0.316 L 0.303 -0.316 M 0.375 -0.614 L 0.307 -0.342 L 0.448 -0.342 Q 0.543 -0.342 0.602 -0.395 Q 0.643 -0.433 0.658 -0.522 L 0.658 -0.523 Q 0.661 -0.542 0.661 -0.556 Q 0.661 -0.652 0.525 -0.652 L 0.429 -0.652 Q 0.393 -0.652 0.385 -0.642 L 0.385 -0.642 L 0.385 -0.641 L 0.384 -0.641 L 0.384 -0.64 Q 0.38 -0.634 0.375 -0.614 Z"/></g><g transform="translate(39.929148148148144,20.69087837037037)"><path fill="rgb(0,0,0)" stroke="none" paint-order="stroke fill markers" d=" M 0.76 -0.6950000000000001 L 0.6970000000000001 -0.44 Q 0.6920000000000001 -0.422 0.687 -0.421 L 0.686 -0.42 L 0.679 -0.42 Q 0.664 -0.42 0.664 -0.43 L 0.667 -0.47900000000000004 L 0.667 -0.481 Q 0.667 -0.605 0.589 -0.652 L 0.588 -0.653 Q 0.553 -0.674 0.506 -0.674 Q 0.399 -0.674 0.303 -0.593 Q 0.276 -0.5710000000000001 0.256 -0.545 Q 0.16 -0.427 0.14300000000000002 -0.255 Q 0.14100000000000001 -0.234 0.14100000000000001 -0.219 Q 0.14100000000000001 -0.082 0.245 -0.031 Q 0.289 -0.009000000000000001 0.342 -0.009000000000000001 Q 0.427 -0.009000000000000001 0.483 -0.052000000000000005 Q 0.523 -0.082 0.535 -0.13 Q 0.556 -0.20800000000000002 0.556 -0.221 Q 0.556 -0.234 0.541 -0.23800000000000002 Q 0.536 -0.23900000000000002 0.525 -0.24 Q 0.502 -0.242 0.47200000000000003 -0.242 Q 0.445 -0.242 0.443 -0.248 Q 0.442 -0.249 0.442 -0.253 Q 0.442 -0.273 0.463 -0.273 L 0.602 -0.27 L 0.603 -0.27 L 0.707 -0.273 L 0.708 -0.273 Q 0.721 -0.273 0.721 -0.262 Q 0.721 -0.242 0.705 -0.242 Q 0.659 -0.241 0.65 -0.232 Q 0.644 -0.225 0.636 -0.194 Q 0.636 -0.196 0.626 -0.155 Q 0.624 -0.148 0.623 -0.14300000000000002 L 0.604 -0.066 Q 0.59 -0.008 0.587 -0.005 Q 0.587 -0.001 0.58 -0.001 Q 0.5690000000000001 -0.001 0.546 -0.039 Q 0.539 -0.052000000000000005 0.535 -0.063 Q 0.501 -0.025 0.458 -0.006 L 0.448 -0.002 Q 0.39 0.022 0.323 0.022 Q 0.188 0.022 0.111 -0.07200000000000001 Q 0.05 -0.146 0.05 -0.252 Q 0.05 -0.401 0.159 -0.531 Q 0.26 -0.652 0.398 -0.6910000000000001 Q 0.449 -0.705 0.498 -0.705 Q 0.607 -0.705 0.664 -0.616 L 0.734 -0.6930000000000001 Q 0.746 -0.705 0.749 -0.705 Q 0.76 -0.705 0.76 -0.6950000000000001 Z"/></g><g transform="translate(40.715148148148145,20.27798637037037) scale(0.7,0.7)"><path fill="rgb(0,0,0)" stroke="none" paint-order="stroke fill markers" d=" M 0.255 -0.47900000000000004 L 0.076 -0.059000000000000004 Q 0.07 -0.045 0.063 -0.045 Q 0.045 -0.045 0.033 -0.056 Q 0.029 -0.059000000000000004 0.029 -0.063 Q 0.029 -0.065 0.032 -0.077 L 0.153 -0.513 Q 0.166 -0.554 0.197 -0.558 Q 0.202 -0.559 0.20600000000000002 -0.559 Q 0.24 -0.559 0.256 -0.53 Q 0.262 -0.519 0.262 -0.507 Q 0.262 -0.494 0.255 -0.47900000000000004 Z"/></g><g transform="translate(41.20387525944259,20.69087837037037)"><path fill="rgb(0,0,0)" stroke="none" paint-order="stroke fill markers" d=" M 0.687 -0.327 L 0.09 -0.327 Q 0.058 -0.327 0.056 -0.34700000000000003 Q 0.056 -0.367 0.089 -0.367 L 0.6880000000000001 -0.367 Q 0.72 -0.367 0.721 -0.34700000000000003 Q 0.721 -0.327 0.687 -0.327 M 0.6880000000000001 -0.133 L 0.089 -0.133 Q 0.057 -0.133 0.056 -0.153 Q 0.056 -0.17300000000000001 0.09 -0.17300000000000001 L 0.687 -0.17300000000000001 Q 0.719 -0.17300000000000001 0.721 -0.153 Q 0.721 -0.133 0.6880000000000001 -0.133 Z"/></g><g transform="translate(42.748209215438145,20.01437037037037)"><path fill="rgb(0,0,0)" stroke="none" paint-order="stroke fill markers" d=" M 0.028 -0.165 L 0.028 -0.196 L 0.335 -0.665 Q 0.343 -0.677 0.355 -0.677 Q 0.369 -0.677 0.371 -0.666 L 0.371 -0.651 L 0.371 -0.196 L 0.47100000000000003 -0.196 L 0.47100000000000003 -0.165 L 0.371 -0.165 L 0.371 -0.078 Q 0.371 -0.047 0.383 -0.04 Q 0.397 -0.031 0.447 -0.031 L 0.468 -0.031 L 0.468 0 Q 0.427 -0.003 0.332 -0.003 Q 0.23800000000000002 -0.003 0.197 0 L 0.197 -0.031 L 0.218 -0.031 Q 0.28 -0.031 0.29 -0.048 Q 0.294 -0.055 0.294 -0.078 L 0.294 -0.165 L 0.028 -0.165 M 0.3 -0.196 L 0.3 -0.5690000000000001 L 0.056 -0.196 L 0.3 -0.196 Z"/></g><rect fill="rgb(0,0,0)" stroke="none" x="42.30393143766037" y="20.42087887037037" width="1.3885555555555555" height="0.039999"/><g transform="translate(42.30393143766037,20.660873870370374)"><path fill="rgb(0,0,0)" stroke="none" paint-order="stroke fill markers" d=" M 0.389 0.855 L 0.812 -0.021 Q 0.8250000000000001 -0.038 0.833 -0.04 Q 0.85 -0.04 0.853 -0.02 Q 0.853 -0.016 0.847 -0.003 L 0.391 0.9410000000000001 Q 0.383 0.9570000000000001 0.375 0.9590000000000001 Q 0.372 0.96 0.366 0.96 Q 0.354 0.96 0.35000000000000003 0.9510000000000001 L 0.34700000000000003 0.9450000000000001 L 0.149 0.51 L 0.097 0.549 Q 0.088 0.557 0.083 0.557 Q 0.073 0.557 0.073 0.546 Q 0.073 0.542 0.085 0.532 L 0.184 0.457 Q 0.193 0.449 0.198 0.449 Q 0.20400000000000001 0.449 0.211 0.463 L 0.389 0.855 Z"/></g><rect fill="rgb(0,0,0)" stroke="none" x="43.136931437660365" y="20.620874870370372" width="0.5555555555555556" height="0.04"/><g transform="translate(43.136931437660365,21.48787424537037)"><path fill="rgb(0,0,0)" stroke="none" paint-order="stroke fill markers" d=" M 0.449 -0.17400000000000002 L 0.449 -0.17400000000000002 L 0.421 0 L 0.05 0 Q 0.05 -0.025 0.056 -0.032 L 0.061 -0.037 L 0.253 -0.251 Q 0.358 -0.369 0.358 -0.47200000000000003 Q 0.358 -0.561 0.304 -0.607 L 0.303 -0.608 L 0.302 -0.608 Q 0.27 -0.635 0.224 -0.635 Q 0.152 -0.635 0.109 -0.5730000000000001 Q 0.097 -0.555 0.089 -0.533 Q 0.092 -0.534 0.10200000000000001 -0.534 Q 0.14200000000000002 -0.534 0.153 -0.498 L 0.153 -0.497 Q 0.155 -0.49 0.155 -0.482 Q 0.155 -0.442 0.117 -0.431 Q 0.109 -0.429 0.10300000000000001 -0.429 Q 0.066 -0.429 0.054 -0.46 Q 0.05 -0.47100000000000003 0.05 -0.485 Q 0.05 -0.562 0.109 -0.617 Q 0.162 -0.666 0.23700000000000002 -0.666 Q 0.34700000000000003 -0.666 0.40800000000000003 -0.592 Q 0.443 -0.549 0.448 -0.49 Q 0.449 -0.481 0.449 -0.47200000000000003 Q 0.449 -0.399 0.394 -0.333 Q 0.365 -0.299 0.304 -0.243 L 0.243 -0.189 L 0.233 -0.18 L 0.127 -0.077 L 0.307 -0.077 Q 0.395 -0.077 0.402 -0.085 Q 0.41200000000000003 -0.099 0.424 -0.17400000000000002 L 0.449 -0.17400000000000002 Z"/></g><g transform="translate(44.0145431714337,20.69087837037037)"><path fill="rgb(0,0,0)" stroke="none" paint-order="stroke fill markers" d=" M 0.721 -0.452 Q 0.721 -0.369 0.655 -0.321 Q 0.611 -0.289 0.555 -0.289 Q 0.492 -0.289 0.40700000000000003 -0.34500000000000003 Q 0.403 -0.34700000000000003 0.395 -0.352 Q 0.31 -0.40800000000000003 0.271 -0.42 Q 0.247 -0.427 0.222 -0.427 Q 0.161 -0.427 0.11900000000000001 -0.388 Q 0.117 -0.386 0.114 -0.384 Q 0.08600000000000001 -0.355 0.084 -0.313 Q 0.084 -0.294 0.07 -0.29 Q 0.056 -0.29 0.056 -0.32 Q 0.056 -0.403 0.122 -0.451 Q 0.166 -0.483 0.222 -0.483 Q 0.28500000000000003 -0.483 0.37 -0.427 Q 0.374 -0.425 0.382 -0.42 Q 0.467 -0.364 0.506 -0.352 Q 0.53 -0.34500000000000003 0.555 -0.34500000000000003 Q 0.621 -0.34500000000000003 0.663 -0.389 Q 0.6910000000000001 -0.418 0.6930000000000001 -0.455 Q 0.6960000000000001 -0.482 0.707 -0.482 Q 0.721 -0.482 0.721 -0.452 M 0.721 -0.218 Q 0.721 -0.139 0.658 -0.091 Q 0.614 -0.056 0.555 -0.056 Q 0.492 -0.056 0.40700000000000003 -0.112 Q 0.403 -0.114 0.395 -0.11900000000000001 Q 0.31 -0.17500000000000002 0.271 -0.187 Q 0.247 -0.194 0.222 -0.194 Q 0.161 -0.194 0.11900000000000001 -0.155 Q 0.08700000000000001 -0.125 0.084 -0.08 Q 0.084 -0.061 0.07 -0.057 Q 0.056 -0.057 0.056 -0.08700000000000001 Q 0.056 -0.17 0.122 -0.218 Q 0.166 -0.25 0.222 -0.25 Q 0.28500000000000003 -0.25 0.37 -0.194 Q 0.374 -0.192 0.382 -0.187 Q 0.467 -0.131 0.506 -0.11900000000000001 Q 0.53 -0.112 0.555 -0.112 Q 0.625 -0.112 0.667 -0.16 Q 0.6900000000000001 -0.186 0.6930000000000001 -0.217 Q 0.6950000000000001 -0.249 0.707 -0.249 Q 0.721 -0.249 0.721 -0.218 Z"/></g><g transform="translate(45.07032094921148,20.69087837037037)"><path fill="rgb(0,0,0)" stroke="none" paint-order="stroke fill markers" d=" M 0.449 -0.17400000000000002 L 0.449 -0.17400000000000002 L 0.421 0 L 0.05 0 Q 0.05 -0.025 0.056 -0.032 L 0.061 -0.037 L 0.253 -0.251 Q 0.358 -0.369 0.358 -0.47200000000000003 Q 0.358 -0.561 0.304 -0.607 L 0.303 -0.608 L 0.302 -0.608 Q 0.27 -0.635 0.224 -0.635 Q 0.152 -0.635 0.109 -0.5730000000000001 Q 0.097 -0.555 0.089 -0.533 Q 0.092 -0.534 0.10200000000000001 -0.534 Q 0.14200000000000002 -0.534 0.153 -0.498 L 0.153 -0.497 Q 0.155 -0.49 0.155 -0.482 Q 0.155 -0.442 0.117 -0.431 Q 0.109 -0.429 0.10300000000000001 -0.429 Q 0.066 -0.429 0.054 -0.46 Q 0.05 -0.47100000000000003 0.05 -0.485 Q 0.05 -0.562 0.109 -0.617 Q 0.162 -0.666 0.23700000000000002 -0.666 Q 0.34700000000000003 -0.666 0.40800000000000003 -0.592 Q 0.443 -0.549 0.448 -0.49 Q 0.449 -0.481 0.449 -0.47200000000000003 Q 0.449 -0.399 0.394 -0.333 Q 0.365 -0.299 0.304 -0.243 L 0.243 -0.189 L 0.233 -0.18 L 0.127 -0.077 L 0.307 -0.077 Q 0.395 -0.077 0.402 -0.085 Q 0.41200000000000003 -0.099 0.424 -0.17400000000000002 L 0.449 -0.17400000000000002 Z"/></g><g transform="translate(45.57032094921148,20.69087837037037)"><path fill="rgb(0,0,0)" stroke="none" paint-order="stroke fill markers" d=" M 0.18 -0.083 L 0.18 0 L 0.097 0 L 0.097 -0.083 L 0.18 -0.083 Z"/></g><g transform="translate(45.84832094921148,20.69087837037037)"><path fill="rgb(0,0,0)" stroke="none" paint-order="stroke fill markers" d=" M 0.163 -0.457 L 0.28700000000000003 -0.377 Q 0.386 -0.435 0.386 -0.517 Q 0.386 -0.583 0.326 -0.62 Q 0.291 -0.641 0.249 -0.641 Q 0.177 -0.641 0.136 -0.596 L 0.136 -0.596 L 0.135 -0.595 Q 0.113 -0.5690000000000001 0.113 -0.538 Q 0.113 -0.49 0.163 -0.457 M 0.309 -0.362 L 0.309 -0.362 Q 0.386 -0.314 0.403 -0.296 Q 0.406 -0.294 0.40800000000000003 -0.291 Q 0.457 -0.23700000000000002 0.457 -0.168 Q 0.457 -0.079 0.383 -0.023 Q 0.325 0.022 0.249 0.022 Q 0.154 0.022 0.092 -0.037 Q 0.042 -0.085 0.042 -0.151 Q 0.042 -0.263 0.186 -0.335 Q 0.124 -0.377 0.113 -0.389 Q 0.069 -0.438 0.069 -0.499 Q 0.069 -0.579 0.136 -0.629 Q 0.186 -0.666 0.25 -0.666 Q 0.337 -0.666 0.391 -0.611 Q 0.43 -0.5710000000000001 0.43 -0.517 Q 0.43 -0.424 0.309 -0.362 M 0.209 -0.32 L 0.209 -0.32 Q 0.097 -0.25 0.092 -0.151 Q 0.092 -0.078 0.155 -0.035 Q 0.197 -0.006 0.25 -0.006 Q 0.328 -0.006 0.375 -0.055 Q 0.40700000000000003 -0.089 0.40700000000000003 -0.132 Q 0.40700000000000003 -0.19 0.343 -0.23500000000000001 Q 0.341 -0.23600000000000002 0.332 -0.242 L 0.209 -0.32 Z"/></g><g transform="translate(46.34832094921148,20.69087837037037)"><path fill="rgb(0,0,0)" stroke="none" paint-order="stroke fill markers" d=" M 0.29 -0.352 L 0.29 -0.352 Q 0.39 -0.332 0.434 -0.254 Q 0.457 -0.215 0.457 -0.171 Q 0.457 -0.08600000000000001 0.387 -0.028 Q 0.326 0.022 0.244 0.022 Q 0.145 0.022 0.085 -0.037 Q 0.042 -0.079 0.042 -0.135 Q 0.042 -0.182 0.084 -0.191 Q 0.091 -0.193 0.098 -0.193 Q 0.136 -0.193 0.149 -0.161 Q 0.153 -0.148 0.154 -0.137 Q 0.154 -0.097 0.11800000000000001 -0.085 Q 0.10400000000000001 -0.08 0.088 -0.082 Q 0.125 -0.02 0.216 -0.008 Q 0.229 -0.006 0.241 -0.006 Q 0.305 -0.006 0.335 -0.069 Q 0.354 -0.109 0.354 -0.171 Q 0.354 -0.304 0.274 -0.331 Q 0.256 -0.337 0.23500000000000001 -0.337 L 0.191 -0.337 Q 0.169 -0.337 0.167 -0.34800000000000003 Q 0.167 -0.358 0.182 -0.36 Q 0.197 -0.36 0.221 -0.363 Q 0.272 -0.365 0.301 -0.402 L 0.301 -0.403 L 0.302 -0.404 L 0.303 -0.405 L 0.304 -0.405 L 0.31 -0.41500000000000004 Q 0.338 -0.462 0.338 -0.529 Q 0.338 -0.622 0.266 -0.638 Q 0.254 -0.641 0.242 -0.641 Q 0.17200000000000001 -0.641 0.128 -0.601 Q 0.117 -0.591 0.109 -0.579 Q 0.171 -0.579 0.171 -0.529 Q 0.171 -0.493 0.14 -0.481 Q 0.131 -0.47800000000000004 0.12 -0.47800000000000004 Q 0.081 -0.47800000000000004 0.07100000000000001 -0.513 L 0.07100000000000001 -0.513 L 0.07100000000000001 -0.514 Q 0.069 -0.522 0.069 -0.53 Q 0.069 -0.597 0.135 -0.637 Q 0.183 -0.666 0.246 -0.666 Q 0.337 -0.666 0.393 -0.612 L 0.395 -0.61 Q 0.43 -0.5740000000000001 0.43 -0.528 Q 0.43 -0.445 0.359 -0.389 Q 0.328 -0.365 0.29 -0.352 Z"/></g></g></g></g></svg>