<svg xmlns="http://www.w3.org/2000/svg" id="diagram" width="310" height="310"><defs><clipPath id="clipPath-0"><rect x="5.0" y="5.0" width="300.0" height="300.0"/></clipPath><clipPath id="clipPath-1"><rect x="5.0" y="5.0" width="300.0" height="300.0"/></clipPath></defs><path id="path-0" d="M 35.0 155.0 L 275.0 155.0 L 155.0 95.0 Z" stroke="none" stroke-width="2" fill="skyblue" clip-path="url(#clipPath-1)"/><circle id="circle-0" cx="35.0" cy="155.0" r="4" stroke="black" stroke-width="2" fill="red"/><circle id="circle-1" cx="275.0" cy="155.0" r="4" stroke="black" stroke-width="2" fill="red"/><circle id="circle-2" cx="155.0" cy="95.0" r="4" stroke="black" stroke-width="2" fill="red"/><g id="label-0" transform="translate(65.0,149.0) translate(-9.8,-5.0)"><g id="g-0"><text font-family="sans" font-size="14" x="0.0" y="10.0">30&#176;</text></g></g><g id="label-1" transform="translate(245.0,149.0) translate(-9.8,-5.0)"><g id="g-1"><text font-family="sans" font-size="14" x="0.0" y="10.0">30&#176;</text></g></g><g id="label-2" transform="translate(158.0,110.0) translate(-13.3,-5.0)"><g id="g-2"><text font-family="sans" font-size="14" x="0.0" y="10.0">120&#176;</text></g></g><g id="label-3" transform="translate(20.0,155.0) translate(-5.1,-5.0)"><g id="g-3"><text font-family="sans" font-size="14" x="0.0" y="10.0">A</text></g></g><g id="label-4" transform="translate(290.0,155.0) translate(-4.7,-5.0)"><g id="g-4"><text font-family="sans" font-size="14" x="0.0" y="10.0">C</text></g></g><g id="label-5" transform="translate(155.0,80.0) translate(-4.7,-5.0)"><g id="g-5"><text font-family="sans" font-size="14" x="0.0" y="10.0">B</text></g></g></svg>