<svg viewBox="0 0 500 500" width="500" height="500" xmlns="http://www.w3.org/2000/svg" style="font-family: &quot;Source Sans Pro&quot;, Helvetica, sans-serif; font-size: 18px; text-decoration: none solid rgb(51, 51, 51); color: rgb(51, 51, 51); text-anchor: middle; transform-origin: 840px 443.5px; white-space: normal; line-height: 28.8px; marker: none; stroke-linecap: round; stroke-linejoin: round;"><defs style="display: inline; transform-origin: 0px 0px;"><pattern id="square2-grid" x="0" y="0" width="50" height="50" patternUnits="userSpaceOnUse" style="transform-origin: 0px 0px;"><rect x="0" y="0" width="50" height="50" opacity="0.4" style="opacity: 0.4; transform-origin: 0px 0px; fill: none; stroke: rgb(24, 24, 36);"/></pattern><pattern id="square-dots" x="-4" y="-4" width="25" height="25" patternUnits="userSpaceOnUse" style="transform-origin: 0px 0px;"><circle cx="4" cy="4" r="2" opacity="0.6" style="opacity: 0.6; transform-origin: 2px 2px; fill: rgb(24, 24, 36); transform-box: fill-box;"/></pattern><pattern id="square-grid" x="0" y="0" width="125" height="125" patternUnits="userSpaceOnUse" style="transform-origin: 0px 0px;"><g opacity="0.4" style="opacity: 0.4; transform-origin: 62.5px 62.5px; transform-box: fill-box;"><line x1="25" y1="0" x2="25" y2="125" style="opacity: 1; transform-origin: 0px 62.5px; fill: none; stroke: rgb(24, 24, 36); transform-box: fill-box;"/><line x1="0" y1="25" x2="125" y2="25" style="opacity: 1; transform-origin: 62.5px 0px; fill: none; stroke: rgb(24, 24, 36); transform-box: fill-box;"/><line x1="50" y1="0" x2="50" y2="125" style="opacity: 1; transform-origin: 0px 62.5px; fill: none; stroke: rgb(24, 24, 36); transform-box: fill-box;"/><line x1="0" y1="50" x2="125" y2="50" style="opacity: 1; transform-origin: 62.5px 0px; fill: none; stroke: rgb(24, 24, 36); transform-box: fill-box;"/><line x1="75" y1="0" x2="75" y2="125" style="opacity: 1; transform-origin: 0px 62.5px; fill: none; stroke: rgb(24, 24, 36); transform-box: fill-box;"/><line x1="0" y1="75" x2="125" y2="75" style="opacity: 1; transform-origin: 62.5px 0px; fill: none; stroke: rgb(24, 24, 36); transform-box: fill-box;"/><line x1="100" y1="0" x2="100" y2="125" style="opacity: 1; transform-origin: 0px 62.5px; fill: none; stroke: rgb(24, 24, 36); transform-box: fill-box;"/><line x1="0" y1="100" x2="125" y2="100" style="opacity: 1; transform-origin: 62.5px 0px; fill: none; stroke: rgb(24, 24, 36); transform-box: fill-box;"/></g><rect x="0" y="0" width="125" height="125" style="transform-origin: 0px 0px; fill: none; stroke: rgb(24, 24, 36);"/></pattern><pattern id="tri-dots" x="0" y="-4" width="25" height="43.302" patternUnits="userSpaceOnUse" style="transform-origin: 0px 0px;"><circle cx="0" cy="4" r="2" opacity="0.6" style="opacity: 0.6; transform-origin: 2px 2px; fill: rgb(24, 24, 36); transform-box: fill-box;"/><circle cx="25" cy="4" r="2" opacity="0.6" style="opacity: 0.6; transform-origin: 2px 2px; fill: rgb(24, 24, 36); transform-box: fill-box;"/><circle cx="12.5" cy="25.651" r="2" opacity="0.6" style="opacity: 0.6; transform-origin: 2px 2px; fill: rgb(24, 24, 36); transform-box: fill-box;"/></pattern><pattern id="tri-grid" x="0" y="0" width="25" height="43.302" patternUnits="userSpaceOnUse" style="transform-origin: 0px 0px;"><g opacity="0.4" style="opacity: 0.4; transform-origin: 12.5px 21.651px; transform-box: fill-box;"><line x1="0" y1="0" x2="25" y2="0" style="opacity: 1; transform-origin: 12.5px 0px; fill: none; stroke: rgb(24, 24, 36); transform-box: fill-box;"/><line x1="0" y1="21.651" x2="25" y2="21.651" style="opacity: 1; transform-origin: 12.5px 0px; fill: none; stroke: rgb(24, 24, 36); transform-box: fill-box;"/><line x1="0" y1="43.302" x2="25" y2="43.302" style="opacity: 1; transform-origin: 12.5px 0px; fill: none; stroke: rgb(24, 24, 36); transform-box: fill-box;"/><line x1="0" y1="0" x2="25" y2="43.302" style="opacity: 1; transform-origin: 12.5px 21.651px; fill: none; stroke: rgb(24, 24, 36); transform-box: fill-box;"/><line x1="25" y1="0" x2="0" y2="43.302" style="opacity: 1; transform-origin: 12.5px 21.651px; fill: none; stroke: rgb(24, 24, 36); transform-box: fill-box;"/></g></pattern><pattern id="tri2-dots" x="-4" y="0" width="43.302" height="25" patternUnits="userSpaceOnUse" style="transform-origin: 0px 0px;"><circle cx="4" cy="0" r="2" opacity="0.6" style="opacity: 0.6; transform-origin: 2px 2px; fill: rgb(24, 24, 36); transform-box: fill-box;"/><circle cx="4" cy="25" r="2" opacity="0.6" style="opacity: 0.6; transform-origin: 2px 2px; fill: rgb(24, 24, 36); transform-box: fill-box;"/><circle cx="25.651" cy="12.5" r="2" opacity="0.6" style="opacity: 0.6; transform-origin: 2px 2px; fill: rgb(24, 24, 36); transform-box: fill-box;"/></pattern><pattern id="tri2-grid" x="0" y="0" width="43.302" height="25" patternUnits="userSpaceOnUse" style="transform-origin: 0px 0px;"><g opacity="0.4" style="opacity: 0.4; transform-origin: 21.651px 12.5px; transform-box: fill-box;"><line x1="0" y1="0" x2="0" y2="25" style="opacity: 1; transform-origin: 0px 12.5px; fill: none; stroke: rgb(24, 24, 36); transform-box: fill-box;"/><line x1="21.651" y1="0" x2="21.651" y2="25" style="opacity: 1; transform-origin: 0px 12.5px; fill: none; stroke: rgb(24, 24, 36); transform-box: fill-box;"/><line x1="43.302" y1="0" x2="43.302" y2="25" style="opacity: 1; transform-origin: 0px 12.5px; fill: none; stroke: rgb(24, 24, 36); transform-box: fill-box;"/><line x1="0" y1="0" x2="43.302" y2="25" style="opacity: 1; transform-origin: 21.651px 12.5px; fill: none; stroke: rgb(24, 24, 36); transform-box: fill-box;"/><line x1="0" y1="25" x2="43.302" y2="0" style="opacity: 1; transform-origin: 21.651px 12.5px; fill: none; stroke: rgb(24, 24, 36); transform-box: fill-box;"/></g></pattern><pattern id="square-checked" x="0" y="0" width="50" height="50" patternUnits="userSpaceOnUse" style="transform-origin: 0px 0px;"><rect x="0" y="0" width="25" height="25" opacity="0.4" style="opacity: 0.4; transform-origin: 0px 0px; fill: rgb(24, 24, 36);"/><rect x="25" y="25" width="25" height="25" opacity="0.4" style="opacity: 0.4; transform-origin: 0px 0px; fill: rgb(24, 24, 36);"/></pattern><radialGradient id="sphere-gradient" cx="65%" cy="35%" r="65%" style="transform-origin: 0px 0px;"><stop offset="0" stop-color="white" stop-opacity="0.3" style="transform-origin: 0px 0px;"/><stop offset="0.32" stop-color="white" stop-opacity="0" style="transform-origin: 0px 0px;"/><stop offset="0.33" stop-opacity="0" style="transform-origin: 0px 0px;"/><stop offset="1" stop-opacity="0.2" style="transform-origin: 0px 0px;"/></radialGradient><linearGradient id="card-gradient" style="transform-origin: 0px 0px;"><stop offset="0" stop-color="#999" style="transform-origin: 0px 0px;"/><stop offset="0.08" stop-color="#bbb" style="transform-origin: 0px 0px;"/><stop offset="0.92" stop-color="#bbb" style="transform-origin: 0px 0px;"/><stop offset="1" stop-color="#999" style="transform-origin: 0px 0px;"/></linearGradient><filter id="handdrawn" x="-20%" y="-20%" width="140%" height="140%" style="transform-origin: 0px 0px;"><feTurbulence type="fractalNoise" baseFrequency="0.004 0.004" numOctaves="26" stitchTiles="stitch" result="turbulence" style="transform-origin: 0px 0px;"/><feDisplacementMap in="SourceGraphic" in2="turbulence" scale="20" xChannelSelector="R" yChannelSelector="G" result="displacementMap" style="transform-origin: 0px 0px;"/></filter><filter id="pencil" x="-10%" y="-10%" width="110%" height="110%" filterUnits="objectBoundingBox" style="transform-origin: 0px 0px;"><feTurbulence type="fractalNoise" baseFrequency="1.2" numOctaves="3" result="noise" style="transform-origin: 0px 0px;"/><feDisplacementMap xChannelSelector="R" yChannelSelector="G" scale="2" in="SourceGraphic" result="newSource" style="transform-origin: 0px 0px;"/></filter><filter id="outline" style="transform-origin: 0px 0px;"><feMorphology in="SourceAlpha" result="DILATED" operator="dilate" radius="1.2" style="transform-origin: 0px 0px;"/><feFlood flood-color="var(--canvas-bg)" flood-opacity="1" result="WHITE" style="transform-origin: 0px 0px;"/><feComposite in="WHITE" in2="DILATED" operator="in" result="OUTLINE" style="transform-origin: 0px 0px;"/><feMerge style="transform-origin: 0px 0px;"><feMergeNode in="OUTLINE" style="transform-origin: 0px 0px;"/><feMergeNode in="SourceGraphic" style="transform-origin: 0px 0px;"/></feMerge></filter><symbol id="suit-c" viewBox="-12 -12 24 24" width="24" height="24" x="-12" y="-12" style="transform-origin: 0px 0px;"><path d="m0-10c2.3.1 4.2 1.9 4.3 4.2 0 1.6-.9 3-2.3 3.8.8-.3 1.6-.5 2.5-.5 2.4-.1 4.4 1.7 4.5 4.1v.2c0 2.3-1.9 4.2-4.2 4.2-.1 0-.2 0-.3 0-1.2-.1-2.4-.4-3.5-1 0 0-.3 2 2 5h-6c2.3-3 2-5 2-5-1.1.6-2.3.9-3.5 1-2.3.2-4.3-1.6-4.5-3.9 0-.1 0-.2 0-.3 0-2.4 1.9-4.3 4.3-4.3h.2c.9 0 1.7.2 2.5.5-1.4-.8-2.3-2.2-2.3-3.8.1-2.3 2-4.1 4.3-4.2z" style="transform-origin: 9px 10px; transform-box: fill-box;"/></symbol><symbol id="suit-s" viewBox="-12 -12 24 24" width="24" height="24" x="-12" y="-12" style="transform-origin: 0px 0px;"><path d="m0-10c-3 5-8 7-8 12 .1 2.1 1.9 3.9 4 4 1.1.1 2.2-.2 3-1 0 0 .3 2-2 5h6c-2-3-2-5-2-5 .8.8 1.9 1.1 3 1 2.1-.1 3.9-1.9 4-4 0-5-5-7-8-12z" style="transform-origin: 8px 10px; transform-box: fill-box;"/></symbol><symbol id="suit-h" viewBox="-12 -12 24 24" width="24" height="24" x="-12" y="-12" style="transform-origin: 0px 0px;"><path d="m0 8.5-1.3-1.3c-4.6-4.1-7.7-6.9-7.7-10.3-.1-2.7 2.1-4.9 4.8-5h.2c1.5 0 3.1.7 4 1.9 1-1.2 2.5-1.9 4-1.9 2.8-.1 4.9 2.1 5 4.8v.2c0 3.4-3.1 6.2-7.7 10.3z" style="transform-origin: 9.00164px 8.30164px; transform-box: fill-box;"/></symbol><symbol id="suit-d" viewBox="-12 -12 24 24" width="24" height="24" x="-12" y="-12" style="transform-origin: 0px 0px;"><path d="m7 0-7 10-7-10 7-10" style="transform-origin: 7px 10px; transform-box: fill-box;"/></symbol><pattern id="card-bg" width="6" height="8" patternUnits="userSpaceOnUse" style="transform-origin: 0px 0px;"><rect width="6" height="8" fill="#0f82f2" style="transform-origin: 0px 0px; fill: rgb(15, 130, 242);"/><line x2="6" y2="8" stroke="#eee" stroke-width="1" style="transform-origin: 3px 4px; stroke: rgb(238, 238, 238); transform-box: fill-box;"/><line x1="6" y2="8" stroke="#eee" stroke-width="1" style="transform-origin: 3px 4px; stroke: rgb(238, 238, 238); transform-box: fill-box;"/></pattern></defs><rect x="-365.8612143742255" y="-24.783147459727388" width="1040.89219330855" height="549.5662949194548" fill="none" style="display: inline; opacity: 0.25; transform-origin: 0px 0px; fill: none;"/><path d="M-1 -1h502v502h-502zM-20000-20000V20000H20000V-20000z" style="transform-origin: 20000px 20000px; fill: rgb(191, 191, 191); stroke: rgb(163, 163, 167); transform-box: fill-box;"/><g style="display: inline; transform-origin: 100px 50px; transform-box: fill-box;"><g transform="translate(125 87.5) rotate(270) " style="transform: matrix(0, -1, 1, 0, 125, 87.5); transform-origin: 0px 0px; transform-box: view-box;"><path fill="#22ab24" d="M-37.5,25L-37.5,-25L37.5,-25L37.5,0L-12.5,0L-12.5,25Z" style="transform: none; transform-origin: 37.5px 25px; fill: rgb(34, 171, 36); stroke: rgb(255, 255, 255); transform-box: fill-box;"/></g><g transform="translate(250 100)  " style="transform: matrix(1, 0, 0, 1, 250, 100); transform-origin: 0px 0px; transform-box: view-box;"><path fill="#0f82f2" d="M50.00000000000001,50L-50,50.00000000000001L-50.000000000000014,-50L49.99999999999999,-50.000000000000014Z" style="transform: none; transform-origin: 50px 50px; fill: rgb(15, 130, 242); stroke: rgb(255, 255, 255); transform-box: fill-box;"/></g></g></svg>