<svg version="1.1" xmlns="http://www.w3.org/2000/svg" xmlns:xlink="http://www.w3.org/1999/xlink" width="1848" height="847"><defs><clipPath id="ppPMTWwqHRgw"><path fill="none" stroke="none" d=" M 0 0 L 1848 0 L 1848 847 L 0 847 L 0 0 Z"/></clipPath></defs><g transform="scale(1,1)" clip-path="url(#ppPMTWwqHRgw)"><g><rect fill="rgb(255,255,255)" stroke="none" x="0" y="0" width="1848" height="847" fill-opacity="1"/><path fill="rgb(21,101,192)" stroke="none" paint-order="stroke fill markers" fill-rule="evenodd" d=" M 85 152.99999999999997 L 182 151.99999999999997 L 181 55.00000000000006 L 84 56 Z" fill-opacity="0.09803921568627451"/><path fill="none" stroke="rgb(21,101,192)" paint-order="fill stroke markers" d=" M 85 152.99999999999997 L 182 151.99999999999997 L 181 55.00000000000006 L 84 56 Z" stroke-opacity="0.8" stroke-linecap="round" stroke-linejoin="round" stroke-miterlimit="10" stroke-width="2.5"/><path fill="rgb(21,101,192)" stroke="none" paint-order="stroke fill markers" fill-rule="evenodd" d=" M 181 55.00000000000006 L 182 151.99999999999997 L 278.99999999999994 151 L 278 54.00000000000006 Z" fill-opacity="0.09803921568627451"/><path fill="none" stroke="rgb(21,101,192)" paint-order="fill stroke markers" d=" M 181 55.00000000000006 L 182 151.99999999999997 L 278.99999999999994 151 L 278 54.00000000000006 Z" stroke-opacity="0.8" stroke-linecap="round" stroke-linejoin="round" stroke-miterlimit="10" stroke-width="2.5"/><path fill="rgb(21,101,192)" stroke="none" paint-order="stroke fill markers" fill-rule="evenodd" d=" M 278 54.00000000000006 L 278.99999999999994 151 L 375.99999999999994 150.00000000000003 L 375 53.00000000000006 Z" fill-opacity="0.09803921568627451"/><path fill="none" stroke="rgb(21,101,192)" paint-order="fill stroke markers" d=" M 278 54.00000000000006 L 278.99999999999994 151 L 375.99999999999994 150.00000000000003 L 375 53.00000000000006 Z" stroke-opacity="0.8" stroke-linecap="round" stroke-linejoin="round" stroke-miterlimit="10" stroke-width="2.5"/><path fill="rgb(21,101,192)" stroke="none" paint-order="stroke fill markers" fill-rule="evenodd" d=" M 375 53.00000000000006 L 375.99999999999994 150.00000000000003 L 472.99999999999994 149.00000000000006 L 471.99999999999994 52.000000000000114 Z" fill-opacity="0.09803921568627451"/><path fill="none" stroke="rgb(21,101,192)" paint-order="fill stroke markers" d=" M 375 53.00000000000006 L 375.99999999999994 150.00000000000003 L 472.99999999999994 149.00000000000006 L 471.99999999999994 52.000000000000114 Z" stroke-opacity="0.8" stroke-linecap="round" stroke-linejoin="round" stroke-miterlimit="10" stroke-width="2.5"/><path fill="rgb(21,101,192)" stroke="none" paint-order="stroke fill markers" fill-rule="evenodd" d=" M 182 151.99999999999997 L 85 152.99999999999997 L 86 249.9999999999999 L 182.99999999999994 248.99999999999994 Z" fill-opacity="0.09803921568627451"/><path fill="none" stroke="rgb(21,101,192)" paint-order="fill stroke markers" d=" M 182 151.99999999999997 L 85 152.99999999999997 L 86 249.9999999999999 L 182.99999999999994 248.99999999999994 Z" stroke-opacity="0.8" stroke-linecap="round" stroke-linejoin="round" stroke-miterlimit="10" stroke-width="2.5"/><path fill="rgb(21,101,192)" stroke="none" paint-order="stroke fill markers" fill-rule="evenodd" d=" M 472.99999999999994 149.00000000000006 L 375.99999999999994 150.00000000000003 L 376.9999999999999 246.99999999999997 L 473.9999999999999 246 Z" fill-opacity="0.09803921568627451"/><path fill="none" stroke="rgb(21,101,192)" paint-order="fill stroke markers" d=" M 472.99999999999994 149.00000000000006 L 375.99999999999994 150.00000000000003 L 376.9999999999999 246.99999999999997 L 473.9999999999999 246 Z" stroke-opacity="0.8" stroke-linecap="round" stroke-linejoin="round" stroke-miterlimit="10" stroke-width="2.5"/><path fill="rgb(21,101,192)" stroke="none" paint-order="stroke fill markers" fill-rule="evenodd" d=" M 193 340 L 195 446.9999999999999 L 286.6647182049349 391.7679491924311 Z" fill-opacity="0.09803921568627451"/><path fill="none" stroke="rgb(21,101,192)" paint-order="fill stroke markers" d=" M 193 340 L 195 446.9999999999999 L 286.6647182049349 391.7679491924311 Z" stroke-opacity="0.8" stroke-linecap="round" stroke-linejoin="round" stroke-miterlimit="10" stroke-width="2.5"/><path fill="rgb(21,101,192)" stroke="none" paint-order="stroke fill markers" fill-rule="evenodd" d=" M 286.6647182049349 391.7679491924311 L 195 446.9999999999999 L 250.2320508075688 538.6647182049348 L 341.89676901250374 483.432667397366 Z" fill-opacity="0.09803921568627451"/><path fill="none" stroke="rgb(21,101,192)" paint-order="fill stroke markers" d=" M 286.6647182049349 391.7679491924311 L 195 446.9999999999999 L 250.2320508075688 538.6647182049348 L 341.89676901250374 483.432667397366 Z" stroke-opacity="0.8" stroke-linecap="round" stroke-linejoin="round" stroke-miterlimit="10" stroke-width="2.5"/><path fill="rgb(21,101,192)" stroke="none" paint-order="stroke fill markers" fill-rule="evenodd" d=" M 341.89676901250374 483.432667397366 L 250.2320508075688 538.6647182049348 L 343.8967690125036 590.4326673973659 Z" fill-opacity="0.09803921568627451"/><path fill="none" stroke="rgb(21,101,192)" paint-order="fill stroke markers" d=" M 341.89676901250374 483.432667397366 L 250.2320508075688 538.6647182049348 L 343.8967690125036 590.4326673973659 Z" stroke-opacity="0.8" stroke-linecap="round" stroke-linejoin="round" stroke-miterlimit="10" stroke-width="2.5"/><path fill="rgb(21,101,192)" stroke="none" paint-order="stroke fill markers" fill-rule="evenodd" d=" M 286.6647182049349 391.7679491924311 L 341.89676901250374 483.432667397366 L 433.5614872174387 428.2006165897972 L 378.3294364098699 336.5358983848623 Z" fill-opacity="0.09803921568627451"/><path fill="none" stroke="rgb(21,101,192)" paint-order="fill stroke markers" d=" M 286.6647182049349 391.7679491924311 L 341.89676901250374 483.432667397366 L 433.5614872174387 428.2006165897972 L 378.3294364098699 336.5358983848623 Z" stroke-opacity="0.8" stroke-linecap="round" stroke-linejoin="round" stroke-miterlimit="10" stroke-width="2.5"/><path fill="rgb(21,101,192)" stroke="none" paint-order="stroke fill markers" fill-rule="evenodd" d=" M 612 176 L 730 175 L 670.1339745962157 73.30900235343626 Z" fill-opacity="0.09803921568627451"/><path fill="none" stroke="rgb(21,101,192)" paint-order="fill stroke markers" d=" M 612 176 L 730 175 L 670.1339745962157 73.30900235343626 Z" stroke-opacity="0.8" stroke-linecap="round" stroke-linejoin="round" stroke-miterlimit="10" stroke-width="2.5"/><path fill="rgb(21,101,192)" stroke="none" paint-order="stroke fill markers" fill-rule="evenodd" d=" M 730 175 L 612 176 L 671.8660254037844 277.6909976465637 Z" fill-opacity="0.09803921568627451"/><path fill="none" stroke="rgb(21,101,192)" paint-order="fill stroke markers" d=" M 730 175 L 612 176 L 671.8660254037844 277.6909976465637 Z" stroke-opacity="0.8" stroke-linecap="round" stroke-linejoin="round" stroke-miterlimit="10" stroke-width="2.5"/><path fill="rgb(21,101,192)" stroke="none" paint-order="stroke fill markers" fill-rule="evenodd" d=" M 730 175 L 671.8660254037844 277.6909976465637 L 789.8660254037845 276.69099764656374 Z" fill-opacity="0.09803921568627451"/><path fill="none" stroke="rgb(21,101,192)" paint-order="fill stroke markers" d=" M 730 175 L 671.8660254037844 277.6909976465637 L 789.8660254037845 276.69099764656374 Z" stroke-opacity="0.8" stroke-linecap="round" stroke-linejoin="round" stroke-miterlimit="10" stroke-width="2.5"/><path fill="rgb(21,101,192)" stroke="none" paint-order="stroke fill markers" fill-rule="evenodd" d=" M 789.8660254037845 276.69099764656374 L 671.8660254037844 277.6909976465637 L 731.7320508075688 379.38199529312755 Z" fill-opacity="0.09803921568627451"/><path fill="none" stroke="rgb(21,101,192)" paint-order="fill stroke markers" d=" M 789.8660254037845 276.69099764656374 L 671.8660254037844 277.6909976465637 L 731.7320508075688 379.38199529312755 Z" stroke-opacity="0.8" stroke-linecap="round" stroke-linejoin="round" stroke-miterlimit="10" stroke-width="2.5"/><path fill="rgb(21,101,192)" stroke="none" paint-order="stroke fill markers" fill-rule="evenodd" d=" M 789.8660254037845 276.69099764656374 L 731.7320508075688 379.38199529312755 L 849.7320508075691 378.38199529312755 Z" fill-opacity="0.09803921568627451"/><path fill="none" stroke="rgb(21,101,192)" paint-order="fill stroke markers" d=" M 789.8660254037845 276.69099764656374 L 731.7320508075688 379.38199529312755 L 849.7320508075691 378.38199529312755 Z" stroke-opacity="0.8" stroke-linecap="round" stroke-linejoin="round" stroke-miterlimit="10" stroke-width="2.5"/><path fill="rgb(21,101,192)" stroke="none" paint-order="stroke fill markers" fill-rule="evenodd" d=" M 849.7320508075691 378.38199529312755 L 731.7320508075688 379.38199529312755 L 791.5980762113534 481.0729929396914 Z" fill-opacity="0.09803921568627451"/><path fill="none" stroke="rgb(21,101,192)" paint-order="fill stroke markers" d=" M 849.7320508075691 378.38199529312755 L 731.7320508075688 379.38199529312755 L 791.5980762113534 481.0729929396914 Z" stroke-opacity="0.8" stroke-linecap="round" stroke-linejoin="round" stroke-miterlimit="10" stroke-width="2.5"/><path fill="rgb(21,101,192)" stroke="none" paint-order="stroke fill markers" fill-rule="evenodd" d=" M 250.2320508075688 538.6647182049348 L 195 446.9999999999999 L 103.33528179506511 502.2320508075687 L 158.56733260263388 593.8967690125036 Z" fill-opacity="0.09803921568627451"/><path fill="none" stroke="rgb(21,101,192)" paint-order="fill stroke markers" d=" M 250.2320508075688 538.6647182049348 L 195 446.9999999999999 L 103.33528179506511 502.2320508075687 L 158.56733260263388 593.8967690125036 Z" stroke-opacity="0.8" stroke-linecap="round" stroke-linejoin="round" stroke-miterlimit="10" stroke-width="2.5"/><path fill="rgb(21,101,192)" stroke="none" paint-order="stroke fill markers" fill-rule="evenodd" d=" M 558.0520840988684 535.2934827050664 L 623.0395925065554 534.0192178343275 L 625 633.9999999999999 L 560.0124915923129 635.2742648707389 Z" fill-opacity="0.09803921568627451"/><path fill="rgb(21,101,192)" stroke="none" paint-order="stroke fill markers" fill-rule="evenodd" d=" M 688.0271009142425 532.7449529635885 L 623.0395925065554 534.0192178343275 L 625 633.9999999999999 L 689.9875084076871 632.725735129261 Z" fill-opacity="0.09803921568627451"/><path fill="rgb(21,101,192)" stroke="none" paint-order="stroke fill markers" fill-rule="evenodd" d=" M 691.261773278426 697.7132435369485 L 626.2742648707389 698.9875084076874 L 625 633.9999999999999 L 689.9875084076871 632.725735129261 Z" fill-opacity="0.09803921568627451"/><path fill="rgb(21,101,192)" stroke="none" paint-order="stroke fill markers" fill-rule="evenodd" d=" M 689.9875084076871 632.725735129261 L 789.9682905733598 630.7653276358164 L 791.2425554440988 695.752836043504 L 691.261773278426 697.7132435369485 Z" fill-opacity="0.09803921568627451"/><path fill="rgb(21,101,192)" stroke="none" paint-order="stroke fill markers" fill-rule="evenodd" d=" M 691.261773278426 697.7132435369485 L 692.536038149165 762.7007519446357 L 792.5168203148378 760.7403444511912 L 791.2425554440988 695.752836043504 Z" fill-opacity="0.09803921568627451"/><path fill="rgb(21,101,192)" stroke="none" paint-order="stroke fill markers" fill-rule="evenodd" d=" M 856.2300638517871 694.478571172765 L 791.2425554440988 695.752836043504 L 789.9682905733598 630.7653276358164 L 854.955798981048 629.4910627650775 Z" fill-opacity="0.09803921568627451"/><path fill="none" stroke="rgb(21,101,192)" paint-order="fill stroke markers" d=" M 85 152.99999999999997 L 182 151.99999999999997" stroke-opacity="0.8" stroke-linecap="round" stroke-linejoin="round" stroke-miterlimit="10" stroke-width="2.5"/><path fill="none" stroke="rgb(21,101,192)" paint-order="fill stroke markers" d=" M 182 151.99999999999997 L 181 55.00000000000006" stroke-opacity="0.8" stroke-linecap="round" stroke-linejoin="round" stroke-miterlimit="10" stroke-width="2.5"/><path fill="none" stroke="rgb(21,101,192)" paint-order="fill stroke markers" d=" M 181 55.00000000000006 L 84 56" stroke-opacity="0.8" stroke-linecap="round" stroke-linejoin="round" stroke-miterlimit="10" stroke-width="2.5"/><path fill="none" stroke="rgb(21,101,192)" paint-order="fill stroke markers" d=" M 84 56 L 85 152.99999999999997" stroke-opacity="0.8" stroke-linecap="round" stroke-linejoin="round" stroke-miterlimit="10" stroke-width="2.5"/><path fill="none" stroke="rgb(21,101,192)" paint-order="fill stroke markers" d=" M 181 55.00000000000006 L 182 151.99999999999997" stroke-opacity="0.8" stroke-linecap="round" stroke-linejoin="round" stroke-miterlimit="10" stroke-width="2.5"/><path fill="none" stroke="rgb(21,101,192)" paint-order="fill stroke markers" d=" M 182 151.99999999999997 L 278.99999999999994 151" stroke-opacity="0.8" stroke-linecap="round" stroke-linejoin="round" stroke-miterlimit="10" stroke-width="2.5"/><path fill="none" stroke="rgb(21,101,192)" paint-order="fill stroke markers" d=" M 278.99999999999994 151 L 278 54.00000000000006" stroke-opacity="0.8" stroke-linecap="round" stroke-linejoin="round" stroke-miterlimit="10" stroke-width="2.5"/><path fill="none" stroke="rgb(21,101,192)" paint-order="fill stroke markers" d=" M 278 54.00000000000006 L 181 55.00000000000006" stroke-opacity="0.8" stroke-linecap="round" stroke-linejoin="round" stroke-miterlimit="10" stroke-width="2.5"/><path fill="none" stroke="rgb(21,101,192)" paint-order="fill stroke markers" d=" M 278 54.00000000000006 L 278.99999999999994 151" stroke-opacity="0.8" stroke-linecap="round" stroke-linejoin="round" stroke-miterlimit="10" stroke-width="2.5"/><path fill="none" stroke="rgb(21,101,192)" paint-order="fill stroke markers" d=" M 278.99999999999994 151 L 375.99999999999994 150.00000000000003" stroke-opacity="0.8" stroke-linecap="round" stroke-linejoin="round" stroke-miterlimit="10" stroke-width="2.5"/><path fill="none" stroke="rgb(21,101,192)" paint-order="fill stroke markers" d=" M 375.99999999999994 150.00000000000003 L 375 53.00000000000006" stroke-opacity="0.8" stroke-linecap="round" stroke-linejoin="round" stroke-miterlimit="10" stroke-width="2.5"/><path fill="none" stroke="rgb(21,101,192)" paint-order="fill stroke markers" d=" M 375 53.00000000000006 L 278 54.00000000000006" stroke-opacity="0.8" stroke-linecap="round" stroke-linejoin="round" stroke-miterlimit="10" stroke-width="2.5"/><path fill="none" stroke="rgb(21,101,192)" paint-order="fill stroke markers" d=" M 375 53.00000000000006 L 375.99999999999994 150.00000000000003" stroke-opacity="0.8" stroke-linecap="round" stroke-linejoin="round" stroke-miterlimit="10" stroke-width="2.5"/><path fill="none" stroke="rgb(21,101,192)" paint-order="fill stroke markers" d=" M 375.99999999999994 150.00000000000003 L 472.99999999999994 149.00000000000006" stroke-opacity="0.8" stroke-linecap="round" stroke-linejoin="round" stroke-miterlimit="10" stroke-width="2.5"/><path fill="none" stroke="rgb(21,101,192)" paint-order="fill stroke markers" d=" M 472.99999999999994 149.00000000000006 L 471.99999999999994 52.000000000000114" stroke-opacity="0.8" stroke-linecap="round" stroke-linejoin="round" stroke-miterlimit="10" stroke-width="2.5"/><path fill="none" stroke="rgb(21,101,192)" paint-order="fill stroke markers" d=" M 471.99999999999994 52.000000000000114 L 375 53.00000000000006" stroke-opacity="0.8" stroke-linecap="round" stroke-linejoin="round" stroke-miterlimit="10" stroke-width="2.5"/><path fill="none" stroke="rgb(21,101,192)" paint-order="fill stroke markers" d=" M 182 151.99999999999997 L 85 152.99999999999997" stroke-opacity="0.8" stroke-linecap="round" stroke-linejoin="round" stroke-miterlimit="10" stroke-width="2.5"/><path fill="none" stroke="rgb(21,101,192)" paint-order="fill stroke markers" d=" M 85 152.99999999999997 L 86 249.9999999999999" stroke-opacity="0.8" stroke-linecap="round" stroke-linejoin="round" stroke-miterlimit="10" stroke-width="2.5"/><path fill="none" stroke="rgb(21,101,192)" paint-order="fill stroke markers" d=" M 86 249.9999999999999 L 182.99999999999994 248.99999999999994" stroke-opacity="0.8" stroke-linecap="round" stroke-linejoin="round" stroke-miterlimit="10" stroke-width="2.5"/><path fill="none" stroke="rgb(21,101,192)" paint-order="fill stroke markers" d=" M 182.99999999999994 248.99999999999994 L 182 151.99999999999997" stroke-opacity="0.8" stroke-linecap="round" stroke-linejoin="round" stroke-miterlimit="10" stroke-width="2.5"/><path fill="none" stroke="rgb(21,101,192)" paint-order="fill stroke markers" d=" M 472.99999999999994 149.00000000000006 L 375.99999999999994 150.00000000000003" stroke-opacity="0.8" stroke-linecap="round" stroke-linejoin="round" stroke-miterlimit="10" stroke-width="2.5"/><path fill="none" stroke="rgb(21,101,192)" paint-order="fill stroke markers" d=" M 375.99999999999994 150.00000000000003 L 376.9999999999999 246.99999999999997" stroke-opacity="0.8" stroke-linecap="round" stroke-linejoin="round" stroke-miterlimit="10" stroke-width="2.5"/><path fill="none" stroke="rgb(21,101,192)" paint-order="fill stroke markers" d=" M 376.9999999999999 246.99999999999997 L 473.9999999999999 246" stroke-opacity="0.8" stroke-linecap="round" stroke-linejoin="round" stroke-miterlimit="10" stroke-width="2.5"/><path fill="none" stroke="rgb(21,101,192)" paint-order="fill stroke markers" d=" M 473.9999999999999 246 L 472.99999999999994 149.00000000000006" stroke-opacity="0.8" stroke-linecap="round" stroke-linejoin="round" stroke-miterlimit="10" stroke-width="2.5"/><path fill="none" stroke="rgb(21,101,192)" paint-order="fill stroke markers" d=" M 193 340 L 195 446.9999999999999" stroke-opacity="0.8" stroke-linecap="round" stroke-linejoin="round" stroke-miterlimit="10" stroke-width="2.5"/><path fill="none" stroke="rgb(21,101,192)" paint-order="fill stroke markers" d=" M 195 446.9999999999999 L 286.6647182049349 391.7679491924311" stroke-opacity="0.8" stroke-linecap="round" stroke-linejoin="round" stroke-miterlimit="10" stroke-width="2.5"/><path fill="none" stroke="rgb(21,101,192)" paint-order="fill stroke markers" d=" M 286.6647182049349 391.7679491924311 L 193 340" stroke-opacity="0.8" stroke-linecap="round" stroke-linejoin="round" stroke-miterlimit="10" stroke-width="2.5"/><path fill="none" stroke="rgb(21,101,192)" paint-order="fill stroke markers" d=" M 286.6647182049349 391.7679491924311 L 195 446.9999999999999" stroke-opacity="0.8" stroke-linecap="round" stroke-linejoin="round" stroke-miterlimit="10" stroke-width="2.5"/><path fill="none" stroke="rgb(21,101,192)" paint-order="fill stroke markers" d=" M 195 446.9999999999999 L 250.2320508075688 538.6647182049348" stroke-opacity="0.8" stroke-linecap="round" stroke-linejoin="round" stroke-miterlimit="10" stroke-width="2.5"/><path fill="none" stroke="rgb(21,101,192)" paint-order="fill stroke markers" d=" M 250.2320508075688 538.6647182049348 L 341.89676901250374 483.432667397366" stroke-opacity="0.8" stroke-linecap="round" stroke-linejoin="round" stroke-miterlimit="10" stroke-width="2.5"/><path fill="none" stroke="rgb(21,101,192)" paint-order="fill stroke markers" d=" M 341.89676901250374 483.432667397366 L 286.6647182049349 391.7679491924311" stroke-opacity="0.8" stroke-linecap="round" stroke-linejoin="round" stroke-miterlimit="10" stroke-width="2.5"/><path fill="none" stroke="rgb(21,101,192)" paint-order="fill stroke markers" d=" M 341.89676901250374 483.432667397366 L 250.2320508075688 538.6647182049348" stroke-opacity="0.8" stroke-linecap="round" stroke-linejoin="round" stroke-miterlimit="10" stroke-width="2.5"/><path fill="none" stroke="rgb(21,101,192)" paint-order="fill stroke markers" d=" M 250.2320508075688 538.6647182049348 L 343.8967690125036 590.4326673973659" stroke-opacity="0.8" stroke-linecap="round" stroke-linejoin="round" stroke-miterlimit="10" stroke-width="2.5"/><path fill="none" stroke="rgb(21,101,192)" paint-order="fill stroke markers" d=" M 343.8967690125036 590.4326673973659 L 341.89676901250374 483.432667397366" stroke-opacity="0.8" stroke-linecap="round" stroke-linejoin="round" stroke-miterlimit="10" stroke-width="2.5"/><path fill="none" stroke="rgb(21,101,192)" paint-order="fill stroke markers" d=" M 286.6647182049349 391.7679491924311 L 341.89676901250374 483.432667397366" stroke-opacity="0.8" stroke-linecap="round" stroke-linejoin="round" stroke-miterlimit="10" stroke-width="2.5"/><path fill="none" stroke="rgb(21,101,192)" paint-order="fill stroke markers" d=" M 341.89676901250374 483.432667397366 L 433.5614872174387 428.2006165897972" stroke-opacity="0.8" stroke-linecap="round" stroke-linejoin="round" stroke-miterlimit="10" stroke-width="2.5"/><path fill="none" stroke="rgb(21,101,192)" paint-order="fill stroke markers" d=" M 433.5614872174387 428.2006165897972 L 378.3294364098699 336.5358983848623" stroke-opacity="0.8" stroke-linecap="round" stroke-linejoin="round" stroke-miterlimit="10" stroke-width="2.5"/><path fill="none" stroke="rgb(21,101,192)" paint-order="fill stroke markers" d=" M 378.3294364098699 336.5358983848623 L 286.6647182049349 391.7679491924311" stroke-opacity="0.8" stroke-linecap="round" stroke-linejoin="round" stroke-miterlimit="10" stroke-width="2.5"/><path fill="none" stroke="rgb(21,101,192)" paint-order="fill stroke markers" d=" M 612 176 L 730 175" stroke-opacity="0.8" stroke-linecap="round" stroke-linejoin="round" stroke-miterlimit="10" stroke-width="2.5"/><path fill="none" stroke="rgb(21,101,192)" paint-order="fill stroke markers" d=" M 730 175 L 670.1339745962157 73.30900235343626" stroke-opacity="0.8" stroke-linecap="round" stroke-linejoin="round" stroke-miterlimit="10" stroke-width="2.5"/><path fill="none" stroke="rgb(21,101,192)" paint-order="fill stroke markers" d=" M 670.1339745962157 73.30900235343626 L 612 176" stroke-opacity="0.8" stroke-linecap="round" stroke-linejoin="round" stroke-miterlimit="10" stroke-width="2.5"/><path fill="none" stroke="rgb(21,101,192)" paint-order="fill stroke markers" d=" M 730 175 L 612 176" stroke-opacity="0.8" stroke-linecap="round" stroke-linejoin="round" stroke-miterlimit="10" stroke-width="2.5"/><path fill="none" stroke="rgb(21,101,192)" paint-order="fill stroke markers" d=" M 612 176 L 671.8660254037844 277.6909976465637" stroke-opacity="0.8" stroke-linecap="round" stroke-linejoin="round" stroke-miterlimit="10" stroke-width="2.5"/><path fill="none" stroke="rgb(21,101,192)" paint-order="fill stroke markers" d=" M 671.8660254037844 277.6909976465637 L 730 175" stroke-opacity="0.8" stroke-linecap="round" stroke-linejoin="round" stroke-miterlimit="10" stroke-width="2.5"/><path fill="none" stroke="rgb(21,101,192)" paint-order="fill stroke markers" d=" M 730 175 L 671.8660254037844 277.6909976465637" stroke-opacity="0.8" stroke-linecap="round" stroke-linejoin="round" stroke-miterlimit="10" stroke-width="2.5"/><path fill="none" stroke="rgb(21,101,192)" paint-order="fill stroke markers" d=" M 671.8660254037844 277.6909976465637 L 789.8660254037845 276.69099764656374" stroke-opacity="0.8" stroke-linecap="round" stroke-linejoin="round" stroke-miterlimit="10" stroke-width="2.5"/><path fill="none" stroke="rgb(21,101,192)" paint-order="fill stroke markers" d=" M 789.8660254037845 276.69099764656374 L 730 175" stroke-opacity="0.8" stroke-linecap="round" stroke-linejoin="round" stroke-miterlimit="10" stroke-width="2.5"/><path fill="none" stroke="rgb(21,101,192)" paint-order="fill stroke markers" d=" M 789.8660254037845 276.69099764656374 L 671.8660254037844 277.6909976465637" stroke-opacity="0.8" stroke-linecap="round" stroke-linejoin="round" stroke-miterlimit="10" stroke-width="2.5"/><path fill="none" stroke="rgb(21,101,192)" paint-order="fill stroke markers" d=" M 671.8660254037844 277.6909976465637 L 731.7320508075688 379.38199529312755" stroke-opacity="0.8" stroke-linecap="round" stroke-linejoin="round" stroke-miterlimit="10" stroke-width="2.5"/><path fill="none" stroke="rgb(21,101,192)" paint-order="fill stroke markers" d=" M 731.7320508075688 379.38199529312755 L 789.8660254037845 276.69099764656374" stroke-opacity="0.8" stroke-linecap="round" stroke-linejoin="round" stroke-miterlimit="10" stroke-width="2.5"/><path fill="none" stroke="rgb(21,101,192)" paint-order="fill stroke markers" d=" M 789.8660254037845 276.69099764656374 L 731.7320508075688 379.38199529312755" stroke-opacity="0.8" stroke-linecap="round" stroke-linejoin="round" stroke-miterlimit="10" stroke-width="2.5"/><path fill="none" stroke="rgb(21,101,192)" paint-order="fill stroke markers" d=" M 731.7320508075688 379.38199529312755 L 849.7320508075691 378.38199529312755" stroke-opacity="0.8" stroke-linecap="round" stroke-linejoin="round" stroke-miterlimit="10" stroke-width="2.5"/><path fill="none" stroke="rgb(21,101,192)" paint-order="fill stroke markers" d=" M 849.7320508075691 378.38199529312755 L 789.8660254037845 276.69099764656374" stroke-opacity="0.8" stroke-linecap="round" stroke-linejoin="round" stroke-miterlimit="10" stroke-width="2.5"/><path fill="none" stroke="rgb(21,101,192)" paint-order="fill stroke markers" d=" M 849.7320508075691 378.38199529312755 L 731.7320508075688 379.38199529312755" stroke-opacity="0.8" stroke-linecap="round" stroke-linejoin="round" stroke-miterlimit="10" stroke-width="2.5"/><path fill="none" stroke="rgb(21,101,192)" paint-order="fill stroke markers" d=" M 731.7320508075688 379.38199529312755 L 791.5980762113534 481.0729929396914" stroke-opacity="0.8" stroke-linecap="round" stroke-linejoin="round" stroke-miterlimit="10" stroke-width="2.5"/><path fill="none" stroke="rgb(21,101,192)" paint-order="fill stroke markers" d=" M 791.5980762113534 481.0729929396914 L 849.7320508075691 378.38199529312755" stroke-opacity="0.8" stroke-linecap="round" stroke-linejoin="round" stroke-miterlimit="10" stroke-width="2.5"/><path fill="none" stroke="rgb(21,101,192)" paint-order="fill stroke markers" d=" M 250.2320508075688 538.6647182049348 L 195 446.9999999999999" stroke-opacity="0.8" stroke-linecap="round" stroke-linejoin="round" stroke-miterlimit="10" stroke-width="2.5"/><path fill="none" stroke="rgb(21,101,192)" paint-order="fill stroke markers" d=" M 195 446.9999999999999 L 103.33528179506511 502.2320508075687" stroke-opacity="0.8" stroke-linecap="round" stroke-linejoin="round" stroke-miterlimit="10" stroke-width="2.5"/><path fill="none" stroke="rgb(21,101,192)" paint-order="fill stroke markers" d=" M 103.33528179506511 502.2320508075687 L 158.56733260263388 593.8967690125036" stroke-opacity="0.8" stroke-linecap="round" stroke-linejoin="round" stroke-miterlimit="10" stroke-width="2.5"/><path fill="none" stroke="rgb(21,101,192)" paint-order="fill stroke markers" d=" M 158.56733260263388 593.8967690125036 L 250.2320508075688 538.6647182049348" stroke-opacity="0.8" stroke-linecap="round" stroke-linejoin="round" stroke-miterlimit="10" stroke-width="2.5"/><path fill="none" stroke="rgb(97,97,97)" paint-order="fill stroke markers" d=" M 623.0395925065554 534.0192178343275 L 625 633.9999999999999" stroke-opacity="0.8" stroke-linecap="round" stroke-linejoin="round" stroke-miterlimit="10" stroke-width="2.5"/><path fill="none" stroke="rgb(21,101,192)" paint-order="fill stroke markers" d=" M 558.0520840988684 535.2934827050664 L 623.0395925065554 534.0192178343275" stroke-opacity="0.8" stroke-linecap="round" stroke-linejoin="round" stroke-miterlimit="10" stroke-width="2.5"/><path fill="none" stroke="rgb(21,101,192)" paint-order="fill stroke markers" d=" M 623.0395925065554 534.0192178343275 L 625 633.9999999999999" stroke-opacity="0.8" stroke-linecap="round" stroke-linejoin="round" stroke-miterlimit="10" stroke-width="2.5"/><path fill="none" stroke="rgb(21,101,192)" paint-order="fill stroke markers" d=" M 625 633.9999999999999 L 560.0124915923129 635.2742648707389" stroke-opacity="0.8" stroke-linecap="round" stroke-linejoin="round" stroke-miterlimit="10" stroke-width="2.5"/><path fill="none" stroke="rgb(21,101,192)" paint-order="fill stroke markers" d=" M 560.0124915923129 635.2742648707389 L 558.0520840988684 535.2934827050664" stroke-opacity="0.8" stroke-linecap="round" stroke-linejoin="round" stroke-miterlimit="10" stroke-width="2.5"/><path fill="none" stroke="rgb(21,101,192)" paint-order="fill stroke markers" d=" M 688.0271009142425 532.7449529635885 L 623.0395925065554 534.0192178343275" stroke-opacity="0.8" stroke-linecap="round" stroke-linejoin="round" stroke-miterlimit="10" stroke-width="2.5"/><path fill="none" stroke="rgb(21,101,192)" paint-order="fill stroke markers" d=" M 623.0395925065554 534.0192178343275 L 625 633.9999999999999" stroke-opacity="0.8" stroke-linecap="round" stroke-linejoin="round" stroke-miterlimit="10" stroke-width="2.5"/><path fill="none" stroke="rgb(21,101,192)" paint-order="fill stroke markers" d=" M 625 633.9999999999999 L 689.9875084076871 632.725735129261" stroke-opacity="0.8" stroke-linecap="round" stroke-linejoin="round" stroke-miterlimit="10" stroke-width="2.5"/><path fill="none" stroke="rgb(21,101,192)" paint-order="fill stroke markers" d=" M 689.9875084076871 632.725735129261 L 688.0271009142425 532.7449529635885" stroke-opacity="0.8" stroke-linecap="round" stroke-linejoin="round" stroke-miterlimit="10" stroke-width="2.5"/><path fill="none" stroke="rgb(21,101,192)" paint-order="fill stroke markers" d=" M 691.261773278426 697.7132435369485 L 626.2742648707389 698.9875084076874" stroke-opacity="0.8" stroke-linecap="round" stroke-linejoin="round" stroke-miterlimit="10" stroke-width="2.5"/><path fill="none" stroke="rgb(21,101,192)" paint-order="fill stroke markers" d=" M 626.2742648707389 698.9875084076874 L 625 633.9999999999999" stroke-opacity="0.8" stroke-linecap="round" stroke-linejoin="round" stroke-miterlimit="10" stroke-width="2.5"/><path fill="none" stroke="rgb(21,101,192)" paint-order="fill stroke markers" d=" M 625 633.9999999999999 L 689.9875084076871 632.725735129261" stroke-opacity="0.8" stroke-linecap="round" stroke-linejoin="round" stroke-miterlimit="10" stroke-width="2.5"/><path fill="none" stroke="rgb(21,101,192)" paint-order="fill stroke markers" d=" M 689.9875084076871 632.725735129261 L 691.261773278426 697.7132435369485" stroke-opacity="0.8" stroke-linecap="round" stroke-linejoin="round" stroke-miterlimit="10" stroke-width="2.5"/><path fill="none" stroke="rgb(21,101,192)" paint-order="fill stroke markers" d=" M 689.9875084076871 632.725735129261 L 789.9682905733598 630.7653276358164" stroke-opacity="0.8" stroke-linecap="round" stroke-linejoin="round" stroke-miterlimit="10" stroke-width="2.5"/><path fill="none" stroke="rgb(21,101,192)" paint-order="fill stroke markers" d=" M 789.9682905733598 630.7653276358164 L 791.2425554440988 695.752836043504" stroke-opacity="0.8" stroke-linecap="round" stroke-linejoin="round" stroke-miterlimit="10" stroke-width="2.5"/><path fill="none" stroke="rgb(21,101,192)" paint-order="fill stroke markers" d=" M 791.2425554440988 695.752836043504 L 691.261773278426 697.7132435369485" stroke-opacity="0.8" stroke-linecap="round" stroke-linejoin="round" stroke-miterlimit="10" stroke-width="2.5"/><path fill="none" stroke="rgb(21,101,192)" paint-order="fill stroke markers" d=" M 691.261773278426 697.7132435369485 L 689.9875084076871 632.725735129261" stroke-opacity="0.8" stroke-linecap="round" stroke-linejoin="round" stroke-miterlimit="10" stroke-width="2.5"/><path fill="none" stroke="rgb(21,101,192)" paint-order="fill stroke markers" d=" M 691.261773278426 697.7132435369485 L 692.536038149165 762.7007519446357" stroke-opacity="0.8" stroke-linecap="round" stroke-linejoin="round" stroke-miterlimit="10" stroke-width="2.5"/><path fill="none" stroke="rgb(21,101,192)" paint-order="fill stroke markers" d=" M 692.536038149165 762.7007519446357 L 792.5168203148378 760.7403444511912" stroke-opacity="0.8" stroke-linecap="round" stroke-linejoin="round" stroke-miterlimit="10" stroke-width="2.5"/><path fill="none" stroke="rgb(21,101,192)" paint-order="fill stroke markers" d=" M 792.5168203148378 760.7403444511912 L 791.2425554440988 695.752836043504" stroke-opacity="0.8" stroke-linecap="round" stroke-linejoin="round" stroke-miterlimit="10" stroke-width="2.5"/><path fill="none" stroke="rgb(21,101,192)" paint-order="fill stroke markers" d=" M 791.2425554440988 695.752836043504 L 691.261773278426 697.7132435369485" stroke-opacity="0.8" stroke-linecap="round" stroke-linejoin="round" stroke-miterlimit="10" stroke-width="2.5"/><path fill="none" stroke="rgb(21,101,192)" paint-order="fill stroke markers" d=" M 856.2300638517871 694.478571172765 L 791.2425554440988 695.752836043504" stroke-opacity="0.8" stroke-linecap="round" stroke-linejoin="round" stroke-miterlimit="10" stroke-width="2.5"/><path fill="none" stroke="rgb(21,101,192)" paint-order="fill stroke markers" d=" M 791.2425554440988 695.752836043504 L 789.9682905733598 630.7653276358164" stroke-opacity="0.8" stroke-linecap="round" stroke-linejoin="round" stroke-miterlimit="10" stroke-width="2.5"/><path fill="none" stroke="rgb(21,101,192)" paint-order="fill stroke markers" d=" M 789.9682905733598 630.7653276358164 L 854.955798981048 629.4910627650775" stroke-opacity="0.8" stroke-linecap="round" stroke-linejoin="round" stroke-miterlimit="10" stroke-width="2.5"/><path fill="none" stroke="rgb(21,101,192)" paint-order="fill stroke markers" d=" M 854.955798981048 629.4910627650775 L 856.2300638517871 694.478571172765" stroke-opacity="0.8" stroke-linecap="round" stroke-linejoin="round" stroke-miterlimit="10" stroke-width="2.5"/><path fill="rgb(21,101,192)" stroke="none" paint-order="stroke fill markers" d=" M 90 152.99999999999997 C 90 155.76142374915395 87.76142374915396 157.99999999999997 85 157.99999999999997 C 82.23857625084604 157.99999999999997 80 155.76142374915395 80 152.99999999999997 C 80 150.238576250846 82.23857625084604 147.99999999999997 85 147.99999999999997 C 87.76142374915396 147.99999999999997 90 150.238576250846 90 152.99999999999997 Z" fill-opacity="1"/><path fill="none" stroke="rgb(0,0,0)" paint-order="fill stroke markers" d=" M 90 152.99999999999997 C 90 155.76142374915395 87.76142374915396 157.99999999999997 85 157.99999999999997 C 82.23857625084604 157.99999999999997 80 155.76142374915395 80 152.99999999999997 C 80 150.238576250846 82.23857625084604 147.99999999999997 85 147.99999999999997 C 87.76142374915396 147.99999999999997 90 150.238576250846 90 152.99999999999997 Z" stroke-opacity="1" stroke-linecap="round" stroke-linejoin="round" stroke-miterlimit="10"/><path fill="rgb(21,101,192)" stroke="none" paint-order="stroke fill markers" d=" M 187 151.99999999999997 C 187 154.76142374915395 184.76142374915398 156.99999999999997 182 156.99999999999997 C 179.23857625084602 156.99999999999997 177 154.76142374915395 177 151.99999999999997 C 177 149.238576250846 179.23857625084602 146.99999999999997 182 146.99999999999997 C 184.76142374915398 146.99999999999997 187 149.238576250846 187 151.99999999999997 Z" fill-opacity="1"/><path fill="none" stroke="rgb(0,0,0)" paint-order="fill stroke markers" d=" M 187 151.99999999999997 C 187 154.76142374915395 184.76142374915398 156.99999999999997 182 156.99999999999997 C 179.23857625084602 156.99999999999997 177 154.76142374915395 177 151.99999999999997 C 177 149.238576250846 179.23857625084602 146.99999999999997 182 146.99999999999997 C 184.76142374915398 146.99999999999997 187 149.238576250846 187 151.99999999999997 Z" stroke-opacity="1" stroke-linecap="round" stroke-linejoin="round" stroke-miterlimit="10"/><path fill="rgb(97,97,97)" stroke="none" paint-order="stroke fill markers" d=" M 186 55.00000000000006 C 186 57.76142374915402 183.76142374915398 60.00000000000006 181 60.00000000000006 C 178.23857625084602 60.00000000000006 176 57.76142374915402 176 55.00000000000006 C 176 52.23857625084609 178.23857625084602 50.00000000000006 181 50.00000000000006 C 183.76142374915398 50.00000000000006 186 52.23857625084609 186 55.00000000000006 Z" fill-opacity="1"/><path fill="none" stroke="rgb(0,0,0)" paint-order="fill stroke markers" d=" M 186 55.00000000000006 C 186 57.76142374915402 183.76142374915398 60.00000000000006 181 60.00000000000006 C 178.23857625084602 60.00000000000006 176 57.76142374915402 176 55.00000000000006 C 176 52.23857625084609 178.23857625084602 50.00000000000006 181 50.00000000000006 C 183.76142374915398 50.00000000000006 186 52.23857625084609 186 55.00000000000006 Z" stroke-opacity="1" stroke-linecap="round" stroke-linejoin="round" stroke-miterlimit="10"/><path fill="rgb(97,97,97)" stroke="none" paint-order="stroke fill markers" d=" M 89 56 C 89 58.76142374915396 86.76142374915396 61 84 61 C 81.23857625084604 61 79 58.76142374915396 79 56 C 79 53.23857625084603 81.23857625084604 51 84 51 C 86.76142374915396 51 89 53.23857625084603 89 56 Z" fill-opacity="1"/><path fill="none" stroke="rgb(0,0,0)" paint-order="fill stroke markers" d=" M 89 56 C 89 58.76142374915396 86.76142374915396 61 84 61 C 81.23857625084604 61 79 58.76142374915396 79 56 C 79 53.23857625084603 81.23857625084604 51 84 51 C 86.76142374915396 51 89 53.23857625084603 89 56 Z" stroke-opacity="1" stroke-linecap="round" stroke-linejoin="round" stroke-miterlimit="10"/><path fill="rgb(97,97,97)" stroke="none" paint-order="stroke fill markers" d=" M 283.99999999999994 151 C 283.99999999999994 153.76142374915398 281.7614237491539 156 278.99999999999994 156 C 276.238576250846 156 273.99999999999994 153.76142374915398 273.99999999999994 151 C 273.99999999999994 148.23857625084602 276.238576250846 146 278.99999999999994 146 C 281.7614237491539 146 283.99999999999994 148.23857625084602 283.99999999999994 151 Z" fill-opacity="1"/><path fill="none" stroke="rgb(0,0,0)" paint-order="fill stroke markers" d=" M 283.99999999999994 151 C 283.99999999999994 153.76142374915398 281.7614237491539 156 278.99999999999994 156 C 276.238576250846 156 273.99999999999994 153.76142374915398 273.99999999999994 151 C 273.99999999999994 148.23857625084602 276.238576250846 146 278.99999999999994 146 C 281.7614237491539 146 283.99999999999994 148.23857625084602 283.99999999999994 151 Z" stroke-opacity="1" stroke-linecap="round" stroke-linejoin="round" stroke-miterlimit="10"/><path fill="rgb(97,97,97)" stroke="none" paint-order="stroke fill markers" d=" M 283 54.00000000000006 C 283 56.76142374915402 280.76142374915395 59.00000000000006 278 59.00000000000006 C 275.23857625084605 59.00000000000006 273 56.76142374915402 273 54.00000000000006 C 273 51.23857625084609 275.23857625084605 49.00000000000006 278 49.00000000000006 C 280.76142374915395 49.00000000000006 283 51.23857625084609 283 54.00000000000006 Z" fill-opacity="1"/><path fill="none" stroke="rgb(0,0,0)" paint-order="fill stroke markers" d=" M 283 54.00000000000006 C 283 56.76142374915402 280.76142374915395 59.00000000000006 278 59.00000000000006 C 275.23857625084605 59.00000000000006 273 56.76142374915402 273 54.00000000000006 C 273 51.23857625084609 275.23857625084605 49.00000000000006 278 49.00000000000006 C 280.76142374915395 49.00000000000006 283 51.23857625084609 283 54.00000000000006 Z" stroke-opacity="1" stroke-linecap="round" stroke-linejoin="round" stroke-miterlimit="10"/><path fill="rgb(97,97,97)" stroke="none" paint-order="stroke fill markers" d=" M 380.99999999999994 150.00000000000003 C 380.99999999999994 152.761423749154 378.7614237491539 155.00000000000003 375.99999999999994 155.00000000000003 C 373.238576250846 155.00000000000003 370.99999999999994 152.761423749154 370.99999999999994 150.00000000000003 C 370.99999999999994 147.23857625084605 373.238576250846 145.00000000000003 375.99999999999994 145.00000000000003 C 378.7614237491539 145.00000000000003 380.99999999999994 147.23857625084605 380.99999999999994 150.00000000000003 Z" fill-opacity="1"/><path fill="none" stroke="rgb(0,0,0)" paint-order="fill stroke markers" d=" M 380.99999999999994 150.00000000000003 C 380.99999999999994 152.761423749154 378.7614237491539 155.00000000000003 375.99999999999994 155.00000000000003 C 373.238576250846 155.00000000000003 370.99999999999994 152.761423749154 370.99999999999994 150.00000000000003 C 370.99999999999994 147.23857625084605 373.238576250846 145.00000000000003 375.99999999999994 145.00000000000003 C 378.7614237491539 145.00000000000003 380.99999999999994 147.23857625084605 380.99999999999994 150.00000000000003 Z" stroke-opacity="1" stroke-linecap="round" stroke-linejoin="round" stroke-miterlimit="10"/><path fill="rgb(97,97,97)" stroke="none" paint-order="stroke fill markers" d=" M 380 53.00000000000006 C 380 55.76142374915402 377.76142374915395 58.00000000000006 375 58.00000000000006 C 372.23857625084605 58.00000000000006 370 55.76142374915402 370 53.00000000000006 C 370 50.23857625084609 372.23857625084605 48.00000000000006 375 48.00000000000006 C 377.76142374915395 48.00000000000006 380 50.23857625084609 380 53.00000000000006 Z" fill-opacity="1"/><path fill="none" stroke="rgb(0,0,0)" paint-order="fill stroke markers" d=" M 380 53.00000000000006 C 380 55.76142374915402 377.76142374915395 58.00000000000006 375 58.00000000000006 C 372.23857625084605 58.00000000000006 370 55.76142374915402 370 53.00000000000006 C 370 50.23857625084609 372.23857625084605 48.00000000000006 375 48.00000000000006 C 377.76142374915395 48.00000000000006 380 50.23857625084609 380 53.00000000000006 Z" stroke-opacity="1" stroke-linecap="round" stroke-linejoin="round" stroke-miterlimit="10"/><path fill="rgb(97,97,97)" stroke="none" paint-order="stroke fill markers" d=" M 477.99999999999994 149.00000000000006 C 477.99999999999994 151.76142374915403 475.7614237491539 154.00000000000006 472.99999999999994 154.00000000000006 C 470.238576250846 154.00000000000006 467.99999999999994 151.76142374915403 467.99999999999994 149.00000000000006 C 467.99999999999994 146.23857625084608 470.238576250846 144.00000000000006 472.99999999999994 144.00000000000006 C 475.7614237491539 144.00000000000006 477.99999999999994 146.23857625084608 477.99999999999994 149.00000000000006 Z" fill-opacity="1"/><path fill="none" stroke="rgb(0,0,0)" paint-order="fill stroke markers" d=" M 477.99999999999994 149.00000000000006 C 477.99999999999994 151.76142374915403 475.7614237491539 154.00000000000006 472.99999999999994 154.00000000000006 C 470.238576250846 154.00000000000006 467.99999999999994 151.76142374915403 467.99999999999994 149.00000000000006 C 467.99999999999994 146.23857625084608 470.238576250846 144.00000000000006 472.99999999999994 144.00000000000006 C 475.7614237491539 144.00000000000006 477.99999999999994 146.23857625084608 477.99999999999994 149.00000000000006 Z" stroke-opacity="1" stroke-linecap="round" stroke-linejoin="round" stroke-miterlimit="10"/><path fill="rgb(97,97,97)" stroke="none" paint-order="stroke fill markers" d=" M 476.99999999999994 52.000000000000114 C 476.99999999999994 54.761423749154076 474.7614237491539 57.000000000000114 471.99999999999994 57.000000000000114 C 469.238576250846 57.000000000000114 466.99999999999994 54.761423749154076 466.99999999999994 52.000000000000114 C 466.99999999999994 49.238576250846144 469.238576250846 47.000000000000114 471.99999999999994 47.000000000000114 C 474.7614237491539 47.000000000000114 476.99999999999994 49.238576250846144 476.99999999999994 52.000000000000114 Z" fill-opacity="1"/><path fill="none" stroke="rgb(0,0,0)" paint-order="fill stroke markers" d=" M 476.99999999999994 52.000000000000114 C 476.99999999999994 54.761423749154076 474.7614237491539 57.000000000000114 471.99999999999994 57.000000000000114 C 469.238576250846 57.000000000000114 466.99999999999994 54.761423749154076 466.99999999999994 52.000000000000114 C 466.99999999999994 49.238576250846144 469.238576250846 47.000000000000114 471.99999999999994 47.000000000000114 C 474.7614237491539 47.000000000000114 476.99999999999994 49.238576250846144 476.99999999999994 52.000000000000114 Z" stroke-opacity="1" stroke-linecap="round" stroke-linejoin="round" stroke-miterlimit="10"/><path fill="rgb(97,97,97)" stroke="none" paint-order="stroke fill markers" d=" M 91 249.9999999999999 C 91 252.76142374915386 88.76142374915396 254.9999999999999 86 254.9999999999999 C 83.23857625084604 254.9999999999999 81 252.76142374915386 81 249.9999999999999 C 81 247.2385762508459 83.23857625084604 244.9999999999999 86 244.9999999999999 C 88.76142374915396 244.9999999999999 91 247.2385762508459 91 249.9999999999999 Z" fill-opacity="1"/><path fill="none" stroke="rgb(0,0,0)" paint-order="fill stroke markers" d=" M 91 249.9999999999999 C 91 252.76142374915386 88.76142374915396 254.9999999999999 86 254.9999999999999 C 83.23857625084604 254.9999999999999 81 252.76142374915386 81 249.9999999999999 C 81 247.2385762508459 83.23857625084604 244.9999999999999 86 244.9999999999999 C 88.76142374915396 244.9999999999999 91 247.2385762508459 91 249.9999999999999 Z" stroke-opacity="1" stroke-linecap="round" stroke-linejoin="round" stroke-miterlimit="10"/><path fill="rgb(97,97,97)" stroke="none" paint-order="stroke fill markers" d=" M 187.99999999999994 248.99999999999994 C 187.99999999999994 251.76142374915392 185.76142374915392 253.99999999999994 182.99999999999994 253.99999999999994 C 180.23857625084597 253.99999999999994 177.99999999999994 251.76142374915392 177.99999999999994 248.99999999999994 C 177.99999999999994 246.23857625084597 180.23857625084597 243.99999999999994 182.99999999999994 243.99999999999994 C 185.76142374915392 243.99999999999994 187.99999999999994 246.23857625084597 187.99999999999994 248.99999999999994 Z" fill-opacity="1"/><path fill="none" stroke="rgb(0,0,0)" paint-order="fill stroke markers" d=" M 187.99999999999994 248.99999999999994 C 187.99999999999994 251.76142374915392 185.76142374915392 253.99999999999994 182.99999999999994 253.99999999999994 C 180.23857625084597 253.99999999999994 177.99999999999994 251.76142374915392 177.99999999999994 248.99999999999994 C 177.99999999999994 246.23857625084597 180.23857625084597 243.99999999999994 182.99999999999994 243.99999999999994 C 185.76142374915392 243.99999999999994 187.99999999999994 246.23857625084597 187.99999999999994 248.99999999999994 Z" stroke-opacity="1" stroke-linecap="round" stroke-linejoin="round" stroke-miterlimit="10"/><path fill="rgb(97,97,97)" stroke="none" paint-order="stroke fill markers" d=" M 381.9999999999999 246.99999999999997 C 381.9999999999999 249.76142374915395 379.76142374915383 251.99999999999997 376.9999999999999 251.99999999999997 C 374.23857625084594 251.99999999999997 371.9999999999999 249.76142374915395 371.9999999999999 246.99999999999997 C 371.9999999999999 244.238576250846 374.23857625084594 241.99999999999997 376.9999999999999 241.99999999999997 C 379.76142374915383 241.99999999999997 381.9999999999999 244.238576250846 381.9999999999999 246.99999999999997 Z" fill-opacity="1"/><path fill="none" stroke="rgb(0,0,0)" paint-order="fill stroke markers" d=" M 381.9999999999999 246.99999999999997 C 381.9999999999999 249.76142374915395 379.76142374915383 251.99999999999997 376.9999999999999 251.99999999999997 C 374.23857625084594 251.99999999999997 371.9999999999999 249.76142374915395 371.9999999999999 246.99999999999997 C 371.9999999999999 244.238576250846 374.23857625084594 241.99999999999997 376.9999999999999 241.99999999999997 C 379.76142374915383 241.99999999999997 381.9999999999999 244.238576250846 381.9999999999999 246.99999999999997 Z" stroke-opacity="1" stroke-linecap="round" stroke-linejoin="round" stroke-miterlimit="10"/><path fill="rgb(97,97,97)" stroke="none" paint-order="stroke fill markers" d=" M 478.9999999999999 246 C 478.9999999999999 248.76142374915398 476.76142374915383 251 473.9999999999999 251 C 471.23857625084594 251 468.9999999999999 248.76142374915398 468.9999999999999 246 C 468.9999999999999 243.23857625084602 471.23857625084594 241 473.9999999999999 241 C 476.76142374915383 241 478.9999999999999 243.23857625084602 478.9999999999999 246 Z" fill-opacity="1"/><path fill="none" stroke="rgb(0,0,0)" paint-order="fill stroke markers" d=" M 478.9999999999999 246 C 478.9999999999999 248.76142374915398 476.76142374915383 251 473.9999999999999 251 C 471.23857625084594 251 468.9999999999999 248.76142374915398 468.9999999999999 246 C 468.9999999999999 243.23857625084602 471.23857625084594 241 473.9999999999999 241 C 476.76142374915383 241 478.9999999999999 243.23857625084602 478.9999999999999 246 Z" stroke-opacity="1" stroke-linecap="round" stroke-linejoin="round" stroke-miterlimit="10"/><path fill="rgb(21,101,192)" stroke="none" paint-order="stroke fill markers" d=" M 200 446.9999999999999 C 200 449.76142374915383 197.76142374915398 451.9999999999999 195 451.9999999999999 C 192.23857625084602 451.9999999999999 190 449.76142374915383 190 446.9999999999999 C 190 444.23857625084594 192.23857625084602 441.9999999999999 195 441.9999999999999 C 197.76142374915398 441.9999999999999 200 444.23857625084594 200 446.9999999999999 Z" fill-opacity="1"/><path fill="none" stroke="rgb(0,0,0)" paint-order="fill stroke markers" d=" M 200 446.9999999999999 C 200 449.76142374915383 197.76142374915398 451.9999999999999 195 451.9999999999999 C 192.23857625084602 451.9999999999999 190 449.76142374915383 190 446.9999999999999 C 190 444.23857625084594 192.23857625084602 441.9999999999999 195 441.9999999999999 C 197.76142374915398 441.9999999999999 200 444.23857625084594 200 446.9999999999999 Z" stroke-opacity="1" stroke-linecap="round" stroke-linejoin="round" stroke-miterlimit="10"/><path fill="rgb(97,97,97)" stroke="none" paint-order="stroke fill markers" d=" M 198 340 C 198 342.76142374915395 195.76142374915398 345 193 345 C 190.23857625084602 345 188 342.76142374915395 188 340 C 188 337.23857625084605 190.23857625084602 335 193 335 C 195.76142374915398 335 198 337.23857625084605 198 340 Z" fill-opacity="1"/><path fill="none" stroke="rgb(0,0,0)" paint-order="fill stroke markers" d=" M 198 340 C 198 342.76142374915395 195.76142374915398 345 193 345 C 190.23857625084602 345 188 342.76142374915395 188 340 C 188 337.23857625084605 190.23857625084602 335 193 335 C 195.76142374915398 335 198 337.23857625084605 198 340 Z" stroke-opacity="1" stroke-linecap="round" stroke-linejoin="round" stroke-miterlimit="10"/><path fill="rgb(97,97,97)" stroke="none" paint-order="stroke fill markers" d=" M 291.6647182049349 391.7679491924311 C 291.6647182049349 394.52937294158505 289.42614195408885 396.7679491924311 286.6647182049349 396.7679491924311 C 283.90329445578095 396.7679491924311 281.6647182049349 394.52937294158505 281.6647182049349 391.7679491924311 C 281.6647182049349 389.00652544327716 283.90329445578095 386.7679491924311 286.6647182049349 386.7679491924311 C 289.42614195408885 386.7679491924311 291.6647182049349 389.00652544327716 291.6647182049349 391.7679491924311 Z" fill-opacity="1"/><path fill="none" stroke="rgb(0,0,0)" paint-order="fill stroke markers" d=" M 291.6647182049349 391.7679491924311 C 291.6647182049349 394.52937294158505 289.42614195408885 396.7679491924311 286.6647182049349 396.7679491924311 C 283.90329445578095 396.7679491924311 281.6647182049349 394.52937294158505 281.6647182049349 391.7679491924311 C 281.6647182049349 389.00652544327716 283.90329445578095 386.7679491924311 286.6647182049349 386.7679491924311 C 289.42614195408885 386.7679491924311 291.6647182049349 389.00652544327716 291.6647182049349 391.7679491924311 Z" stroke-opacity="1" stroke-linecap="round" stroke-linejoin="round" stroke-miterlimit="10"/><path fill="rgb(97,97,97)" stroke="none" paint-order="stroke fill markers" d=" M 255.2320508075688 538.6647182049348 C 255.2320508075688 541.4261419540888 252.9934745567228 543.6647182049348 250.2320508075688 543.6647182049348 C 247.47062705841483 543.6647182049348 245.2320508075688 541.4261419540888 245.2320508075688 538.6647182049348 C 245.2320508075688 535.9032944557808 247.47062705841483 533.6647182049348 250.2320508075688 533.6647182049348 C 252.9934745567228 533.6647182049348 255.2320508075688 535.9032944557808 255.2320508075688 538.6647182049348 Z" fill-opacity="1"/><path fill="none" stroke="rgb(0,0,0)" paint-order="fill stroke markers" d=" M 255.2320508075688 538.6647182049348 C 255.2320508075688 541.4261419540888 252.9934745567228 543.6647182049348 250.2320508075688 543.6647182049348 C 247.47062705841483 543.6647182049348 245.2320508075688 541.4261419540888 245.2320508075688 538.6647182049348 C 245.2320508075688 535.9032944557808 247.47062705841483 533.6647182049348 250.2320508075688 533.6647182049348 C 252.9934745567228 533.6647182049348 255.2320508075688 535.9032944557808 255.2320508075688 538.6647182049348 Z" stroke-opacity="1" stroke-linecap="round" stroke-linejoin="round" stroke-miterlimit="10"/><path fill="rgb(97,97,97)" stroke="none" paint-order="stroke fill markers" d=" M 346.89676901250374 483.432667397366 C 346.89676901250374 486.19409114651995 344.6581927616577 488.432667397366 341.89676901250374 488.432667397366 C 339.1353452633498 488.432667397366 336.89676901250374 486.19409114651995 336.89676901250374 483.432667397366 C 336.89676901250374 480.67124364821206 339.1353452633498 478.432667397366 341.89676901250374 478.432667397366 C 344.6581927616577 478.432667397366 346.89676901250374 480.67124364821206 346.89676901250374 483.432667397366 Z" fill-opacity="1"/><path fill="none" stroke="rgb(0,0,0)" paint-order="fill stroke markers" d=" M 346.89676901250374 483.432667397366 C 346.89676901250374 486.19409114651995 344.6581927616577 488.432667397366 341.89676901250374 488.432667397366 C 339.1353452633498 488.432667397366 336.89676901250374 486.19409114651995 336.89676901250374 483.432667397366 C 336.89676901250374 480.67124364821206 339.1353452633498 478.432667397366 341.89676901250374 478.432667397366 C 344.6581927616577 478.432667397366 346.89676901250374 480.67124364821206 346.89676901250374 483.432667397366 Z" stroke-opacity="1" stroke-linecap="round" stroke-linejoin="round" stroke-miterlimit="10"/><path fill="rgb(97,97,97)" stroke="none" paint-order="stroke fill markers" d=" M 348.8967690125036 590.4326673973659 C 348.8967690125036 593.1940911465199 346.6581927616576 595.4326673973659 343.8967690125036 595.4326673973659 C 341.1353452633497 595.4326673973659 338.8967690125036 593.1940911465199 338.8967690125036 590.4326673973659 C 338.8967690125036 587.6712436482119 341.1353452633497 585.4326673973659 343.8967690125036 585.4326673973659 C 346.6581927616576 585.4326673973659 348.8967690125036 587.6712436482119 348.8967690125036 590.4326673973659 Z" fill-opacity="1"/><path fill="none" stroke="rgb(0,0,0)" paint-order="fill stroke markers" d=" M 348.8967690125036 590.4326673973659 C 348.8967690125036 593.1940911465199 346.6581927616576 595.4326673973659 343.8967690125036 595.4326673973659 C 341.1353452633497 595.4326673973659 338.8967690125036 593.1940911465199 338.8967690125036 590.4326673973659 C 338.8967690125036 587.6712436482119 341.1353452633497 585.4326673973659 343.8967690125036 585.4326673973659 C 346.6581927616576 585.4326673973659 348.8967690125036 587.6712436482119 348.8967690125036 590.4326673973659 Z" stroke-opacity="1" stroke-linecap="round" stroke-linejoin="round" stroke-miterlimit="10"/><path fill="rgb(97,97,97)" stroke="none" paint-order="stroke fill markers" d=" M 438.5614872174387 428.2006165897972 C 438.5614872174387 430.96204033895117 436.32291096659264 433.2006165897972 433.5614872174387 433.2006165897972 C 430.80006346828475 433.2006165897972 428.5614872174387 430.96204033895117 428.5614872174387 428.2006165897972 C 428.5614872174387 425.4391928406433 430.80006346828475 423.2006165897972 433.5614872174387 423.2006165897972 C 436.32291096659264 423.2006165897972 438.5614872174387 425.4391928406433 438.5614872174387 428.2006165897972 Z" fill-opacity="1"/><path fill="none" stroke="rgb(0,0,0)" paint-order="fill stroke markers" d=" M 438.5614872174387 428.2006165897972 C 438.5614872174387 430.96204033895117 436.32291096659264 433.2006165897972 433.5614872174387 433.2006165897972 C 430.80006346828475 433.2006165897972 428.5614872174387 430.96204033895117 428.5614872174387 428.2006165897972 C 428.5614872174387 425.4391928406433 430.80006346828475 423.2006165897972 433.5614872174387 423.2006165897972 C 436.32291096659264 423.2006165897972 438.5614872174387 425.4391928406433 438.5614872174387 428.2006165897972 Z" stroke-opacity="1" stroke-linecap="round" stroke-linejoin="round" stroke-miterlimit="10"/><path fill="rgb(97,97,97)" stroke="none" paint-order="stroke fill markers" d=" M 383.3294364098699 336.5358983848623 C 383.3294364098699 339.29732213401627 381.09086015902386 341.5358983848623 378.3294364098699 341.5358983848623 C 375.56801266071597 341.5358983848623 373.3294364098699 339.29732213401627 373.3294364098699 336.5358983848623 C 373.3294364098699 333.7744746357084 375.56801266071597 331.5358983848623 378.3294364098699 331.5358983848623 C 381.09086015902386 331.5358983848623 383.3294364098699 333.7744746357084 383.3294364098699 336.5358983848623 Z" fill-opacity="1"/><path fill="none" stroke="rgb(0,0,0)" paint-order="fill stroke markers" d=" M 383.3294364098699 336.5358983848623 C 383.3294364098699 339.29732213401627 381.09086015902386 341.5358983848623 378.3294364098699 341.5358983848623 C 375.56801266071597 341.5358983848623 373.3294364098699 339.29732213401627 373.3294364098699 336.5358983848623 C 373.3294364098699 333.7744746357084 375.56801266071597 331.5358983848623 378.3294364098699 331.5358983848623 C 381.09086015902386 331.5358983848623 383.3294364098699 333.7744746357084 383.3294364098699 336.5358983848623 Z" stroke-opacity="1" stroke-linecap="round" stroke-linejoin="round" stroke-miterlimit="10"/><path fill="rgb(21,101,192)" stroke="none" paint-order="stroke fill markers" d=" M 617 176 C 617 178.76142374915398 614.761423749154 181 612 181 C 609.238576250846 181 607 178.76142374915398 607 176 C 607 173.23857625084602 609.238576250846 171 612 171 C 614.761423749154 171 617 173.23857625084602 617 176 Z" fill-opacity="1"/><path fill="none" stroke="rgb(0,0,0)" paint-order="fill stroke markers" d=" M 617 176 C 617 178.76142374915398 614.761423749154 181 612 181 C 609.238576250846 181 607 178.76142374915398 607 176 C 607 173.23857625084602 609.238576250846 171 612 171 C 614.761423749154 171 617 173.23857625084602 617 176 Z" stroke-opacity="1" stroke-linecap="round" stroke-linejoin="round" stroke-miterlimit="10"/><path fill="rgb(21,101,192)" stroke="none" paint-order="stroke fill markers" d=" M 735 175 C 735 177.76142374915398 732.761423749154 180 730 180 C 727.238576250846 180 725 177.76142374915398 725 175 C 725 172.23857625084602 727.238576250846 170 730 170 C 732.761423749154 170 735 172.23857625084602 735 175 Z" fill-opacity="1"/><path fill="none" stroke="rgb(0,0,0)" paint-order="fill stroke markers" d=" M 735 175 C 735 177.76142374915398 732.761423749154 180 730 180 C 727.238576250846 180 725 177.76142374915398 725 175 C 725 172.23857625084602 727.238576250846 170 730 170 C 732.761423749154 170 735 172.23857625084602 735 175 Z" stroke-opacity="1" stroke-linecap="round" stroke-linejoin="round" stroke-miterlimit="10"/><path fill="rgb(97,97,97)" stroke="none" paint-order="stroke fill markers" d=" M 675.1339745962157 73.30900235343626 C 675.1339745962157 76.07042610259022 672.8953983453697 78.30900235343626 670.1339745962157 78.30900235343626 C 667.3725508470617 78.30900235343626 665.1339745962157 76.07042610259022 665.1339745962157 73.30900235343626 C 665.1339745962157 70.5475786042823 667.3725508470617 68.30900235343626 670.1339745962157 68.30900235343626 C 672.8953983453697 68.30900235343626 675.1339745962157 70.5475786042823 675.1339745962157 73.30900235343626 Z" fill-opacity="1"/><path fill="none" stroke="rgb(0,0,0)" paint-order="fill stroke markers" d=" M 675.1339745962157 73.30900235343626 C 675.1339745962157 76.07042610259022 672.8953983453697 78.30900235343626 670.1339745962157 78.30900235343626 C 667.3725508470617 78.30900235343626 665.1339745962157 76.07042610259022 665.1339745962157 73.30900235343626 C 665.1339745962157 70.5475786042823 667.3725508470617 68.30900235343626 670.1339745962157 68.30900235343626 C 672.8953983453697 68.30900235343626 675.1339745962157 70.5475786042823 675.1339745962157 73.30900235343626 Z" stroke-opacity="1" stroke-linecap="round" stroke-linejoin="round" stroke-miterlimit="10"/><path fill="rgb(97,97,97)" stroke="none" paint-order="stroke fill markers" d=" M 676.8660254037844 277.6909976465637 C 676.8660254037844 280.45242139571764 674.6274491529384 282.6909976465637 671.8660254037844 282.6909976465637 C 669.1046016546304 282.6909976465637 666.8660254037844 280.45242139571764 666.8660254037844 277.6909976465637 C 666.8660254037844 274.92957389740974 669.1046016546304 272.6909976465637 671.8660254037844 272.6909976465637 C 674.6274491529384 272.6909976465637 676.8660254037844 274.92957389740974 676.8660254037844 277.6909976465637 Z" fill-opacity="1"/><path fill="none" stroke="rgb(0,0,0)" paint-order="fill stroke markers" d=" M 676.8660254037844 277.6909976465637 C 676.8660254037844 280.45242139571764 674.6274491529384 282.6909976465637 671.8660254037844 282.6909976465637 C 669.1046016546304 282.6909976465637 666.8660254037844 280.45242139571764 666.8660254037844 277.6909976465637 C 666.8660254037844 274.92957389740974 669.1046016546304 272.6909976465637 671.8660254037844 272.6909976465637 C 674.6274491529384 272.6909976465637 676.8660254037844 274.92957389740974 676.8660254037844 277.6909976465637 Z" stroke-opacity="1" stroke-linecap="round" stroke-linejoin="round" stroke-miterlimit="10"/><path fill="rgb(97,97,97)" stroke="none" paint-order="stroke fill markers" d=" M 794.8660254037845 276.69099764656374 C 794.8660254037845 279.4524213957177 792.6274491529385 281.69099764656374 789.8660254037845 281.69099764656374 C 787.1046016546305 281.69099764656374 784.8660254037845 279.4524213957177 784.8660254037845 276.69099764656374 C 784.8660254037845 273.9295738974098 787.1046016546305 271.69099764656374 789.8660254037845 271.69099764656374 C 792.6274491529385 271.69099764656374 794.8660254037845 273.9295738974098 794.8660254037845 276.69099764656374 Z" fill-opacity="1"/><path fill="none" stroke="rgb(0,0,0)" paint-order="fill stroke markers" d=" M 794.8660254037845 276.69099764656374 C 794.8660254037845 279.4524213957177 792.6274491529385 281.69099764656374 789.8660254037845 281.69099764656374 C 787.1046016546305 281.69099764656374 784.8660254037845 279.4524213957177 784.8660254037845 276.69099764656374 C 784.8660254037845 273.9295738974098 787.1046016546305 271.69099764656374 789.8660254037845 271.69099764656374 C 792.6274491529385 271.69099764656374 794.8660254037845 273.9295738974098 794.8660254037845 276.69099764656374 Z" stroke-opacity="1" stroke-linecap="round" stroke-linejoin="round" stroke-miterlimit="10"/><path fill="rgb(97,97,97)" stroke="none" paint-order="stroke fill markers" d=" M 736.7320508075688 379.38199529312755 C 736.7320508075688 382.1434190422815 734.4934745567228 384.38199529312755 731.7320508075688 384.38199529312755 C 728.9706270584148 384.38199529312755 726.7320508075688 382.1434190422815 726.7320508075688 379.38199529312755 C 726.7320508075688 376.6205715439736 728.9706270584148 374.38199529312755 731.7320508075688 374.38199529312755 C 734.4934745567228 374.38199529312755 736.7320508075688 376.6205715439736 736.7320508075688 379.38199529312755 Z" fill-opacity="1"/><path fill="none" stroke="rgb(0,0,0)" paint-order="fill stroke markers" d=" M 736.7320508075688 379.38199529312755 C 736.7320508075688 382.1434190422815 734.4934745567228 384.38199529312755 731.7320508075688 384.38199529312755 C 728.9706270584148 384.38199529312755 726.7320508075688 382.1434190422815 726.7320508075688 379.38199529312755 C 726.7320508075688 376.6205715439736 728.9706270584148 374.38199529312755 731.7320508075688 374.38199529312755 C 734.4934745567228 374.38199529312755 736.7320508075688 376.6205715439736 736.7320508075688 379.38199529312755 Z" stroke-opacity="1" stroke-linecap="round" stroke-linejoin="round" stroke-miterlimit="10"/><path fill="rgb(97,97,97)" stroke="none" paint-order="stroke fill markers" d=" M 854.7320508075691 378.38199529312755 C 854.7320508075691 381.1434190422815 852.4934745567231 383.38199529312755 849.7320508075691 383.38199529312755 C 846.9706270584151 383.38199529312755 844.7320508075691 381.1434190422815 844.7320508075691 378.38199529312755 C 844.7320508075691 375.6205715439736 846.9706270584151 373.38199529312755 849.7320508075691 373.38199529312755 C 852.4934745567231 373.38199529312755 854.7320508075691 375.6205715439736 854.7320508075691 378.38199529312755 Z" fill-opacity="1"/><path fill="none" stroke="rgb(0,0,0)" paint-order="fill stroke markers" d=" M 854.7320508075691 378.38199529312755 C 854.7320508075691 381.1434190422815 852.4934745567231 383.38199529312755 849.7320508075691 383.38199529312755 C 846.9706270584151 383.38199529312755 844.7320508075691 381.1434190422815 844.7320508075691 378.38199529312755 C 844.7320508075691 375.6205715439736 846.9706270584151 373.38199529312755 849.7320508075691 373.38199529312755 C 852.4934745567231 373.38199529312755 854.7320508075691 375.6205715439736 854.7320508075691 378.38199529312755 Z" stroke-opacity="1" stroke-linecap="round" stroke-linejoin="round" stroke-miterlimit="10"/><path fill="rgb(97,97,97)" stroke="none" paint-order="stroke fill markers" d=" M 796.5980762113534 481.0729929396914 C 796.5980762113534 483.83441668884535 794.3594999605074 486.0729929396914 791.5980762113534 486.0729929396914 C 788.8366524621994 486.0729929396914 786.5980762113534 483.83441668884535 786.5980762113534 481.0729929396914 C 786.5980762113534 478.31156919053745 788.8366524621994 476.0729929396914 791.5980762113534 476.0729929396914 C 794.3594999605074 476.0729929396914 796.5980762113534 478.31156919053745 796.5980762113534 481.0729929396914 Z" fill-opacity="1"/><path fill="none" stroke="rgb(0,0,0)" paint-order="fill stroke markers" d=" M 796.5980762113534 481.0729929396914 C 796.5980762113534 483.83441668884535 794.3594999605074 486.0729929396914 791.5980762113534 486.0729929396914 C 788.8366524621994 486.0729929396914 786.5980762113534 483.83441668884535 786.5980762113534 481.0729929396914 C 786.5980762113534 478.31156919053745 788.8366524621994 476.0729929396914 791.5980762113534 476.0729929396914 C 794.3594999605074 476.0729929396914 796.5980762113534 478.31156919053745 796.5980762113534 481.0729929396914 Z" stroke-opacity="1" stroke-linecap="round" stroke-linejoin="round" stroke-miterlimit="10"/><path fill="rgb(97,97,97)" stroke="none" paint-order="stroke fill markers" d=" M 108.33528179506511 502.2320508075687 C 108.33528179506511 504.9934745567227 106.09670554421908 507.2320508075687 103.33528179506511 507.2320508075687 C 100.57385804591115 507.2320508075687 98.33528179506511 504.9934745567227 98.33528179506511 502.2320508075687 C 98.33528179506511 499.4706270584148 100.57385804591115 497.2320508075687 103.33528179506511 497.2320508075687 C 106.09670554421908 497.2320508075687 108.33528179506511 499.4706270584148 108.33528179506511 502.2320508075687 Z" fill-opacity="1"/><path fill="none" stroke="rgb(0,0,0)" paint-order="fill stroke markers" d=" M 108.33528179506511 502.2320508075687 C 108.33528179506511 504.9934745567227 106.09670554421908 507.2320508075687 103.33528179506511 507.2320508075687 C 100.57385804591115 507.2320508075687 98.33528179506511 504.9934745567227 98.33528179506511 502.2320508075687 C 98.33528179506511 499.4706270584148 100.57385804591115 497.2320508075687 103.33528179506511 497.2320508075687 C 106.09670554421908 497.2320508075687 108.33528179506511 499.4706270584148 108.33528179506511 502.2320508075687 Z" stroke-opacity="1" stroke-linecap="round" stroke-linejoin="round" stroke-miterlimit="10"/><path fill="rgb(97,97,97)" stroke="none" paint-order="stroke fill markers" d=" M 163.56733260263388 593.8967690125036 C 163.56733260263388 596.6581927616576 161.32875635178786 598.8967690125036 158.56733260263388 598.8967690125036 C 155.8059088534799 598.8967690125036 153.56733260263388 596.6581927616576 153.56733260263388 593.8967690125036 C 153.56733260263388 591.1353452633496 155.8059088534799 588.8967690125036 158.56733260263388 588.8967690125036 C 161.32875635178786 588.8967690125036 163.56733260263388 591.1353452633496 163.56733260263388 593.8967690125036 Z" fill-opacity="1"/><path fill="none" stroke="rgb(0,0,0)" paint-order="fill stroke markers" d=" M 163.56733260263388 593.8967690125036 C 163.56733260263388 596.6581927616576 161.32875635178786 598.8967690125036 158.56733260263388 598.8967690125036 C 155.8059088534799 598.8967690125036 153.56733260263388 596.6581927616576 153.56733260263388 593.8967690125036 C 153.56733260263388 591.1353452633496 155.8059088534799 588.8967690125036 158.56733260263388 588.8967690125036 C 161.32875635178786 588.8967690125036 163.56733260263388 591.1353452633496 163.56733260263388 593.8967690125036 Z" stroke-opacity="1" stroke-linecap="round" stroke-linejoin="round" stroke-miterlimit="10"/><path fill="rgb(21,101,192)" stroke="none" paint-order="stroke fill markers" d=" M 630 633.9999999999999 C 630 636.7614237491539 627.761423749154 638.9999999999999 625 638.9999999999999 C 622.238576250846 638.9999999999999 620 636.7614237491539 620 633.9999999999999 C 620 631.2385762508459 622.238576250846 628.9999999999999 625 628.9999999999999 C 627.761423749154 628.9999999999999 630 631.2385762508459 630 633.9999999999999 Z" fill-opacity="1"/><path fill="none" stroke="rgb(0,0,0)" paint-order="fill stroke markers" d=" M 630 633.9999999999999 C 630 636.7614237491539 627.761423749154 638.9999999999999 625 638.9999999999999 C 622.238576250846 638.9999999999999 620 636.7614237491539 620 633.9999999999999 C 620 631.2385762508459 622.238576250846 628.9999999999999 625 628.9999999999999 C 627.761423749154 628.9999999999999 630 631.2385762508459 630 633.9999999999999 Z" stroke-opacity="1" stroke-linecap="round" stroke-linejoin="round" stroke-miterlimit="10"/><path fill="rgb(21,101,192)" stroke="none" paint-order="stroke fill markers" d=" M 628.0395925065554 534.0192178343275 C 628.0395925065554 536.7806415834815 625.8010162557094 539.0192178343275 623.0395925065554 539.0192178343275 C 620.2781687574014 539.0192178343275 618.0395925065554 536.7806415834815 618.0395925065554 534.0192178343275 C 618.0395925065554 531.2577940851735 620.2781687574014 529.0192178343275 623.0395925065554 529.0192178343275 C 625.8010162557094 529.0192178343275 628.0395925065554 531.2577940851735 628.0395925065554 534.0192178343275 Z" fill-opacity="1"/><path fill="none" stroke="rgb(0,0,0)" paint-order="fill stroke markers" d=" M 628.0395925065554 534.0192178343275 C 628.0395925065554 536.7806415834815 625.8010162557094 539.0192178343275 623.0395925065554 539.0192178343275 C 620.2781687574014 539.0192178343275 618.0395925065554 536.7806415834815 618.0395925065554 534.0192178343275 C 618.0395925065554 531.2577940851735 620.2781687574014 529.0192178343275 623.0395925065554 529.0192178343275 C 625.8010162557094 529.0192178343275 628.0395925065554 531.2577940851735 628.0395925065554 534.0192178343275 Z" stroke-opacity="1" stroke-linecap="round" stroke-linejoin="round" stroke-miterlimit="10"/><path fill="rgb(97,97,97)" stroke="none" paint-order="stroke fill markers" d=" M 564.0124915923129 635.2742648707389 C 564.0124915923129 637.483403870062 562.2216305916361 639.2742648707389 560.0124915923129 639.2742648707389 C 557.8033525929898 639.2742648707389 556.0124915923129 637.483403870062 556.0124915923129 635.2742648707389 C 556.0124915923129 633.0651258714157 557.8033525929898 631.2742648707389 560.0124915923129 631.2742648707389 C 562.2216305916361 631.2742648707389 564.0124915923129 633.0651258714157 564.0124915923129 635.2742648707389 Z" fill-opacity="1"/><path fill="none" stroke="rgb(0,0,0)" paint-order="fill stroke markers" d=" M 564.0124915923129 635.2742648707389 C 564.0124915923129 637.483403870062 562.2216305916361 639.2742648707389 560.0124915923129 639.2742648707389 C 557.8033525929898 639.2742648707389 556.0124915923129 637.483403870062 556.0124915923129 635.2742648707389 C 556.0124915923129 633.0651258714157 557.8033525929898 631.2742648707389 560.0124915923129 631.2742648707389 C 562.2216305916361 631.2742648707389 564.0124915923129 633.0651258714157 564.0124915923129 635.2742648707389 Z" stroke-opacity="1" stroke-linecap="round" stroke-linejoin="round" stroke-miterlimit="10"/><path fill="rgb(97,97,97)" stroke="none" paint-order="stroke fill markers" d=" M 693.9875084076871 632.725735129261 C 693.9875084076871 634.9348741285842 692.1966474070102 636.725735129261 689.9875084076871 636.725735129261 C 687.7783694083639 636.725735129261 685.9875084076871 634.9348741285842 685.9875084076871 632.725735129261 C 685.9875084076871 630.5165961299379 687.7783694083639 628.725735129261 689.9875084076871 628.725735129261 C 692.1966474070102 628.725735129261 693.9875084076871 630.5165961299379 693.9875084076871 632.725735129261 Z" fill-opacity="1"/><path fill="none" stroke="rgb(0,0,0)" paint-order="fill stroke markers" d=" M 693.9875084076871 632.725735129261 C 693.9875084076871 634.9348741285842 692.1966474070102 636.725735129261 689.9875084076871 636.725735129261 C 687.7783694083639 636.725735129261 685.9875084076871 634.9348741285842 685.9875084076871 632.725735129261 C 685.9875084076871 630.5165961299379 687.7783694083639 628.725735129261 689.9875084076871 628.725735129261 C 692.1966474070102 628.725735129261 693.9875084076871 630.5165961299379 693.9875084076871 632.725735129261 Z" stroke-opacity="1" stroke-linecap="round" stroke-linejoin="round" stroke-miterlimit="10"/><path fill="rgb(97,97,97)" stroke="none" paint-order="stroke fill markers" d=" M 562.0520840988684 535.2934827050664 C 562.0520840988684 537.5026217043895 560.2612230981915 539.2934827050664 558.0520840988684 539.2934827050664 C 555.8429450995452 539.2934827050664 554.0520840988684 537.5026217043895 554.0520840988684 535.2934827050664 C 554.0520840988684 533.0843437057432 555.8429450995452 531.2934827050664 558.0520840988684 531.2934827050664 C 560.2612230981915 531.2934827050664 562.0520840988684 533.0843437057432 562.0520840988684 535.2934827050664 Z" fill-opacity="1"/><path fill="none" stroke="rgb(0,0,0)" paint-order="fill stroke markers" d=" M 562.0520840988684 535.2934827050664 C 562.0520840988684 537.5026217043895 560.2612230981915 539.2934827050664 558.0520840988684 539.2934827050664 C 555.8429450995452 539.2934827050664 554.0520840988684 537.5026217043895 554.0520840988684 535.2934827050664 C 554.0520840988684 533.0843437057432 555.8429450995452 531.2934827050664 558.0520840988684 531.2934827050664 C 560.2612230981915 531.2934827050664 562.0520840988684 533.0843437057432 562.0520840988684 535.2934827050664 Z" stroke-opacity="1" stroke-linecap="round" stroke-linejoin="round" stroke-miterlimit="10"/><path fill="rgb(97,97,97)" stroke="none" paint-order="stroke fill markers" d=" M 692.0271009142425 532.7449529635885 C 692.0271009142425 534.9540919629117 690.2362399135657 536.7449529635885 688.0271009142425 536.7449529635885 C 685.8179619149194 536.7449529635885 684.0271009142425 534.9540919629117 684.0271009142425 532.7449529635885 C 684.0271009142425 530.5358139642653 685.8179619149194 528.7449529635885 688.0271009142425 528.7449529635885 C 690.2362399135657 528.7449529635885 692.0271009142425 530.5358139642653 692.0271009142425 532.7449529635885 Z" fill-opacity="1"/><path fill="none" stroke="rgb(0,0,0)" paint-order="fill stroke markers" d=" M 692.0271009142425 532.7449529635885 C 692.0271009142425 534.9540919629117 690.2362399135657 536.7449529635885 688.0271009142425 536.7449529635885 C 685.8179619149194 536.7449529635885 684.0271009142425 534.9540919629117 684.0271009142425 532.7449529635885 C 684.0271009142425 530.5358139642653 685.8179619149194 528.7449529635885 688.0271009142425 528.7449529635885 C 690.2362399135657 528.7449529635885 692.0271009142425 530.5358139642653 692.0271009142425 532.7449529635885 Z" stroke-opacity="1" stroke-linecap="round" stroke-linejoin="round" stroke-miterlimit="10"/><path fill="rgb(97,97,97)" stroke="none" paint-order="stroke fill markers" d=" M 695.261773278426 697.7132435369485 C 695.261773278426 699.9223825362717 693.4709122777491 701.7132435369485 691.261773278426 701.7132435369485 C 689.0526342791028 701.7132435369485 687.261773278426 699.9223825362717 687.261773278426 697.7132435369485 C 687.261773278426 695.5041045376254 689.0526342791028 693.7132435369485 691.261773278426 693.7132435369485 C 693.4709122777491 693.7132435369485 695.261773278426 695.5041045376254 695.261773278426 697.7132435369485 Z" fill-opacity="1"/><path fill="none" stroke="rgb(0,0,0)" paint-order="fill stroke markers" d=" M 695.261773278426 697.7132435369485 C 695.261773278426 699.9223825362717 693.4709122777491 701.7132435369485 691.261773278426 701.7132435369485 C 689.0526342791028 701.7132435369485 687.261773278426 699.9223825362717 687.261773278426 697.7132435369485 C 687.261773278426 695.5041045376254 689.0526342791028 693.7132435369485 691.261773278426 693.7132435369485 C 693.4709122777491 693.7132435369485 695.261773278426 695.5041045376254 695.261773278426 697.7132435369485 Z" stroke-opacity="1" stroke-linecap="round" stroke-linejoin="round" stroke-miterlimit="10"/><path fill="rgb(97,97,97)" stroke="none" paint-order="stroke fill markers" d=" M 630.2742648707389 698.9875084076874 C 630.2742648707389 701.1966474070106 628.483403870062 702.9875084076874 626.2742648707389 702.9875084076874 C 624.0651258714157 702.9875084076874 622.2742648707389 701.1966474070106 622.2742648707389 698.9875084076874 C 622.2742648707389 696.7783694083643 624.0651258714157 694.9875084076874 626.2742648707389 694.9875084076874 C 628.483403870062 694.9875084076874 630.2742648707389 696.7783694083643 630.2742648707389 698.9875084076874 Z" fill-opacity="1"/><path fill="none" stroke="rgb(0,0,0)" paint-order="fill stroke markers" d=" M 630.2742648707389 698.9875084076874 C 630.2742648707389 701.1966474070106 628.483403870062 702.9875084076874 626.2742648707389 702.9875084076874 C 624.0651258714157 702.9875084076874 622.2742648707389 701.1966474070106 622.2742648707389 698.9875084076874 C 622.2742648707389 696.7783694083643 624.0651258714157 694.9875084076874 626.2742648707389 694.9875084076874 C 628.483403870062 694.9875084076874 630.2742648707389 696.7783694083643 630.2742648707389 698.9875084076874 Z" stroke-opacity="1" stroke-linecap="round" stroke-linejoin="round" stroke-miterlimit="10"/><path fill="rgb(97,97,97)" stroke="none" paint-order="stroke fill markers" d=" M 795.2425554440988 695.752836043504 C 795.2425554440988 697.9619750428271 793.451694443422 699.752836043504 791.2425554440988 699.752836043504 C 789.0334164447756 699.752836043504 787.2425554440988 697.9619750428271 787.2425554440988 695.752836043504 C 787.2425554440988 693.5436970441808 789.0334164447756 691.752836043504 791.2425554440988 691.752836043504 C 793.451694443422 691.752836043504 795.2425554440988 693.5436970441808 795.2425554440988 695.752836043504 Z" fill-opacity="1"/><path fill="none" stroke="rgb(0,0,0)" paint-order="fill stroke markers" d=" M 795.2425554440988 695.752836043504 C 795.2425554440988 697.9619750428271 793.451694443422 699.752836043504 791.2425554440988 699.752836043504 C 789.0334164447756 699.752836043504 787.2425554440988 697.9619750428271 787.2425554440988 695.752836043504 C 787.2425554440988 693.5436970441808 789.0334164447756 691.752836043504 791.2425554440988 691.752836043504 C 793.451694443422 691.752836043504 795.2425554440988 693.5436970441808 795.2425554440988 695.752836043504 Z" stroke-opacity="1" stroke-linecap="round" stroke-linejoin="round" stroke-miterlimit="10"/><path fill="rgb(97,97,97)" stroke="none" paint-order="stroke fill markers" d=" M 793.9682905733598 630.7653276358164 C 793.9682905733598 632.9744666351396 792.177429572683 634.7653276358164 789.9682905733598 634.7653276358164 C 787.7591515740367 634.7653276358164 785.9682905733598 632.9744666351396 785.9682905733598 630.7653276358164 C 785.9682905733598 628.5561886364933 787.7591515740367 626.7653276358164 789.9682905733598 626.7653276358164 C 792.177429572683 626.7653276358164 793.9682905733598 628.5561886364933 793.9682905733598 630.7653276358164 Z" fill-opacity="1"/><path fill="none" stroke="rgb(0,0,0)" paint-order="fill stroke markers" d=" M 793.9682905733598 630.7653276358164 C 793.9682905733598 632.9744666351396 792.177429572683 634.7653276358164 789.9682905733598 634.7653276358164 C 787.7591515740367 634.7653276358164 785.9682905733598 632.9744666351396 785.9682905733598 630.7653276358164 C 785.9682905733598 628.5561886364933 787.7591515740367 626.7653276358164 789.9682905733598 626.7653276358164 C 792.177429572683 626.7653276358164 793.9682905733598 628.5561886364933 793.9682905733598 630.7653276358164 Z" stroke-opacity="1" stroke-linecap="round" stroke-linejoin="round" stroke-miterlimit="10"/><path fill="rgb(97,97,97)" stroke="none" paint-order="stroke fill markers" d=" M 696.536038149165 762.7007519446357 C 696.536038149165 764.9098909439589 694.7451771484882 766.7007519446357 692.536038149165 766.7007519446357 C 690.3268991498419 766.7007519446357 688.536038149165 764.9098909439589 688.536038149165 762.7007519446357 C 688.536038149165 760.4916129453126 690.3268991498419 758.7007519446357 692.536038149165 758.7007519446357 C 694.7451771484882 758.7007519446357 696.536038149165 760.4916129453126 696.536038149165 762.7007519446357 Z" fill-opacity="1"/><path fill="none" stroke="rgb(0,0,0)" paint-order="fill stroke markers" d=" M 696.536038149165 762.7007519446357 C 696.536038149165 764.9098909439589 694.7451771484882 766.7007519446357 692.536038149165 766.7007519446357 C 690.3268991498419 766.7007519446357 688.536038149165 764.9098909439589 688.536038149165 762.7007519446357 C 688.536038149165 760.4916129453126 690.3268991498419 758.7007519446357 692.536038149165 758.7007519446357 C 694.7451771484882 758.7007519446357 696.536038149165 760.4916129453126 696.536038149165 762.7007519446357 Z" stroke-opacity="1" stroke-linecap="round" stroke-linejoin="round" stroke-miterlimit="10"/><path fill="rgb(97,97,97)" stroke="none" paint-order="stroke fill markers" d=" M 693.9875084076871 632.7257351292612 C 693.9875084076871 634.9348741285844 692.1966474070102 636.7257351292612 689.9875084076871 636.7257351292612 C 687.7783694083639 636.7257351292612 685.9875084076871 634.9348741285844 685.9875084076871 632.7257351292612 C 685.9875084076871 630.5165961299381 687.7783694083639 628.7257351292612 689.9875084076871 628.7257351292612 C 692.1966474070102 628.7257351292612 693.9875084076871 630.5165961299381 693.9875084076871 632.7257351292612 Z" fill-opacity="1"/><path fill="none" stroke="rgb(0,0,0)" paint-order="fill stroke markers" d=" M 693.9875084076871 632.7257351292612 C 693.9875084076871 634.9348741285844 692.1966474070102 636.7257351292612 689.9875084076871 636.7257351292612 C 687.7783694083639 636.7257351292612 685.9875084076871 634.9348741285844 685.9875084076871 632.7257351292612 C 685.9875084076871 630.5165961299381 687.7783694083639 628.7257351292612 689.9875084076871 628.7257351292612 C 692.1966474070102 628.7257351292612 693.9875084076871 630.5165961299381 693.9875084076871 632.7257351292612 Z" stroke-opacity="1" stroke-linecap="round" stroke-linejoin="round" stroke-miterlimit="10"/><path fill="rgb(97,97,97)" stroke="none" paint-order="stroke fill markers" d=" M 796.5168203148378 760.7403444511912 C 796.5168203148378 762.9494834505143 794.725959314161 764.7403444511912 792.5168203148378 764.7403444511912 C 790.3076813155146 764.7403444511912 788.5168203148378 762.9494834505143 788.5168203148378 760.7403444511912 C 788.5168203148378 758.531205451868 790.3076813155146 756.7403444511912 792.5168203148378 756.7403444511912 C 794.725959314161 756.7403444511912 796.5168203148378 758.531205451868 796.5168203148378 760.7403444511912 Z" fill-opacity="1"/><path fill="none" stroke="rgb(0,0,0)" paint-order="fill stroke markers" d=" M 796.5168203148378 760.7403444511912 C 796.5168203148378 762.9494834505143 794.725959314161 764.7403444511912 792.5168203148378 764.7403444511912 C 790.3076813155146 764.7403444511912 788.5168203148378 762.9494834505143 788.5168203148378 760.7403444511912 C 788.5168203148378 758.531205451868 790.3076813155146 756.7403444511912 792.5168203148378 756.7403444511912 C 794.725959314161 756.7403444511912 796.5168203148378 758.531205451868 796.5168203148378 760.7403444511912 Z" stroke-opacity="1" stroke-linecap="round" stroke-linejoin="round" stroke-miterlimit="10"/><path fill="rgb(97,97,97)" stroke="none" paint-order="stroke fill markers" d=" M 858.955798981048 629.4910627650775 C 858.955798981048 631.7002017644006 857.1649379803712 633.4910627650775 854.955798981048 633.4910627650775 C 852.7466599817249 633.4910627650775 850.955798981048 631.7002017644006 850.955798981048 629.4910627650775 C 850.955798981048 627.2819237657543 852.7466599817249 625.4910627650775 854.955798981048 625.4910627650775 C 857.1649379803712 625.4910627650775 858.955798981048 627.2819237657543 858.955798981048 629.4910627650775 Z" fill-opacity="1"/><path fill="none" stroke="rgb(0,0,0)" paint-order="fill stroke markers" d=" M 858.955798981048 629.4910627650775 C 858.955798981048 631.7002017644006 857.1649379803712 633.4910627650775 854.955798981048 633.4910627650775 C 852.7466599817249 633.4910627650775 850.955798981048 631.7002017644006 850.955798981048 629.4910627650775 C 850.955798981048 627.2819237657543 852.7466599817249 625.4910627650775 854.955798981048 625.4910627650775 C 857.1649379803712 625.4910627650775 858.955798981048 627.2819237657543 858.955798981048 629.4910627650775 Z" stroke-opacity="1" stroke-linecap="round" stroke-linejoin="round" stroke-miterlimit="10"/><path fill="rgb(97,97,97)" stroke="none" paint-order="stroke fill markers" d=" M 860.2300638517871 694.478571172765 C 860.2300638517871 696.6877101720881 858.4392028511103 698.478571172765 856.2300638517871 698.478571172765 C 854.020924852464 698.478571172765 852.2300638517871 696.6877101720881 852.2300638517871 694.478571172765 C 852.2300638517871 692.2694321734418 854.020924852464 690.478571172765 856.2300638517871 690.478571172765 C 858.4392028511103 690.478571172765 860.2300638517871 692.2694321734418 860.2300638517871 694.478571172765 Z" fill-opacity="1"/><path fill="none" stroke="rgb(0,0,0)" paint-order="fill stroke markers" d=" M 860.2300638517871 694.478571172765 C 860.2300638517871 696.6877101720881 858.4392028511103 698.478571172765 856.2300638517871 698.478571172765 C 854.020924852464 698.478571172765 852.2300638517871 696.6877101720881 852.2300638517871 694.478571172765 C 852.2300638517871 692.2694321734418 854.020924852464 690.478571172765 856.2300638517871 690.478571172765 C 858.4392028511103 690.478571172765 860.2300638517871 692.2694321734418 860.2300638517871 694.478571172765 Z" stroke-opacity="1" stroke-linecap="round" stroke-linejoin="round" stroke-miterlimit="10"/><text fill="rgb(0,0,0)" stroke="none" font-family="geogebra-sans-serif, sans-serif" font-size="28px" font-style="normal" font-weight="normal" text-decoration="normal" x="24" y="70" text-anchor="start" dominant-baseline="alphabetic" fill-opacity="1">a.</text><text fill="rgb(0,0,0)" stroke="none" font-family="geogebra-sans-serif, sans-serif" font-size="28px" font-style="normal" font-weight="normal" text-decoration="normal" x="29" y="360" text-anchor="start" dominant-baseline="alphabetic" fill-opacity="1">b.</text><text fill="rgb(0,0,0)" stroke="none" font-family="geogebra-sans-serif, sans-serif" font-size="28px" font-style="normal" font-weight="normal" text-decoration="normal" x="599" y="87" text-anchor="start" dominant-baseline="alphabetic" fill-opacity="1">c.</text><text fill="rgb(0,0,0)" stroke="none" font-family="geogebra-sans-serif, sans-serif" font-size="28px" font-style="normal" font-weight="normal" text-decoration="normal" x="497" y="536" text-anchor="start" dominant-baseline="alphabetic" fill-opacity="1">d.</text></g></g></svg>