<svg version="1.1" xmlns="http://www.w3.org/2000/svg" xmlns:xlink="http://www.w3.org/1999/xlink" width="1848" height="847"><defs><clipPath id="XxnIfqqBszkl"><path fill="none" stroke="none" d=" M 0 0 L 1848 0 L 1848 847 L 0 847 L 0 0 Z"/></clipPath></defs><g transform="scale(1,1)" clip-path="url(#XxnIfqqBszkl)"><g><rect fill="rgb(255,255,255)" stroke="none" x="0" y="0" width="1848" height="847" fill-opacity="1"/><path fill="rgb(21,101,192)" stroke="none" paint-order="stroke fill markers" fill-rule="evenodd" d=" M 85 153.99999999999991 L 182 152.99999999999991 L 181 56 L 84 56.99999999999994 Z" fill-opacity="0.09803921568627451"/><path fill="none" stroke="rgb(21,101,192)" paint-order="fill stroke markers" d=" M 85 153.99999999999991 L 182 152.99999999999991 L 181 56 L 84 56.99999999999994 Z" stroke-opacity="0.8" stroke-linecap="round" stroke-linejoin="round" stroke-miterlimit="10" stroke-width="2.5"/><path fill="rgb(21,101,192)" stroke="none" paint-order="stroke fill markers" fill-rule="evenodd" d=" M 181 56 L 182 152.99999999999991 L 278.99999999999994 151.99999999999994 L 278 55 Z" fill-opacity="0.09803921568627451"/><path fill="none" stroke="rgb(21,101,192)" paint-order="fill stroke markers" d=" M 181 56 L 182 152.99999999999991 L 278.99999999999994 151.99999999999994 L 278 55 Z" stroke-opacity="0.8" stroke-linecap="round" stroke-linejoin="round" stroke-miterlimit="10" stroke-width="2.5"/><path fill="rgb(21,101,192)" stroke="none" paint-order="stroke fill markers" fill-rule="evenodd" d=" M 278 55 L 278.99999999999994 151.99999999999994 L 375.99999999999994 150.99999999999997 L 375 54 Z" fill-opacity="0.09803921568627451"/><path fill="none" stroke="rgb(21,101,192)" paint-order="fill stroke markers" d=" M 278 55 L 278.99999999999994 151.99999999999994 L 375.99999999999994 150.99999999999997 L 375 54 Z" stroke-opacity="0.8" stroke-linecap="round" stroke-linejoin="round" stroke-miterlimit="10" stroke-width="2.5"/><path fill="rgb(21,101,192)" stroke="none" paint-order="stroke fill markers" fill-rule="evenodd" d=" M 375 54 L 375.99999999999994 150.99999999999997 L 472.99999999999994 150 L 471.99999999999994 53.00000000000006 Z" fill-opacity="0.09803921568627451"/><path fill="none" stroke="rgb(21,101,192)" paint-order="fill stroke markers" d=" M 375 54 L 375.99999999999994 150.99999999999997 L 472.99999999999994 150 L 471.99999999999994 53.00000000000006 Z" stroke-opacity="0.8" stroke-linecap="round" stroke-linejoin="round" stroke-miterlimit="10" stroke-width="2.5"/><path fill="rgb(21,101,192)" stroke="none" paint-order="stroke fill markers" fill-rule="evenodd" d=" M 182 152.99999999999991 L 85 153.99999999999991 L 86 250.99999999999983 L 182.99999999999994 249.9999999999999 Z" fill-opacity="0.09803921568627451"/><path fill="none" stroke="rgb(21,101,192)" paint-order="fill stroke markers" d=" M 182 152.99999999999991 L 85 153.99999999999991 L 86 250.99999999999983 L 182.99999999999994 249.9999999999999 Z" stroke-opacity="0.8" stroke-linecap="round" stroke-linejoin="round" stroke-miterlimit="10" stroke-width="2.5"/><path fill="rgb(21,101,192)" stroke="none" paint-order="stroke fill markers" fill-rule="evenodd" d=" M 472.99999999999994 150 L 375.99999999999994 150.99999999999997 L 376.9999999999999 247.99999999999991 L 473.9999999999999 246.99999999999994 Z" fill-opacity="0.09803921568627451"/><path fill="none" stroke="rgb(21,101,192)" paint-order="fill stroke markers" d=" M 472.99999999999994 150 L 375.99999999999994 150.99999999999997 L 376.9999999999999 247.99999999999991 L 473.9999999999999 246.99999999999994 Z" stroke-opacity="0.8" stroke-linecap="round" stroke-linejoin="round" stroke-miterlimit="10" stroke-width="2.5"/><path fill="rgb(21,101,192)" stroke="none" paint-order="stroke fill markers" fill-rule="evenodd" d=" M 88 449.9999999999999 L 195 447.9999999999999 L 193 340.9999999999999 L 86.00000000000003 342.9999999999999 Z" fill-opacity="0.09803921568627451"/><path fill="none" stroke="rgb(21,101,192)" paint-order="fill stroke markers" d=" M 88 449.9999999999999 L 195 447.9999999999999 L 193 340.9999999999999 L 86.00000000000003 342.9999999999999 Z" stroke-opacity="0.8" stroke-linecap="round" stroke-linejoin="round" stroke-miterlimit="10" stroke-width="2.5"/><path fill="rgb(21,101,192)" stroke="none" paint-order="stroke fill markers" fill-rule="evenodd" d=" M 193 340.9999999999999 L 195 447.9999999999999 L 286.6647182049349 392.76794919243105 Z" fill-opacity="0.09803921568627451"/><path fill="none" stroke="rgb(21,101,192)" paint-order="fill stroke markers" d=" M 193 340.9999999999999 L 195 447.9999999999999 L 286.6647182049349 392.76794919243105 Z" stroke-opacity="0.8" stroke-linecap="round" stroke-linejoin="round" stroke-miterlimit="10" stroke-width="2.5"/><path fill="rgb(21,101,192)" stroke="none" paint-order="stroke fill markers" fill-rule="evenodd" d=" M 286.6647182049349 392.76794919243105 L 195 447.9999999999999 L 250.2320508075688 539.6647182049347 L 341.89676901250374 484.432667397366 Z" fill-opacity="0.09803921568627451"/><path fill="none" stroke="rgb(21,101,192)" paint-order="fill stroke markers" d=" M 286.6647182049349 392.76794919243105 L 195 447.9999999999999 L 250.2320508075688 539.6647182049347 L 341.89676901250374 484.432667397366 Z" stroke-opacity="0.8" stroke-linecap="round" stroke-linejoin="round" stroke-miterlimit="10" stroke-width="2.5"/><path fill="rgb(21,101,192)" stroke="none" paint-order="stroke fill markers" fill-rule="evenodd" d=" M 341.89676901250374 484.432667397366 L 250.2320508075688 539.6647182049347 L 343.8967690125036 591.4326673973658 Z" fill-opacity="0.09803921568627451"/><path fill="none" stroke="rgb(21,101,192)" paint-order="fill stroke markers" d=" M 341.89676901250374 484.432667397366 L 250.2320508075688 539.6647182049347 L 343.8967690125036 591.4326673973658 Z" stroke-opacity="0.8" stroke-linecap="round" stroke-linejoin="round" stroke-miterlimit="10" stroke-width="2.5"/><path fill="rgb(21,101,192)" stroke="none" paint-order="stroke fill markers" fill-rule="evenodd" d=" M 286.6647182049349 392.76794919243105 L 341.89676901250374 484.432667397366 L 433.5614872174387 429.20061658979716 L 378.3294364098699 337.53589838486226 Z" fill-opacity="0.09803921568627451"/><path fill="none" stroke="rgb(21,101,192)" paint-order="fill stroke markers" d=" M 286.6647182049349 392.76794919243105 L 341.89676901250374 484.432667397366 L 433.5614872174387 429.20061658979716 L 378.3294364098699 337.53589838486226 Z" stroke-opacity="0.8" stroke-linecap="round" stroke-linejoin="round" stroke-miterlimit="10" stroke-width="2.5"/><path fill="rgb(21,101,192)" stroke="none" paint-order="stroke fill markers" fill-rule="evenodd" d=" M 612 176.99999999999994 L 730 175.99999999999994 L 670.1339745962157 74.3090023534362 Z" fill-opacity="0.09803921568627451"/><path fill="none" stroke="rgb(21,101,192)" paint-order="fill stroke markers" d=" M 612 176.99999999999994 L 730 175.99999999999994 L 670.1339745962157 74.3090023534362 Z" stroke-opacity="0.8" stroke-linecap="round" stroke-linejoin="round" stroke-miterlimit="10" stroke-width="2.5"/><path fill="rgb(21,101,192)" stroke="none" paint-order="stroke fill markers" fill-rule="evenodd" d=" M 730 175.99999999999994 L 612 176.99999999999994 L 671.8660254037844 278.6909976465637 Z" fill-opacity="0.09803921568627451"/><path fill="none" stroke="rgb(21,101,192)" paint-order="fill stroke markers" d=" M 730 175.99999999999994 L 612 176.99999999999994 L 671.8660254037844 278.6909976465637 Z" stroke-opacity="0.8" stroke-linecap="round" stroke-linejoin="round" stroke-miterlimit="10" stroke-width="2.5"/><path fill="rgb(21,101,192)" stroke="none" paint-order="stroke fill markers" fill-rule="evenodd" d=" M 730 175.99999999999994 L 671.8660254037844 278.6909976465637 L 789.8660254037845 277.6909976465637 Z" fill-opacity="0.09803921568627451"/><path fill="none" stroke="rgb(21,101,192)" paint-order="fill stroke markers" d=" M 730 175.99999999999994 L 671.8660254037844 278.6909976465637 L 789.8660254037845 277.6909976465637 Z" stroke-opacity="0.8" stroke-linecap="round" stroke-linejoin="round" stroke-miterlimit="10" stroke-width="2.5"/><path fill="rgb(21,101,192)" stroke="none" paint-order="stroke fill markers" fill-rule="evenodd" d=" M 789.8660254037845 277.6909976465637 L 671.8660254037844 278.6909976465637 L 731.7320508075688 380.3819952931275 Z" fill-opacity="0.09803921568627451"/><path fill="none" stroke="rgb(21,101,192)" paint-order="fill stroke markers" d=" M 789.8660254037845 277.6909976465637 L 671.8660254037844 278.6909976465637 L 731.7320508075688 380.3819952931275 Z" stroke-opacity="0.8" stroke-linecap="round" stroke-linejoin="round" stroke-miterlimit="10" stroke-width="2.5"/><path fill="rgb(21,101,192)" stroke="none" paint-order="stroke fill markers" fill-rule="evenodd" d=" M 789.8660254037845 277.6909976465637 L 731.7320508075688 380.3819952931275 L 849.7320508075691 379.3819952931275 Z" fill-opacity="0.09803921568627451"/><path fill="none" stroke="rgb(21,101,192)" paint-order="fill stroke markers" d=" M 789.8660254037845 277.6909976465637 L 731.7320508075688 380.3819952931275 L 849.7320508075691 379.3819952931275 Z" stroke-opacity="0.8" stroke-linecap="round" stroke-linejoin="round" stroke-miterlimit="10" stroke-width="2.5"/><path fill="rgb(21,101,192)" stroke="none" paint-order="stroke fill markers" fill-rule="evenodd" d=" M 849.7320508075691 379.3819952931275 L 731.7320508075688 380.3819952931275 L 791.5980762113534 482.07299293969135 Z" fill-opacity="0.09803921568627451"/><path fill="none" stroke="rgb(21,101,192)" paint-order="fill stroke markers" d=" M 849.7320508075691 379.3819952931275 L 731.7320508075688 380.3819952931275 L 791.5980762113534 482.07299293969135 Z" stroke-opacity="0.8" stroke-linecap="round" stroke-linejoin="round" stroke-miterlimit="10" stroke-width="2.5"/><path fill="none" stroke="rgb(21,101,192)" paint-order="fill stroke markers" d=" M 85 153.99999999999991 L 182 152.99999999999991" stroke-opacity="0.8" stroke-linecap="round" stroke-linejoin="round" stroke-miterlimit="10" stroke-width="2.5"/><path fill="none" stroke="rgb(21,101,192)" paint-order="fill stroke markers" d=" M 182 152.99999999999991 L 181 56" stroke-opacity="0.8" stroke-linecap="round" stroke-linejoin="round" stroke-miterlimit="10" stroke-width="2.5"/><path fill="none" stroke="rgb(21,101,192)" paint-order="fill stroke markers" d=" M 181 56 L 84 56.99999999999994" stroke-opacity="0.8" stroke-linecap="round" stroke-linejoin="round" stroke-miterlimit="10" stroke-width="2.5"/><path fill="none" stroke="rgb(21,101,192)" paint-order="fill stroke markers" d=" M 84 56.99999999999994 L 85 153.99999999999991" stroke-opacity="0.8" stroke-linecap="round" stroke-linejoin="round" stroke-miterlimit="10" stroke-width="2.5"/><path fill="none" stroke="rgb(21,101,192)" paint-order="fill stroke markers" d=" M 181 56 L 182 152.99999999999991" stroke-opacity="0.8" stroke-linecap="round" stroke-linejoin="round" stroke-miterlimit="10" stroke-width="2.5"/><path fill="none" stroke="rgb(21,101,192)" paint-order="fill stroke markers" d=" M 182 152.99999999999991 L 278.99999999999994 151.99999999999994" stroke-opacity="0.8" stroke-linecap="round" stroke-linejoin="round" stroke-miterlimit="10" stroke-width="2.5"/><path fill="none" stroke="rgb(21,101,192)" paint-order="fill stroke markers" d=" M 278.99999999999994 151.99999999999994 L 278 55" stroke-opacity="0.8" stroke-linecap="round" stroke-linejoin="round" stroke-miterlimit="10" stroke-width="2.5"/><path fill="none" stroke="rgb(21,101,192)" paint-order="fill stroke markers" d=" M 278 55 L 181 56" stroke-opacity="0.8" stroke-linecap="round" stroke-linejoin="round" stroke-miterlimit="10" stroke-width="2.5"/><path fill="none" stroke="rgb(21,101,192)" paint-order="fill stroke markers" d=" M 278 55 L 278.99999999999994 151.99999999999994" stroke-opacity="0.8" stroke-linecap="round" stroke-linejoin="round" stroke-miterlimit="10" stroke-width="2.5"/><path fill="none" stroke="rgb(21,101,192)" paint-order="fill stroke markers" d=" M 278.99999999999994 151.99999999999994 L 375.99999999999994 150.99999999999997" stroke-opacity="0.8" stroke-linecap="round" stroke-linejoin="round" stroke-miterlimit="10" stroke-width="2.5"/><path fill="none" stroke="rgb(21,101,192)" paint-order="fill stroke markers" d=" M 375.99999999999994 150.99999999999997 L 375 54" stroke-opacity="0.8" stroke-linecap="round" stroke-linejoin="round" stroke-miterlimit="10" stroke-width="2.5"/><path fill="none" stroke="rgb(21,101,192)" paint-order="fill stroke markers" d=" M 375 54 L 278 55" stroke-opacity="0.8" stroke-linecap="round" stroke-linejoin="round" stroke-miterlimit="10" stroke-width="2.5"/><path fill="none" stroke="rgb(21,101,192)" paint-order="fill stroke markers" d=" M 375 54 L 375.99999999999994 150.99999999999997" stroke-opacity="0.8" stroke-linecap="round" stroke-linejoin="round" stroke-miterlimit="10" stroke-width="2.5"/><path fill="none" stroke="rgb(21,101,192)" paint-order="fill stroke markers" d=" M 375.99999999999994 150.99999999999997 L 472.99999999999994 150" stroke-opacity="0.8" stroke-linecap="round" stroke-linejoin="round" stroke-miterlimit="10" stroke-width="2.5"/><path fill="none" stroke="rgb(21,101,192)" paint-order="fill stroke markers" d=" M 472.99999999999994 150 L 471.99999999999994 53.00000000000006" stroke-opacity="0.8" stroke-linecap="round" stroke-linejoin="round" stroke-miterlimit="10" stroke-width="2.5"/><path fill="none" stroke="rgb(21,101,192)" paint-order="fill stroke markers" d=" M 471.99999999999994 53.00000000000006 L 375 54" stroke-opacity="0.8" stroke-linecap="round" stroke-linejoin="round" stroke-miterlimit="10" stroke-width="2.5"/><path fill="none" stroke="rgb(21,101,192)" paint-order="fill stroke markers" d=" M 182 152.99999999999991 L 85 153.99999999999991" stroke-opacity="0.8" stroke-linecap="round" stroke-linejoin="round" stroke-miterlimit="10" stroke-width="2.5"/><path fill="none" stroke="rgb(21,101,192)" paint-order="fill stroke markers" d=" M 85 153.99999999999991 L 86 250.99999999999983" stroke-opacity="0.8" stroke-linecap="round" stroke-linejoin="round" stroke-miterlimit="10" stroke-width="2.5"/><path fill="none" stroke="rgb(21,101,192)" paint-order="fill stroke markers" d=" M 86 250.99999999999983 L 182.99999999999994 249.9999999999999" stroke-opacity="0.8" stroke-linecap="round" stroke-linejoin="round" stroke-miterlimit="10" stroke-width="2.5"/><path fill="none" stroke="rgb(21,101,192)" paint-order="fill stroke markers" d=" M 182.99999999999994 249.9999999999999 L 182 152.99999999999991" stroke-opacity="0.8" stroke-linecap="round" stroke-linejoin="round" stroke-miterlimit="10" stroke-width="2.5"/><path fill="none" stroke="rgb(21,101,192)" paint-order="fill stroke markers" d=" M 472.99999999999994 150 L 375.99999999999994 150.99999999999997" stroke-opacity="0.8" stroke-linecap="round" stroke-linejoin="round" stroke-miterlimit="10" stroke-width="2.5"/><path fill="none" stroke="rgb(21,101,192)" paint-order="fill stroke markers" d=" M 375.99999999999994 150.99999999999997 L 376.9999999999999 247.99999999999991" stroke-opacity="0.8" stroke-linecap="round" stroke-linejoin="round" stroke-miterlimit="10" stroke-width="2.5"/><path fill="none" stroke="rgb(21,101,192)" paint-order="fill stroke markers" d=" M 376.9999999999999 247.99999999999991 L 473.9999999999999 246.99999999999994" stroke-opacity="0.8" stroke-linecap="round" stroke-linejoin="round" stroke-miterlimit="10" stroke-width="2.5"/><path fill="none" stroke="rgb(21,101,192)" paint-order="fill stroke markers" d=" M 473.9999999999999 246.99999999999994 L 472.99999999999994 150" stroke-opacity="0.8" stroke-linecap="round" stroke-linejoin="round" stroke-miterlimit="10" stroke-width="2.5"/><path fill="none" stroke="rgb(21,101,192)" paint-order="fill stroke markers" d=" M 88 449.9999999999999 L 195 447.9999999999999" stroke-opacity="0.8" stroke-linecap="round" stroke-linejoin="round" stroke-miterlimit="10" stroke-width="2.5"/><path fill="none" stroke="rgb(21,101,192)" paint-order="fill stroke markers" d=" M 195 447.9999999999999 L 193 340.9999999999999" stroke-opacity="0.8" stroke-linecap="round" stroke-linejoin="round" stroke-miterlimit="10" stroke-width="2.5"/><path fill="none" stroke="rgb(21,101,192)" paint-order="fill stroke markers" d=" M 193 340.9999999999999 L 86.00000000000003 342.9999999999999" stroke-opacity="0.8" stroke-linecap="round" stroke-linejoin="round" stroke-miterlimit="10" stroke-width="2.5"/><path fill="none" stroke="rgb(21,101,192)" paint-order="fill stroke markers" d=" M 86.00000000000003 342.9999999999999 L 88 449.9999999999999" stroke-opacity="0.8" stroke-linecap="round" stroke-linejoin="round" stroke-miterlimit="10" stroke-width="2.5"/><path fill="none" stroke="rgb(21,101,192)" paint-order="fill stroke markers" d=" M 193 340.9999999999999 L 195 447.9999999999999" stroke-opacity="0.8" stroke-linecap="round" stroke-linejoin="round" stroke-miterlimit="10" stroke-width="2.5"/><path fill="none" stroke="rgb(21,101,192)" paint-order="fill stroke markers" d=" M 195 447.9999999999999 L 286.6647182049349 392.76794919243105" stroke-opacity="0.8" stroke-linecap="round" stroke-linejoin="round" stroke-miterlimit="10" stroke-width="2.5"/><path fill="none" stroke="rgb(21,101,192)" paint-order="fill stroke markers" d=" M 286.6647182049349 392.76794919243105 L 193 340.9999999999999" stroke-opacity="0.8" stroke-linecap="round" stroke-linejoin="round" stroke-miterlimit="10" stroke-width="2.5"/><path fill="none" stroke="rgb(21,101,192)" paint-order="fill stroke markers" d=" M 286.6647182049349 392.76794919243105 L 195 447.9999999999999" stroke-opacity="0.8" stroke-linecap="round" stroke-linejoin="round" stroke-miterlimit="10" stroke-width="2.5"/><path fill="none" stroke="rgb(21,101,192)" paint-order="fill stroke markers" d=" M 195 447.9999999999999 L 250.2320508075688 539.6647182049347" stroke-opacity="0.8" stroke-linecap="round" stroke-linejoin="round" stroke-miterlimit="10" stroke-width="2.5"/><path fill="none" stroke="rgb(21,101,192)" paint-order="fill stroke markers" d=" M 250.2320508075688 539.6647182049347 L 341.89676901250374 484.432667397366" stroke-opacity="0.8" stroke-linecap="round" stroke-linejoin="round" stroke-miterlimit="10" stroke-width="2.5"/><path fill="none" stroke="rgb(21,101,192)" paint-order="fill stroke markers" d=" M 341.89676901250374 484.432667397366 L 286.6647182049349 392.76794919243105" stroke-opacity="0.8" stroke-linecap="round" stroke-linejoin="round" stroke-miterlimit="10" stroke-width="2.5"/><path fill="none" stroke="rgb(21,101,192)" paint-order="fill stroke markers" d=" M 341.89676901250374 484.432667397366 L 250.2320508075688 539.6647182049347" stroke-opacity="0.8" stroke-linecap="round" stroke-linejoin="round" stroke-miterlimit="10" stroke-width="2.5"/><path fill="none" stroke="rgb(21,101,192)" paint-order="fill stroke markers" d=" M 250.2320508075688 539.6647182049347 L 343.8967690125036 591.4326673973658" stroke-opacity="0.8" stroke-linecap="round" stroke-linejoin="round" stroke-miterlimit="10" stroke-width="2.5"/><path fill="none" stroke="rgb(21,101,192)" paint-order="fill stroke markers" d=" M 343.8967690125036 591.4326673973658 L 341.89676901250374 484.432667397366" stroke-opacity="0.8" stroke-linecap="round" stroke-linejoin="round" stroke-miterlimit="10" stroke-width="2.5"/><path fill="none" stroke="rgb(21,101,192)" paint-order="fill stroke markers" d=" M 286.6647182049349 392.76794919243105 L 341.89676901250374 484.432667397366" stroke-opacity="0.8" stroke-linecap="round" stroke-linejoin="round" stroke-miterlimit="10" stroke-width="2.5"/><path fill="none" stroke="rgb(21,101,192)" paint-order="fill stroke markers" d=" M 341.89676901250374 484.432667397366 L 433.5614872174387 429.20061658979716" stroke-opacity="0.8" stroke-linecap="round" stroke-linejoin="round" stroke-miterlimit="10" stroke-width="2.5"/><path fill="none" stroke="rgb(21,101,192)" paint-order="fill stroke markers" d=" M 433.5614872174387 429.20061658979716 L 378.3294364098699 337.53589838486226" stroke-opacity="0.8" stroke-linecap="round" stroke-linejoin="round" stroke-miterlimit="10" stroke-width="2.5"/><path fill="none" stroke="rgb(21,101,192)" paint-order="fill stroke markers" d=" M 378.3294364098699 337.53589838486226 L 286.6647182049349 392.76794919243105" stroke-opacity="0.8" stroke-linecap="round" stroke-linejoin="round" stroke-miterlimit="10" stroke-width="2.5"/><path fill="none" stroke="rgb(21,101,192)" paint-order="fill stroke markers" d=" M 612 176.99999999999994 L 730 175.99999999999994" stroke-opacity="0.8" stroke-linecap="round" stroke-linejoin="round" stroke-miterlimit="10" stroke-width="2.5"/><path fill="none" stroke="rgb(21,101,192)" paint-order="fill stroke markers" d=" M 730 175.99999999999994 L 670.1339745962157 74.3090023534362" stroke-opacity="0.8" stroke-linecap="round" stroke-linejoin="round" stroke-miterlimit="10" stroke-width="2.5"/><path fill="none" stroke="rgb(21,101,192)" paint-order="fill stroke markers" d=" M 670.1339745962157 74.3090023534362 L 612 176.99999999999994" stroke-opacity="0.8" stroke-linecap="round" stroke-linejoin="round" stroke-miterlimit="10" stroke-width="2.5"/><path fill="none" stroke="rgb(21,101,192)" paint-order="fill stroke markers" d=" M 730 175.99999999999994 L 612 176.99999999999994" stroke-opacity="0.8" stroke-linecap="round" stroke-linejoin="round" stroke-miterlimit="10" stroke-width="2.5"/><path fill="none" stroke="rgb(21,101,192)" paint-order="fill stroke markers" d=" M 612 176.99999999999994 L 671.8660254037844 278.6909976465637" stroke-opacity="0.8" stroke-linecap="round" stroke-linejoin="round" stroke-miterlimit="10" stroke-width="2.5"/><path fill="none" stroke="rgb(21,101,192)" paint-order="fill stroke markers" d=" M 671.8660254037844 278.6909976465637 L 730 175.99999999999994" stroke-opacity="0.8" stroke-linecap="round" stroke-linejoin="round" stroke-miterlimit="10" stroke-width="2.5"/><path fill="none" stroke="rgb(21,101,192)" paint-order="fill stroke markers" d=" M 730 175.99999999999994 L 671.8660254037844 278.6909976465637" stroke-opacity="0.8" stroke-linecap="round" stroke-linejoin="round" stroke-miterlimit="10" stroke-width="2.5"/><path fill="none" stroke="rgb(21,101,192)" paint-order="fill stroke markers" d=" M 671.8660254037844 278.6909976465637 L 789.8660254037845 277.6909976465637" stroke-opacity="0.8" stroke-linecap="round" stroke-linejoin="round" stroke-miterlimit="10" stroke-width="2.5"/><path fill="none" stroke="rgb(21,101,192)" paint-order="fill stroke markers" d=" M 789.8660254037845 277.6909976465637 L 730 175.99999999999994" stroke-opacity="0.8" stroke-linecap="round" stroke-linejoin="round" stroke-miterlimit="10" stroke-width="2.5"/><path fill="none" stroke="rgb(21,101,192)" paint-order="fill stroke markers" d=" M 789.8660254037845 277.6909976465637 L 671.8660254037844 278.6909976465637" stroke-opacity="0.8" stroke-linecap="round" stroke-linejoin="round" stroke-miterlimit="10" stroke-width="2.5"/><path fill="none" stroke="rgb(21,101,192)" paint-order="fill stroke markers" d=" M 671.8660254037844 278.6909976465637 L 731.7320508075688 380.3819952931275" stroke-opacity="0.8" stroke-linecap="round" stroke-linejoin="round" stroke-miterlimit="10" stroke-width="2.5"/><path fill="none" stroke="rgb(21,101,192)" paint-order="fill stroke markers" d=" M 731.7320508075688 380.3819952931275 L 789.8660254037845 277.6909976465637" stroke-opacity="0.8" stroke-linecap="round" stroke-linejoin="round" stroke-miterlimit="10" stroke-width="2.5"/><path fill="none" stroke="rgb(21,101,192)" paint-order="fill stroke markers" d=" M 789.8660254037845 277.6909976465637 L 731.7320508075688 380.3819952931275" stroke-opacity="0.8" stroke-linecap="round" stroke-linejoin="round" stroke-miterlimit="10" stroke-width="2.5"/><path fill="none" stroke="rgb(21,101,192)" paint-order="fill stroke markers" d=" M 731.7320508075688 380.3819952931275 L 849.7320508075691 379.3819952931275" stroke-opacity="0.8" stroke-linecap="round" stroke-linejoin="round" stroke-miterlimit="10" stroke-width="2.5"/><path fill="none" stroke="rgb(21,101,192)" paint-order="fill stroke markers" d=" M 849.7320508075691 379.3819952931275 L 789.8660254037845 277.6909976465637" stroke-opacity="0.8" stroke-linecap="round" stroke-linejoin="round" stroke-miterlimit="10" stroke-width="2.5"/><path fill="none" stroke="rgb(21,101,192)" paint-order="fill stroke markers" d=" M 849.7320508075691 379.3819952931275 L 731.7320508075688 380.3819952931275" stroke-opacity="0.8" stroke-linecap="round" stroke-linejoin="round" stroke-miterlimit="10" stroke-width="2.5"/><path fill="none" stroke="rgb(21,101,192)" paint-order="fill stroke markers" d=" M 731.7320508075688 380.3819952931275 L 791.5980762113534 482.07299293969135" stroke-opacity="0.8" stroke-linecap="round" stroke-linejoin="round" stroke-miterlimit="10" stroke-width="2.5"/><path fill="none" stroke="rgb(21,101,192)" paint-order="fill stroke markers" d=" M 791.5980762113534 482.07299293969135 L 849.7320508075691 379.3819952931275" stroke-opacity="0.8" stroke-linecap="round" stroke-linejoin="round" stroke-miterlimit="10" stroke-width="2.5"/><path fill="rgb(21,101,192)" stroke="none" paint-order="stroke fill markers" d=" M 90 153.99999999999991 C 90 156.7614237491539 87.76142374915396 158.99999999999991 85 158.99999999999991 C 82.23857625084604 158.99999999999991 80 156.7614237491539 80 153.99999999999991 C 80 151.23857625084594 82.23857625084604 148.99999999999991 85 148.99999999999991 C 87.76142374915396 148.99999999999991 90 151.23857625084594 90 153.99999999999991 Z" fill-opacity="1"/><path fill="none" stroke="rgb(0,0,0)" paint-order="fill stroke markers" d=" M 90 153.99999999999991 C 90 156.7614237491539 87.76142374915396 158.99999999999991 85 158.99999999999991 C 82.23857625084604 158.99999999999991 80 156.7614237491539 80 153.99999999999991 C 80 151.23857625084594 82.23857625084604 148.99999999999991 85 148.99999999999991 C 87.76142374915396 148.99999999999991 90 151.23857625084594 90 153.99999999999991 Z" stroke-opacity="1" stroke-linecap="round" stroke-linejoin="round" stroke-miterlimit="10"/><path fill="rgb(21,101,192)" stroke="none" paint-order="stroke fill markers" d=" M 187 152.99999999999991 C 187 155.7614237491539 184.76142374915398 157.99999999999991 182 157.99999999999991 C 179.23857625084602 157.99999999999991 177 155.7614237491539 177 152.99999999999991 C 177 150.23857625084594 179.23857625084602 147.99999999999991 182 147.99999999999991 C 184.76142374915398 147.99999999999991 187 150.23857625084594 187 152.99999999999991 Z" fill-opacity="1"/><path fill="none" stroke="rgb(0,0,0)" paint-order="fill stroke markers" d=" M 187 152.99999999999991 C 187 155.7614237491539 184.76142374915398 157.99999999999991 182 157.99999999999991 C 179.23857625084602 157.99999999999991 177 155.7614237491539 177 152.99999999999991 C 177 150.23857625084594 179.23857625084602 147.99999999999991 182 147.99999999999991 C 184.76142374915398 147.99999999999991 187 150.23857625084594 187 152.99999999999991 Z" stroke-opacity="1" stroke-linecap="round" stroke-linejoin="round" stroke-miterlimit="10"/><path fill="rgb(97,97,97)" stroke="none" paint-order="stroke fill markers" d=" M 186 56 C 186 58.76142374915396 183.76142374915398 61 181 61 C 178.23857625084602 61 176 58.76142374915396 176 56 C 176 53.23857625084603 178.23857625084602 51 181 51 C 183.76142374915398 51 186 53.23857625084603 186 56 Z" fill-opacity="1"/><path fill="none" stroke="rgb(0,0,0)" paint-order="fill stroke markers" d=" M 186 56 C 186 58.76142374915396 183.76142374915398 61 181 61 C 178.23857625084602 61 176 58.76142374915396 176 56 C 176 53.23857625084603 178.23857625084602 51 181 51 C 183.76142374915398 51 186 53.23857625084603 186 56 Z" stroke-opacity="1" stroke-linecap="round" stroke-linejoin="round" stroke-miterlimit="10"/><path fill="rgb(97,97,97)" stroke="none" paint-order="stroke fill markers" d=" M 89 56.99999999999994 C 89 59.761423749153906 86.76142374915396 61.99999999999994 84 61.99999999999994 C 81.23857625084604 61.99999999999994 79 59.761423749153906 79 56.99999999999994 C 79 54.23857625084597 81.23857625084604 51.99999999999994 84 51.99999999999994 C 86.76142374915396 51.99999999999994 89 54.23857625084597 89 56.99999999999994 Z" fill-opacity="1"/><path fill="none" stroke="rgb(0,0,0)" paint-order="fill stroke markers" d=" M 89 56.99999999999994 C 89 59.761423749153906 86.76142374915396 61.99999999999994 84 61.99999999999994 C 81.23857625084604 61.99999999999994 79 59.761423749153906 79 56.99999999999994 C 79 54.23857625084597 81.23857625084604 51.99999999999994 84 51.99999999999994 C 86.76142374915396 51.99999999999994 89 54.23857625084597 89 56.99999999999994 Z" stroke-opacity="1" stroke-linecap="round" stroke-linejoin="round" stroke-miterlimit="10"/><path fill="rgb(97,97,97)" stroke="none" paint-order="stroke fill markers" d=" M 283.99999999999994 151.99999999999994 C 283.99999999999994 154.76142374915392 281.7614237491539 156.99999999999994 278.99999999999994 156.99999999999994 C 276.238576250846 156.99999999999994 273.99999999999994 154.76142374915392 273.99999999999994 151.99999999999994 C 273.99999999999994 149.23857625084597 276.238576250846 146.99999999999994 278.99999999999994 146.99999999999994 C 281.7614237491539 146.99999999999994 283.99999999999994 149.23857625084597 283.99999999999994 151.99999999999994 Z" fill-opacity="1"/><path fill="none" stroke="rgb(0,0,0)" paint-order="fill stroke markers" d=" M 283.99999999999994 151.99999999999994 C 283.99999999999994 154.76142374915392 281.7614237491539 156.99999999999994 278.99999999999994 156.99999999999994 C 276.238576250846 156.99999999999994 273.99999999999994 154.76142374915392 273.99999999999994 151.99999999999994 C 273.99999999999994 149.23857625084597 276.238576250846 146.99999999999994 278.99999999999994 146.99999999999994 C 281.7614237491539 146.99999999999994 283.99999999999994 149.23857625084597 283.99999999999994 151.99999999999994 Z" stroke-opacity="1" stroke-linecap="round" stroke-linejoin="round" stroke-miterlimit="10"/><path fill="rgb(97,97,97)" stroke="none" paint-order="stroke fill markers" d=" M 283 55 C 283 57.76142374915396 280.76142374915395 60 278 60 C 275.23857625084605 60 273 57.76142374915396 273 55 C 273 52.23857625084603 275.23857625084605 50 278 50 C 280.76142374915395 50 283 52.23857625084603 283 55 Z" fill-opacity="1"/><path fill="none" stroke="rgb(0,0,0)" paint-order="fill stroke markers" d=" M 283 55 C 283 57.76142374915396 280.76142374915395 60 278 60 C 275.23857625084605 60 273 57.76142374915396 273 55 C 273 52.23857625084603 275.23857625084605 50 278 50 C 280.76142374915395 50 283 52.23857625084603 283 55 Z" stroke-opacity="1" stroke-linecap="round" stroke-linejoin="round" stroke-miterlimit="10"/><path fill="rgb(97,97,97)" stroke="none" paint-order="stroke fill markers" d=" M 380.99999999999994 150.99999999999997 C 380.99999999999994 153.76142374915395 378.7614237491539 155.99999999999997 375.99999999999994 155.99999999999997 C 373.238576250846 155.99999999999997 370.99999999999994 153.76142374915395 370.99999999999994 150.99999999999997 C 370.99999999999994 148.238576250846 373.238576250846 145.99999999999997 375.99999999999994 145.99999999999997 C 378.7614237491539 145.99999999999997 380.99999999999994 148.238576250846 380.99999999999994 150.99999999999997 Z" fill-opacity="1"/><path fill="none" stroke="rgb(0,0,0)" paint-order="fill stroke markers" d=" M 380.99999999999994 150.99999999999997 C 380.99999999999994 153.76142374915395 378.7614237491539 155.99999999999997 375.99999999999994 155.99999999999997 C 373.238576250846 155.99999999999997 370.99999999999994 153.76142374915395 370.99999999999994 150.99999999999997 C 370.99999999999994 148.238576250846 373.238576250846 145.99999999999997 375.99999999999994 145.99999999999997 C 378.7614237491539 145.99999999999997 380.99999999999994 148.238576250846 380.99999999999994 150.99999999999997 Z" stroke-opacity="1" stroke-linecap="round" stroke-linejoin="round" stroke-miterlimit="10"/><path fill="rgb(97,97,97)" stroke="none" paint-order="stroke fill markers" d=" M 380 54 C 380 56.76142374915396 377.76142374915395 59 375 59 C 372.23857625084605 59 370 56.76142374915396 370 54 C 370 51.23857625084603 372.23857625084605 49 375 49 C 377.76142374915395 49 380 51.23857625084603 380 54 Z" fill-opacity="1"/><path fill="none" stroke="rgb(0,0,0)" paint-order="fill stroke markers" d=" M 380 54 C 380 56.76142374915396 377.76142374915395 59 375 59 C 372.23857625084605 59 370 56.76142374915396 370 54 C 370 51.23857625084603 372.23857625084605 49 375 49 C 377.76142374915395 49 380 51.23857625084603 380 54 Z" stroke-opacity="1" stroke-linecap="round" stroke-linejoin="round" stroke-miterlimit="10"/><path fill="rgb(97,97,97)" stroke="none" paint-order="stroke fill markers" d=" M 477.99999999999994 150 C 477.99999999999994 152.76142374915398 475.7614237491539 155 472.99999999999994 155 C 470.238576250846 155 467.99999999999994 152.76142374915398 467.99999999999994 150 C 467.99999999999994 147.23857625084602 470.238576250846 145 472.99999999999994 145 C 475.7614237491539 145 477.99999999999994 147.23857625084602 477.99999999999994 150 Z" fill-opacity="1"/><path fill="none" stroke="rgb(0,0,0)" paint-order="fill stroke markers" d=" M 477.99999999999994 150 C 477.99999999999994 152.76142374915398 475.7614237491539 155 472.99999999999994 155 C 470.238576250846 155 467.99999999999994 152.76142374915398 467.99999999999994 150 C 467.99999999999994 147.23857625084602 470.238576250846 145 472.99999999999994 145 C 475.7614237491539 145 477.99999999999994 147.23857625084602 477.99999999999994 150 Z" stroke-opacity="1" stroke-linecap="round" stroke-linejoin="round" stroke-miterlimit="10"/><path fill="rgb(97,97,97)" stroke="none" paint-order="stroke fill markers" d=" M 476.99999999999994 53.00000000000006 C 476.99999999999994 55.76142374915402 474.7614237491539 58.00000000000006 471.99999999999994 58.00000000000006 C 469.238576250846 58.00000000000006 466.99999999999994 55.76142374915402 466.99999999999994 53.00000000000006 C 466.99999999999994 50.23857625084609 469.238576250846 48.00000000000006 471.99999999999994 48.00000000000006 C 474.7614237491539 48.00000000000006 476.99999999999994 50.23857625084609 476.99999999999994 53.00000000000006 Z" fill-opacity="1"/><path fill="none" stroke="rgb(0,0,0)" paint-order="fill stroke markers" d=" M 476.99999999999994 53.00000000000006 C 476.99999999999994 55.76142374915402 474.7614237491539 58.00000000000006 471.99999999999994 58.00000000000006 C 469.238576250846 58.00000000000006 466.99999999999994 55.76142374915402 466.99999999999994 53.00000000000006 C 466.99999999999994 50.23857625084609 469.238576250846 48.00000000000006 471.99999999999994 48.00000000000006 C 474.7614237491539 48.00000000000006 476.99999999999994 50.23857625084609 476.99999999999994 53.00000000000006 Z" stroke-opacity="1" stroke-linecap="round" stroke-linejoin="round" stroke-miterlimit="10"/><path fill="rgb(97,97,97)" stroke="none" paint-order="stroke fill markers" d=" M 91 250.99999999999983 C 91 253.7614237491538 88.76142374915396 255.99999999999983 86 255.99999999999983 C 83.23857625084604 255.99999999999983 81 253.7614237491538 81 250.99999999999983 C 81 248.23857625084585 83.23857625084604 245.99999999999983 86 245.99999999999983 C 88.76142374915396 245.99999999999983 91 248.23857625084585 91 250.99999999999983 Z" fill-opacity="1"/><path fill="none" stroke="rgb(0,0,0)" paint-order="fill stroke markers" d=" M 91 250.99999999999983 C 91 253.7614237491538 88.76142374915396 255.99999999999983 86 255.99999999999983 C 83.23857625084604 255.99999999999983 81 253.7614237491538 81 250.99999999999983 C 81 248.23857625084585 83.23857625084604 245.99999999999983 86 245.99999999999983 C 88.76142374915396 245.99999999999983 91 248.23857625084585 91 250.99999999999983 Z" stroke-opacity="1" stroke-linecap="round" stroke-linejoin="round" stroke-miterlimit="10"/><path fill="rgb(97,97,97)" stroke="none" paint-order="stroke fill markers" d=" M 187.99999999999994 249.9999999999999 C 187.99999999999994 252.76142374915386 185.76142374915392 254.9999999999999 182.99999999999994 254.9999999999999 C 180.23857625084597 254.9999999999999 177.99999999999994 252.76142374915386 177.99999999999994 249.9999999999999 C 177.99999999999994 247.2385762508459 180.23857625084597 244.9999999999999 182.99999999999994 244.9999999999999 C 185.76142374915392 244.9999999999999 187.99999999999994 247.2385762508459 187.99999999999994 249.9999999999999 Z" fill-opacity="1"/><path fill="none" stroke="rgb(0,0,0)" paint-order="fill stroke markers" d=" M 187.99999999999994 249.9999999999999 C 187.99999999999994 252.76142374915386 185.76142374915392 254.9999999999999 182.99999999999994 254.9999999999999 C 180.23857625084597 254.9999999999999 177.99999999999994 252.76142374915386 177.99999999999994 249.9999999999999 C 177.99999999999994 247.2385762508459 180.23857625084597 244.9999999999999 182.99999999999994 244.9999999999999 C 185.76142374915392 244.9999999999999 187.99999999999994 247.2385762508459 187.99999999999994 249.9999999999999 Z" stroke-opacity="1" stroke-linecap="round" stroke-linejoin="round" stroke-miterlimit="10"/><path fill="rgb(97,97,97)" stroke="none" paint-order="stroke fill markers" d=" M 381.9999999999999 247.99999999999991 C 381.9999999999999 250.7614237491539 379.76142374915383 252.99999999999991 376.9999999999999 252.99999999999991 C 374.23857625084594 252.99999999999991 371.9999999999999 250.7614237491539 371.9999999999999 247.99999999999991 C 371.9999999999999 245.23857625084594 374.23857625084594 242.99999999999991 376.9999999999999 242.99999999999991 C 379.76142374915383 242.99999999999991 381.9999999999999 245.23857625084594 381.9999999999999 247.99999999999991 Z" fill-opacity="1"/><path fill="none" stroke="rgb(0,0,0)" paint-order="fill stroke markers" d=" M 381.9999999999999 247.99999999999991 C 381.9999999999999 250.7614237491539 379.76142374915383 252.99999999999991 376.9999999999999 252.99999999999991 C 374.23857625084594 252.99999999999991 371.9999999999999 250.7614237491539 371.9999999999999 247.99999999999991 C 371.9999999999999 245.23857625084594 374.23857625084594 242.99999999999991 376.9999999999999 242.99999999999991 C 379.76142374915383 242.99999999999991 381.9999999999999 245.23857625084594 381.9999999999999 247.99999999999991 Z" stroke-opacity="1" stroke-linecap="round" stroke-linejoin="round" stroke-miterlimit="10"/><path fill="rgb(97,97,97)" stroke="none" paint-order="stroke fill markers" d=" M 478.9999999999999 246.99999999999994 C 478.9999999999999 249.76142374915392 476.76142374915383 251.99999999999994 473.9999999999999 251.99999999999994 C 471.23857625084594 251.99999999999994 468.9999999999999 249.76142374915392 468.9999999999999 246.99999999999994 C 468.9999999999999 244.23857625084597 471.23857625084594 241.99999999999994 473.9999999999999 241.99999999999994 C 476.76142374915383 241.99999999999994 478.9999999999999 244.23857625084597 478.9999999999999 246.99999999999994 Z" fill-opacity="1"/><path fill="none" stroke="rgb(0,0,0)" paint-order="fill stroke markers" d=" M 478.9999999999999 246.99999999999994 C 478.9999999999999 249.76142374915392 476.76142374915383 251.99999999999994 473.9999999999999 251.99999999999994 C 471.23857625084594 251.99999999999994 468.9999999999999 249.76142374915392 468.9999999999999 246.99999999999994 C 468.9999999999999 244.23857625084597 471.23857625084594 241.99999999999994 473.9999999999999 241.99999999999994 C 476.76142374915383 241.99999999999994 478.9999999999999 244.23857625084597 478.9999999999999 246.99999999999994 Z" stroke-opacity="1" stroke-linecap="round" stroke-linejoin="round" stroke-miterlimit="10"/><path fill="rgb(21,101,192)" stroke="none" paint-order="stroke fill markers" d=" M 93 449.9999999999999 C 93 452.76142374915383 90.76142374915396 454.9999999999999 88 454.9999999999999 C 85.23857625084604 454.9999999999999 83 452.76142374915383 83 449.9999999999999 C 83 447.23857625084594 85.23857625084604 444.9999999999999 88 444.9999999999999 C 90.76142374915396 444.9999999999999 93 447.23857625084594 93 449.9999999999999 Z" fill-opacity="1"/><path fill="none" stroke="rgb(0,0,0)" paint-order="fill stroke markers" d=" M 93 449.9999999999999 C 93 452.76142374915383 90.76142374915396 454.9999999999999 88 454.9999999999999 C 85.23857625084604 454.9999999999999 83 452.76142374915383 83 449.9999999999999 C 83 447.23857625084594 85.23857625084604 444.9999999999999 88 444.9999999999999 C 90.76142374915396 444.9999999999999 93 447.23857625084594 93 449.9999999999999 Z" stroke-opacity="1" stroke-linecap="round" stroke-linejoin="round" stroke-miterlimit="10"/><path fill="rgb(21,101,192)" stroke="none" paint-order="stroke fill markers" d=" M 200 447.9999999999999 C 200 450.76142374915383 197.76142374915398 452.9999999999999 195 452.9999999999999 C 192.23857625084602 452.9999999999999 190 450.76142374915383 190 447.9999999999999 C 190 445.23857625084594 192.23857625084602 442.9999999999999 195 442.9999999999999 C 197.76142374915398 442.9999999999999 200 445.23857625084594 200 447.9999999999999 Z" fill-opacity="1"/><path fill="none" stroke="rgb(0,0,0)" paint-order="fill stroke markers" d=" M 200 447.9999999999999 C 200 450.76142374915383 197.76142374915398 452.9999999999999 195 452.9999999999999 C 192.23857625084602 452.9999999999999 190 450.76142374915383 190 447.9999999999999 C 190 445.23857625084594 192.23857625084602 442.9999999999999 195 442.9999999999999 C 197.76142374915398 442.9999999999999 200 445.23857625084594 200 447.9999999999999 Z" stroke-opacity="1" stroke-linecap="round" stroke-linejoin="round" stroke-miterlimit="10"/><path fill="rgb(97,97,97)" stroke="none" paint-order="stroke fill markers" d=" M 198 340.9999999999999 C 198 343.76142374915383 195.76142374915398 345.9999999999999 193 345.9999999999999 C 190.23857625084602 345.9999999999999 188 343.76142374915383 188 340.9999999999999 C 188 338.23857625084594 190.23857625084602 335.9999999999999 193 335.9999999999999 C 195.76142374915398 335.9999999999999 198 338.23857625084594 198 340.9999999999999 Z" fill-opacity="1"/><path fill="none" stroke="rgb(0,0,0)" paint-order="fill stroke markers" d=" M 198 340.9999999999999 C 198 343.76142374915383 195.76142374915398 345.9999999999999 193 345.9999999999999 C 190.23857625084602 345.9999999999999 188 343.76142374915383 188 340.9999999999999 C 188 338.23857625084594 190.23857625084602 335.9999999999999 193 335.9999999999999 C 195.76142374915398 335.9999999999999 198 338.23857625084594 198 340.9999999999999 Z" stroke-opacity="1" stroke-linecap="round" stroke-linejoin="round" stroke-miterlimit="10"/><path fill="rgb(97,97,97)" stroke="none" paint-order="stroke fill markers" d=" M 91.00000000000003 342.9999999999999 C 91.00000000000003 345.76142374915383 88.76142374915399 347.9999999999999 86.00000000000003 347.9999999999999 C 83.23857625084607 347.9999999999999 81.00000000000003 345.76142374915383 81.00000000000003 342.9999999999999 C 81.00000000000003 340.23857625084594 83.23857625084607 337.9999999999999 86.00000000000003 337.9999999999999 C 88.76142374915399 337.9999999999999 91.00000000000003 340.23857625084594 91.00000000000003 342.9999999999999 Z" fill-opacity="1"/><path fill="none" stroke="rgb(0,0,0)" paint-order="fill stroke markers" d=" M 91.00000000000003 342.9999999999999 C 91.00000000000003 345.76142374915383 88.76142374915399 347.9999999999999 86.00000000000003 347.9999999999999 C 83.23857625084607 347.9999999999999 81.00000000000003 345.76142374915383 81.00000000000003 342.9999999999999 C 81.00000000000003 340.23857625084594 83.23857625084607 337.9999999999999 86.00000000000003 337.9999999999999 C 88.76142374915399 337.9999999999999 91.00000000000003 340.23857625084594 91.00000000000003 342.9999999999999 Z" stroke-opacity="1" stroke-linecap="round" stroke-linejoin="round" stroke-miterlimit="10"/><path fill="rgb(97,97,97)" stroke="none" paint-order="stroke fill markers" d=" M 291.6647182049349 392.76794919243105 C 291.6647182049349 395.529372941585 289.42614195408885 397.76794919243105 286.6647182049349 397.76794919243105 C 283.90329445578095 397.76794919243105 281.6647182049349 395.529372941585 281.6647182049349 392.76794919243105 C 281.6647182049349 390.0065254432771 283.90329445578095 387.76794919243105 286.6647182049349 387.76794919243105 C 289.42614195408885 387.76794919243105 291.6647182049349 390.0065254432771 291.6647182049349 392.76794919243105 Z" fill-opacity="1"/><path fill="none" stroke="rgb(0,0,0)" paint-order="fill stroke markers" d=" M 291.6647182049349 392.76794919243105 C 291.6647182049349 395.529372941585 289.42614195408885 397.76794919243105 286.6647182049349 397.76794919243105 C 283.90329445578095 397.76794919243105 281.6647182049349 395.529372941585 281.6647182049349 392.76794919243105 C 281.6647182049349 390.0065254432771 283.90329445578095 387.76794919243105 286.6647182049349 387.76794919243105 C 289.42614195408885 387.76794919243105 291.6647182049349 390.0065254432771 291.6647182049349 392.76794919243105 Z" stroke-opacity="1" stroke-linecap="round" stroke-linejoin="round" stroke-miterlimit="10"/><path fill="rgb(97,97,97)" stroke="none" paint-order="stroke fill markers" d=" M 255.2320508075688 539.6647182049347 C 255.2320508075688 542.4261419540887 252.9934745567228 544.6647182049347 250.2320508075688 544.6647182049347 C 247.47062705841483 544.6647182049347 245.2320508075688 542.4261419540887 245.2320508075688 539.6647182049347 C 245.2320508075688 536.9032944557807 247.47062705841483 534.6647182049347 250.2320508075688 534.6647182049347 C 252.9934745567228 534.6647182049347 255.2320508075688 536.9032944557807 255.2320508075688 539.6647182049347 Z" fill-opacity="1"/><path fill="none" stroke="rgb(0,0,0)" paint-order="fill stroke markers" d=" M 255.2320508075688 539.6647182049347 C 255.2320508075688 542.4261419540887 252.9934745567228 544.6647182049347 250.2320508075688 544.6647182049347 C 247.47062705841483 544.6647182049347 245.2320508075688 542.4261419540887 245.2320508075688 539.6647182049347 C 245.2320508075688 536.9032944557807 247.47062705841483 534.6647182049347 250.2320508075688 534.6647182049347 C 252.9934745567228 534.6647182049347 255.2320508075688 536.9032944557807 255.2320508075688 539.6647182049347 Z" stroke-opacity="1" stroke-linecap="round" stroke-linejoin="round" stroke-miterlimit="10"/><path fill="rgb(97,97,97)" stroke="none" paint-order="stroke fill markers" d=" M 346.89676901250374 484.432667397366 C 346.89676901250374 487.19409114651995 344.6581927616577 489.432667397366 341.89676901250374 489.432667397366 C 339.1353452633498 489.432667397366 336.89676901250374 487.19409114651995 336.89676901250374 484.432667397366 C 336.89676901250374 481.67124364821206 339.1353452633498 479.432667397366 341.89676901250374 479.432667397366 C 344.6581927616577 479.432667397366 346.89676901250374 481.67124364821206 346.89676901250374 484.432667397366 Z" fill-opacity="1"/><path fill="none" stroke="rgb(0,0,0)" paint-order="fill stroke markers" d=" M 346.89676901250374 484.432667397366 C 346.89676901250374 487.19409114651995 344.6581927616577 489.432667397366 341.89676901250374 489.432667397366 C 339.1353452633498 489.432667397366 336.89676901250374 487.19409114651995 336.89676901250374 484.432667397366 C 336.89676901250374 481.67124364821206 339.1353452633498 479.432667397366 341.89676901250374 479.432667397366 C 344.6581927616577 479.432667397366 346.89676901250374 481.67124364821206 346.89676901250374 484.432667397366 Z" stroke-opacity="1" stroke-linecap="round" stroke-linejoin="round" stroke-miterlimit="10"/><path fill="rgb(97,97,97)" stroke="none" paint-order="stroke fill markers" d=" M 348.8967690125036 591.4326673973658 C 348.8967690125036 594.1940911465198 346.6581927616576 596.4326673973658 343.8967690125036 596.4326673973658 C 341.1353452633497 596.4326673973658 338.8967690125036 594.1940911465198 338.8967690125036 591.4326673973658 C 338.8967690125036 588.6712436482118 341.1353452633497 586.4326673973658 343.8967690125036 586.4326673973658 C 346.6581927616576 586.4326673973658 348.8967690125036 588.6712436482118 348.8967690125036 591.4326673973658 Z" fill-opacity="1"/><path fill="none" stroke="rgb(0,0,0)" paint-order="fill stroke markers" d=" M 348.8967690125036 591.4326673973658 C 348.8967690125036 594.1940911465198 346.6581927616576 596.4326673973658 343.8967690125036 596.4326673973658 C 341.1353452633497 596.4326673973658 338.8967690125036 594.1940911465198 338.8967690125036 591.4326673973658 C 338.8967690125036 588.6712436482118 341.1353452633497 586.4326673973658 343.8967690125036 586.4326673973658 C 346.6581927616576 586.4326673973658 348.8967690125036 588.6712436482118 348.8967690125036 591.4326673973658 Z" stroke-opacity="1" stroke-linecap="round" stroke-linejoin="round" stroke-miterlimit="10"/><path fill="rgb(97,97,97)" stroke="none" paint-order="stroke fill markers" d=" M 438.5614872174387 429.20061658979716 C 438.5614872174387 431.9620403389511 436.32291096659264 434.20061658979716 433.5614872174387 434.20061658979716 C 430.80006346828475 434.20061658979716 428.5614872174387 431.9620403389511 428.5614872174387 429.20061658979716 C 428.5614872174387 426.4391928406432 430.80006346828475 424.20061658979716 433.5614872174387 424.20061658979716 C 436.32291096659264 424.20061658979716 438.5614872174387 426.4391928406432 438.5614872174387 429.20061658979716 Z" fill-opacity="1"/><path fill="none" stroke="rgb(0,0,0)" paint-order="fill stroke markers" d=" M 438.5614872174387 429.20061658979716 C 438.5614872174387 431.9620403389511 436.32291096659264 434.20061658979716 433.5614872174387 434.20061658979716 C 430.80006346828475 434.20061658979716 428.5614872174387 431.9620403389511 428.5614872174387 429.20061658979716 C 428.5614872174387 426.4391928406432 430.80006346828475 424.20061658979716 433.5614872174387 424.20061658979716 C 436.32291096659264 424.20061658979716 438.5614872174387 426.4391928406432 438.5614872174387 429.20061658979716 Z" stroke-opacity="1" stroke-linecap="round" stroke-linejoin="round" stroke-miterlimit="10"/><path fill="rgb(97,97,97)" stroke="none" paint-order="stroke fill markers" d=" M 383.3294364098699 337.53589838486226 C 383.3294364098699 340.2973221340162 381.09086015902386 342.53589838486226 378.3294364098699 342.53589838486226 C 375.56801266071597 342.53589838486226 373.3294364098699 340.2973221340162 373.3294364098699 337.53589838486226 C 373.3294364098699 334.7744746357083 375.56801266071597 332.53589838486226 378.3294364098699 332.53589838486226 C 381.09086015902386 332.53589838486226 383.3294364098699 334.7744746357083 383.3294364098699 337.53589838486226 Z" fill-opacity="1"/><path fill="none" stroke="rgb(0,0,0)" paint-order="fill stroke markers" d=" M 383.3294364098699 337.53589838486226 C 383.3294364098699 340.2973221340162 381.09086015902386 342.53589838486226 378.3294364098699 342.53589838486226 C 375.56801266071597 342.53589838486226 373.3294364098699 340.2973221340162 373.3294364098699 337.53589838486226 C 373.3294364098699 334.7744746357083 375.56801266071597 332.53589838486226 378.3294364098699 332.53589838486226 C 381.09086015902386 332.53589838486226 383.3294364098699 334.7744746357083 383.3294364098699 337.53589838486226 Z" stroke-opacity="1" stroke-linecap="round" stroke-linejoin="round" stroke-miterlimit="10"/><path fill="rgb(21,101,192)" stroke="none" paint-order="stroke fill markers" d=" M 617 176.99999999999994 C 617 179.76142374915392 614.761423749154 181.99999999999994 612 181.99999999999994 C 609.238576250846 181.99999999999994 607 179.76142374915392 607 176.99999999999994 C 607 174.23857625084597 609.238576250846 171.99999999999994 612 171.99999999999994 C 614.761423749154 171.99999999999994 617 174.23857625084597 617 176.99999999999994 Z" fill-opacity="1"/><path fill="none" stroke="rgb(0,0,0)" paint-order="fill stroke markers" d=" M 617 176.99999999999994 C 617 179.76142374915392 614.761423749154 181.99999999999994 612 181.99999999999994 C 609.238576250846 181.99999999999994 607 179.76142374915392 607 176.99999999999994 C 607 174.23857625084597 609.238576250846 171.99999999999994 612 171.99999999999994 C 614.761423749154 171.99999999999994 617 174.23857625084597 617 176.99999999999994 Z" stroke-opacity="1" stroke-linecap="round" stroke-linejoin="round" stroke-miterlimit="10"/><path fill="rgb(21,101,192)" stroke="none" paint-order="stroke fill markers" d=" M 735 175.99999999999994 C 735 178.76142374915392 732.761423749154 180.99999999999994 730 180.99999999999994 C 727.238576250846 180.99999999999994 725 178.76142374915392 725 175.99999999999994 C 725 173.23857625084597 727.238576250846 170.99999999999994 730 170.99999999999994 C 732.761423749154 170.99999999999994 735 173.23857625084597 735 175.99999999999994 Z" fill-opacity="1"/><path fill="none" stroke="rgb(0,0,0)" paint-order="fill stroke markers" d=" M 735 175.99999999999994 C 735 178.76142374915392 732.761423749154 180.99999999999994 730 180.99999999999994 C 727.238576250846 180.99999999999994 725 178.76142374915392 725 175.99999999999994 C 725 173.23857625084597 727.238576250846 170.99999999999994 730 170.99999999999994 C 732.761423749154 170.99999999999994 735 173.23857625084597 735 175.99999999999994 Z" stroke-opacity="1" stroke-linecap="round" stroke-linejoin="round" stroke-miterlimit="10"/><path fill="rgb(97,97,97)" stroke="none" paint-order="stroke fill markers" d=" M 675.1339745962157 74.3090023534362 C 675.1339745962157 77.07042610259016 672.8953983453697 79.3090023534362 670.1339745962157 79.3090023534362 C 667.3725508470617 79.3090023534362 665.1339745962157 77.07042610259016 665.1339745962157 74.3090023534362 C 665.1339745962157 71.54757860428224 667.3725508470617 69.3090023534362 670.1339745962157 69.3090023534362 C 672.8953983453697 69.3090023534362 675.1339745962157 71.54757860428224 675.1339745962157 74.3090023534362 Z" fill-opacity="1"/><path fill="none" stroke="rgb(0,0,0)" paint-order="fill stroke markers" d=" M 675.1339745962157 74.3090023534362 C 675.1339745962157 77.07042610259016 672.8953983453697 79.3090023534362 670.1339745962157 79.3090023534362 C 667.3725508470617 79.3090023534362 665.1339745962157 77.07042610259016 665.1339745962157 74.3090023534362 C 665.1339745962157 71.54757860428224 667.3725508470617 69.3090023534362 670.1339745962157 69.3090023534362 C 672.8953983453697 69.3090023534362 675.1339745962157 71.54757860428224 675.1339745962157 74.3090023534362 Z" stroke-opacity="1" stroke-linecap="round" stroke-linejoin="round" stroke-miterlimit="10"/><path fill="rgb(97,97,97)" stroke="none" paint-order="stroke fill markers" d=" M 676.8660254037844 278.6909976465637 C 676.8660254037844 281.45242139571764 674.6274491529384 283.6909976465637 671.8660254037844 283.6909976465637 C 669.1046016546304 283.6909976465637 666.8660254037844 281.45242139571764 666.8660254037844 278.6909976465637 C 666.8660254037844 275.92957389740974 669.1046016546304 273.6909976465637 671.8660254037844 273.6909976465637 C 674.6274491529384 273.6909976465637 676.8660254037844 275.92957389740974 676.8660254037844 278.6909976465637 Z" fill-opacity="1"/><path fill="none" stroke="rgb(0,0,0)" paint-order="fill stroke markers" d=" M 676.8660254037844 278.6909976465637 C 676.8660254037844 281.45242139571764 674.6274491529384 283.6909976465637 671.8660254037844 283.6909976465637 C 669.1046016546304 283.6909976465637 666.8660254037844 281.45242139571764 666.8660254037844 278.6909976465637 C 666.8660254037844 275.92957389740974 669.1046016546304 273.6909976465637 671.8660254037844 273.6909976465637 C 674.6274491529384 273.6909976465637 676.8660254037844 275.92957389740974 676.8660254037844 278.6909976465637 Z" stroke-opacity="1" stroke-linecap="round" stroke-linejoin="round" stroke-miterlimit="10"/><path fill="rgb(97,97,97)" stroke="none" paint-order="stroke fill markers" d=" M 794.8660254037845 277.6909976465637 C 794.8660254037845 280.45242139571764 792.6274491529385 282.6909976465637 789.8660254037845 282.6909976465637 C 787.1046016546305 282.6909976465637 784.8660254037845 280.45242139571764 784.8660254037845 277.6909976465637 C 784.8660254037845 274.92957389740974 787.1046016546305 272.6909976465637 789.8660254037845 272.6909976465637 C 792.6274491529385 272.6909976465637 794.8660254037845 274.92957389740974 794.8660254037845 277.6909976465637 Z" fill-opacity="1"/><path fill="none" stroke="rgb(0,0,0)" paint-order="fill stroke markers" d=" M 794.8660254037845 277.6909976465637 C 794.8660254037845 280.45242139571764 792.6274491529385 282.6909976465637 789.8660254037845 282.6909976465637 C 787.1046016546305 282.6909976465637 784.8660254037845 280.45242139571764 784.8660254037845 277.6909976465637 C 784.8660254037845 274.92957389740974 787.1046016546305 272.6909976465637 789.8660254037845 272.6909976465637 C 792.6274491529385 272.6909976465637 794.8660254037845 274.92957389740974 794.8660254037845 277.6909976465637 Z" stroke-opacity="1" stroke-linecap="round" stroke-linejoin="round" stroke-miterlimit="10"/><path fill="rgb(97,97,97)" stroke="none" paint-order="stroke fill markers" d=" M 736.7320508075688 380.3819952931275 C 736.7320508075688 383.14341904228144 734.4934745567228 385.3819952931275 731.7320508075688 385.3819952931275 C 728.9706270584148 385.3819952931275 726.7320508075688 383.14341904228144 726.7320508075688 380.3819952931275 C 726.7320508075688 377.62057154397354 728.9706270584148 375.3819952931275 731.7320508075688 375.3819952931275 C 734.4934745567228 375.3819952931275 736.7320508075688 377.62057154397354 736.7320508075688 380.3819952931275 Z" fill-opacity="1"/><path fill="none" stroke="rgb(0,0,0)" paint-order="fill stroke markers" d=" M 736.7320508075688 380.3819952931275 C 736.7320508075688 383.14341904228144 734.4934745567228 385.3819952931275 731.7320508075688 385.3819952931275 C 728.9706270584148 385.3819952931275 726.7320508075688 383.14341904228144 726.7320508075688 380.3819952931275 C 726.7320508075688 377.62057154397354 728.9706270584148 375.3819952931275 731.7320508075688 375.3819952931275 C 734.4934745567228 375.3819952931275 736.7320508075688 377.62057154397354 736.7320508075688 380.3819952931275 Z" stroke-opacity="1" stroke-linecap="round" stroke-linejoin="round" stroke-miterlimit="10"/><path fill="rgb(97,97,97)" stroke="none" paint-order="stroke fill markers" d=" M 854.7320508075691 379.3819952931275 C 854.7320508075691 382.14341904228144 852.4934745567231 384.3819952931275 849.7320508075691 384.3819952931275 C 846.9706270584151 384.3819952931275 844.7320508075691 382.14341904228144 844.7320508075691 379.3819952931275 C 844.7320508075691 376.62057154397354 846.9706270584151 374.3819952931275 849.7320508075691 374.3819952931275 C 852.4934745567231 374.3819952931275 854.7320508075691 376.62057154397354 854.7320508075691 379.3819952931275 Z" fill-opacity="1"/><path fill="none" stroke="rgb(0,0,0)" paint-order="fill stroke markers" d=" M 854.7320508075691 379.3819952931275 C 854.7320508075691 382.14341904228144 852.4934745567231 384.3819952931275 849.7320508075691 384.3819952931275 C 846.9706270584151 384.3819952931275 844.7320508075691 382.14341904228144 844.7320508075691 379.3819952931275 C 844.7320508075691 376.62057154397354 846.9706270584151 374.3819952931275 849.7320508075691 374.3819952931275 C 852.4934745567231 374.3819952931275 854.7320508075691 376.62057154397354 854.7320508075691 379.3819952931275 Z" stroke-opacity="1" stroke-linecap="round" stroke-linejoin="round" stroke-miterlimit="10"/><path fill="rgb(97,97,97)" stroke="none" paint-order="stroke fill markers" d=" M 796.5980762113534 482.07299293969135 C 796.5980762113534 484.8344166888453 794.3594999605074 487.07299293969135 791.5980762113534 487.07299293969135 C 788.8366524621994 487.07299293969135 786.5980762113534 484.8344166888453 786.5980762113534 482.07299293969135 C 786.5980762113534 479.3115691905374 788.8366524621994 477.07299293969135 791.5980762113534 477.07299293969135 C 794.3594999605074 477.07299293969135 796.5980762113534 479.3115691905374 796.5980762113534 482.07299293969135 Z" fill-opacity="1"/><path fill="none" stroke="rgb(0,0,0)" paint-order="fill stroke markers" d=" M 796.5980762113534 482.07299293969135 C 796.5980762113534 484.8344166888453 794.3594999605074 487.07299293969135 791.5980762113534 487.07299293969135 C 788.8366524621994 487.07299293969135 786.5980762113534 484.8344166888453 786.5980762113534 482.07299293969135 C 786.5980762113534 479.3115691905374 788.8366524621994 477.07299293969135 791.5980762113534 477.07299293969135 C 794.3594999605074 477.07299293969135 796.5980762113534 479.3115691905374 796.5980762113534 482.07299293969135 Z" stroke-opacity="1" stroke-linecap="round" stroke-linejoin="round" stroke-miterlimit="10"/><text fill="rgb(0,0,0)" stroke="none" font-family="geogebra-sans-serif, sans-serif" font-size="28px" font-style="normal" font-weight="normal" text-decoration="normal" x="24" y="71" text-anchor="start" dominant-baseline="alphabetic" fill-opacity="1">a.</text><text fill="rgb(0,0,0)" stroke="none" font-family="geogebra-sans-serif, sans-serif" font-size="28px" font-style="normal" font-weight="normal" text-decoration="normal" x="29" y="361" text-anchor="start" dominant-baseline="alphabetic" fill-opacity="1">b.</text><text fill="rgb(0,0,0)" stroke="none" font-family="geogebra-sans-serif, sans-serif" font-size="28px" font-style="normal" font-weight="normal" text-decoration="normal" x="599" y="88" text-anchor="start" dominant-baseline="alphabetic" fill-opacity="1">c.</text></g></g></svg>