<svg version="1.1" xmlns="http://www.w3.org/2000/svg" xmlns:xlink="http://www.w3.org/1999/xlink" width="1848" height="881"><defs><clipPath id="TrIQumBwZTFy"><path fill="none" stroke="none" d=" M 0 0 L 1848 0 L 1848 881 L 0 881 L 0 0 Z"/></clipPath></defs><g transform="scale(1,1)" clip-path="url(#TrIQumBwZTFy)"><g><rect fill="rgb(255,255,255)" stroke="none" x="0" y="0" width="1848" height="881" fill-opacity="1"/><path fill="none" stroke="rgb(97,97,97)" paint-order="fill stroke markers" d=" M -5 473.33874709976794 L 1835.7500000000002 -5" stroke-opacity="0.8" stroke-linecap="round" stroke-linejoin="round" stroke-miterlimit="10" stroke-width="4"/><text fill="rgb(97,97,97)" stroke="none" font-family="geogebra-sans-serif, sans-serif" font-size="28px" font-style="normal" font-weight="normal" text-decoration="normal" x="71" y="416" text-anchor="start" dominant-baseline="alphabetic" fill-opacity="1">m</text><text fill="none" stroke="rgb(255,255,255)" font-family="geogebra-sans-serif, sans-serif" font-size="28px" font-style="normal" font-weight="normal" text-decoration="normal" x="71" y="416" text-anchor="start" dominant-baseline="alphabetic" stroke-opacity="1" stroke-linejoin="bevel" stroke-miterlimit="10" stroke-width="3">m</text><text fill="rgb(97,97,97)" stroke="none" font-family="geogebra-sans-serif, sans-serif" font-size="28px" font-style="normal" font-weight="normal" text-decoration="normal" x="71" y="416" text-anchor="start" dominant-baseline="alphabetic" fill-opacity="1">m</text><path fill="none" stroke="rgb(0,0,255)" paint-order="fill stroke markers" d=" M -5 317.85382830626446 L 1237.4107142857144 -5" stroke-opacity="0.8" stroke-linecap="round" stroke-linejoin="round" stroke-miterlimit="10" stroke-width="2.5"/><path fill="rgb(21,101,192)" stroke="none" paint-order="stroke fill markers" d=" M 620.9999999999999 157 C 620.9999999999999 160.86599324881556 617.8659932488155 164 613.9999999999999 164 C 610.1340067511843 164 606.9999999999999 160.86599324881556 606.9999999999999 157 C 606.9999999999999 153.13400675118444 610.1340067511843 150 613.9999999999999 150 C 617.8659932488155 150 620.9999999999999 153.13400675118444 620.9999999999999 157 Z" fill-opacity="1"/><path fill="none" stroke="rgb(0,0,0)" paint-order="fill stroke markers" d=" M 620.9999999999999 157 C 620.9999999999999 160.86599324881556 617.8659932488155 164 613.9999999999999 164 C 610.1340067511843 164 606.9999999999999 160.86599324881556 606.9999999999999 157 C 606.9999999999999 153.13400675118444 610.1340067511843 150 613.9999999999999 150 C 617.8659932488155 150 620.9999999999999 153.13400675118444 620.9999999999999 157 Z" stroke-opacity="1" stroke-linecap="round" stroke-linejoin="round" stroke-miterlimit="10"/><text fill="rgb(21,101,192)" stroke="none" font-family="geogebra-sans-serif, sans-serif" font-size="28px" font-style="normal" font-weight="normal" text-decoration="normal" x="618" y="143" text-anchor="start" dominant-baseline="alphabetic" fill-opacity="1">P</text><text fill="none" stroke="rgb(255,255,255)" font-family="geogebra-sans-serif, sans-serif" font-size="28px" font-style="normal" font-weight="normal" text-decoration="normal" x="618" y="143" text-anchor="start" dominant-baseline="alphabetic" stroke-opacity="1" stroke-linejoin="bevel" stroke-miterlimit="10" stroke-width="3">P</text><text fill="rgb(21,101,192)" stroke="none" font-family="geogebra-sans-serif, sans-serif" font-size="28px" font-style="normal" font-weight="normal" text-decoration="normal" x="618" y="143" text-anchor="start" dominant-baseline="alphabetic" fill-opacity="1">P</text></g></g></svg>