<svg version="1.1" xmlns="http://www.w3.org/2000/svg" xmlns:xlink="http://www.w3.org/1999/xlink" width="1208" height="566"><defs><clipPath id="TOhwuJcXXmME"><path fill="none" stroke="none" d=" M 0 0 L 1208 0 L 1208 566 L 0 566 L 0 0 Z"/></clipPath></defs><g transform="scale(1,1)" clip-path="url(#TOhwuJcXXmME)"><g><rect fill="rgb(255,255,255)" stroke="none" x="0" y="0" width="1208" height="566" fill-opacity="1"/><path fill="rgb(0,102,153)" stroke="none" paint-order="stroke fill markers" fill-rule="evenodd" d=" M 341.74384885468726 158.8903573664066 L 204.46224875429675 380.9136859238284 L 638.3398984542966 413.1155427375002 L 775.6214985546869 191.09221418007849 Z" fill-opacity="0.28627450980392155"/><path fill="none" stroke="rgb(97,97,97)" paint-order="fill stroke markers" d=" M 86.92796295147303 571 L 443.0806347071981 -5" stroke-opacity="0.8" stroke-linecap="round" stroke-linejoin="round" stroke-miterlimit="10" stroke-width="2.5"/><path fill="none" stroke="rgb(97,97,97)" paint-order="fill stroke markers" d=" M -5 365.36765964909546 L 1213 455.76609714909546" stroke-opacity="0.8" stroke-linecap="round" stroke-linejoin="round" stroke-miterlimit="10" stroke-width="2.5"/><path fill="none" stroke="rgb(97,97,97)" paint-order="fill stroke markers" d=" M 540.7166844217584 571 L 896.8693561774835 -5" stroke-opacity="0.8" stroke-linecap="round" stroke-linejoin="round" stroke-miterlimit="10" stroke-width="2.5"/><path fill="none" stroke="rgb(97,97,97)" paint-order="fill stroke markers" d=" M -5 133.15546233422273 L 1213 223.5538998342227" stroke-opacity="0.8" stroke-linecap="round" stroke-linejoin="round" stroke-miterlimit="10" stroke-width="2.5"/><path fill="none" stroke="rgb(0,102,153)" paint-order="fill stroke markers" d=" M 341.74384885468726 158.8903573664066 L 204.46224875429675 380.9136859238284" stroke-opacity="0.8" stroke-linecap="round" stroke-linejoin="round" stroke-miterlimit="10" stroke-width="4"/><path fill="none" stroke="rgb(0,102,153)" paint-order="fill stroke markers" d=" M 204.46224875429675 380.9136859238284 L 638.3398984542966 413.1155427375002" stroke-opacity="0.8" stroke-linecap="round" stroke-linejoin="round" stroke-miterlimit="10" stroke-width="4"/><path fill="none" stroke="rgb(0,102,153)" paint-order="fill stroke markers" d=" M 638.3398984542966 413.1155427375002 L 775.6214985546869 191.09221418007849" stroke-opacity="0.8" stroke-linecap="round" stroke-linejoin="round" stroke-miterlimit="10" stroke-width="4"/><path fill="none" stroke="rgb(0,102,153)" paint-order="fill stroke markers" d=" M 775.6214985546869 191.09221418007849 L 341.74384885468726 158.8903573664066" stroke-opacity="0.8" stroke-linecap="round" stroke-linejoin="round" stroke-miterlimit="10" stroke-width="4"/><path fill="rgb(21,101,192)" stroke="none" paint-order="stroke fill markers" d=" M 346.74384885468726 158.8903573664066 C 346.74384885468726 161.65178111556057 344.5052726038412 163.8903573664066 341.74384885468726 163.8903573664066 C 338.9824251055333 163.8903573664066 336.74384885468726 161.65178111556057 336.74384885468726 158.8903573664066 C 336.74384885468726 156.1289336172526 338.9824251055333 153.8903573664066 341.74384885468726 153.8903573664066 C 344.5052726038412 153.8903573664066 346.74384885468726 156.1289336172526 346.74384885468726 158.8903573664066 Z" fill-opacity="1"/><path fill="none" stroke="rgb(0,0,0)" paint-order="fill stroke markers" d=" M 346.74384885468726 158.8903573664066 C 346.74384885468726 161.65178111556057 344.5052726038412 163.8903573664066 341.74384885468726 163.8903573664066 C 338.9824251055333 163.8903573664066 336.74384885468726 161.65178111556057 336.74384885468726 158.8903573664066 C 336.74384885468726 156.1289336172526 338.9824251055333 153.8903573664066 341.74384885468726 153.8903573664066 C 344.5052726038412 153.8903573664066 346.74384885468726 156.1289336172526 346.74384885468726 158.8903573664066 Z" stroke-opacity="1" stroke-linecap="round" stroke-linejoin="round" stroke-miterlimit="10"/><text fill="rgb(21,101,192)" stroke="none" font-family="geogebra-sans-serif, sans-serif" font-size="32px" font-style="normal" font-weight="normal" text-decoration="normal" x="325" y="137" text-anchor="start" dominant-baseline="alphabetic" fill-opacity="1">A</text><text fill="none" stroke="rgb(255,255,255)" font-family="geogebra-sans-serif, sans-serif" font-size="32px" font-style="normal" font-weight="normal" text-decoration="normal" x="325" y="137" text-anchor="start" dominant-baseline="alphabetic" stroke-opacity="1" stroke-linejoin="bevel" stroke-miterlimit="10" stroke-width="3">A</text><text fill="rgb(21,101,192)" stroke="none" font-family="geogebra-sans-serif, sans-serif" font-size="32px" font-style="normal" font-weight="normal" text-decoration="normal" x="325" y="137" text-anchor="start" dominant-baseline="alphabetic" fill-opacity="1">A</text><path fill="rgb(21,101,192)" stroke="none" paint-order="stroke fill markers" d=" M 209.46224875429675 380.9136859238284 C 209.46224875429675 383.67510967298233 207.22367250345073 385.9136859238284 204.46224875429675 385.9136859238284 C 201.70082500514278 385.9136859238284 199.46224875429675 383.67510967298233 199.46224875429675 380.9136859238284 C 199.46224875429675 378.15226217467443 201.70082500514278 375.9136859238284 204.46224875429675 375.9136859238284 C 207.22367250345073 375.9136859238284 209.46224875429675 378.15226217467443 209.46224875429675 380.9136859238284 Z" fill-opacity="1"/><path fill="none" stroke="rgb(0,0,0)" paint-order="fill stroke markers" d=" M 209.46224875429675 380.9136859238284 C 209.46224875429675 383.67510967298233 207.22367250345073 385.9136859238284 204.46224875429675 385.9136859238284 C 201.70082500514278 385.9136859238284 199.46224875429675 383.67510967298233 199.46224875429675 380.9136859238284 C 199.46224875429675 378.15226217467443 201.70082500514278 375.9136859238284 204.46224875429675 375.9136859238284 C 207.22367250345073 375.9136859238284 209.46224875429675 378.15226217467443 209.46224875429675 380.9136859238284 Z" stroke-opacity="1" stroke-linecap="round" stroke-linejoin="round" stroke-miterlimit="10"/><text fill="rgb(21,101,192)" stroke="none" font-family="geogebra-sans-serif, sans-serif" font-size="32px" font-style="normal" font-weight="normal" text-decoration="normal" x="181" y="367" text-anchor="start" dominant-baseline="alphabetic" fill-opacity="1">B</text><text fill="none" stroke="rgb(255,255,255)" font-family="geogebra-sans-serif, sans-serif" font-size="32px" font-style="normal" font-weight="normal" text-decoration="normal" x="181" y="367" text-anchor="start" dominant-baseline="alphabetic" stroke-opacity="1" stroke-linejoin="bevel" stroke-miterlimit="10" stroke-width="3">B</text><text fill="rgb(21,101,192)" stroke="none" font-family="geogebra-sans-serif, sans-serif" font-size="32px" font-style="normal" font-weight="normal" text-decoration="normal" x="181" y="367" text-anchor="start" dominant-baseline="alphabetic" fill-opacity="1">B</text><path fill="rgb(21,101,192)" stroke="none" paint-order="stroke fill markers" d=" M 643.3398984542966 413.1155427375002 C 643.3398984542966 415.87696648665417 641.1013222034506 418.1155427375002 638.3398984542966 418.1155427375002 C 635.5784747051426 418.1155427375002 633.3398984542966 415.87696648665417 633.3398984542966 413.1155427375002 C 633.3398984542966 410.3541189883463 635.5784747051426 408.1155427375002 638.3398984542966 408.1155427375002 C 641.1013222034506 408.1155427375002 643.3398984542966 410.3541189883463 643.3398984542966 413.1155427375002 Z" fill-opacity="1"/><path fill="none" stroke="rgb(0,0,0)" paint-order="fill stroke markers" d=" M 643.3398984542966 413.1155427375002 C 643.3398984542966 415.87696648665417 641.1013222034506 418.1155427375002 638.3398984542966 418.1155427375002 C 635.5784747051426 418.1155427375002 633.3398984542966 415.87696648665417 633.3398984542966 413.1155427375002 C 633.3398984542966 410.3541189883463 635.5784747051426 408.1155427375002 638.3398984542966 408.1155427375002 C 641.1013222034506 408.1155427375002 643.3398984542966 410.3541189883463 643.3398984542966 413.1155427375002 Z" stroke-opacity="1" stroke-linecap="round" stroke-linejoin="round" stroke-miterlimit="10"/><text fill="rgb(21,101,192)" stroke="none" font-family="geogebra-sans-serif, sans-serif" font-size="32px" font-style="normal" font-weight="normal" text-decoration="normal" x="637" y="442" text-anchor="start" dominant-baseline="alphabetic" fill-opacity="1">C</text><text fill="none" stroke="rgb(255,255,255)" font-family="geogebra-sans-serif, sans-serif" font-size="32px" font-style="normal" font-weight="normal" text-decoration="normal" x="637" y="442" text-anchor="start" dominant-baseline="alphabetic" stroke-opacity="1" stroke-linejoin="bevel" stroke-miterlimit="10" stroke-width="3">C</text><text fill="rgb(21,101,192)" stroke="none" font-family="geogebra-sans-serif, sans-serif" font-size="32px" font-style="normal" font-weight="normal" text-decoration="normal" x="637" y="442" text-anchor="start" dominant-baseline="alphabetic" fill-opacity="1">C</text><path fill="rgb(0,102,153)" stroke="none" paint-order="stroke fill markers" d=" M 779.6214985546869 191.09221418007849 C 779.6214985546869 193.30135317940164 777.8306375540101 195.09221418007849 775.6214985546869 195.09221418007849 C 773.4123595553638 195.09221418007849 771.6214985546869 193.30135317940164 771.6214985546869 191.09221418007849 C 771.6214985546869 188.8830751807553 773.4123595553638 187.09221418007849 775.6214985546869 187.09221418007849 C 777.8306375540101 187.09221418007849 779.6214985546869 188.8830751807553 779.6214985546869 191.09221418007849 Z" fill-opacity="1"/><path fill="none" stroke="rgb(0,0,0)" paint-order="fill stroke markers" d=" M 779.6214985546869 191.09221418007849 C 779.6214985546869 193.30135317940164 777.8306375540101 195.09221418007849 775.6214985546869 195.09221418007849 C 773.4123595553638 195.09221418007849 771.6214985546869 193.30135317940164 771.6214985546869 191.09221418007849 C 771.6214985546869 188.8830751807553 773.4123595553638 187.09221418007849 775.6214985546869 187.09221418007849 C 777.8306375540101 187.09221418007849 779.6214985546869 188.8830751807553 779.6214985546869 191.09221418007849 Z" stroke-opacity="1" stroke-linecap="round" stroke-linejoin="round" stroke-miterlimit="10"/><text fill="rgb(0,102,153)" stroke="none" font-family="geogebra-sans-serif, sans-serif" font-size="32px" font-style="normal" font-weight="normal" text-decoration="normal" x="759" y="177" text-anchor="start" dominant-baseline="alphabetic" fill-opacity="1">D</text><text fill="none" stroke="rgb(255,255,255)" font-family="geogebra-sans-serif, sans-serif" font-size="32px" font-style="normal" font-weight="normal" text-decoration="normal" x="759" y="177" text-anchor="start" dominant-baseline="alphabetic" stroke-opacity="1" stroke-linejoin="bevel" stroke-miterlimit="10" stroke-width="3">D</text><text fill="rgb(0,102,153)" stroke="none" font-family="geogebra-sans-serif, sans-serif" font-size="32px" font-style="normal" font-weight="normal" text-decoration="normal" x="759" y="177" text-anchor="start" dominant-baseline="alphabetic" fill-opacity="1">D</text></g></g></svg>