<svg version="1.1" xmlns="http://www.w3.org/2000/svg" xmlns:xlink="http://www.w3.org/1999/xlink" width="1848" height="881"><defs><clipPath id="TGapCmLNNfZV"><path fill="none" stroke="none" d=" M 0 0 L 1848 0 L 1848 881 L 0 881 L 0 0 Z"/></clipPath></defs><g transform="scale(1,1)" clip-path="url(#TGapCmLNNfZV)"><g><rect fill="rgb(255,255,255)" stroke="none" x="0" y="0" width="1848" height="881" fill-opacity="1"/><path fill="rgb(21,101,192)" stroke="none" paint-order="stroke fill markers" fill-rule="evenodd" d=" M 614.9999999999993 829 L 1064.999999999999 829 L 1289.999999999999 439.2885682970027 L 1064.999999999999 49.57713659400525 L 614.9999999999993 49.5771365940052 L 389.9999999999993 439.28856829700237 Z" fill-opacity="0.09803921568627451"/><path fill="none" stroke="rgb(21,101,192)" paint-order="fill stroke markers" d=" M 614.9999999999993 829 L 1064.999999999999 829 L 1289.999999999999 439.2885682970027 L 1064.999999999999 49.57713659400525 L 614.9999999999993 49.5771365940052 L 389.9999999999993 439.28856829700237 Z" stroke-opacity="0.8" stroke-linecap="round" stroke-linejoin="round" stroke-miterlimit="10" stroke-width="4"/><path fill="rgb(0,0,0)" stroke="none" paint-order="stroke fill markers" fill-rule="evenodd" d=" M 1064.9999999999989 439.28856829700266 L 1086.2132034355939 439.28856829700266 L 1086.2132034355952 418.07536486140623 L 1064.9999999999989 418.07536486140765 L 1064.9999999999989 439.28856829700266" fill-opacity="0.09803921568627451"/><path fill="none" stroke="rgb(0,0,0)" paint-order="fill stroke markers" d=" M 1064.9999999999989 439.28856829700266 L 1086.2132034355939 439.28856829700266 L 1086.2132034355952 418.07536486140623 L 1064.9999999999989 418.07536486140765 L 1064.9999999999989 439.28856829700266" stroke-opacity="0.6" stroke-linecap="round" stroke-linejoin="round" stroke-miterlimit="10" stroke-width="2"/><text fill="rgb(0,0,0)" stroke="none" font-family="geogebra-sans-serif, sans-serif" font-size="28px" font-style="normal" font-weight="normal" text-decoration="normal" x="1086" y="418" text-anchor="start" dominant-baseline="alphabetic" fill-opacity="1">90°</text><text fill="none" stroke="rgb(255,255,255)" font-family="geogebra-sans-serif, sans-serif" font-size="28px" font-style="normal" font-weight="normal" text-decoration="normal" x="1086" y="418" text-anchor="start" dominant-baseline="alphabetic" stroke-opacity="1" stroke-linejoin="bevel" stroke-miterlimit="10" stroke-width="3">90°</text><text fill="rgb(0,0,0)" stroke="none" font-family="geogebra-sans-serif, sans-serif" font-size="28px" font-style="normal" font-weight="normal" text-decoration="normal" x="1086" y="418" text-anchor="start" dominant-baseline="alphabetic" fill-opacity="1">90°</text><path fill="none" stroke="rgb(21,101,192)" paint-order="fill stroke markers" d=" M 614.9999999999993 829 L 1064.999999999999 829" stroke-opacity="0.8" stroke-linecap="round" stroke-linejoin="round" stroke-miterlimit="10" stroke-width="4"/><text fill="rgb(21,101,192)" stroke="none" font-family="geogebra-sans-serif, sans-serif" font-size="28px" font-style="normal" font-weight="normal" text-decoration="normal" x="1191" y="642" text-anchor="start" dominant-baseline="alphabetic" fill-opacity="1">6</text><text fill="none" stroke="rgb(255,255,255)" font-family="geogebra-sans-serif, sans-serif" font-size="28px" font-style="normal" font-weight="normal" text-decoration="normal" x="1191" y="642" text-anchor="start" dominant-baseline="alphabetic" stroke-opacity="1" stroke-linejoin="bevel" stroke-miterlimit="10" stroke-width="3">6</text><text fill="rgb(21,101,192)" stroke="none" font-family="geogebra-sans-serif, sans-serif" font-size="28px" font-style="normal" font-weight="normal" text-decoration="normal" x="1191" y="642" text-anchor="start" dominant-baseline="alphabetic" fill-opacity="1">6</text><path fill="none" stroke="rgb(21,101,192)" paint-order="fill stroke markers" d=" M 1064.999999999999 829 L 1289.999999999999 439.2885682970027" stroke-opacity="0.8" stroke-linecap="round" stroke-linejoin="round" stroke-miterlimit="10" stroke-width="4"/><text fill="rgb(21,101,192)" stroke="none" font-family="geogebra-sans-serif, sans-serif" font-size="28px" font-style="normal" font-weight="normal" text-decoration="normal" x="1191" y="236" text-anchor="start" dominant-baseline="alphabetic" fill-opacity="1">6</text><text fill="none" stroke="rgb(255,255,255)" font-family="geogebra-sans-serif, sans-serif" font-size="28px" font-style="normal" font-weight="normal" text-decoration="normal" x="1191" y="236" text-anchor="start" dominant-baseline="alphabetic" stroke-opacity="1" stroke-linejoin="bevel" stroke-miterlimit="10" stroke-width="3">6</text><text fill="rgb(21,101,192)" stroke="none" font-family="geogebra-sans-serif, sans-serif" font-size="28px" font-style="normal" font-weight="normal" text-decoration="normal" x="1191" y="236" text-anchor="start" dominant-baseline="alphabetic" fill-opacity="1">6</text><path fill="none" stroke="rgb(21,101,192)" paint-order="fill stroke markers" d=" M 1289.999999999999 439.2885682970027 L 1064.999999999999 49.57713659400525" stroke-opacity="0.8" stroke-linecap="round" stroke-linejoin="round" stroke-miterlimit="10" stroke-width="4"/><text fill="rgb(21,101,192)" stroke="none" font-family="geogebra-sans-serif, sans-serif" font-size="28px" font-style="normal" font-weight="normal" text-decoration="normal" x="839" y="33" text-anchor="start" dominant-baseline="alphabetic" fill-opacity="1">6</text><text fill="none" stroke="rgb(255,255,255)" font-family="geogebra-sans-serif, sans-serif" font-size="28px" font-style="normal" font-weight="normal" text-decoration="normal" x="839" y="33" text-anchor="start" dominant-baseline="alphabetic" stroke-opacity="1" stroke-linejoin="bevel" stroke-miterlimit="10" stroke-width="3">6</text><text fill="rgb(21,101,192)" stroke="none" font-family="geogebra-sans-serif, sans-serif" font-size="28px" font-style="normal" font-weight="normal" text-decoration="normal" x="839" y="33" text-anchor="start" dominant-baseline="alphabetic" fill-opacity="1">6</text><path fill="none" stroke="rgb(21,101,192)" paint-order="fill stroke markers" d=" M 1064.999999999999 49.57713659400525 L 614.9999999999993 49.5771365940052" stroke-opacity="0.8" stroke-linecap="round" stroke-linejoin="round" stroke-miterlimit="10" stroke-width="4"/><path fill="none" stroke="rgb(21,101,192)" paint-order="fill stroke markers" d=" M 614.9999999999993 49.5771365940052 L 389.9999999999993 439.28856829700237" stroke-opacity="0.8" stroke-linecap="round" stroke-linejoin="round" stroke-miterlimit="10" stroke-width="4"/><path fill="none" stroke="rgb(21,101,192)" paint-order="fill stroke markers" d=" M 389.9999999999993 439.28856829700237 L 614.9999999999993 829" stroke-opacity="0.8" stroke-linecap="round" stroke-linejoin="round" stroke-miterlimit="10" stroke-width="4"/><path fill="none" stroke="rgb(97,97,97)" paint-order="fill stroke markers" d=" M 389.9999999999993 439.28856829700237 L 1289.999999999999 439.2885682970027" stroke-opacity="0.8" stroke-linecap="round" stroke-linejoin="round" stroke-miterlimit="10" stroke-width="2.5"/><path fill="none" stroke="rgb(97,97,97)" paint-order="fill stroke markers" d=" M 1064.9999999999989 439.28856829700266 L 1064.999999999999 49.57713659400525" stroke-opacity="0.8" stroke-linecap="round" stroke-linejoin="round" stroke-miterlimit="10" stroke-width="2.5"/><path fill="rgb(21,101,192)" stroke="none" paint-order="stroke fill markers" d=" M 619.9999999999993 829 C 619.9999999999993 831.761423749154 617.7614237491533 834 614.9999999999993 834 C 612.2385762508453 834 609.9999999999993 831.761423749154 609.9999999999993 829 C 609.9999999999993 826.238576250846 612.2385762508453 824 614.9999999999993 824 C 617.7614237491533 824 619.9999999999993 826.238576250846 619.9999999999993 829 Z" fill-opacity="1"/><path fill="none" stroke="rgb(0,0,0)" paint-order="fill stroke markers" d=" M 619.9999999999993 829 C 619.9999999999993 831.761423749154 617.7614237491533 834 614.9999999999993 834 C 612.2385762508453 834 609.9999999999993 831.761423749154 609.9999999999993 829 C 609.9999999999993 826.238576250846 612.2385762508453 824 614.9999999999993 824 C 617.7614237491533 824 619.9999999999993 826.238576250846 619.9999999999993 829 Z" stroke-opacity="1" stroke-linecap="round" stroke-linejoin="round" stroke-miterlimit="10"/><path fill="rgb(21,101,192)" stroke="none" paint-order="stroke fill markers" d=" M 1069.999999999999 829 C 1069.999999999999 831.761423749154 1067.761423749153 834 1064.999999999999 834 C 1062.2385762508452 834 1059.999999999999 831.761423749154 1059.999999999999 829 C 1059.999999999999 826.238576250846 1062.2385762508452 824 1064.999999999999 824 C 1067.761423749153 824 1069.999999999999 826.238576250846 1069.999999999999 829 Z" fill-opacity="1"/><path fill="none" stroke="rgb(0,0,0)" paint-order="fill stroke markers" d=" M 1069.999999999999 829 C 1069.999999999999 831.761423749154 1067.761423749153 834 1064.999999999999 834 C 1062.2385762508452 834 1059.999999999999 831.761423749154 1059.999999999999 829 C 1059.999999999999 826.238576250846 1062.2385762508452 824 1064.999999999999 824 C 1067.761423749153 824 1069.999999999999 826.238576250846 1069.999999999999 829 Z" stroke-opacity="1" stroke-linecap="round" stroke-linejoin="round" stroke-miterlimit="10"/><path fill="rgb(97,97,97)" stroke="none" paint-order="stroke fill markers" d=" M 1294.999999999999 439.2885682970027 C 1294.999999999999 442.04999204615666 1292.761423749153 444.2885682970027 1289.999999999999 444.2885682970027 C 1287.2385762508452 444.2885682970027 1284.999999999999 442.04999204615666 1284.999999999999 439.2885682970027 C 1284.999999999999 436.52714454784876 1287.2385762508452 434.2885682970027 1289.999999999999 434.2885682970027 C 1292.761423749153 434.2885682970027 1294.999999999999 436.52714454784876 1294.999999999999 439.2885682970027 Z" fill-opacity="1"/><path fill="none" stroke="rgb(0,0,0)" paint-order="fill stroke markers" d=" M 1294.999999999999 439.2885682970027 C 1294.999999999999 442.04999204615666 1292.761423749153 444.2885682970027 1289.999999999999 444.2885682970027 C 1287.2385762508452 444.2885682970027 1284.999999999999 442.04999204615666 1284.999999999999 439.2885682970027 C 1284.999999999999 436.52714454784876 1287.2385762508452 434.2885682970027 1289.999999999999 434.2885682970027 C 1292.761423749153 434.2885682970027 1294.999999999999 436.52714454784876 1294.999999999999 439.2885682970027 Z" stroke-opacity="1" stroke-linecap="round" stroke-linejoin="round" stroke-miterlimit="10"/><path fill="rgb(97,97,97)" stroke="none" paint-order="stroke fill markers" d=" M 1069.999999999999 49.57713659400525 C 1069.999999999999 52.338560343159216 1067.761423749153 54.57713659400525 1064.999999999999 54.57713659400525 C 1062.2385762508452 54.57713659400525 1059.999999999999 52.338560343159216 1059.999999999999 49.57713659400525 C 1059.999999999999 46.815712844851284 1062.2385762508452 44.57713659400525 1064.999999999999 44.57713659400525 C 1067.761423749153 44.57713659400525 1069.999999999999 46.815712844851284 1069.999999999999 49.57713659400525 Z" fill-opacity="1"/><path fill="none" stroke="rgb(0,0,0)" paint-order="fill stroke markers" d=" M 1069.999999999999 49.57713659400525 C 1069.999999999999 52.338560343159216 1067.761423749153 54.57713659400525 1064.999999999999 54.57713659400525 C 1062.2385762508452 54.57713659400525 1059.999999999999 52.338560343159216 1059.999999999999 49.57713659400525 C 1059.999999999999 46.815712844851284 1062.2385762508452 44.57713659400525 1064.999999999999 44.57713659400525 C 1067.761423749153 44.57713659400525 1069.999999999999 46.815712844851284 1069.999999999999 49.57713659400525 Z" stroke-opacity="1" stroke-linecap="round" stroke-linejoin="round" stroke-miterlimit="10"/><path fill="rgb(97,97,97)" stroke="none" paint-order="stroke fill markers" d=" M 619.9999999999993 49.5771365940052 C 619.9999999999993 52.33856034315916 617.7614237491533 54.5771365940052 614.9999999999993 54.5771365940052 C 612.2385762508453 54.5771365940052 609.9999999999993 52.33856034315916 609.9999999999993 49.5771365940052 C 609.9999999999993 46.81571284485123 612.2385762508453 44.5771365940052 614.9999999999993 44.5771365940052 C 617.7614237491533 44.5771365940052 619.9999999999993 46.81571284485123 619.9999999999993 49.5771365940052 Z" fill-opacity="1"/><path fill="none" stroke="rgb(0,0,0)" paint-order="fill stroke markers" d=" M 619.9999999999993 49.5771365940052 C 619.9999999999993 52.33856034315916 617.7614237491533 54.5771365940052 614.9999999999993 54.5771365940052 C 612.2385762508453 54.5771365940052 609.9999999999993 52.33856034315916 609.9999999999993 49.5771365940052 C 609.9999999999993 46.81571284485123 612.2385762508453 44.5771365940052 614.9999999999993 44.5771365940052 C 617.7614237491533 44.5771365940052 619.9999999999993 46.81571284485123 619.9999999999993 49.5771365940052 Z" stroke-opacity="1" stroke-linecap="round" stroke-linejoin="round" stroke-miterlimit="10"/><path fill="rgb(97,97,97)" stroke="none" paint-order="stroke fill markers" d=" M 394.9999999999993 439.28856829700237 C 394.9999999999993 442.0499920461563 392.76142374915327 444.28856829700237 389.9999999999993 444.28856829700237 C 387.23857625084537 444.28856829700237 384.9999999999993 442.0499920461563 384.9999999999993 439.28856829700237 C 384.9999999999993 436.5271445478484 387.23857625084537 434.28856829700237 389.9999999999993 434.28856829700237 C 392.76142374915327 434.28856829700237 394.9999999999993 436.5271445478484 394.9999999999993 439.28856829700237 Z" fill-opacity="1"/><path fill="none" stroke="rgb(0,0,0)" paint-order="fill stroke markers" d=" M 394.9999999999993 439.28856829700237 C 394.9999999999993 442.0499920461563 392.76142374915327 444.28856829700237 389.9999999999993 444.28856829700237 C 387.23857625084537 444.28856829700237 384.9999999999993 442.0499920461563 384.9999999999993 439.28856829700237 C 384.9999999999993 436.5271445478484 387.23857625084537 434.28856829700237 389.9999999999993 434.28856829700237 C 392.76142374915327 434.28856829700237 394.9999999999993 436.5271445478484 394.9999999999993 439.28856829700237 Z" stroke-opacity="1" stroke-linecap="round" stroke-linejoin="round" stroke-miterlimit="10"/><path fill="rgb(97,97,97)" stroke="none" paint-order="stroke fill markers" d=" M 1068.9999999999989 439.28856829700266 C 1068.9999999999989 441.4977072963258 1067.209138999322 443.28856829700266 1064.9999999999989 443.28856829700266 C 1062.7908610006757 443.28856829700266 1060.9999999999989 441.4977072963258 1060.9999999999989 439.28856829700266 C 1060.9999999999989 437.0794292976795 1062.7908610006757 435.28856829700266 1064.9999999999989 435.28856829700266 C 1067.209138999322 435.28856829700266 1068.9999999999989 437.0794292976795 1068.9999999999989 439.28856829700266 Z" fill-opacity="1"/><path fill="none" stroke="rgb(0,0,0)" paint-order="fill stroke markers" d=" M 1068.9999999999989 439.28856829700266 C 1068.9999999999989 441.4977072963258 1067.209138999322 443.28856829700266 1064.9999999999989 443.28856829700266 C 1062.7908610006757 443.28856829700266 1060.9999999999989 441.4977072963258 1060.9999999999989 439.28856829700266 C 1060.9999999999989 437.0794292976795 1062.7908610006757 435.28856829700266 1064.9999999999989 435.28856829700266 C 1067.209138999322 435.28856829700266 1068.9999999999989 437.0794292976795 1068.9999999999989 439.28856829700266 Z" stroke-opacity="1" stroke-linecap="round" stroke-linejoin="round" stroke-miterlimit="10"/></g></g></svg>