<svg version="1.1" xmlns="http://www.w3.org/2000/svg" xmlns:xlink="http://www.w3.org/1999/xlink" width="1848" height="847"><defs><clipPath id="zzmyodlmbMWN"><path fill="none" stroke="none" d=" M 0 0 L 1848 0 L 1848 847 L 0 847 L 0 0 Z"/></clipPath></defs><g transform="scale(1,1)" clip-path="url(#zzmyodlmbMWN)"><g><rect fill="rgb(255,255,255)" stroke="none" x="0" y="0" width="1848" height="847" fill-opacity="1"/><path fill="rgb(21,101,192)" stroke="none" paint-order="stroke fill markers" fill-rule="evenodd" d=" M 269.9999999999999 308.00000000000017 L 540.538365480448 307.344943424987 L 541.538365480448 720.3449434249869 L 270.9999999999999 721.0000000000001 Z" fill-opacity="0.09803921568627451"/><path fill="rgb(255,204,102)" stroke="none" paint-order="stroke fill markers" fill-rule="evenodd" d=" M 269.9999999999999 308.00000000000017 L 448.87500000000006 269.7500000000002 L 685.596069795392 269.17682549686367 L 540.538365480448 307.344943424987 Z" fill-opacity="0.09803921568627451"/><path fill="rgb(102,153,0)" stroke="none" paint-order="stroke fill markers" fill-rule="evenodd" d=" M 540.538365480448 307.344943424987 L 541.538365480448 720.3449434249869 L 686.471069795392 630.5518254968636 L 685.596069795392 269.17682549686367 Z" fill-opacity="0.09803921568627451"/><text fill="rgb(97,97,97)" stroke="none" font-family="geogebra-sans-serif, sans-serif" font-size="24px" font-style="normal" font-weight="normal" text-decoration="normal" x="243" y="506" text-anchor="start" dominant-baseline="alphabetic" fill-opacity="1">d</text><text fill="none" stroke="rgb(255,255,255)" font-family="geogebra-sans-serif, sans-serif" font-size="24px" font-style="normal" font-weight="normal" text-decoration="normal" x="243" y="506" text-anchor="start" dominant-baseline="alphabetic" stroke-opacity="1" stroke-linejoin="bevel" stroke-miterlimit="10" stroke-width="3">d</text><text fill="rgb(97,97,97)" stroke="none" font-family="geogebra-sans-serif, sans-serif" font-size="24px" font-style="normal" font-weight="normal" text-decoration="normal" x="243" y="506" text-anchor="start" dominant-baseline="alphabetic" fill-opacity="1">d</text><path fill="none" stroke="rgb(97,97,97)" paint-order="fill stroke markers" d=" M 269.9999999999999 308.00000000000017 L 270.9999999999999 721.0000000000001" stroke-opacity="0.8" stroke-linecap="round" stroke-linejoin="round" stroke-miterlimit="10" stroke-width="4.5"/><path fill="none" stroke="rgb(97,97,97)" paint-order="fill stroke markers" d=" M 448.87500000000006 269.7500000000002 L 685.596069795392 269.17682549686367" stroke-opacity="0.8" stroke-linecap="round" stroke-linejoin="round" stroke-miterlimit="10" stroke-width="3.5"/><path fill="none" stroke="rgb(97,97,97)" paint-order="fill stroke markers" d=" M 685.596069795392 269.17682549686367 L 686.471069795392 630.5518254968636" stroke-opacity="0.8" stroke-linecap="round" stroke-linejoin="round" stroke-miterlimit="10" stroke-width="3.5"/><path fill="none" stroke="rgb(97,97,97)" paint-order="fill stroke markers" d=" M 686.471069795392 630.5518254968636 L 449.74999999999994 631.1250000000001" stroke-opacity="0.8" stroke-linejoin="round" stroke-miterlimit="10" stroke-width="2.5" stroke-dasharray="10.5,8"/><path fill="none" stroke="rgb(97,97,97)" paint-order="fill stroke markers" d=" M 448.87500000000006 269.7500000000002 L 449.74999999999994 631.1250000000001" stroke-opacity="0.8" stroke-linejoin="round" stroke-miterlimit="10" stroke-width="2.5" stroke-dasharray="10.5,8"/><text fill="rgb(97,97,97)" stroke="none" font-family="geogebra-sans-serif, sans-serif" font-size="24px" font-style="normal" font-weight="normal" text-decoration="normal" x="629" y="693" text-anchor="start" dominant-baseline="alphabetic" fill-opacity="1">b</text><text fill="none" stroke="rgb(255,255,255)" font-family="geogebra-sans-serif, sans-serif" font-size="24px" font-style="normal" font-weight="normal" text-decoration="normal" x="629" y="693" text-anchor="start" dominant-baseline="alphabetic" stroke-opacity="1" stroke-linejoin="bevel" stroke-miterlimit="10" stroke-width="3">b</text><text fill="rgb(97,97,97)" stroke="none" font-family="geogebra-sans-serif, sans-serif" font-size="24px" font-style="normal" font-weight="normal" text-decoration="normal" x="629" y="693" text-anchor="start" dominant-baseline="alphabetic" fill-opacity="1">b</text><path fill="none" stroke="rgb(97,97,97)" paint-order="fill stroke markers" d=" M 541.538365480448 720.3449434249869 L 686.471069795392 630.5518254968636" stroke-opacity="0.8" stroke-linecap="round" stroke-linejoin="round" stroke-miterlimit="10" stroke-width="4"/><path fill="none" stroke="rgb(97,97,97)" paint-order="fill stroke markers" d=" M 270.9999999999999 721.0000000000001 L 449.74999999999994 631.1250000000001" stroke-opacity="0.8" stroke-linejoin="round" stroke-miterlimit="10" stroke-width="2.5" stroke-dasharray="10.5,8"/><text fill="rgb(97,97,97)" stroke="none" font-family="geogebra-sans-serif, sans-serif" font-size="24px" font-style="normal" font-weight="normal" text-decoration="normal" x="396" y="743" text-anchor="start" dominant-baseline="alphabetic" fill-opacity="1">a</text><text fill="none" stroke="rgb(255,255,255)" font-family="geogebra-sans-serif, sans-serif" font-size="24px" font-style="normal" font-weight="normal" text-decoration="normal" x="396" y="743" text-anchor="start" dominant-baseline="alphabetic" stroke-opacity="1" stroke-linejoin="bevel" stroke-miterlimit="10" stroke-width="3">a</text><text fill="rgb(97,97,97)" stroke="none" font-family="geogebra-sans-serif, sans-serif" font-size="24px" font-style="normal" font-weight="normal" text-decoration="normal" x="396" y="743" text-anchor="start" dominant-baseline="alphabetic" fill-opacity="1">a</text><path fill="none" stroke="rgb(97,97,97)" paint-order="fill stroke markers" d=" M 270.9999999999999 721.0000000000001 L 541.538365480448 720.3449434249869" stroke-opacity="0.8" stroke-linecap="round" stroke-linejoin="round" stroke-miterlimit="10" stroke-width="4"/><path fill="none" stroke="rgb(97,97,97)" paint-order="fill stroke markers" d=" M 269.9999999999999 308.00000000000017 L 448.87500000000006 269.7500000000002" stroke-opacity="0.8" stroke-linecap="round" stroke-linejoin="round" stroke-miterlimit="10" stroke-width="3.5"/><path fill="none" stroke="rgb(97,97,97)" paint-order="fill stroke markers" d=" M 269.9999999999999 308.00000000000017 L 540.538365480448 307.344943424987" stroke-opacity="0.8" stroke-linecap="round" stroke-linejoin="round" stroke-miterlimit="10" stroke-width="4"/><path fill="none" stroke="rgb(97,97,97)" paint-order="fill stroke markers" d=" M 540.538365480448 307.344943424987 L 685.596069795392 269.17682549686367" stroke-opacity="0.8" stroke-linecap="round" stroke-linejoin="round" stroke-miterlimit="10" stroke-width="4"/><path fill="none" stroke="rgb(97,97,97)" paint-order="fill stroke markers" d=" M 541.538365480448 720.3449434249869 L 540.538365480448 307.344943424987" stroke-opacity="0.8" stroke-linecap="round" stroke-linejoin="round" stroke-miterlimit="10" stroke-width="4"/><path fill="none" stroke="rgb(21,101,192)" paint-order="fill stroke markers" d=" M 269.9999999999999 308.00000000000017 L 540.538365480448 307.344943424987" stroke-opacity="0.8" stroke-linecap="round" stroke-linejoin="round" stroke-miterlimit="10" stroke-width="2.5"/><path fill="none" stroke="rgb(21,101,192)" paint-order="fill stroke markers" d=" M 540.538365480448 307.344943424987 L 541.538365480448 720.3449434249869" stroke-opacity="0.8" stroke-linecap="round" stroke-linejoin="round" stroke-miterlimit="10" stroke-width="2.5"/><path fill="none" stroke="rgb(21,101,192)" paint-order="fill stroke markers" d=" M 541.538365480448 720.3449434249869 L 270.9999999999999 721.0000000000001" stroke-opacity="0.8" stroke-linecap="round" stroke-linejoin="round" stroke-miterlimit="10" stroke-width="2.5"/><path fill="none" stroke="rgb(21,101,192)" paint-order="fill stroke markers" d=" M 270.9999999999999 721.0000000000001 L 269.9999999999999 308.00000000000017" stroke-opacity="0.8" stroke-linecap="round" stroke-linejoin="round" stroke-miterlimit="10" stroke-width="2.5"/><path fill="none" stroke="rgb(255,204,102)" paint-order="fill stroke markers" d=" M 269.9999999999999 308.00000000000017 L 448.87500000000006 269.7500000000002" stroke-opacity="0.8" stroke-linecap="round" stroke-linejoin="round" stroke-miterlimit="10" stroke-width="2.5"/><path fill="none" stroke="rgb(255,204,102)" paint-order="fill stroke markers" d=" M 448.87500000000006 269.7500000000002 L 685.596069795392 269.17682549686367" stroke-opacity="0.8" stroke-linecap="round" stroke-linejoin="round" stroke-miterlimit="10" stroke-width="2.5"/><path fill="none" stroke="rgb(255,204,102)" paint-order="fill stroke markers" d=" M 685.596069795392 269.17682549686367 L 540.538365480448 307.344943424987" stroke-opacity="0.8" stroke-linecap="round" stroke-linejoin="round" stroke-miterlimit="10" stroke-width="2.5"/><path fill="none" stroke="rgb(255,204,102)" paint-order="fill stroke markers" d=" M 540.538365480448 307.344943424987 L 269.9999999999999 308.00000000000017" stroke-opacity="0.8" stroke-linecap="round" stroke-linejoin="round" stroke-miterlimit="10" stroke-width="2.5"/><path fill="none" stroke="rgb(102,153,0)" paint-order="fill stroke markers" d=" M 540.538365480448 307.344943424987 L 541.538365480448 720.3449434249869" stroke-opacity="0.8" stroke-linecap="round" stroke-linejoin="round" stroke-miterlimit="10" stroke-width="2.5"/><path fill="none" stroke="rgb(102,153,0)" paint-order="fill stroke markers" d=" M 541.538365480448 720.3449434249869 L 686.471069795392 630.5518254968636" stroke-opacity="0.8" stroke-linecap="round" stroke-linejoin="round" stroke-miterlimit="10" stroke-width="2.5"/><path fill="none" stroke="rgb(102,153,0)" paint-order="fill stroke markers" d=" M 686.471069795392 630.5518254968636 L 685.596069795392 269.17682549686367" stroke-opacity="0.8" stroke-linecap="round" stroke-linejoin="round" stroke-miterlimit="10" stroke-width="2.5"/><path fill="none" stroke="rgb(102,153,0)" paint-order="fill stroke markers" d=" M 685.596069795392 269.17682549686367 L 540.538365480448 307.344943424987" stroke-opacity="0.8" stroke-linecap="round" stroke-linejoin="round" stroke-miterlimit="10" stroke-width="2.5"/><path fill="rgb(0,0,0)" stroke="none" paint-order="stroke fill markers" d=" M 274.9999999999999 308.00000000000017 C 274.9999999999999 310.7614237491541 272.76142374915383 313.00000000000017 269.9999999999999 313.00000000000017 C 267.23857625084594 313.00000000000017 264.9999999999999 310.7614237491541 264.9999999999999 308.00000000000017 C 264.9999999999999 305.2385762508462 267.23857625084594 303.00000000000017 269.9999999999999 303.00000000000017 C 272.76142374915383 303.00000000000017 274.9999999999999 305.2385762508462 274.9999999999999 308.00000000000017 Z" fill-opacity="1"/><path fill="none" stroke="rgb(0,0,0)" paint-order="fill stroke markers" d=" M 274.9999999999999 308.00000000000017 C 274.9999999999999 310.7614237491541 272.76142374915383 313.00000000000017 269.9999999999999 313.00000000000017 C 267.23857625084594 313.00000000000017 264.9999999999999 310.7614237491541 264.9999999999999 308.00000000000017 C 264.9999999999999 305.2385762508462 267.23857625084594 303.00000000000017 269.9999999999999 303.00000000000017 C 272.76142374915383 303.00000000000017 274.9999999999999 305.2385762508462 274.9999999999999 308.00000000000017 Z" stroke-opacity="1" stroke-linecap="round" stroke-linejoin="round" stroke-miterlimit="10"/><path fill="rgb(0,0,0)" stroke="none" paint-order="stroke fill markers" d=" M 275.9999999999999 721.0000000000001 C 275.9999999999999 723.7614237491541 273.76142374915383 726.0000000000001 270.9999999999999 726.0000000000001 C 268.23857625084594 726.0000000000001 265.9999999999999 723.7614237491541 265.9999999999999 721.0000000000001 C 265.9999999999999 718.2385762508461 268.23857625084594 716.0000000000001 270.9999999999999 716.0000000000001 C 273.76142374915383 716.0000000000001 275.9999999999999 718.2385762508461 275.9999999999999 721.0000000000001 Z" fill-opacity="1"/><path fill="none" stroke="rgb(0,0,0)" paint-order="fill stroke markers" d=" M 275.9999999999999 721.0000000000001 C 275.9999999999999 723.7614237491541 273.76142374915383 726.0000000000001 270.9999999999999 726.0000000000001 C 268.23857625084594 726.0000000000001 265.9999999999999 723.7614237491541 265.9999999999999 721.0000000000001 C 265.9999999999999 718.2385762508461 268.23857625084594 716.0000000000001 270.9999999999999 716.0000000000001 C 273.76142374915383 716.0000000000001 275.9999999999999 718.2385762508461 275.9999999999999 721.0000000000001 Z" stroke-opacity="1" stroke-linecap="round" stroke-linejoin="round" stroke-miterlimit="10"/><path fill="rgb(0,0,0)" stroke="none" paint-order="stroke fill markers" d=" M 545.538365480448 307.344943424987 C 545.538365480448 310.1063671741409 543.299789229602 312.344943424987 540.538365480448 312.344943424987 C 537.776941731294 312.344943424987 535.538365480448 310.1063671741409 535.538365480448 307.344943424987 C 535.538365480448 304.58351967583303 537.776941731294 302.344943424987 540.538365480448 302.344943424987 C 543.299789229602 302.344943424987 545.538365480448 304.58351967583303 545.538365480448 307.344943424987 Z" fill-opacity="1"/><path fill="none" stroke="rgb(0,0,0)" paint-order="fill stroke markers" d=" M 545.538365480448 307.344943424987 C 545.538365480448 310.1063671741409 543.299789229602 312.344943424987 540.538365480448 312.344943424987 C 537.776941731294 312.344943424987 535.538365480448 310.1063671741409 535.538365480448 307.344943424987 C 535.538365480448 304.58351967583303 537.776941731294 302.344943424987 540.538365480448 302.344943424987 C 543.299789229602 302.344943424987 545.538365480448 304.58351967583303 545.538365480448 307.344943424987 Z" stroke-opacity="1" stroke-linecap="round" stroke-linejoin="round" stroke-miterlimit="10"/><path fill="rgb(0,0,0)" stroke="none" paint-order="stroke fill markers" d=" M 545.538365480448 720.3449434249869 C 545.538365480448 722.5540824243101 543.7475044797711 724.3449434249869 541.538365480448 724.3449434249869 C 539.3292264811248 724.3449434249869 537.538365480448 722.5540824243101 537.538365480448 720.3449434249869 C 537.538365480448 718.1358044256638 539.3292264811248 716.3449434249869 541.538365480448 716.3449434249869 C 543.7475044797711 716.3449434249869 545.538365480448 718.1358044256638 545.538365480448 720.3449434249869 Z" fill-opacity="1"/><path fill="none" stroke="rgb(0,0,0)" paint-order="fill stroke markers" d=" M 545.538365480448 720.3449434249869 C 545.538365480448 722.5540824243101 543.7475044797711 724.3449434249869 541.538365480448 724.3449434249869 C 539.3292264811248 724.3449434249869 537.538365480448 722.5540824243101 537.538365480448 720.3449434249869 C 537.538365480448 718.1358044256638 539.3292264811248 716.3449434249869 541.538365480448 716.3449434249869 C 543.7475044797711 716.3449434249869 545.538365480448 718.1358044256638 545.538365480448 720.3449434249869 Z" stroke-opacity="1" stroke-linecap="round" stroke-linejoin="round" stroke-miterlimit="10"/><path fill="rgb(21,101,192)" stroke="none" paint-order="stroke fill markers" d=" M 1706.000000000001 2.000000000000341 C 1706.000000000001 4.761423749154307 1703.7614237491548 7.000000000000341 1701.000000000001 7.000000000000341 C 1698.238576250847 7.000000000000341 1696.000000000001 4.761423749154307 1696.000000000001 2.000000000000341 C 1696.000000000001 -0.7614237491536255 1698.238576250847 -2.999999999999659 1701.000000000001 -2.999999999999659 C 1703.7614237491548 -2.999999999999659 1706.000000000001 -0.7614237491536255 1706.000000000001 2.000000000000341 Z" fill-opacity="1"/><path fill="none" stroke="rgb(0,0,0)" paint-order="fill stroke markers" d=" M 1706.000000000001 2.000000000000341 C 1706.000000000001 4.761423749154307 1703.7614237491548 7.000000000000341 1701.000000000001 7.000000000000341 C 1698.238576250847 7.000000000000341 1696.000000000001 4.761423749154307 1696.000000000001 2.000000000000341 C 1696.000000000001 -0.7614237491536255 1698.238576250847 -2.999999999999659 1701.000000000001 -2.999999999999659 C 1703.7614237491548 -2.999999999999659 1706.000000000001 -0.7614237491536255 1706.000000000001 2.000000000000341 Z" stroke-opacity="1" stroke-linecap="round" stroke-linejoin="round" stroke-miterlimit="10"/><path fill="rgb(0,0,0)" stroke="none" paint-order="stroke fill markers" d=" M 690.471069795392 630.5518254968636 C 690.471069795392 632.7609644961867 688.6802087947152 634.5518254968636 686.471069795392 634.5518254968636 C 684.2619307960689 634.5518254968636 682.471069795392 632.7609644961867 682.471069795392 630.5518254968636 C 682.471069795392 628.3426864975404 684.2619307960689 626.5518254968636 686.471069795392 626.5518254968636 C 688.6802087947152 626.5518254968636 690.471069795392 628.3426864975404 690.471069795392 630.5518254968636 Z" fill-opacity="1"/><path fill="none" stroke="rgb(0,0,0)" paint-order="fill stroke markers" d=" M 690.471069795392 630.5518254968636 C 690.471069795392 632.7609644961867 688.6802087947152 634.5518254968636 686.471069795392 634.5518254968636 C 684.2619307960689 634.5518254968636 682.471069795392 632.7609644961867 682.471069795392 630.5518254968636 C 682.471069795392 628.3426864975404 684.2619307960689 626.5518254968636 686.471069795392 626.5518254968636 C 688.6802087947152 626.5518254968636 690.471069795392 628.3426864975404 690.471069795392 630.5518254968636 Z" stroke-opacity="1" stroke-linecap="round" stroke-linejoin="round" stroke-miterlimit="10"/><path fill="rgb(0,0,0)" stroke="none" paint-order="stroke fill markers" d=" M 453.74999999999994 631.1250000000001 C 453.74999999999994 633.3341389993233 451.9591389993231 635.1250000000001 449.74999999999994 635.1250000000001 C 447.5408610006768 635.1250000000001 445.74999999999994 633.3341389993233 445.74999999999994 631.1250000000001 C 445.74999999999994 628.915861000677 447.5408610006768 627.1250000000001 449.74999999999994 627.1250000000001 C 451.9591389993231 627.1250000000001 453.74999999999994 628.915861000677 453.74999999999994 631.1250000000001 Z" fill-opacity="1"/><path fill="none" stroke="rgb(0,0,0)" paint-order="fill stroke markers" d=" M 453.74999999999994 631.1250000000001 C 453.74999999999994 633.3341389993233 451.9591389993231 635.1250000000001 449.74999999999994 635.1250000000001 C 447.5408610006768 635.1250000000001 445.74999999999994 633.3341389993233 445.74999999999994 631.1250000000001 C 445.74999999999994 628.915861000677 447.5408610006768 627.1250000000001 449.74999999999994 627.1250000000001 C 451.9591389993231 627.1250000000001 453.74999999999994 628.915861000677 453.74999999999994 631.1250000000001 Z" stroke-opacity="1" stroke-linecap="round" stroke-linejoin="round" stroke-miterlimit="10"/><path fill="rgb(0,0,0)" stroke="none" paint-order="stroke fill markers" d=" M 452.87500000000006 269.7500000000002 C 452.87500000000006 271.9591389993234 451.0841389993232 273.7500000000002 448.87500000000006 273.7500000000002 C 446.6658610006769 273.7500000000002 444.87500000000006 271.9591389993234 444.87500000000006 269.7500000000002 C 444.87500000000006 267.54086100067707 446.6658610006769 265.7500000000002 448.87500000000006 265.7500000000002 C 451.0841389993232 265.7500000000002 452.87500000000006 267.54086100067707 452.87500000000006 269.7500000000002 Z" fill-opacity="1"/><path fill="none" stroke="rgb(0,0,0)" paint-order="fill stroke markers" d=" M 452.87500000000006 269.7500000000002 C 452.87500000000006 271.9591389993234 451.0841389993232 273.7500000000002 448.87500000000006 273.7500000000002 C 446.6658610006769 273.7500000000002 444.87500000000006 271.9591389993234 444.87500000000006 269.7500000000002 C 444.87500000000006 267.54086100067707 446.6658610006769 265.7500000000002 448.87500000000006 265.7500000000002 C 451.0841389993232 265.7500000000002 452.87500000000006 267.54086100067707 452.87500000000006 269.7500000000002 Z" stroke-opacity="1" stroke-linecap="round" stroke-linejoin="round" stroke-miterlimit="10"/><path fill="rgb(0,0,0)" stroke="none" paint-order="stroke fill markers" d=" M 689.596069795392 269.17682549686367 C 689.596069795392 271.38596449618683 687.8052087947152 273.17682549686367 685.596069795392 273.17682549686367 C 683.3869307960689 273.17682549686367 681.596069795392 271.38596449618683 681.596069795392 269.17682549686367 C 681.596069795392 266.9676864975405 683.3869307960689 265.17682549686367 685.596069795392 265.17682549686367 C 687.8052087947152 265.17682549686367 689.596069795392 266.9676864975405 689.596069795392 269.17682549686367 Z" fill-opacity="1"/><path fill="none" stroke="rgb(0,0,0)" paint-order="fill stroke markers" d=" M 689.596069795392 269.17682549686367 C 689.596069795392 271.38596449618683 687.8052087947152 273.17682549686367 685.596069795392 273.17682549686367 C 683.3869307960689 273.17682549686367 681.596069795392 271.38596449618683 681.596069795392 269.17682549686367 C 681.596069795392 266.9676864975405 683.3869307960689 265.17682549686367 685.596069795392 265.17682549686367 C 687.8052087947152 265.17682549686367 689.596069795392 266.9676864975405 689.596069795392 269.17682549686367 Z" stroke-opacity="1" stroke-linecap="round" stroke-linejoin="round" stroke-miterlimit="10"/></g></g></svg>