<svg version="1.1" xmlns="http://www.w3.org/2000/svg" xmlns:xlink="http://www.w3.org/1999/xlink" width="1516" height="881"><defs><clipPath id="zRQTVyqRqLDy"><path fill="none" stroke="none" d=" M 0 0 L 1516 0 L 1516 881 L 0 881 L 0 0 Z"/></clipPath></defs><g transform="scale(1,1)" clip-path="url(#zRQTVyqRqLDy)"><g><rect fill="rgb(255,255,255)" stroke="none" x="0" y="0" width="1516" height="881" fill-opacity="1"/><path fill="rgb(21,101,192)" stroke="none" paint-order="stroke fill markers" fill-rule="evenodd" d=" M 506.233308856917 145.55622450360335 L 519.5071704371428 171.30277376927967 L 255.14400497371867 814.8800692094644 L 241.87014339349298 789.1335199437881 Z" fill-opacity="0.09803921568627451"/><path fill="rgb(21,101,192)" stroke="none" paint-order="stroke fill markers" fill-rule="evenodd" d=" M 519.5071704371428 171.30277376927967 L 563.4009314644529 192.70014768010128 L 299.0377660010288 836.2774431202861 L 255.14400497371867 814.8800692094644 Z" fill-opacity="0.09803921568627451"/><path fill="rgb(21,101,192)" stroke="none" paint-order="stroke fill markers" fill-rule="evenodd" d=" M 563.4009314644529 192.70014768010128 L 639.0239475284504 204.75887645916225 L 374.6607820650263 848.3361718993469 L 299.0377660010288 836.2774431202861 Z" fill-opacity="0.09803921568627451"/><path fill="rgb(21,101,192)" stroke="none" paint-order="stroke fill markers" fill-rule="evenodd" d=" M 639.0239475284504 204.75887645916225 L 711.6625520729756 202.43157480176257 L 447.29938660955145 846.0088702419473 L 374.6607820650263 848.3361718993469 Z" fill-opacity="0.09803921568627451"/><path fill="rgb(21,101,192)" stroke="none" paint-order="stroke fill markers" fill-rule="evenodd" d=" M 711.6625520729756 202.43157480176257 L 769.6966025855805 190.90152795315902 L 505.3334371221564 834.4788233933439 L 447.29938660955145 846.0088702419473 Z" fill-opacity="0.09803921568627451"/><path fill="rgb(21,101,192)" stroke="none" paint-order="stroke fill markers" fill-rule="evenodd" d=" M 769.6966025855805 190.90152795315902 L 813.3817326313881 172.04682945711704 L 549.018567167964 815.6241248973017 L 505.3334371221564 834.4788233933439 Z" fill-opacity="0.09803921568627451"/><path fill="rgb(21,101,192)" stroke="none" paint-order="stroke fill markers" fill-rule="evenodd" d=" M 836.8993524074248 143.9711348699317 L 572.5361869440006 787.5484303101165 L 549.018567167964 815.6241248973017 L 813.3817326313881 172.04682945711704 Z" fill-opacity="0.09803921568627451"/><path fill="none" stroke="rgb(97,97,97)" paint-order="fill stroke markers" d=" M 837.3329843742669 138.80811552883094 C 836.391707872082 104.68684232462999 761.4965844207825 79.07110769529989 670.0500441058838 81.59377087640054 C 578.6035037909852 84.1164340575012 505.2344910815926 113.82221382229866 506.17576758377743 147.94348702649964 C 507.1170440859623 182.0647602307006 582.0121675372618 207.6804948600307 673.4587078521605 205.15783167893005 C 764.9052481670591 202.6351684978294 838.2742608764518 172.9293887330319 837.3329843742669 138.80811552883094 Z" stroke-opacity="0.8" stroke-linecap="round" stroke-linejoin="round" stroke-miterlimit="10" stroke-width="2.5"/><path fill="none" stroke="rgb(97,97,97)" paint-order="fill stroke markers" d=" M 572.9698189108427 782.3854109690157 C 572.0285424086578 748.2641377648147 497.1334189573583 722.6484031354846 405.68687864245965 725.1710663165853 C 314.24033832756106 727.6937294976859 240.87132561816844 757.3995092624834 241.8126021203533 791.5207824666844 C 242.75387862253814 825.6420556708854 317.6490020738377 851.2577903002154 409.09554238873636 848.7351271191147 C 500.54208270363495 846.2124639380141 573.9110954130276 816.5066841732166 572.9698189108427 782.3854109690157 Z" stroke-opacity="0.8" stroke-linecap="round" stroke-linejoin="round" stroke-miterlimit="10" stroke-width="2.5"/><path fill="rgb(0,0,0)" stroke="none" paint-order="stroke fill markers" fill-rule="evenodd" d=" M 839.9782763143022 786.2664127224725 L 839.8765893004853 765.0534530102786 L 818.6636295882901 765.1551400240941 L 818.7653166021083 786.3680997362894 L 839.9782763143022 786.2664127224725" fill-opacity="0.09803921568627451"/><path fill="none" stroke="rgb(0,0,0)" paint-order="fill stroke markers" d=" M 839.9782763143022 786.2664127224725 L 839.8765893004853 765.0534530102786 L 818.6636295882901 765.1551400240941 L 818.7653166021083 786.3680997362894 L 839.9782763143022 786.2664127224725" stroke-opacity="0.6" stroke-linecap="round" stroke-linejoin="round" stroke-miterlimit="10" stroke-width="2"/><text fill="rgb(0,0,0)" stroke="none" font-family="geogebra-sans-serif, sans-serif" font-size="24px" font-style="normal" font-weight="normal" text-decoration="normal" x="787" y="763" text-anchor="start" dominant-baseline="alphabetic" fill-opacity="1">90°</text><text fill="rgb(0,0,0)" stroke="none" font-family="geogebra-sans-serif, sans-serif" font-size="24px" font-style="normal" font-weight="normal" text-decoration="normal" x="787" y="763" text-anchor="start" dominant-baseline="alphabetic" fill-opacity="1">90°</text><path fill="none" stroke="rgb(97,97,97)" paint-order="fill stroke markers" d=" M 506.233308856917 145.55622450360335 L 241.87014339349298 789.1335199437881" stroke-opacity="0.8" stroke-linecap="round" stroke-linejoin="round" stroke-miterlimit="10" stroke-width="4"/><path fill="none" stroke="rgb(97,97,97)" paint-order="fill stroke markers" d=" M 836.8993524074248 143.9711348699317 L 572.5361869440006 787.5484303101165" stroke-opacity="0.8" stroke-linecap="round" stroke-linejoin="round" stroke-miterlimit="10" stroke-width="4"/><path fill="none" stroke="rgb(21,101,192)" paint-order="fill stroke markers" d=" M 506.233308856917 145.55622450360335 L 519.5071704371428 171.30277376927967" stroke-opacity="0.8" stroke-linecap="round" stroke-linejoin="round" stroke-miterlimit="10" stroke-width="2.5"/><path fill="none" stroke="rgb(21,101,192)" paint-order="fill stroke markers" d=" M 255.14400497371867 814.8800692094644 L 241.87014339349298 789.1335199437881" stroke-opacity="0.8" stroke-linecap="round" stroke-linejoin="round" stroke-miterlimit="10" stroke-width="4"/><path fill="none" stroke="rgb(21,101,192)" paint-order="fill stroke markers" d=" M 241.87014339349298 789.1335199437881 L 506.233308856917 145.55622450360335" stroke-opacity="0.8" stroke-linecap="round" stroke-linejoin="round" stroke-miterlimit="10" stroke-width="2.5"/><path fill="none" stroke="rgb(21,101,192)" paint-order="fill stroke markers" d=" M 519.5071704371428 171.30277376927967 L 563.4009314644529 192.70014768010128" stroke-opacity="0.8" stroke-linecap="round" stroke-linejoin="round" stroke-miterlimit="10" stroke-width="2.5"/><path fill="none" stroke="rgb(21,101,192)" paint-order="fill stroke markers" d=" M 299.0377660010288 836.2774431202861 L 255.14400497371867 814.8800692094644" stroke-opacity="0.8" stroke-linecap="round" stroke-linejoin="round" stroke-miterlimit="10" stroke-width="4"/><path fill="none" stroke="rgb(21,101,192)" paint-order="fill stroke markers" d=" M 563.4009314644529 192.70014768010128 L 639.0239475284504 204.75887645916225" stroke-opacity="0.8" stroke-linecap="round" stroke-linejoin="round" stroke-miterlimit="10" stroke-width="2.5"/><path fill="none" stroke="rgb(21,101,192)" paint-order="fill stroke markers" d=" M 374.6607820650263 848.3361718993469 L 299.0377660010288 836.2774431202861" stroke-opacity="0.8" stroke-linecap="round" stroke-linejoin="round" stroke-miterlimit="10" stroke-width="4"/><path fill="none" stroke="rgb(21,101,192)" paint-order="fill stroke markers" d=" M 639.0239475284504 204.75887645916225 L 711.6625520729756 202.43157480176257" stroke-opacity="0.8" stroke-linecap="round" stroke-linejoin="round" stroke-miterlimit="10" stroke-width="2.5"/><path fill="none" stroke="rgb(21,101,192)" paint-order="fill stroke markers" d=" M 447.29938660955145 846.0088702419473 L 374.6607820650263 848.3361718993469" stroke-opacity="0.8" stroke-linecap="round" stroke-linejoin="round" stroke-miterlimit="10" stroke-width="4"/><path fill="none" stroke="rgb(21,101,192)" paint-order="fill stroke markers" d=" M 711.6625520729756 202.43157480176257 L 769.6966025855805 190.90152795315902" stroke-opacity="0.8" stroke-linecap="round" stroke-linejoin="round" stroke-miterlimit="10" stroke-width="2.5"/><path fill="none" stroke="rgb(21,101,192)" paint-order="fill stroke markers" d=" M 505.3334371221564 834.4788233933439 L 447.29938660955145 846.0088702419473" stroke-opacity="0.8" stroke-linecap="round" stroke-linejoin="round" stroke-miterlimit="10" stroke-width="3.5"/><path fill="none" stroke="rgb(21,101,192)" paint-order="fill stroke markers" d=" M 769.6966025855805 190.90152795315902 L 813.3817326313881 172.04682945711704" stroke-opacity="0.8" stroke-linecap="round" stroke-linejoin="round" stroke-miterlimit="10" stroke-width="2.5"/><path fill="none" stroke="rgb(21,101,192)" paint-order="fill stroke markers" d=" M 549.018567167964 815.6241248973017 L 505.3334371221564 834.4788233933439" stroke-opacity="0.8" stroke-linecap="round" stroke-linejoin="round" stroke-miterlimit="10" stroke-width="3.5"/><path fill="none" stroke="rgb(21,101,192)" paint-order="fill stroke markers" d=" M 836.8993524074248 143.9711348699317 L 572.5361869440006 787.5484303101165" stroke-opacity="0.8" stroke-linecap="round" stroke-linejoin="round" stroke-miterlimit="10" stroke-width="2.5"/><path fill="none" stroke="rgb(21,101,192)" paint-order="fill stroke markers" d=" M 572.5361869440006 787.5484303101165 L 549.018567167964 815.6241248973017" stroke-opacity="0.8" stroke-linecap="round" stroke-linejoin="round" stroke-miterlimit="10" stroke-width="4"/><path fill="none" stroke="rgb(21,101,192)" paint-order="fill stroke markers" d=" M 813.3817326313881 172.04682945711704 L 836.8993524074248 143.9711348699317" stroke-opacity="0.8" stroke-linecap="round" stroke-linejoin="round" stroke-miterlimit="10" stroke-width="2.5"/><text fill="rgb(97,97,97)" stroke="none" font-family="geogebra-sans-serif, sans-serif" font-size="24px" font-style="normal" font-weight="normal" text-decoration="normal" x="858" y="468" text-anchor="start" dominant-baseline="alphabetic" fill-opacity="1">d</text><text fill="rgb(97,97,97)" stroke="none" font-family="geogebra-sans-serif, sans-serif" font-size="24px" font-style="normal" font-weight="normal" text-decoration="normal" x="858" y="468" text-anchor="start" dominant-baseline="alphabetic" fill-opacity="1">d</text><path fill="none" stroke="rgb(97,97,97)" paint-order="fill stroke markers" d=" M 836.8993524074248 143.9711348699317 L 839.9782763143022 786.2664127224725" stroke-opacity="0.8" stroke-linejoin="round" stroke-miterlimit="10" stroke-width="2.5" stroke-dasharray="10.5,8"/><path fill="none" stroke="rgb(97,97,97)" paint-order="fill stroke markers" d=" M 671.566330632171 144.7636796867675 L 836.8993524074248 143.9711348699317" stroke-opacity="0.8" stroke-linejoin="round" stroke-miterlimit="10" stroke-width="2.5" stroke-dasharray="10.5,8"/><path fill="none" stroke="rgb(97,97,97)" paint-order="fill stroke markers" d=" M 572.5361869440006 787.5484303101165 L 839.9782763143022 786.2664127224725" stroke-opacity="0.8" stroke-linejoin="round" stroke-miterlimit="10" stroke-width="2.5" stroke-dasharray="10.5,8"/><path fill="none" stroke="rgb(0,0,0)" paint-order="fill stroke markers" d=" M 506.233308856917 145.55622450360335 L 506.2674631629121 149.45831825163742 L 506.458841870373 150.96948559599008 L 507.1401275768153 153.97719031482944 L 508.21798342616376 156.95935535890624 L 509.6898127692683 159.90879643142256 L 511.5520698403242 162.81840807049406 L 513.800268298933 165.6811807668305 L 516.4289920380891 168.490217850257 L 519.4319082320558 171.23875210439707 L 522.8017825926972 173.92016206948927 L 526.5304967975127 176.5279879940639 L 530.6090680473857 179.05594739705026 L 535.0276707069349 181.49795020282318 L 539.7756599753299 183.84811341272956 L 542.2696303684342 184.98697685335043 L 544.8415975305477 186.10077527774666 L 547.4900122048242 187.18883777539492 L 550.2132790852944 188.25050893813187 L 553.009757777819 189.28514925494756 L 555.8777637882009 190.29213549720282 L 558.815569536861 191.270861094039 L 561.8214053994676 192.22073649775342 L 564.8934607728929 193.14118953892097 L 568.0298851658515 194.03166577104776 L 571.2287893135674 194.89162880454847 L 574.4882463157966 195.7205606298478 L 577.8062927975202 196.5179619294101 L 581.1809300916074 197.28335237850905 L 584.6101254427375 198.01627093455812 L 588.0918132318575 198.71627611482455 L 591.6238962204317 199.3829462623628 L 595.2042468137408 200.01587980000426 L 598.8307083424654 200.61469547225283 L 602.5010963617826 201.17903257493867 L 606.2131999671944 201.70855117249306 L 609.9647831262932 202.20293230271284 L 613.7535860256651 202.66187816889118 L 617.5773264321152 203.08511231919954 L 621.4337010674024 203.47237981321138 L 625.3203869956449 203.82344737546924 L 629.2350430225724 204.1381035360008 L 633.1753111057726 204.41615875770088 L 637.1388177750881 204.65744555050082 L 641.1231755623069 204.8618185722592 L 645.1259844392822 205.0291547163095 L 649.1448332636213 205.15935318561577 L 653.1773012310668 205.25233555348848 L 657.2209593336992 205.30804581082612 L 661.2733718230791 205.32645039985277 L 665.3320976774526 205.30753823433218 L 669.3946920721304 205.25132070624562 L 673.4587078521595 205.15783167893005 L 677.5216970063974 205.0271274666797 L 681.5812121421025 204.85928680082458 L 685.6348079591518 204.654410782306 L 689.680042722999 204.41262282077656 L 693.7144797354838 204.1340685602633 L 697.7356888026067 203.81891579143695 L 701.7412476983885 203.46735435054114 L 705.728743623928 203.07959600504216 L 709.6957746607816 202.65587432606804 L 713.6399512177896 202.19644454771435 L 717.5588974704763 201.70158341330017 L 721.4502527921578 201.17158900866906 L 725.3116731758959 200.6067805826325 L 729.1408326464386 200.00749835466667 L 732.9354246613028 199.37410330997733 L 736.6931635001475 198.70697698205498 L 740.4117856416073 198.0065212228543 L 744.089051126752 197.27315796073282 L 747.7227449083557 196.5073289462975 L 751.3106781851565 195.7094954863103 L 754.8506897203102 194.88013816581474 L 758.3406471432373 194.0197565586489 L 761.7784482340844 193.1288689265213 L 765.1620221900218 192.20801190682903 L 768.4893308726188 191.25774018940768 L 771.7583700355407 190.27862618240698 L 774.9671705318332 189.2712596674932 L 778.1137995000619 188.23624744458715 L 781.1963615285966 187.17421296635024 L 784.2129997973357 186.0857959626402 L 787.1618971961855 184.97165205516143 L 790.0412774196191 183.83245236254345 L 792.8494060366572 182.6688830960835 L 795.5845915356233 181.48164514639905 L 798.2451863430481 180.27145366123744 L 800.8295878161056 179.03903761469724 L 805.7636306056191 176.5105142229288 L 810.3748333629128 173.9021664054173 L 814.6520872966505 171.22027790051925 L 818.5850881274629 168.4713096125485 L 822.1643609118582 165.66188404689217 L 825.3812828681916 162.7987693558145 L 828.2281041497013 159.88886303338546 L 830.6979665145676 156.93917529881338 L 832.7849198480197 153.95681220821325 L 834.4839364966816 150.9489585354944 L 835.7909233806303 147.92286046361107 L 836.7027318539839 144.88580812787347 L 837.2171652902651 141.84511805337274 L 837.3329843742667 138.80811552883137 L 837.0499100876712 135.78211695934095 L 836.368624381229 132.7744122405016 L 835.2907685318806 129.79224719642474 L 833.8189391887762 126.84280612390836 L 831.9566821177202 123.9331944848368 L 829.7084836591114 121.07042178850043 L 827.0797599199554 118.26138470507385 L 824.0768437259889 115.51285045093374 L 820.7069693653474 112.8314404858416 L 816.9782551605322 110.22361456126691 L 812.899683910659 107.6956551582806 L 808.4810812511097 105.25365235250769 L 803.7330919827149 102.90348914260125 L 801.2391215896107 101.76462570198032 L 798.6671544274969 100.65082727758409 L 796.0187397532205 99.56276477993589 L 793.2954728727502 98.50109361719888 L 790.4989941802256 97.46645330038314 L 787.6309881698437 96.45946705812787 L 784.6931824211838 95.48074146129176 L 781.6873465585771 94.53086605757727 L 778.6152911851517 93.61041301640967 L 775.4788667921931 92.719936784283 L 772.2799626444773 91.85997375078222 L 769.020505642248 91.0310419254829 L 765.7024591605244 90.2336406259206 L 762.3278218664375 89.46825017682158 L 758.8986265153071 88.73533162077251 L 755.4169387261871 88.03532644050608 L 751.884855737613 87.36865629296784 L 748.3045051443038 86.73572275532638 L 744.6780436155792 86.1369070830778 L 741.007655596262 85.57256998039196 L 737.2955519908503 85.04305138283758 L 733.5439688317514 84.5486702526178 L 729.7551659323798 84.08972438643934 L 725.9314255259294 83.66649023613104 L 722.0750508906424 83.27922274211926 L 718.1883649623998 82.92815517986134 L 714.2737089354724 82.61349901932971 L 710.3334408522722 82.33544379762975 L 706.3699341829565 82.09415700482981 L 702.385576395738 81.88978398307137 L 698.3827675187626 81.72244783902107 L 694.3639186944235 81.59224936971475 L 690.3314507269778 81.4992670018421 L 686.2877926243456 81.44355674450446 L 682.2353801349658 81.4251521554778 L 678.1766542805922 81.4440643209984 L 674.1140598859143 81.5002818490849 L 670.0500441058851 81.59377087640053 L 665.9870549516473 81.72447508865088 L 661.9275398159424 81.89231575450594 L 657.8739439988929 82.09719177302458 L 653.8287092350456 82.33897973455402 L 649.794272222561 82.61753399506722 L 645.7730631554381 82.93268676389351 L 641.7675042596562 83.28424820478932 L 637.7800083341168 83.67200655028836 L 633.8129772972632 84.09572822926242 L 629.8688007402552 84.55515800761617 L 625.9498544875684 85.0500191420303 L 622.0584991658868 85.58001354666146 L 618.197078782149 86.14482197269803 L 614.3679193116062 86.7441042006638 L 610.5733272967418 87.37749924535319 L 606.8155884578971 88.04462557327548 L 603.0969663164374 88.7450813324761 L 599.4197008312926 89.47844459459765 L 595.7860070496889 90.24427360903297 L 592.1980737728882 91.04210706902018 L 588.6580622377344 91.87146438951572 L 585.1681048148073 92.73184599668156 L 581.7303037239602 93.6227336288091 L 578.3467297680228 94.54359064850144 L 575.0194210854258 95.49386236592272 L 571.7503819225041 96.47297637292343 L 568.5415814262117 97.4803428878372 L 565.3949524579828 98.51535511074326 L 562.3123904294481 99.57738958898011 L 559.295752160709 100.66580659269016 L 556.3468547618592 101.77995050016887 L 553.4674745384256 102.91915019278696 L 550.6593459213876 104.0827194592469 L 547.9241604224216 105.2699574089313 L 545.2635656149967 106.4801488940929 L 542.679164141939 107.71256494063311 L 537.7451213524256 110.24108833240143 L 533.1339185951318 112.849436149913 L 528.856664661394 115.53132465481104 L 524.9236638305817 118.28029294278178 L 521.3443910461864 121.08971850843807 L 518.127469089853 123.9528331995158 L 515.2806478083434 126.86273952194483 L 512.8107854434769 129.81242725651674 L 510.7238321100248 132.79479034711687 L 509.0248154613629 135.80264401983584 L 507.717828577414 138.8287420917191 L 506.8060201040603 141.86579442745676 L 506.29158666777914 144.90648450195744 L 506.1757675837773 147.94348702649876 L 506.233308856917 145.55622450360335" stroke-opacity="0.6980392156862745" stroke-linecap="round" stroke-linejoin="round" stroke-miterlimit="10" stroke-width="4"/><path fill="rgb(21,101,192)" stroke="none" paint-order="stroke fill markers" d=" M 246.87014339349298 789.1335199437881 C 246.87014339349298 791.8949436929421 244.63156714264696 794.1335199437881 241.87014339349298 794.1335199437881 C 239.108719644339 794.1335199437881 236.87014339349298 791.8949436929421 236.87014339349298 789.1335199437881 C 236.87014339349298 786.3720961946341 239.108719644339 784.1335199437881 241.87014339349298 784.1335199437881 C 244.63156714264696 784.1335199437881 246.87014339349298 786.3720961946341 246.87014339349298 789.1335199437881 Z" fill-opacity="1"/><path fill="none" stroke="rgb(0,0,0)" paint-order="fill stroke markers" d=" M 246.87014339349298 789.1335199437881 C 246.87014339349298 791.8949436929421 244.63156714264696 794.1335199437881 241.87014339349298 794.1335199437881 C 239.108719644339 794.1335199437881 236.87014339349298 791.8949436929421 236.87014339349298 789.1335199437881 C 236.87014339349298 786.3720961946341 239.108719644339 784.1335199437881 241.87014339349298 784.1335199437881 C 244.63156714264696 784.1335199437881 246.87014339349298 786.3720961946341 246.87014339349298 789.1335199437881 Z" stroke-opacity="1" stroke-linecap="round" stroke-linejoin="round" stroke-miterlimit="10"/><path fill="rgb(21,101,192)" stroke="none" paint-order="stroke fill markers" d=" M 577.5361869440006 787.5484303101165 C 577.5361869440006 790.3098540592705 575.2976106931546 792.5484303101165 572.5361869440006 792.5484303101165 C 569.7747631948466 792.5484303101165 567.5361869440006 790.3098540592705 567.5361869440006 787.5484303101165 C 567.5361869440006 784.7870065609625 569.7747631948466 782.5484303101165 572.5361869440006 782.5484303101165 C 575.2976106931546 782.5484303101165 577.5361869440006 784.7870065609625 577.5361869440006 787.5484303101165 Z" fill-opacity="1"/><path fill="none" stroke="rgb(0,0,0)" paint-order="fill stroke markers" d=" M 577.5361869440006 787.5484303101165 C 577.5361869440006 790.3098540592705 575.2976106931546 792.5484303101165 572.5361869440006 792.5484303101165 C 569.7747631948466 792.5484303101165 567.5361869440006 790.3098540592705 567.5361869440006 787.5484303101165 C 567.5361869440006 784.7870065609625 569.7747631948466 782.5484303101165 572.5361869440006 782.5484303101165 C 575.2976106931546 782.5484303101165 577.5361869440006 784.7870065609625 577.5361869440006 787.5484303101165 Z" stroke-opacity="1" stroke-linecap="round" stroke-linejoin="round" stroke-miterlimit="10"/><path fill="rgb(21,101,192)" stroke="none" paint-order="stroke fill markers" d=" M 511.233308856917 145.55622450360335 C 511.233308856917 148.31764825275732 508.99473260607095 150.55622450360335 506.233308856917 150.55622450360335 C 503.47188510776306 150.55622450360335 501.233308856917 148.31764825275732 501.233308856917 145.55622450360335 C 501.233308856917 142.79480075444937 503.47188510776306 140.55622450360335 506.233308856917 140.55622450360335 C 508.99473260607095 140.55622450360335 511.233308856917 142.79480075444937 511.233308856917 145.55622450360335 Z" fill-opacity="1"/><path fill="none" stroke="rgb(0,0,0)" paint-order="fill stroke markers" d=" M 511.233308856917 145.55622450360335 C 511.233308856917 148.31764825275732 508.99473260607095 150.55622450360335 506.233308856917 150.55622450360335 C 503.47188510776306 150.55622450360335 501.233308856917 148.31764825275732 501.233308856917 145.55622450360335 C 501.233308856917 142.79480075444937 503.47188510776306 140.55622450360335 506.233308856917 140.55622450360335 C 508.99473260607095 140.55622450360335 511.233308856917 142.79480075444937 511.233308856917 145.55622450360335 Z" stroke-opacity="1" stroke-linecap="round" stroke-linejoin="round" stroke-miterlimit="10"/><path fill="rgb(21,101,192)" stroke="none" paint-order="stroke fill markers" d=" M 841.8993524074248 143.9711348699317 C 841.8993524074248 146.73255861908567 839.6607761565788 148.9711348699317 836.8993524074248 148.9711348699317 C 834.1379286582708 148.9711348699317 831.8993524074248 146.73255861908567 831.8993524074248 143.9711348699317 C 831.8993524074248 141.2097111207777 834.1379286582708 138.9711348699317 836.8993524074248 138.9711348699317 C 839.6607761565788 138.9711348699317 841.8993524074248 141.2097111207777 841.8993524074248 143.9711348699317 Z" fill-opacity="1"/><path fill="none" stroke="rgb(0,0,0)" paint-order="fill stroke markers" d=" M 841.8993524074248 143.9711348699317 C 841.8993524074248 146.73255861908567 839.6607761565788 148.9711348699317 836.8993524074248 148.9711348699317 C 834.1379286582708 148.9711348699317 831.8993524074248 146.73255861908567 831.8993524074248 143.9711348699317 C 831.8993524074248 141.2097111207777 834.1379286582708 138.9711348699317 836.8993524074248 138.9711348699317 C 839.6607761565788 138.9711348699317 841.8993524074248 141.2097111207777 841.8993524074248 143.9711348699317 Z" stroke-opacity="1" stroke-linecap="round" stroke-linejoin="round" stroke-miterlimit="10"/><path fill="rgb(97,97,97)" stroke="none" paint-order="stroke fill markers" d=" M 843.9782763143022 786.2664127224725 C 843.9782763143022 788.4755517217957 842.1874153136254 790.2664127224725 839.9782763143022 790.2664127224725 C 837.769137314979 790.2664127224725 835.9782763143022 788.4755517217957 835.9782763143022 786.2664127224725 C 835.9782763143022 784.0572737231494 837.769137314979 782.2664127224725 839.9782763143022 782.2664127224725 C 842.1874153136254 782.2664127224725 843.9782763143022 784.0572737231494 843.9782763143022 786.2664127224725 Z" fill-opacity="1"/><path fill="none" stroke="rgb(0,0,0)" paint-order="fill stroke markers" d=" M 843.9782763143022 786.2664127224725 C 843.9782763143022 788.4755517217957 842.1874153136254 790.2664127224725 839.9782763143022 790.2664127224725 C 837.769137314979 790.2664127224725 835.9782763143022 788.4755517217957 835.9782763143022 786.2664127224725 C 835.9782763143022 784.0572737231494 837.769137314979 782.2664127224725 839.9782763143022 782.2664127224725 C 842.1874153136254 782.2664127224725 843.9782763143022 784.0572737231494 843.9782763143022 786.2664127224725 Z" stroke-opacity="1" stroke-linecap="round" stroke-linejoin="round" stroke-miterlimit="10"/><path fill="rgb(97,97,97)" stroke="none" paint-order="stroke fill markers" d=" M 675.566330632171 144.7636796867675 C 675.566330632171 146.97281868609065 673.7754696314942 148.7636796867675 671.566330632171 148.7636796867675 C 669.3571916328478 148.7636796867675 667.566330632171 146.97281868609065 667.566330632171 144.7636796867675 C 667.566330632171 142.5545406874443 669.3571916328478 140.7636796867675 671.566330632171 140.7636796867675 C 673.7754696314942 140.7636796867675 675.566330632171 142.5545406874443 675.566330632171 144.7636796867675 Z" fill-opacity="1"/><path fill="none" stroke="rgb(0,0,0)" paint-order="fill stroke markers" d=" M 675.566330632171 144.7636796867675 C 675.566330632171 146.97281868609065 673.7754696314942 148.7636796867675 671.566330632171 148.7636796867675 C 669.3571916328478 148.7636796867675 667.566330632171 146.97281868609065 667.566330632171 144.7636796867675 C 667.566330632171 142.5545406874443 669.3571916328478 140.7636796867675 671.566330632171 140.7636796867675 C 673.7754696314942 140.7636796867675 675.566330632171 142.5545406874443 675.566330632171 144.7636796867675 Z" stroke-opacity="1" stroke-linecap="round" stroke-linejoin="round" stroke-miterlimit="10"/><text fill="rgb(0,0,0)" stroke="none" font-family="geogebra-serif, serif" font-size="24px" font-style="normal" font-weight="normal" text-decoration="normal" x="309" y="447" text-anchor="start" dominant-baseline="alphabetic" fill-opacity="1">24 mm</text><text fill="rgb(0,0,0)" stroke="none" font-family="geogebra-serif, serif" font-size="24px" font-style="normal" font-weight="normal" text-decoration="normal" x="711" y="137" text-anchor="start" dominant-baseline="alphabetic" fill-opacity="1">4 mm</text><text fill="rgb(0,0,0)" stroke="none" font-family="geogebra-serif, serif" font-size="24px" font-style="normal" font-weight="normal" text-decoration="normal" x="667" y="781" text-anchor="start" dominant-baseline="alphabetic" fill-opacity="1">9 mm</text></g></g></svg>