<svg xmlns="http://www.w3.org/2000/svg" id="AreaDissectionBasicShapes-figure" width="550" height="370" viewBox="0 0 550 370">
  <defs>
    <clipPath id="AreaDissectionBasicShapes-__clipPath-0">
      <rect x="5.0" y="5.0" width="540.0" height="360.0"/>
    </clipPath>
    <clipPath id="AreaDissectionBasicShapes-__clipPath-1">
      <rect x="5.0" y="5.0" width="540.0" height="360.0"/>
    </clipPath>
  </defs>
  <g id="AreaDissectionBasicShapes-__group-0">
    <path id="AreaDissectionBasicShapes-__path-0" d="M 39.8 59.0 L 144.4 59.0 L 144.4 311.0 Z" stroke="black" stroke-width="2" fill="steelblue" fill-opacity="0.7" clip-path="url(#AreaDissectionBasicShapes-__clipPath-1)"/>
    <g id="AreaDissectionBasicShapes-__g-0">
      <g id="AreaDissectionBasicShapes-__label-0" transform="translate(34.8,54.0) translate(-13.6,-13.0)">
        <g id="AreaDissectionBasicShapes-__g-15">
          <svg xmlns:xlink="http://www.w3.org/1999/xlink" style="vertical-align: 0.000px" width="13.576px" height="12.960px" role="img" focusable="false" viewBox="0 -716 750 716" x="0.0" y="0.0">
            <defs>
              <path id="AreaDissectionBasicShapes-MJX-2-TEX-I-1D434" d="M208 74Q208 50 254 46Q272 46 272 35Q272 34 270 22Q267 8 264 4T251 0Q249 0 239 0T205 1T141 2Q70 2 50 0H42Q35 7 35 11Q37 38 48 46H62Q132 49 164 96Q170 102 345 401T523 704Q530 716 547 716H555H572Q578 707 578 706L606 383Q634 60 636 57Q641 46 701 46Q726 46 726 36Q726 34 723 22Q720 7 718 4T704 0Q701 0 690 0T651 1T578 2Q484 2 455 0H443Q437 6 437 9T439 27Q443 40 445 43L449 46H469Q523 49 533 63L521 213H283L249 155Q208 86 208 74ZM516 260Q516 271 504 416T490 562L463 519Q447 492 400 412L310 260L413 259Q516 259 516 260Z"/>
            </defs>
            <g stroke="currentColor" fill="currentColor" stroke-width="0" transform="scale(1,-1)">
              <g data-mml-node="math">
                <g data-mml-node="mi" data-semantic-type="identifier" data-semantic-role="latinletter" data-semantic-font="italic" data-semantic-annotation="clearspeak:simple" data-semantic-id="0" data-semantic-speech="upper A">
                  <use data-c="1D434" xlink:href="#AreaDissectionBasicShapes-MJX-2-TEX-I-1D434"/>
                </g>
              </g>
            </g>
          </svg>
        </g>
      </g>
      <circle cx="39.8" cy="59.0" r="4" stroke="black" stroke-width="2" fill="black"/>
    </g>
    <g id="AreaDissectionBasicShapes-__g-1">
      <g id="AreaDissectionBasicShapes-__label-1" transform="translate(149.4,54.0) translate(0.0,-12.4)">
        <g id="AreaDissectionBasicShapes-__g-16">
          <svg xmlns:xlink="http://www.w3.org/1999/xlink" style="vertical-align: 0.000px" width="14.984px" height="12.360px" role="img" focusable="false" viewBox="0 -683 828 683" x="0.0" y="0.0">
            <defs>
              <path id="AreaDissectionBasicShapes-MJX-3-TEX-I-1D437" d="M287 628Q287 635 230 637Q207 637 200 638T193 647Q193 655 197 667T204 682Q206 683 403 683Q570 682 590 682T630 676Q702 659 752 597T803 431Q803 275 696 151T444 3L430 1L236 0H125H72Q48 0 41 2T33 11Q33 13 36 25Q40 41 44 43T67 46Q94 46 127 49Q141 52 146 61Q149 65 218 339T287 628ZM703 469Q703 507 692 537T666 584T629 613T590 629T555 636Q553 636 541 636T512 636T479 637H436Q392 637 386 627Q384 623 313 339T242 52Q242 48 253 48T330 47Q335 47 349 47T373 46Q499 46 581 128Q617 164 640 212T683 339T703 469Z"/>
            </defs>
            <g stroke="currentColor" fill="currentColor" stroke-width="0" transform="scale(1,-1)">
              <g data-mml-node="math">
                <g data-mml-node="mi" data-semantic-type="identifier" data-semantic-role="latinletter" data-semantic-font="italic" data-semantic-annotation="clearspeak:simple" data-semantic-id="0" data-semantic-speech="upper D">
                  <use data-c="1D437" xlink:href="#AreaDissectionBasicShapes-MJX-3-TEX-I-1D437"/>
                </g>
              </g>
            </g>
          </svg>
        </g>
      </g>
      <circle cx="144.4" cy="59.0" r="4" stroke="black" stroke-width="2" fill="black"/>
    </g>
    <g id="AreaDissectionBasicShapes-__g-2">
      <g id="AreaDissectionBasicShapes-__label-2" transform="translate(144.4,319.0) translate(-6.9,-0.0)">
        <g id="AreaDissectionBasicShapes-__g-17">
          <svg xmlns:xlink="http://www.w3.org/1999/xlink" style="vertical-align: -0.400px" width="13.752px" height="13.160px" role="img" focusable="false" viewBox="0 -705 760 727" x="0.0" y="0.0">
            <defs>
              <path id="AreaDissectionBasicShapes-MJX-4-TEX-I-1D436" d="M50 252Q50 367 117 473T286 641T490 704Q580 704 633 653Q642 643 648 636T656 626L657 623Q660 623 684 649Q691 655 699 663T715 679T725 690L740 705H746Q760 705 760 698Q760 694 728 561Q692 422 692 421Q690 416 687 415T669 413H653Q647 419 647 422Q647 423 648 429T650 449T651 481Q651 552 619 605T510 659Q484 659 454 652T382 628T299 572T226 479Q194 422 175 346T156 222Q156 108 232 58Q280 24 350 24Q441 24 512 92T606 240Q610 253 612 255T628 257Q648 257 648 248Q648 243 647 239Q618 132 523 55T319 -22Q206 -22 128 53T50 252Z"/>
            </defs>
            <g stroke="currentColor" fill="currentColor" stroke-width="0" transform="scale(1,-1)">
              <g data-mml-node="math">
                <g data-mml-node="mi" data-semantic-type="identifier" data-semantic-role="latinletter" data-semantic-font="italic" data-semantic-annotation="clearspeak:simple" data-semantic-id="0" data-semantic-speech="upper C">
                  <use data-c="1D436" xlink:href="#AreaDissectionBasicShapes-MJX-4-TEX-I-1D436"/>
                </g>
              </g>
            </g>
          </svg>
        </g>
      </g>
      <circle cx="144.4" cy="311.0" r="4" stroke="black" stroke-width="2" fill="black"/>
    </g>
  </g>
  <path id="AreaDissectionBasicShapes-__path-1" d="M 39.8 59.0 L 39.8 311.0 L 144.4 311.0" stroke="#777" stroke-width="2" stroke-dasharray="6 6" fill="none" clip-path="url(#AreaDissectionBasicShapes-__clipPath-1)"/>
  <g id="AreaDissectionBasicShapes-__g-3">
    <g id="AreaDissectionBasicShapes-__label-3" transform="translate(34.8,316.0) translate(-13.7,-0.0)">
      <g id="AreaDissectionBasicShapes-__g-18">
        <svg xmlns:xlink="http://www.w3.org/1999/xlink" style="vertical-align: 0.000px" width="13.736px" height="12.360px" role="img" focusable="false" viewBox="0 -683 759 683" x="0.0" y="0.0">
          <defs>
            <path id="AreaDissectionBasicShapes-MJX-5-TEX-I-1D435" d="M231 637Q204 637 199 638T194 649Q194 676 205 682Q206 683 335 683Q594 683 608 681Q671 671 713 636T756 544Q756 480 698 429T565 360L555 357Q619 348 660 311T702 219Q702 146 630 78T453 1Q446 0 242 0Q42 0 39 2Q35 5 35 10Q35 17 37 24Q42 43 47 45Q51 46 62 46H68Q95 46 128 49Q142 52 147 61Q150 65 219 339T288 628Q288 635 231 637ZM649 544Q649 574 634 600T585 634Q578 636 493 637Q473 637 451 637T416 636H403Q388 635 384 626Q382 622 352 506Q352 503 351 500L320 374H401Q482 374 494 376Q554 386 601 434T649 544ZM595 229Q595 273 572 302T512 336Q506 337 429 337Q311 337 310 336Q310 334 293 263T258 122L240 52Q240 48 252 48T333 46Q422 46 429 47Q491 54 543 105T595 229Z"/>
          </defs>
          <g stroke="currentColor" fill="currentColor" stroke-width="0" transform="scale(1,-1)">
            <g data-mml-node="math">
              <g data-mml-node="mi" data-semantic-type="identifier" data-semantic-role="latinletter" data-semantic-font="italic" data-semantic-annotation="clearspeak:simple" data-semantic-id="0" data-semantic-speech="upper B">
                <use data-c="1D435" xlink:href="#AreaDissectionBasicShapes-MJX-5-TEX-I-1D435"/>
              </g>
            </g>
          </g>
        </svg>
      </g>
    </g>
    <circle cx="39.8" cy="311.0" r="4" stroke="black" stroke-width="2" fill="black"/>
  </g>
  <g id="AreaDissectionBasicShapes-__label-4" transform="translate(92.1,23.0) translate(-28.7,-6.7)">
    <g id="AreaDissectionBasicShapes-__g-19">
      <svg xmlns:xlink="http://www.w3.org/1999/xlink" style="vertical-align: -0.400px" width="57.392px" height="13.360px" role="img" focusable="false" viewBox="0 -716 3171 738" x="0.0" y="0.0">
        <defs>
          <path id="AreaDissectionBasicShapes-MJX-6-TEX-N-394" d="M51 0Q46 4 46 7Q46 9 215 357T388 709Q391 716 416 716Q439 716 444 709Q447 705 616 357T786 7Q786 4 781 0H51ZM507 344L384 596L137 92L383 91H630Q630 93 507 344Z"/>
          <path id="AreaDissectionBasicShapes-MJX-6-TEX-N-2062" d=""/>
          <path id="AreaDissectionBasicShapes-MJX-6-TEX-I-1D434" d="M208 74Q208 50 254 46Q272 46 272 35Q272 34 270 22Q267 8 264 4T251 0Q249 0 239 0T205 1T141 2Q70 2 50 0H42Q35 7 35 11Q37 38 48 46H62Q132 49 164 96Q170 102 345 401T523 704Q530 716 547 716H555H572Q578 707 578 706L606 383Q634 60 636 57Q641 46 701 46Q726 46 726 36Q726 34 723 22Q720 7 718 4T704 0Q701 0 690 0T651 1T578 2Q484 2 455 0H443Q437 6 437 9T439 27Q443 40 445 43L449 46H469Q523 49 533 63L521 213H283L249 155Q208 86 208 74ZM516 260Q516 271 504 416T490 562L463 519Q447 492 400 412L310 260L413 259Q516 259 516 260Z"/>
          <path id="AreaDissectionBasicShapes-MJX-6-TEX-I-1D437" d="M287 628Q287 635 230 637Q207 637 200 638T193 647Q193 655 197 667T204 682Q206 683 403 683Q570 682 590 682T630 676Q702 659 752 597T803 431Q803 275 696 151T444 3L430 1L236 0H125H72Q48 0 41 2T33 11Q33 13 36 25Q40 41 44 43T67 46Q94 46 127 49Q141 52 146 61Q149 65 218 339T287 628ZM703 469Q703 507 692 537T666 584T629 613T590 629T555 636Q553 636 541 636T512 636T479 637H436Q392 637 386 627Q384 623 313 339T242 52Q242 48 253 48T330 47Q335 47 349 47T373 46Q499 46 581 128Q617 164 640 212T683 339T703 469Z"/>
          <path id="AreaDissectionBasicShapes-MJX-6-TEX-I-1D436" d="M50 252Q50 367 117 473T286 641T490 704Q580 704 633 653Q642 643 648 636T656 626L657 623Q660 623 684 649Q691 655 699 663T715 679T725 690L740 705H746Q760 705 760 698Q760 694 728 561Q692 422 692 421Q690 416 687 415T669 413H653Q647 419 647 422Q647 423 648 429T650 449T651 481Q651 552 619 605T510 659Q484 659 454 652T382 628T299 572T226 479Q194 422 175 346T156 222Q156 108 232 58Q280 24 350 24Q441 24 512 92T606 240Q610 253 612 255T628 257Q648 257 648 248Q648 243 647 239Q618 132 523 55T319 -22Q206 -22 128 53T50 252Z"/>
        </defs>
        <g stroke="currentColor" fill="currentColor" stroke-width="0" transform="scale(1,-1)">
          <g data-mml-node="math" data-semantic-type="infixop" data-semantic-role="implicit" data-semantic-annotation="clearspeak:unit" data-semantic-id="7" data-semantic-children="0,1,2,3" data-semantic-content="4,5,6" data-semantic-speech="normal upper Delta upper A upper D upper C">
            <g data-mml-node="mi" data-semantic-type="identifier" data-semantic-role="greekletter" data-semantic-font="normal" data-semantic-annotation="clearspeak:simple" data-semantic-id="0" data-semantic-parent="7" data-semantic-speech="normal upper Delta">
              <use data-c="394" xlink:href="#AreaDissectionBasicShapes-MJX-6-TEX-N-394"/>
            </g>
            <g data-mml-node="mo" data-semantic-type="operator" data-semantic-role="multiplication" data-semantic-id="4" data-semantic-parent="7" data-semantic-added="true" data-semantic-operator="infixop,⁢" data-semantic-speech="times" transform="translate(833,0)">
              <use data-c="2062" xlink:href="#AreaDissectionBasicShapes-MJX-6-TEX-N-2062"/>
            </g>
            <g data-mml-node="mi" data-semantic-type="identifier" data-semantic-role="latinletter" data-semantic-font="italic" data-semantic-annotation="clearspeak:simple" data-semantic-id="1" data-semantic-parent="7" data-semantic-speech="upper A" transform="translate(833,0)">
              <use data-c="1D434" xlink:href="#AreaDissectionBasicShapes-MJX-6-TEX-I-1D434"/>
            </g>
            <g data-mml-node="mo" data-semantic-type="operator" data-semantic-role="multiplication" data-semantic-id="5" data-semantic-parent="7" data-semantic-added="true" data-semantic-operator="infixop,⁢" data-semantic-speech="times" transform="translate(1583,0)">
              <use data-c="2062" xlink:href="#AreaDissectionBasicShapes-MJX-6-TEX-N-2062"/>
            </g>
            <g data-mml-node="mi" data-semantic-type="identifier" data-semantic-role="latinletter" data-semantic-font="italic" data-semantic-annotation="clearspeak:simple" data-semantic-id="2" data-semantic-parent="7" data-semantic-speech="upper D" transform="translate(1583,0)">
              <use data-c="1D437" xlink:href="#AreaDissectionBasicShapes-MJX-6-TEX-I-1D437"/>
            </g>
            <g data-mml-node="mo" data-semantic-type="operator" data-semantic-role="multiplication" data-semantic-id="6" data-semantic-parent="7" data-semantic-added="true" data-semantic-operator="infixop,⁢" data-semantic-speech="times" transform="translate(2411,0)">
              <use data-c="2062" xlink:href="#AreaDissectionBasicShapes-MJX-6-TEX-N-2062"/>
            </g>
            <g data-mml-node="mi" data-semantic-type="identifier" data-semantic-role="latinletter" data-semantic-font="italic" data-semantic-annotation="clearspeak:simple" data-semantic-id="3" data-semantic-parent="7" data-semantic-speech="upper C" transform="translate(2411,0)">
              <use data-c="1D436" xlink:href="#AreaDissectionBasicShapes-MJX-6-TEX-I-1D436"/>
            </g>
          </g>
        </g>
      </svg>
    </g>
  </g>
  <g id="AreaDissectionBasicShapes-__label-5" transform="translate(92.1,55.0) scale(0.8,0.8) translate(-19.6,-10.6)">
    <g id="AreaDissectionBasicShapes-__g-20">
      <text font-family="sans-serif" font-size="14" x="0.0" y="10.4">6 cm.</text>
    </g>
  </g>
  <g id="AreaDissectionBasicShapes-__label-6" transform="translate(148.4,185.0) scale(0.8,0.8) translate(0.0,-5.2)">
    <g id="AreaDissectionBasicShapes-__g-21">
      <text font-family="sans-serif" font-size="14" x="0.0" y="10.2">14 cm.</text>
    </g>
  </g>
  <path id="AreaDissectionBasicShapes-__path-2" d="M 214.0 59.0 L 388.2 59.0 L 457.9 167.0 L 283.7 167.0 Z" stroke="black" stroke-width="2" fill="red" fill-opacity="0.5" clip-path="url(#AreaDissectionBasicShapes-__clipPath-1)"/>
  <g id="AreaDissectionBasicShapes-__g-4">
    <g id="AreaDissectionBasicShapes-__label-7" transform="translate(214.0,51.0) translate(-6.9,-12.3)">
      <g id="AreaDissectionBasicShapes-__g-22">
        <svg xmlns:xlink="http://www.w3.org/1999/xlink" style="vertical-align: 0.000px" width="13.832px" height="12.304px" role="img" focusable="false" viewBox="0 -680 764 680" x="0.0" y="0.0">
          <defs>
            <path id="AreaDissectionBasicShapes-MJX-7-TEX-I-1D438" d="M492 213Q472 213 472 226Q472 230 477 250T482 285Q482 316 461 323T364 330H312Q311 328 277 192T243 52Q243 48 254 48T334 46Q428 46 458 48T518 61Q567 77 599 117T670 248Q680 270 683 272Q690 274 698 274Q718 274 718 261Q613 7 608 2Q605 0 322 0H133Q31 0 31 11Q31 13 34 25Q38 41 42 43T65 46Q92 46 125 49Q139 52 144 61Q146 66 215 342T285 622Q285 629 281 629Q273 632 228 634H197Q191 640 191 642T193 659Q197 676 203 680H757Q764 676 764 669Q764 664 751 557T737 447Q735 440 717 440H705Q698 445 698 453L701 476Q704 500 704 528Q704 558 697 578T678 609T643 625T596 632T532 634H485Q397 633 392 631Q388 629 386 622Q385 619 355 499T324 377Q347 376 372 376H398Q464 376 489 391T534 472Q538 488 540 490T557 493Q562 493 565 493T570 492T572 491T574 487T577 483L544 351Q511 218 508 216Q505 213 492 213Z"/>
          </defs>
          <g stroke="currentColor" fill="currentColor" stroke-width="0" transform="scale(1,-1)">
            <g data-mml-node="math">
              <g data-mml-node="mi" data-semantic-type="identifier" data-semantic-role="latinletter" data-semantic-font="italic" data-semantic-annotation="clearspeak:simple" data-semantic-id="0" data-semantic-speech="upper E">
                <use data-c="1D438" xlink:href="#AreaDissectionBasicShapes-MJX-7-TEX-I-1D438"/>
              </g>
            </g>
          </g>
        </svg>
      </g>
    </g>
    <circle cx="214.0" cy="59.0" r="4" stroke="black" stroke-width="2" fill="black"/>
  </g>
  <g id="AreaDissectionBasicShapes-__g-5">
    <g id="AreaDissectionBasicShapes-__label-8" transform="translate(465.9,167.0) translate(0.0,-6.6)">
      <g id="AreaDissectionBasicShapes-__g-23">
        <svg xmlns:xlink="http://www.w3.org/1999/xlink" style="vertical-align: -0.400px" width="14.224px" height="13.160px" role="img" focusable="false" viewBox="0 -705 786 727" x="0.0" y="0.0">
          <defs>
            <path id="AreaDissectionBasicShapes-MJX-8-TEX-I-1D43A" d="M50 252Q50 367 117 473T286 641T490 704Q580 704 633 653Q642 643 648 636T656 626L657 623Q660 623 684 649Q691 655 699 663T715 679T725 690L740 705H746Q760 705 760 698Q760 694 728 561Q692 422 692 421Q690 416 687 415T669 413H653Q647 419 647 422Q647 423 648 429T650 449T651 481Q651 552 619 605T510 659Q492 659 471 656T418 643T357 615T294 567T236 496T189 394T158 260Q156 242 156 221Q156 173 170 136T206 79T256 45T308 28T353 24Q407 24 452 47T514 106Q517 114 529 161T541 214Q541 222 528 224T468 227H431Q425 233 425 235T427 254Q431 267 437 273H454Q494 271 594 271Q634 271 659 271T695 272T707 272Q721 272 721 263Q721 261 719 249Q714 230 709 228Q706 227 694 227Q674 227 653 224Q646 221 643 215T629 164Q620 131 614 108Q589 6 586 3Q584 1 581 1Q571 1 553 21T530 52Q530 53 528 52T522 47Q448 -22 322 -22Q201 -22 126 55T50 252Z"/>
          </defs>
          <g stroke="currentColor" fill="currentColor" stroke-width="0" transform="scale(1,-1)">
            <g data-mml-node="math">
              <g data-mml-node="mi" data-semantic-type="identifier" data-semantic-role="latinletter" data-semantic-font="italic" data-semantic-annotation="clearspeak:simple" data-semantic-id="0" data-semantic-speech="upper G">
                <use data-c="1D43A" xlink:href="#AreaDissectionBasicShapes-MJX-8-TEX-I-1D43A"/>
              </g>
            </g>
          </g>
        </svg>
      </g>
    </g>
    <circle cx="457.9" cy="167.0" r="4" stroke="black" stroke-width="2" fill="black"/>
  </g>
  <g id="AreaDissectionBasicShapes-__g-6">
    <g id="AreaDissectionBasicShapes-__label-9" transform="translate(388.2,51.0) translate(-6.8,-12.3)">
      <g id="AreaDissectionBasicShapes-__g-24">
        <svg xmlns:xlink="http://www.w3.org/1999/xlink" style="vertical-align: 0.000px" width="13.560px" height="12.304px" role="img" focusable="false" viewBox="0 -680 749 680" x="0.0" y="0.0">
          <defs>
            <path id="AreaDissectionBasicShapes-MJX-9-TEX-I-1D439" d="M48 1Q31 1 31 11Q31 13 34 25Q38 41 42 43T65 46Q92 46 125 49Q139 52 144 61Q146 66 215 342T285 622Q285 629 281 629Q273 632 228 634H197Q191 640 191 642T193 659Q197 676 203 680H742Q749 676 749 669Q749 664 736 557T722 447Q720 440 702 440H690Q683 445 683 453Q683 454 686 477T689 530Q689 560 682 579T663 610T626 626T575 633T503 634H480Q398 633 393 631Q388 629 386 623Q385 622 352 492L320 363H375Q378 363 398 363T426 364T448 367T472 374T489 386Q502 398 511 419T524 457T529 475Q532 480 548 480H560Q567 475 567 470Q567 467 536 339T502 207Q500 200 482 200H470Q463 206 463 212Q463 215 468 234T473 274Q473 303 453 310T364 317H309L277 190Q245 66 245 60Q245 46 334 46H359Q365 40 365 39T363 19Q359 6 353 0H336Q295 2 185 2Q120 2 86 2T48 1Z"/>
          </defs>
          <g stroke="currentColor" fill="currentColor" stroke-width="0" transform="scale(1,-1)">
            <g data-mml-node="math">
              <g data-mml-node="mi" data-semantic-type="identifier" data-semantic-role="latinletter" data-semantic-font="italic" data-semantic-annotation="clearspeak:simple" data-semantic-id="0" data-semantic-speech="upper F">
                <use data-c="1D439" xlink:href="#AreaDissectionBasicShapes-MJX-9-TEX-I-1D439"/>
              </g>
            </g>
          </g>
        </svg>
      </g>
    </g>
    <circle cx="388.2" cy="59.0" r="4" stroke="black" stroke-width="2" fill="black"/>
  </g>
  <g id="AreaDissectionBasicShapes-__g-7">
    <g id="AreaDissectionBasicShapes-__label-10" transform="translate(275.7,167.0) translate(-16.1,-6.2)">
      <g id="AreaDissectionBasicShapes-__g-25">
        <svg xmlns:xlink="http://www.w3.org/1999/xlink" style="vertical-align: 0.000px" width="16.072px" height="12.360px" role="img" focusable="false" viewBox="0 -683 888 683" x="0.0" y="0.0">
          <defs>
            <path id="AreaDissectionBasicShapes-MJX-10-TEX-I-1D43B" d="M228 637Q194 637 192 641Q191 643 191 649Q191 673 202 682Q204 683 219 683Q260 681 355 681Q389 681 418 681T463 682T483 682Q499 682 499 672Q499 670 497 658Q492 641 487 638H485Q483 638 480 638T473 638T464 637T455 637Q416 636 405 634T387 623Q384 619 355 500Q348 474 340 442T328 395L324 380Q324 378 469 378H614L615 381Q615 384 646 504Q674 619 674 627T617 637Q594 637 587 639T580 648Q580 650 582 660Q586 677 588 679T604 682Q609 682 646 681T740 680Q802 680 835 681T871 682Q888 682 888 672Q888 645 876 638H874Q872 638 869 638T862 638T853 637T844 637Q805 636 794 634T776 623Q773 618 704 340T634 58Q634 51 638 51Q646 48 692 46H723Q729 38 729 37T726 19Q722 6 716 0H701Q664 2 567 2Q533 2 504 2T458 2T437 1Q420 1 420 10Q420 15 423 24Q428 43 433 45Q437 46 448 46H454Q481 46 514 49Q520 50 522 50T528 55T534 64T540 82T547 110T558 153Q565 181 569 198Q602 330 602 331T457 332H312L279 197Q245 63 245 58Q245 51 253 49T303 46H334Q340 38 340 37T337 19Q333 6 327 0H312Q275 2 178 2Q144 2 115 2T69 2T48 1Q31 1 31 10Q31 12 34 24Q39 43 44 45Q48 46 59 46H65Q92 46 125 49Q139 52 144 61Q147 65 216 339T285 628Q285 635 228 637Z"/>
          </defs>
          <g stroke="currentColor" fill="currentColor" stroke-width="0" transform="scale(1,-1)">
            <g data-mml-node="math">
              <g data-mml-node="mi" data-semantic-type="identifier" data-semantic-role="latinletter" data-semantic-font="italic" data-semantic-annotation="clearspeak:simple" data-semantic-id="0" data-semantic-speech="upper H">
                <use data-c="1D43B" xlink:href="#AreaDissectionBasicShapes-MJX-10-TEX-I-1D43B"/>
              </g>
            </g>
          </g>
        </svg>
      </g>
    </g>
    <circle cx="283.7" cy="167.0" r="4" stroke="black" stroke-width="2" fill="black"/>
  </g>
  <g id="AreaDissectionBasicShapes-__label-11" transform="translate(370.8,171.0) scale(0.8,0.8) translate(-24.0,-0.0)">
    <g id="AreaDissectionBasicShapes-__g-26">
      <text font-family="sans-serif" font-size="14" x="0.0" y="10.4">10 cm.</text>
    </g>
  </g>
  <g id="AreaDissectionBasicShapes-__g-8">
    <g id="AreaDissectionBasicShapes-__label-12" transform="translate(462.9,54.0) translate(0.0,-12.4)">
      <g id="AreaDissectionBasicShapes-__g-27">
        <svg xmlns:xlink="http://www.w3.org/1999/xlink" style="vertical-align: 0.000px" width="16.072px" height="12.360px" role="img" focusable="false" viewBox="0 -683 888 683" x="0.0" y="0.0">
          <defs>
            <path id="AreaDissectionBasicShapes-MJX-11-TEX-I-1D441" d="M234 637Q231 637 226 637Q201 637 196 638T191 649Q191 676 202 682Q204 683 299 683Q376 683 387 683T401 677Q612 181 616 168L670 381Q723 592 723 606Q723 633 659 637Q635 637 635 648Q635 650 637 660Q641 676 643 679T653 683Q656 683 684 682T767 680Q817 680 843 681T873 682Q888 682 888 672Q888 650 880 642Q878 637 858 637Q787 633 769 597L620 7Q618 0 599 0Q585 0 582 2Q579 5 453 305L326 604L261 344Q196 88 196 79Q201 46 268 46H278Q284 41 284 38T282 19Q278 6 272 0H259Q228 2 151 2Q123 2 100 2T63 2T46 1Q31 1 31 10Q31 14 34 26T39 40Q41 46 62 46Q130 49 150 85Q154 91 221 362L289 634Q287 635 234 637Z"/>
          </defs>
          <g stroke="currentColor" fill="currentColor" stroke-width="0" transform="scale(1,-1)">
            <g data-mml-node="math">
              <g data-mml-node="mi" data-semantic-type="identifier" data-semantic-role="latinletter" data-semantic-font="italic" data-semantic-annotation="clearspeak:simple" data-semantic-id="0" data-semantic-speech="upper N">
                <use data-c="1D441" xlink:href="#AreaDissectionBasicShapes-MJX-11-TEX-I-1D441"/>
              </g>
            </g>
          </g>
        </svg>
      </g>
    </g>
    <circle cx="457.9" cy="59.0" r="4" stroke="black" stroke-width="2" fill="black"/>
  </g>
  <g id="AreaDissectionBasicShapes-__g-9">
    <g id="AreaDissectionBasicShapes-__label-13" transform="translate(283.7,51.0) translate(-9.5,-12.4)">
      <g id="AreaDissectionBasicShapes-__g-28">
        <svg xmlns:xlink="http://www.w3.org/1999/xlink" style="vertical-align: 0.000px" width="19.024px" height="12.360px" role="img" focusable="false" viewBox="0 -683 1051 683" x="0.0" y="0.0">
          <defs>
            <path id="AreaDissectionBasicShapes-MJX-12-TEX-I-1D440" d="M289 629Q289 635 232 637Q208 637 201 638T194 648Q194 649 196 659Q197 662 198 666T199 671T201 676T203 679T207 681T212 683T220 683T232 684Q238 684 262 684T307 683Q386 683 398 683T414 678Q415 674 451 396L487 117L510 154Q534 190 574 254T662 394Q837 673 839 675Q840 676 842 678T846 681L852 683H948Q965 683 988 683T1017 684Q1051 684 1051 673Q1051 668 1048 656T1045 643Q1041 637 1008 637Q968 636 957 634T939 623Q936 618 867 340T797 59Q797 55 798 54T805 50T822 48T855 46H886Q892 37 892 35Q892 19 885 5Q880 0 869 0Q864 0 828 1T736 2Q675 2 644 2T609 1Q592 1 592 11Q592 13 594 25Q598 41 602 43T625 46Q652 46 685 49Q699 52 704 61Q706 65 742 207T813 490T848 631L654 322Q458 10 453 5Q451 4 449 3Q444 0 433 0Q418 0 415 7Q413 11 374 317L335 624L267 354Q200 88 200 79Q206 46 272 46H282Q288 41 289 37T286 19Q282 3 278 1Q274 0 267 0Q265 0 255 0T221 1T157 2Q127 2 95 1T58 0Q43 0 39 2T35 11Q35 13 38 25T43 40Q45 46 65 46Q135 46 154 86Q158 92 223 354T289 629Z"/>
          </defs>
          <g stroke="currentColor" fill="currentColor" stroke-width="0" transform="scale(1,-1)">
            <g data-mml-node="math">
              <g data-mml-node="mi" data-semantic-type="identifier" data-semantic-role="latinletter" data-semantic-font="italic" data-semantic-annotation="clearspeak:simple" data-semantic-id="0" data-semantic-speech="upper M">
                <use data-c="1D440" xlink:href="#AreaDissectionBasicShapes-MJX-12-TEX-I-1D440"/>
              </g>
            </g>
          </g>
        </svg>
      </g>
    </g>
    <circle cx="283.7" cy="59.0" r="4" stroke="black" stroke-width="2" fill="black"/>
  </g>
  <path id="AreaDissectionBasicShapes-__path-3" d="M 283.7 59.0 L 283.7 167.0" stroke="#777" stroke-width="2" stroke-dasharray="6 6" fill="none" clip-path="url(#AreaDissectionBasicShapes-__clipPath-1)"/>
  <path id="AreaDissectionBasicShapes-__path-4" d="M 388.2 59.0 L 457.9 59.0 L 457.9 167.0" stroke="#777" stroke-width="2" stroke-dasharray="6 6" fill="none" clip-path="url(#AreaDissectionBasicShapes-__clipPath-1)"/>
  <g id="AreaDissectionBasicShapes-__label-14" transform="translate(461.9,113.0) scale(0.8,0.8) translate(0.0,-5.3)">
    <g id="AreaDissectionBasicShapes-__g-29">
      <text font-family="sans-serif" font-size="14" x="0.0" y="10.4">6 cm.</text>
    </g>
  </g>
  <g id="AreaDissectionBasicShapes-__label-15" transform="translate(423.1,55.0) scale(0.8,0.8) translate(-19.6,-10.4)">
    <g id="AreaDissectionBasicShapes-__g-30">
      <text font-family="sans-serif" font-size="14" x="0.0" y="10.2">4 cm.</text>
    </g>
  </g>
  <g id="AreaDissectionBasicShapes-__label-16" transform="translate(301.1,23.0) translate(-86.3,-7.9)">
    <g id="AreaDissectionBasicShapes-__g-31">
      <text font-family="sans-serif" font-size="14" font-weight="bold" x="0.0" y="12.8">Parallelogram</text>
      <svg xmlns:xlink="http://www.w3.org/1999/xlink" style="vertical-align: -0.400px" width="57.680px" height="13.160px" role="img" focusable="false" viewBox="0 -705 3187 727" x="115.0" y="0.0">
        <defs>
          <path id="AreaDissectionBasicShapes-MJX-13-TEX-I-1D438" d="M492 213Q472 213 472 226Q472 230 477 250T482 285Q482 316 461 323T364 330H312Q311 328 277 192T243 52Q243 48 254 48T334 46Q428 46 458 48T518 61Q567 77 599 117T670 248Q680 270 683 272Q690 274 698 274Q718 274 718 261Q613 7 608 2Q605 0 322 0H133Q31 0 31 11Q31 13 34 25Q38 41 42 43T65 46Q92 46 125 49Q139 52 144 61Q146 66 215 342T285 622Q285 629 281 629Q273 632 228 634H197Q191 640 191 642T193 659Q197 676 203 680H757Q764 676 764 669Q764 664 751 557T737 447Q735 440 717 440H705Q698 445 698 453L701 476Q704 500 704 528Q704 558 697 578T678 609T643 625T596 632T532 634H485Q397 633 392 631Q388 629 386 622Q385 619 355 499T324 377Q347 376 372 376H398Q464 376 489 391T534 472Q538 488 540 490T557 493Q562 493 565 493T570 492T572 491T574 487T577 483L544 351Q511 218 508 216Q505 213 492 213Z"/>
          <path id="AreaDissectionBasicShapes-MJX-13-TEX-N-2062" d=""/>
          <path id="AreaDissectionBasicShapes-MJX-13-TEX-I-1D439" d="M48 1Q31 1 31 11Q31 13 34 25Q38 41 42 43T65 46Q92 46 125 49Q139 52 144 61Q146 66 215 342T285 622Q285 629 281 629Q273 632 228 634H197Q191 640 191 642T193 659Q197 676 203 680H742Q749 676 749 669Q749 664 736 557T722 447Q720 440 702 440H690Q683 445 683 453Q683 454 686 477T689 530Q689 560 682 579T663 610T626 626T575 633T503 634H480Q398 633 393 631Q388 629 386 623Q385 622 352 492L320 363H375Q378 363 398 363T426 364T448 367T472 374T489 386Q502 398 511 419T524 457T529 475Q532 480 548 480H560Q567 475 567 470Q567 467 536 339T502 207Q500 200 482 200H470Q463 206 463 212Q463 215 468 234T473 274Q473 303 453 310T364 317H309L277 190Q245 66 245 60Q245 46 334 46H359Q365 40 365 39T363 19Q359 6 353 0H336Q295 2 185 2Q120 2 86 2T48 1Z"/>
          <path id="AreaDissectionBasicShapes-MJX-13-TEX-I-1D43A" d="M50 252Q50 367 117 473T286 641T490 704Q580 704 633 653Q642 643 648 636T656 626L657 623Q660 623 684 649Q691 655 699 663T715 679T725 690L740 705H746Q760 705 760 698Q760 694 728 561Q692 422 692 421Q690 416 687 415T669 413H653Q647 419 647 422Q647 423 648 429T650 449T651 481Q651 552 619 605T510 659Q492 659 471 656T418 643T357 615T294 567T236 496T189 394T158 260Q156 242 156 221Q156 173 170 136T206 79T256 45T308 28T353 24Q407 24 452 47T514 106Q517 114 529 161T541 214Q541 222 528 224T468 227H431Q425 233 425 235T427 254Q431 267 437 273H454Q494 271 594 271Q634 271 659 271T695 272T707 272Q721 272 721 263Q721 261 719 249Q714 230 709 228Q706 227 694 227Q674 227 653 224Q646 221 643 215T629 164Q620 131 614 108Q589 6 586 3Q584 1 581 1Q571 1 553 21T530 52Q530 53 528 52T522 47Q448 -22 322 -22Q201 -22 126 55T50 252Z"/>
          <path id="AreaDissectionBasicShapes-MJX-13-TEX-I-1D43B" d="M228 637Q194 637 192 641Q191 643 191 649Q191 673 202 682Q204 683 219 683Q260 681 355 681Q389 681 418 681T463 682T483 682Q499 682 499 672Q499 670 497 658Q492 641 487 638H485Q483 638 480 638T473 638T464 637T455 637Q416 636 405 634T387 623Q384 619 355 500Q348 474 340 442T328 395L324 380Q324 378 469 378H614L615 381Q615 384 646 504Q674 619 674 627T617 637Q594 637 587 639T580 648Q580 650 582 660Q586 677 588 679T604 682Q609 682 646 681T740 680Q802 680 835 681T871 682Q888 682 888 672Q888 645 876 638H874Q872 638 869 638T862 638T853 637T844 637Q805 636 794 634T776 623Q773 618 704 340T634 58Q634 51 638 51Q646 48 692 46H723Q729 38 729 37T726 19Q722 6 716 0H701Q664 2 567 2Q533 2 504 2T458 2T437 1Q420 1 420 10Q420 15 423 24Q428 43 433 45Q437 46 448 46H454Q481 46 514 49Q520 50 522 50T528 55T534 64T540 82T547 110T558 153Q565 181 569 198Q602 330 602 331T457 332H312L279 197Q245 63 245 58Q245 51 253 49T303 46H334Q340 38 340 37T337 19Q333 6 327 0H312Q275 2 178 2Q144 2 115 2T69 2T48 1Q31 1 31 10Q31 12 34 24Q39 43 44 45Q48 46 59 46H65Q92 46 125 49Q139 52 144 61Q147 65 216 339T285 628Q285 635 228 637Z"/>
        </defs>
        <g stroke="currentColor" fill="currentColor" stroke-width="0" transform="scale(1,-1)">
          <g data-mml-node="math" data-semantic-type="infixop" data-semantic-role="implicit" data-semantic-annotation="clearspeak:unit" data-semantic-id="7" data-semantic-children="0,1,2,3" data-semantic-content="4,5,6" data-semantic-speech="upper E upper F upper G upper H">
            <g data-mml-node="mi" data-semantic-type="identifier" data-semantic-role="latinletter" data-semantic-font="italic" data-semantic-annotation="clearspeak:simple" data-semantic-id="0" data-semantic-parent="7" data-semantic-speech="upper E">
              <use data-c="1D438" xlink:href="#AreaDissectionBasicShapes-MJX-13-TEX-I-1D438"/>
            </g>
            <g data-mml-node="mo" data-semantic-type="operator" data-semantic-role="multiplication" data-semantic-id="4" data-semantic-parent="7" data-semantic-added="true" data-semantic-operator="infixop,⁢" data-semantic-speech="times" transform="translate(764,0)">
              <use data-c="2062" xlink:href="#AreaDissectionBasicShapes-MJX-13-TEX-N-2062"/>
            </g>
            <g data-mml-node="mi" data-semantic-type="identifier" data-semantic-role="latinletter" data-semantic-font="italic" data-semantic-annotation="clearspeak:simple" data-semantic-id="1" data-semantic-parent="7" data-semantic-speech="upper F" transform="translate(764,0)">
              <use data-c="1D439" xlink:href="#AreaDissectionBasicShapes-MJX-13-TEX-I-1D439"/>
            </g>
            <g data-mml-node="mo" data-semantic-type="operator" data-semantic-role="multiplication" data-semantic-id="5" data-semantic-parent="7" data-semantic-added="true" data-semantic-operator="infixop,⁢" data-semantic-speech="times" transform="translate(1513,0)">
              <use data-c="2062" xlink:href="#AreaDissectionBasicShapes-MJX-13-TEX-N-2062"/>
            </g>
            <g data-mml-node="mi" data-semantic-type="identifier" data-semantic-role="latinletter" data-semantic-font="italic" data-semantic-annotation="clearspeak:simple" data-semantic-id="2" data-semantic-parent="7" data-semantic-speech="upper G" transform="translate(1513,0)">
              <use data-c="1D43A" xlink:href="#AreaDissectionBasicShapes-MJX-13-TEX-I-1D43A"/>
            </g>
            <g data-mml-node="mo" data-semantic-type="operator" data-semantic-role="multiplication" data-semantic-id="6" data-semantic-parent="7" data-semantic-added="true" data-semantic-operator="infixop,⁢" data-semantic-speech="times" transform="translate(2299,0)">
              <use data-c="2062" xlink:href="#AreaDissectionBasicShapes-MJX-13-TEX-N-2062"/>
            </g>
            <g data-mml-node="mi" data-semantic-type="identifier" data-semantic-role="latinletter" data-semantic-font="italic" data-semantic-annotation="clearspeak:simple" data-semantic-id="3" data-semantic-parent="7" data-semantic-speech="upper H" transform="translate(2299,0)">
              <use data-c="1D43B" xlink:href="#AreaDissectionBasicShapes-MJX-13-TEX-I-1D43B"/>
            </g>
          </g>
        </g>
      </svg>
    </g>
  </g>
  <path id="AreaDissectionBasicShapes-__path-5" d="M 196.6 311.0 L 301.1 203.0 L 475.3 203.0 L 475.3 311.0 Z" stroke="black" stroke-width="2" fill="lightgreen" fill-opacity="0.4" clip-path="url(#AreaDissectionBasicShapes-__clipPath-1)"/>
  <g id="AreaDissectionBasicShapes-__g-10">
    <g id="AreaDissectionBasicShapes-__label-17" transform="translate(191.6,316.0) translate(-11.5,-0.0)">
      <g id="AreaDissectionBasicShapes-__g-32">
        <svg xmlns:xlink="http://www.w3.org/1999/xlink" style="vertical-align: -0.400px" width="11.456px" height="12.760px" role="img" focusable="false" viewBox="0 -683 633 705" x="0.0" y="0.0">
          <defs>
            <path id="AreaDissectionBasicShapes-MJX-14-TEX-I-1D43D" d="M447 625Q447 637 354 637H329Q323 642 323 645T325 664Q329 677 335 683H352Q393 681 498 681Q541 681 568 681T605 682T619 682Q633 682 633 672Q633 670 630 658Q626 642 623 640T604 637Q552 637 545 623Q541 610 483 376Q420 128 419 127Q397 64 333 21T195 -22Q137 -22 97 8T57 88Q57 130 80 152T132 174Q177 174 182 130Q182 98 164 80T123 56Q115 54 115 53T122 44Q148 15 197 15Q235 15 271 47T324 130Q328 142 387 380T447 625Z"/>
          </defs>
          <g stroke="currentColor" fill="currentColor" stroke-width="0" transform="scale(1,-1)">
            <g data-mml-node="math">
              <g data-mml-node="mi" data-semantic-type="identifier" data-semantic-role="latinletter" data-semantic-font="italic" data-semantic-annotation="clearspeak:simple" data-semantic-id="0" data-semantic-speech="upper J">
                <use data-c="1D43D" xlink:href="#AreaDissectionBasicShapes-MJX-14-TEX-I-1D43D"/>
              </g>
            </g>
          </g>
        </svg>
      </g>
    </g>
    <circle cx="196.6" cy="311.0" r="4" stroke="black" stroke-width="2" fill="black"/>
  </g>
  <g id="AreaDissectionBasicShapes-__g-11">
    <g id="AreaDissectionBasicShapes-__label-18" transform="translate(293.1,203.0) translate(-9.1,-6.2)">
      <g id="AreaDissectionBasicShapes-__g-33">
        <svg xmlns:xlink="http://www.w3.org/1999/xlink" style="vertical-align: 0.000px" width="9.120px" height="12.360px" role="img" focusable="false" viewBox="0 -683 504 683" x="0.0" y="0.0">
          <defs>
            <path id="AreaDissectionBasicShapes-MJX-15-TEX-I-1D43C" d="M43 1Q26 1 26 10Q26 12 29 24Q34 43 39 45Q42 46 54 46H60Q120 46 136 53Q137 53 138 54Q143 56 149 77T198 273Q210 318 216 344Q286 624 286 626Q284 630 284 631Q274 637 213 637H193Q184 643 189 662Q193 677 195 680T209 683H213Q285 681 359 681Q481 681 487 683H497Q504 676 504 672T501 655T494 639Q491 637 471 637Q440 637 407 634Q393 631 388 623Q381 609 337 432Q326 385 315 341Q245 65 245 59Q245 52 255 50T307 46H339Q345 38 345 37T342 19Q338 6 332 0H316Q279 2 179 2Q143 2 113 2T65 2T43 1Z"/>
          </defs>
          <g stroke="currentColor" fill="currentColor" stroke-width="0" transform="scale(1,-1)">
            <g data-mml-node="math">
              <g data-mml-node="mi" data-semantic-type="identifier" data-semantic-role="latinletter" data-semantic-font="italic" data-semantic-annotation="clearspeak:simple" data-semantic-id="0" data-semantic-speech="upper I">
                <use data-c="1D43C" xlink:href="#AreaDissectionBasicShapes-MJX-15-TEX-I-1D43C"/>
              </g>
            </g>
          </g>
        </svg>
      </g>
    </g>
    <circle cx="301.1" cy="203.0" r="4" stroke="black" stroke-width="2" fill="black"/>
  </g>
  <g id="AreaDissectionBasicShapes-__g-12">
    <g id="AreaDissectionBasicShapes-__label-19" transform="translate(483.3,203.0) translate(0.0,-6.2)">
      <g id="AreaDissectionBasicShapes-__g-34">
        <svg xmlns:xlink="http://www.w3.org/1999/xlink" style="vertical-align: 0.000px" width="12.328px" height="12.360px" role="img" focusable="false" viewBox="0 -683 681 683" x="0.0" y="0.0">
          <defs>
            <path id="AreaDissectionBasicShapes-MJX-16-TEX-I-1D43F" d="M228 637Q194 637 192 641Q191 643 191 649Q191 673 202 682Q204 683 217 683Q271 680 344 680Q485 680 506 683H518Q524 677 524 674T522 656Q517 641 513 637H475Q406 636 394 628Q387 624 380 600T313 336Q297 271 279 198T252 88L243 52Q243 48 252 48T311 46H328Q360 46 379 47T428 54T478 72T522 106T564 161Q580 191 594 228T611 270Q616 273 628 273H641Q647 264 647 262T627 203T583 83T557 9Q555 4 553 3T537 0T494 -1Q483 -1 418 -1T294 0H116Q32 0 32 10Q32 17 34 24Q39 43 44 45Q48 46 59 46H65Q92 46 125 49Q139 52 144 61Q147 65 216 339T285 628Q285 635 228 637Z"/>
          </defs>
          <g stroke="currentColor" fill="currentColor" stroke-width="0" transform="scale(1,-1)">
            <g data-mml-node="math">
              <g data-mml-node="mi" data-semantic-type="identifier" data-semantic-role="latinletter" data-semantic-font="italic" data-semantic-annotation="clearspeak:simple" data-semantic-id="0" data-semantic-speech="upper L">
                <use data-c="1D43F" xlink:href="#AreaDissectionBasicShapes-MJX-16-TEX-I-1D43F"/>
              </g>
            </g>
          </g>
        </svg>
      </g>
    </g>
    <circle cx="475.3" cy="203.0" r="4" stroke="black" stroke-width="2" fill="black"/>
  </g>
  <g id="AreaDissectionBasicShapes-__g-13">
    <g id="AreaDissectionBasicShapes-__label-20" transform="translate(480.3,316.0) translate(0.0,-0.0)">
      <g id="AreaDissectionBasicShapes-__g-35">
        <svg xmlns:xlink="http://www.w3.org/1999/xlink" style="vertical-align: 0.000px" width="16.088px" height="12.360px" role="img" focusable="false" viewBox="0 -683 889 683" x="0.0" y="0.0">
          <defs>
            <path id="AreaDissectionBasicShapes-MJX-17-TEX-I-1D43E" d="M285 628Q285 635 228 637Q205 637 198 638T191 647Q191 649 193 661Q199 681 203 682Q205 683 214 683H219Q260 681 355 681Q389 681 418 681T463 682T483 682Q500 682 500 674Q500 669 497 660Q496 658 496 654T495 648T493 644T490 641T486 639T479 638T470 637T456 637Q416 636 405 634T387 623L306 305Q307 305 490 449T678 597Q692 611 692 620Q692 635 667 637Q651 637 651 648Q651 650 654 662T659 677Q662 682 676 682Q680 682 711 681T791 680Q814 680 839 681T869 682Q889 682 889 672Q889 650 881 642Q878 637 862 637Q787 632 726 586Q710 576 656 534T556 455L509 418L518 396Q527 374 546 329T581 244Q656 67 661 61Q663 59 666 57Q680 47 717 46H738Q744 38 744 37T741 19Q737 6 731 0H720Q680 3 625 3Q503 3 488 0H478Q472 6 472 9T474 27Q478 40 480 43T491 46H494Q544 46 544 71Q544 75 517 141T485 216L427 354L359 301L291 248L268 155Q245 63 245 58Q245 51 253 49T303 46H334Q340 37 340 35Q340 19 333 5Q328 0 317 0Q314 0 280 1T180 2Q118 2 85 2T49 1Q31 1 31 11Q31 13 34 25Q38 41 42 43T65 46Q92 46 125 49Q139 52 144 61Q147 65 216 339T285 628Z"/>
          </defs>
          <g stroke="currentColor" fill="currentColor" stroke-width="0" transform="scale(1,-1)">
            <g data-mml-node="math">
              <g data-mml-node="mi" data-semantic-type="identifier" data-semantic-role="latinletter" data-semantic-font="italic" data-semantic-annotation="clearspeak:simple" data-semantic-id="0" data-semantic-speech="upper K">
                <use data-c="1D43E" xlink:href="#AreaDissectionBasicShapes-MJX-17-TEX-I-1D43E"/>
              </g>
            </g>
          </g>
        </svg>
      </g>
    </g>
    <circle cx="475.3" cy="311.0" r="4" stroke="black" stroke-width="2" fill="black"/>
  </g>
  <g id="AreaDissectionBasicShapes-__g-14">
    <g id="AreaDissectionBasicShapes-__label-21" transform="translate(306.1,306.0) translate(0.0,-13.1)">
      <g id="AreaDissectionBasicShapes-__g-36">
        <svg xmlns:xlink="http://www.w3.org/1999/xlink" style="vertical-align: -0.400px" width="13.808px" height="13.144px" role="img" focusable="false" viewBox="0 -704 763 726" x="0.0" y="0.0">
          <defs>
            <path id="AreaDissectionBasicShapes-MJX-18-TEX-I-1D442" d="M740 435Q740 320 676 213T511 42T304 -22Q207 -22 138 35T51 201Q50 209 50 244Q50 346 98 438T227 601Q351 704 476 704Q514 704 524 703Q621 689 680 617T740 435ZM637 476Q637 565 591 615T476 665Q396 665 322 605Q242 542 200 428T157 216Q157 126 200 73T314 19Q404 19 485 98T608 313Q637 408 637 476Z"/>
          </defs>
          <g stroke="currentColor" fill="currentColor" stroke-width="0" transform="scale(1,-1)">
            <g data-mml-node="math">
              <g data-mml-node="mi" data-semantic-type="identifier" data-semantic-role="latinletter" data-semantic-font="italic" data-semantic-annotation="clearspeak:simple" data-semantic-id="0" data-semantic-speech="upper O">
                <use data-c="1D442" xlink:href="#AreaDissectionBasicShapes-MJX-18-TEX-I-1D442"/>
              </g>
            </g>
          </g>
        </svg>
      </g>
    </g>
    <circle cx="301.1" cy="311.0" r="4" stroke="black" stroke-width="2" fill="black"/>
  </g>
  <path id="AreaDissectionBasicShapes-__path-6" d="M 301.1 203.0 L 301.1 311.0" stroke="#777" stroke-width="2" stroke-dasharray="6 6" fill="none" clip-path="url(#AreaDissectionBasicShapes-__clipPath-1)"/>
  <g id="AreaDissectionBasicShapes-__label-22" transform="translate(248.9,307.0) scale(0.8,0.8) translate(-19.6,-10.6)">
    <g id="AreaDissectionBasicShapes-__g-37">
      <text font-family="sans-serif" font-size="14" x="0.0" y="10.4">6 cm.</text>
    </g>
  </g>
  <g id="AreaDissectionBasicShapes-__label-23" transform="translate(388.2,307.0) scale(0.8,0.8) translate(-24.0,-10.6)">
    <g id="AreaDissectionBasicShapes-__g-38">
      <text font-family="sans-serif" font-size="14" x="0.0" y="10.4">10 cm.</text>
    </g>
  </g>
  <g id="AreaDissectionBasicShapes-__label-24" transform="translate(388.2,207.0) scale(0.8,0.8) translate(-24.0,-0.0)">
    <g id="AreaDissectionBasicShapes-__g-39">
      <text font-family="sans-serif" font-size="14" x="0.0" y="10.4">10 cm.</text>
    </g>
  </g>
  <g id="AreaDissectionBasicShapes-__label-25" transform="translate(479.3,257.0) scale(0.8,0.8) translate(0.0,-5.3)">
    <g id="AreaDissectionBasicShapes-__g-40">
      <text font-family="sans-serif" font-size="14" x="0.0" y="10.4">6 cm.</text>
    </g>
  </g>
  <g id="AreaDissectionBasicShapes-__label-26" transform="translate(301.1,320.4) scale(0.8,0.8) translate(-24.0,-0.0)">
    <g id="AreaDissectionBasicShapes-__g-41">
      <text font-family="sans-serif" font-size="14" x="0.0" y="10.4">16 cm.</text>
    </g>
  </g>
  <g id="AreaDissectionBasicShapes-__label-27" transform="translate(336.0,347.0) translate(-65.7,-7.6)">
    <g id="AreaDissectionBasicShapes-__g-42">
      <text font-family="sans-serif" font-size="14" font-weight="bold" x="0.0" y="12.4">Trapezoid</text>
      <svg xmlns:xlink="http://www.w3.org/1999/xlink" style="vertical-align: -0.400px" width="48.992px" height="12.760px" role="img" focusable="false" viewBox="0 -683 2707 705" x="82.5" y="0.0">
        <defs>
          <path id="AreaDissectionBasicShapes-MJX-19-TEX-I-1D43C" d="M43 1Q26 1 26 10Q26 12 29 24Q34 43 39 45Q42 46 54 46H60Q120 46 136 53Q137 53 138 54Q143 56 149 77T198 273Q210 318 216 344Q286 624 286 626Q284 630 284 631Q274 637 213 637H193Q184 643 189 662Q193 677 195 680T209 683H213Q285 681 359 681Q481 681 487 683H497Q504 676 504 672T501 655T494 639Q491 637 471 637Q440 637 407 634Q393 631 388 623Q381 609 337 432Q326 385 315 341Q245 65 245 59Q245 52 255 50T307 46H339Q345 38 345 37T342 19Q338 6 332 0H316Q279 2 179 2Q143 2 113 2T65 2T43 1Z"/>
          <path id="AreaDissectionBasicShapes-MJX-19-TEX-N-2062" d=""/>
          <path id="AreaDissectionBasicShapes-MJX-19-TEX-I-1D43D" d="M447 625Q447 637 354 637H329Q323 642 323 645T325 664Q329 677 335 683H352Q393 681 498 681Q541 681 568 681T605 682T619 682Q633 682 633 672Q633 670 630 658Q626 642 623 640T604 637Q552 637 545 623Q541 610 483 376Q420 128 419 127Q397 64 333 21T195 -22Q137 -22 97 8T57 88Q57 130 80 152T132 174Q177 174 182 130Q182 98 164 80T123 56Q115 54 115 53T122 44Q148 15 197 15Q235 15 271 47T324 130Q328 142 387 380T447 625Z"/>
          <path id="AreaDissectionBasicShapes-MJX-19-TEX-I-1D43E" d="M285 628Q285 635 228 637Q205 637 198 638T191 647Q191 649 193 661Q199 681 203 682Q205 683 214 683H219Q260 681 355 681Q389 681 418 681T463 682T483 682Q500 682 500 674Q500 669 497 660Q496 658 496 654T495 648T493 644T490 641T486 639T479 638T470 637T456 637Q416 636 405 634T387 623L306 305Q307 305 490 449T678 597Q692 611 692 620Q692 635 667 637Q651 637 651 648Q651 650 654 662T659 677Q662 682 676 682Q680 682 711 681T791 680Q814 680 839 681T869 682Q889 682 889 672Q889 650 881 642Q878 637 862 637Q787 632 726 586Q710 576 656 534T556 455L509 418L518 396Q527 374 546 329T581 244Q656 67 661 61Q663 59 666 57Q680 47 717 46H738Q744 38 744 37T741 19Q737 6 731 0H720Q680 3 625 3Q503 3 488 0H478Q472 6 472 9T474 27Q478 40 480 43T491 46H494Q544 46 544 71Q544 75 517 141T485 216L427 354L359 301L291 248L268 155Q245 63 245 58Q245 51 253 49T303 46H334Q340 37 340 35Q340 19 333 5Q328 0 317 0Q314 0 280 1T180 2Q118 2 85 2T49 1Q31 1 31 11Q31 13 34 25Q38 41 42 43T65 46Q92 46 125 49Q139 52 144 61Q147 65 216 339T285 628Z"/>
          <path id="AreaDissectionBasicShapes-MJX-19-TEX-I-1D43F" d="M228 637Q194 637 192 641Q191 643 191 649Q191 673 202 682Q204 683 217 683Q271 680 344 680Q485 680 506 683H518Q524 677 524 674T522 656Q517 641 513 637H475Q406 636 394 628Q387 624 380 600T313 336Q297 271 279 198T252 88L243 52Q243 48 252 48T311 46H328Q360 46 379 47T428 54T478 72T522 106T564 161Q580 191 594 228T611 270Q616 273 628 273H641Q647 264 647 262T627 203T583 83T557 9Q555 4 553 3T537 0T494 -1Q483 -1 418 -1T294 0H116Q32 0 32 10Q32 17 34 24Q39 43 44 45Q48 46 59 46H65Q92 46 125 49Q139 52 144 61Q147 65 216 339T285 628Q285 635 228 637Z"/>
        </defs>
        <g stroke="currentColor" fill="currentColor" stroke-width="0" transform="scale(1,-1)">
          <g data-mml-node="math" data-semantic-type="infixop" data-semantic-role="implicit" data-semantic-annotation="clearspeak:unit" data-semantic-id="7" data-semantic-children="0,1,2,3" data-semantic-content="4,5,6" data-semantic-speech="upper I upper J upper K upper L">
            <g data-mml-node="mi" data-semantic-type="identifier" data-semantic-role="latinletter" data-semantic-font="italic" data-semantic-annotation="clearspeak:simple" data-semantic-id="0" data-semantic-parent="7" data-semantic-speech="upper I">
              <use data-c="1D43C" xlink:href="#AreaDissectionBasicShapes-MJX-19-TEX-I-1D43C"/>
            </g>
            <g data-mml-node="mo" data-semantic-type="operator" data-semantic-role="multiplication" data-semantic-id="4" data-semantic-parent="7" data-semantic-added="true" data-semantic-operator="infixop,⁢" data-semantic-speech="times" transform="translate(504,0)">
              <use data-c="2062" xlink:href="#AreaDissectionBasicShapes-MJX-19-TEX-N-2062"/>
            </g>
            <g data-mml-node="mi" data-semantic-type="identifier" data-semantic-role="latinletter" data-semantic-font="italic" data-semantic-annotation="clearspeak:simple" data-semantic-id="1" data-semantic-parent="7" data-semantic-speech="upper J" transform="translate(504,0)">
              <use data-c="1D43D" xlink:href="#AreaDissectionBasicShapes-MJX-19-TEX-I-1D43D"/>
            </g>
            <g data-mml-node="mo" data-semantic-type="operator" data-semantic-role="multiplication" data-semantic-id="5" data-semantic-parent="7" data-semantic-added="true" data-semantic-operator="infixop,⁢" data-semantic-speech="times" transform="translate(1137,0)">
              <use data-c="2062" xlink:href="#AreaDissectionBasicShapes-MJX-19-TEX-N-2062"/>
            </g>
            <g data-mml-node="mi" data-semantic-type="identifier" data-semantic-role="latinletter" data-semantic-font="italic" data-semantic-annotation="clearspeak:simple" data-semantic-id="2" data-semantic-parent="7" data-semantic-speech="upper K" transform="translate(1137,0)">
              <use data-c="1D43E" xlink:href="#AreaDissectionBasicShapes-MJX-19-TEX-I-1D43E"/>
            </g>
            <g data-mml-node="mo" data-semantic-type="operator" data-semantic-role="multiplication" data-semantic-id="6" data-semantic-parent="7" data-semantic-added="true" data-semantic-operator="infixop,⁢" data-semantic-speech="times" transform="translate(2026,0)">
              <use data-c="2062" xlink:href="#AreaDissectionBasicShapes-MJX-19-TEX-N-2062"/>
            </g>
            <g data-mml-node="mi" data-semantic-type="identifier" data-semantic-role="latinletter" data-semantic-font="italic" data-semantic-annotation="clearspeak:simple" data-semantic-id="3" data-semantic-parent="7" data-semantic-speech="upper L" transform="translate(2026,0)">
              <use data-c="1D43F" xlink:href="#AreaDissectionBasicShapes-MJX-19-TEX-I-1D43F"/>
            </g>
          </g>
        </g>
      </svg>
    </g>
  </g>
</svg>
